<?xml version="1.0" encoding="UTF-8" standalone="no"?>
<!-- Generator: Adobe Illustrator 16.0.3, SVG Export Plug-In . SVG Version: 6.00 Build 0)  -->

<svg
   xmlns:osb="http://www.openswatchbook.org/uri/2009/osb"
   xmlns:dc="http://purl.org/dc/elements/1.1/"
   xmlns:cc="http://creativecommons.org/ns#"
   xmlns:rdf="http://www.w3.org/1999/02/22-rdf-syntax-ns#"
   xmlns:svg="http://www.w3.org/2000/svg"
   xmlns="http://www.w3.org/2000/svg"
   xmlns:xlink="http://www.w3.org/1999/xlink"
   xmlns:sodipodi="http://sodipodi.sourceforge.net/DTD/sodipodi-0.dtd"
   xmlns:inkscape="http://www.inkscape.org/namespaces/inkscape"
   version="1.1"
   id="Ebene_1"
   x="0px"
   y="0px"
   width="505"
   height="155"
   viewBox="0 0 504.99999 155"
   enable-background="new 0 0 566.929 458.929"
   xml:space="preserve"
   inkscape:version="0.91 r13725"
   sodipodi:docname="system.svg"><metadata
     id="metadata3367"><rdf:RDF><cc:Work
         rdf:about=""><dc:format>image/svg+xml</dc:format><dc:type
           rdf:resource="http://purl.org/dc/dcmitype/StillImage" /><dc:title></dc:title></cc:Work></rdf:RDF></metadata><defs
     id="defs3365"><linearGradient
       id="linearGradient5671"
       osb:paint="solid"><stop
         style="stop-color:#000000;stop-opacity:1;"
         offset="0"
         id="stop5673" /></linearGradient><linearGradient
       inkscape:collect="always"
       id="linearGradient5651"><stop
         style="stop-color:#ff8800;stop-opacity:1;"
         offset="0"
         id="stop5653" /><stop
         style="stop-color:#ff8800;stop-opacity:0;"
         offset="1"
         id="stop5655" /></linearGradient><radialGradient
       inkscape:collect="always"
       xlink:href="#linearGradient5651"
       id="radialGradient5657"
       cx="286.58636"
       cy="312.82358"
       fx="286.58636"
       fy="312.82358"
       r="250.29474"
       gradientTransform="matrix(1,0,0,0.27059769,0,228.17424)"
       gradientUnits="userSpaceOnUse" /><linearGradient
       inkscape:collect="always"
       xlink:href="#linearGradient5671"
       id="linearGradient5675"
       x1="36.291626"
       y1="312.82358"
       x2="536.8811"
       y2="312.82358"
       gradientUnits="userSpaceOnUse" /></defs><sodipodi:namedview
     pagecolor="#ffffff"
     bordercolor="#666666"
     borderopacity="1"
     objecttolerance="10"
     gridtolerance="10"
     guidetolerance="10"
     inkscape:pageopacity="0"
     inkscape:pageshadow="2"
     inkscape:window-width="1366"
     inkscape:window-height="706"
     id="namedview3363"
     showgrid="false"
     showguides="false"
     borderlayer="false"
     inkscape:zoom="1.3475248"
     inkscape:cx="285.68234"
     inkscape:cy="4.1807438"
     inkscape:window-x="-8"
     inkscape:window-y="-8"
     inkscape:window-maximized="1"
     inkscape:current-layer="Ebene_1"><inkscape:grid
       type="xygrid"
       id="grid5695" /></sodipodi:namedview><g
     style="font-style:normal;font-variant:normal;font-weight:bold;font-stretch:normal;font-size:170.94393921px;line-height:7.00000003%;font-family:Aharoni;-inkscape-font-specification:'Aharoni, Bold';text-align:start;letter-spacing:0px;word-spacing:-8.29310989px;writing-mode:lr-tb;text-anchor:start;fill:#000000;fill-opacity:1;stroke:#000000;stroke-width:7;stroke-linecap:round;stroke-linejoin:round;stroke-miterlimit:4;stroke-dasharray:none;stroke-opacity:1"
     id="text3373-5"><path
       d="m 95.598526,147.08104 -27.37774,0 0,-8.59728 q -3.92303,4.92466 -7.929529,7.17831 -7.011372,3.92303 -15.942525,3.92303 -14.440089,0 -25.708366,-9.93278 -13.4384643,-11.85255 -13.4384643,-31.38424 0,-19.865551 13.7723393,-31.718109 10.934402,-9.431966 25.124084,-9.431966 8.263404,0 15.525182,3.505687 4.173436,2.003249 8.597279,6.594029 l 0,-7.595654 27.37774,0 0,77.458973 z M 69.055473,108.35155 q 0,-7.34524 -5.175061,-12.436836 -5.175061,-5.175061 -12.520308,-5.175061 -8.179935,0 -13.438464,6.176686 -4.256905,5.008121 -4.256905,11.435211 0,6.42709 4.256905,11.43522 5.175061,6.17668 13.438464,6.17668 7.428716,0 12.520308,-5.09159 5.175061,-5.09159 5.175061,-12.52031 z"
       style="line-height:7.00000003%;letter-spacing:-10.96000004px;word-spacing:-12.86999989px;fill:#000000;fill-opacity:1;stroke:#000000;stroke-width:7;stroke-linecap:round;stroke-linejoin:round;stroke-miterlimit:4;stroke-dasharray:none;stroke-opacity:1"
       id="path3364" /><path
       d="m 161.59669,94.913089 q -5.75935,-2.754468 -11.68563,-2.754468 -13.52193,0 -17.52843,11.017869 -1.50243,4.0065 -1.50243,10.76747 l 0,33.13708 -27.37774,0 0,-77.458973 27.37774,0 0,12.687245 q 4.34037,-6.760966 9.34849,-9.76584 6.76097,-4.006498 16.026,-4.006498 2.17018,0 5.342,0.250406 l 0,26.125709 z"
       style="line-height:7.00000003%;letter-spacing:-10.96000004px;word-spacing:-12.86999989px;fill:#000000;fill-opacity:1;stroke:#000000;stroke-width:7;stroke-linecap:round;stroke-linejoin:round;stroke-miterlimit:4;stroke-dasharray:none;stroke-opacity:1"
       id="path3366" /><path
       d="m 221.41816,145.41167 q -8.51381,4.2569 -17.8623,4.2569 -21.20106,0 -33.6379,-14.35662 -10.01624,-11.60215 -10.01624,-26.87693 0,-15.358243 10.01624,-26.876926 12.43684,-14.35662 33.6379,-14.35662 9.51543,0 17.8623,4.340374 l 0,23.287773 q -7.26178,-5.091592 -14.18968,-5.091592 -8.17993,0 -13.52193,5.258529 -5.342,5.258532 -5.342,13.438462 0,8.17994 5.342,13.43847 5.342,5.25853 13.52193,5.25853 6.84444,0 14.18968,-5.00813 l 0,23.28778 z"
       style="line-height:7.00000003%;letter-spacing:-10.96000004px;word-spacing:-12.86999989px;fill:#000000;fill-opacity:1;stroke:#000000;stroke-width:7;stroke-linecap:round;stroke-linejoin:round;stroke-miterlimit:4;stroke-dasharray:none;stroke-opacity:1"
       id="path3368" /><path
       d="m 313.45856,147.08104 -27.37774,0 0,-8.59728 q -3.92303,4.92466 -7.92953,7.17831 -7.01137,3.92303 -15.94253,3.92303 -14.44009,0 -25.70836,-9.93278 -13.43847,-11.85255 -13.43847,-31.38424 0,-19.865551 13.77234,-31.718109 10.9344,-9.431966 25.12409,-9.431966 8.2634,0 15.52518,3.505687 4.17343,2.003249 8.59728,6.594029 l 0,-7.595654 27.37774,0 0,77.458973 z M 286.9155,108.35155 q 0,-7.34524 -5.17506,-12.436836 -5.17506,-5.175061 -12.5203,-5.175061 -8.17994,0 -13.43847,6.176686 -4.2569,5.008121 -4.2569,11.435211 0,6.42709 4.2569,11.43522 5.17506,6.17668 13.43847,6.17668 7.42871,0 12.5203,-5.09159 5.17506,-5.09159 5.17506,-12.52031 z"
       style="line-height:7.00000003%;letter-spacing:-10.96000004px;word-spacing:-12.86999989px;fill:#000000;fill-opacity:1;stroke:#000000;stroke-width:7;stroke-linecap:round;stroke-linejoin:round;stroke-miterlimit:4;stroke-dasharray:none;stroke-opacity:1"
       id="path3370" /><path
       d="m 408.67076,147.08104 -27.37774,0 0,-8.59728 q -3.92303,4.92466 -7.92953,7.17831 -7.01137,3.92303 -15.94252,3.92303 -14.44009,0 -25.70837,-9.93278 -13.43846,-11.85255 -13.43846,-31.38424 0,-19.865551 13.77234,-31.718109 10.9344,-9.431966 25.12408,-9.431966 8.2634,0 15.52518,3.505687 4.17344,2.003249 8.59728,6.594029 l 0,-55.506699 27.37774,0 0,125.370018 z m -26.54305,-38.72949 q 0,-7.34524 -5.17506,-12.436836 -5.17506,-5.175061 -12.52031,-5.175061 -8.17994,0 -13.43846,6.176686 -4.25691,5.008121 -4.25691,11.435211 0,6.42709 4.25691,11.43522 5.17506,6.17668 13.43846,6.17668 7.42872,0 12.52031,-5.09159 5.17506,-5.09159 5.17506,-12.52031 z"
       style="line-height:7.00000003%;letter-spacing:-10.96000004px;word-spacing:-12.86999989px;fill:#000000;fill-opacity:1;stroke:#000000;stroke-width:7;stroke-linecap:round;stroke-linejoin:round;stroke-miterlimit:4;stroke-dasharray:none;stroke-opacity:1"
       id="path3372" /><path
       d="m 498.79139,113.35968 -57.59342,0 q 0,17.44496 16.86068,17.44496 8.59728,0 13.18806,-7.34525 l 26.45958,0 q -3.17181,10.51706 -9.34849,16.2764 -11.18481,10.43359 -29.96527,10.43359 -23.87206,0 -35.89155,-14.52356 -9.01462,-10.85093 -9.01462,-26.45958 0,-18.530056 11.26827,-30.132208 11.26828,-11.602152 31.80159,-11.602152 25.29102,0 36.14195,18.363119 6.09322,10.350121 6.09322,24.038991 l 0,3.50569 z M 473.24996,97.667557 q -2.92141,-12.854183 -15.60865,-12.854183 -7.01137,0 -11.35175,4.089967 -3.42221,3.25528 -4.34037,8.764216 l 31.30077,0 z"
       style="line-height:7.00000003%;letter-spacing:-10.96000004px;word-spacing:-12.86999989px;fill:#000000;fill-opacity:1;stroke:#000000;stroke-width:7;stroke-linecap:round;stroke-linejoin:round;stroke-miterlimit:4;stroke-dasharray:none;stroke-opacity:1"
       id="path3374" /></g><g
     style="font-style:normal;font-variant:normal;font-weight:bold;font-stretch:normal;font-size:170.94393921px;line-height:7.00000003%;font-family:Aharoni;-inkscape-font-specification:'Aharoni, Bold';text-align:start;letter-spacing:0px;word-spacing:-8.29310989px;writing-mode:lr-tb;text-anchor:start;fill:#ff8800;fill-opacity:1;stroke:#000000;stroke-width:7;stroke-linecap:round;stroke-linejoin:round;stroke-miterlimit:4;stroke-dasharray:none;stroke-opacity:1;color:#000000;clip-rule:nonzero;display:inline;overflow:visible;visibility:visible;opacity:1;isolation:auto;mix-blend-mode:normal;color-interpolation:sRGB;color-interpolation-filters:linearRGB;solid-color:#000000;solid-opacity:1;fill-rule:nonzero;stroke-dashoffset:0;filter-blend-mode:normal;filter-gaussianBlur-deviation:0;color-rendering:auto;image-rendering:auto;shape-rendering:auto;text-rendering:auto;enable-background:accumulate"
     id="text3373-5-8"><path
       d="m 95.598526,131.08104 -27.37774,0 0,-8.59728 q -3.92303,4.92466 -7.929529,7.17831 -7.011372,3.92303 -15.942525,3.92303 -14.440089,0 -25.708366,-9.93278 Q 5.2019017,111.79977 5.2019017,92.268084 q 0,-19.865555 13.7723393,-31.718113 10.934402,-9.431966 25.124084,-9.431966 8.263404,0 15.525182,3.505687 4.173436,2.003249 8.597279,6.594029 l 0,-7.595654 27.37774,0 0,77.458973 z M 69.055473,92.351553 q 0,-7.345247 -5.175061,-12.436839 -5.175061,-5.175061 -12.520308,-5.175061 -8.179935,0 -13.438464,6.176686 -4.256905,5.008123 -4.256905,11.435214 0,6.427092 4.256905,11.435217 5.175061,6.17668 13.438464,6.17668 7.428716,0 12.520308,-5.09159 5.175061,-5.091591 5.175061,-12.520307 z"
       style="line-height:7.00000003%;letter-spacing:-10.96000004px;word-spacing:-12.86999989px;fill:#ff8800;fill-opacity:1;stroke:#000000;stroke-width:7;stroke-linecap:round;stroke-linejoin:round;stroke-miterlimit:4;stroke-dasharray:none;stroke-opacity:1;color:#000000;clip-rule:nonzero;display:inline;overflow:visible;visibility:visible;isolation:auto;mix-blend-mode:normal;color-interpolation:sRGB;color-interpolation-filters:linearRGB;solid-color:#000000;solid-opacity:1;fill-rule:nonzero;stroke-dashoffset:0;filter-blend-mode:normal;filter-gaussianBlur-deviation:0;color-rendering:auto;image-rendering:auto;shape-rendering:auto;text-rendering:auto;enable-background:accumulate"
       id="path3351" /><path
       d="m 161.59669,78.913089 q -5.75935,-2.754468 -11.68563,-2.754468 -13.52193,0 -17.52843,11.017872 -1.50243,4.006498 -1.50243,10.767464 l 0,33.137083 -27.37774,0 0,-77.458973 27.37774,0 0,12.687245 q 4.34037,-6.760966 9.34849,-9.76584 6.76097,-4.006498 16.026,-4.006498 2.17018,0 5.342,0.250406 l 0,26.125709 z"
       style="line-height:7.00000003%;letter-spacing:-10.96000004px;word-spacing:-12.86999989px;fill:#ff8800;fill-opacity:1;stroke:#000000;stroke-width:7;stroke-linecap:round;stroke-linejoin:round;stroke-miterlimit:4;stroke-dasharray:none;stroke-opacity:1;color:#000000;clip-rule:nonzero;display:inline;overflow:visible;visibility:visible;isolation:auto;mix-blend-mode:normal;color-interpolation:sRGB;color-interpolation-filters:linearRGB;solid-color:#000000;solid-opacity:1;fill-rule:nonzero;stroke-dashoffset:0;filter-blend-mode:normal;filter-gaussianBlur-deviation:0;color-rendering:auto;image-rendering:auto;shape-rendering:auto;text-rendering:auto;enable-background:accumulate"
       id="path3353" /><path
       d="m 221.41816,129.41167 q -8.51381,4.2569 -17.8623,4.2569 -21.20106,0 -33.6379,-14.35662 -10.01624,-11.60215 -10.01624,-26.876928 0,-15.358245 10.01624,-26.876928 12.43684,-14.35662 33.6379,-14.35662 9.51543,0 17.8623,4.340374 l 0,23.287773 q -7.26178,-5.091592 -14.18968,-5.091592 -8.17993,0 -13.52193,5.258529 -5.342,5.258529 -5.342,13.438464 0,8.179938 5.342,13.438468 5.342,5.25853 13.52193,5.25853 6.84444,0 14.18968,-5.00813 l 0,23.28778 z"
       style="line-height:7.00000003%;letter-spacing:-10.96000004px;word-spacing:-12.86999989px;fill:#ff8800;fill-opacity:1;stroke:#000000;stroke-width:7;stroke-linecap:round;stroke-linejoin:round;stroke-miterlimit:4;stroke-dasharray:none;stroke-opacity:1;color:#000000;clip-rule:nonzero;display:inline;overflow:visible;visibility:visible;isolation:auto;mix-blend-mode:normal;color-interpolation:sRGB;color-interpolation-filters:linearRGB;solid-color:#000000;solid-opacity:1;fill-rule:nonzero;stroke-dashoffset:0;filter-blend-mode:normal;filter-gaussianBlur-deviation:0;color-rendering:auto;image-rendering:auto;shape-rendering:auto;text-rendering:auto;enable-background:accumulate"
       id="path3355" /><path
       d="m 313.45856,131.08104 -27.37774,0 0,-8.59728 q -3.92303,4.92466 -7.92953,7.17831 -7.01137,3.92303 -15.94253,3.92303 -14.44009,0 -25.70836,-9.93278 -13.43847,-11.85255 -13.43847,-31.384236 0,-19.865555 13.77234,-31.718113 10.9344,-9.431966 25.12409,-9.431966 8.2634,0 15.52518,3.505687 4.17343,2.003249 8.59728,6.594029 l 0,-7.595654 27.37774,0 0,77.458973 z M 286.9155,92.351553 q 0,-7.345247 -5.17506,-12.436839 -5.17506,-5.175061 -12.5203,-5.175061 -8.17994,0 -13.43847,6.176686 -4.2569,5.008123 -4.2569,11.435214 0,6.427092 4.2569,11.435217 5.17506,6.17668 13.43847,6.17668 7.42871,0 12.5203,-5.09159 5.17506,-5.091591 5.17506,-12.520307 z"
       style="line-height:7.00000003%;letter-spacing:-10.96000004px;word-spacing:-12.86999989px;fill:#ff8800;fill-opacity:1;stroke:#000000;stroke-width:7;stroke-linecap:round;stroke-linejoin:round;stroke-miterlimit:4;stroke-dasharray:none;stroke-opacity:1;color:#000000;clip-rule:nonzero;display:inline;overflow:visible;visibility:visible;isolation:auto;mix-blend-mode:normal;color-interpolation:sRGB;color-interpolation-filters:linearRGB;solid-color:#000000;solid-opacity:1;fill-rule:nonzero;stroke-dashoffset:0;filter-blend-mode:normal;filter-gaussianBlur-deviation:0;color-rendering:auto;image-rendering:auto;shape-rendering:auto;text-rendering:auto;enable-background:accumulate"
       id="path3357" /><path
       d="m 408.67076,131.08104 -27.37774,0 0,-8.59728 q -3.92303,4.92466 -7.92953,7.17831 -7.01137,3.92303 -15.94252,3.92303 -14.44009,0 -25.70837,-9.93278 -13.43846,-11.85255 -13.43846,-31.384236 0,-19.865555 13.77234,-31.718113 10.9344,-9.431966 25.12408,-9.431966 8.2634,0 15.52518,3.505687 4.17344,2.003249 8.59728,6.594029 l 0,-55.5066995 27.37774,0 0,125.3700185 z M 382.12771,92.351553 q 0,-7.345247 -5.17506,-12.436839 -5.17506,-5.175061 -12.52031,-5.175061 -8.17994,0 -13.43846,6.176686 -4.25691,5.008123 -4.25691,11.435214 0,6.427092 4.25691,11.435217 5.17506,6.17668 13.43846,6.17668 7.42872,0 12.52031,-5.09159 5.17506,-5.091591 5.17506,-12.520307 z"
       style="line-height:7.00000003%;letter-spacing:-10.96000004px;word-spacing:-12.86999989px;fill:#ff8800;fill-opacity:1;stroke:#000000;stroke-width:7;stroke-linecap:round;stroke-linejoin:round;stroke-miterlimit:4;stroke-dasharray:none;stroke-opacity:1;color:#000000;clip-rule:nonzero;display:inline;overflow:visible;visibility:visible;isolation:auto;mix-blend-mode:normal;color-interpolation:sRGB;color-interpolation-filters:linearRGB;solid-color:#000000;solid-opacity:1;fill-rule:nonzero;stroke-dashoffset:0;filter-blend-mode:normal;filter-gaussianBlur-deviation:0;color-rendering:auto;image-rendering:auto;shape-rendering:auto;text-rendering:auto;enable-background:accumulate"
       id="path3359" /><path
       d="m 498.79139,97.359676 -57.59342,0 q 0,17.444964 16.86068,17.444964 8.59728,0 13.18806,-7.34525 l 26.45958,0 q -3.17181,10.51706 -9.34849,16.2764 -11.18481,10.43359 -29.96527,10.43359 -23.87206,0 -35.89155,-14.52356 -9.01462,-10.85093 -9.01462,-26.45958 0,-18.530056 11.26827,-30.132208 11.26828,-11.602152 31.80159,-11.602152 25.29102,0 36.14195,18.363119 6.09322,10.350121 6.09322,24.038991 l 0,3.505686 z M 473.24996,81.667557 q -2.92141,-12.854183 -15.60865,-12.854183 -7.01137,0 -11.35175,4.089967 -3.42221,3.25528 -4.34037,8.764216 l 31.30077,0 z"
       style="line-height:7.00000003%;letter-spacing:-10.96000004px;word-spacing:-12.86999989px;fill:#ff8800;fill-opacity:1;stroke:#000000;stroke-width:7;stroke-linecap:round;stroke-linejoin:round;stroke-miterlimit:4;stroke-dasharray:none;stroke-opacity:1;color:#000000;clip-rule:nonzero;display:inline;overflow:visible;visibility:visible;isolation:auto;mix-blend-mode:normal;color-interpolation:sRGB;color-interpolation-filters:linearRGB;solid-color:#000000;solid-opacity:1;fill-rule:nonzero;stroke-dashoffset:0;filter-blend-mode:normal;filter-gaussianBlur-deviation:0;color-rendering:auto;image-rendering:auto;shape-rendering:auto;text-rendering:auto;enable-background:accumulate"
       id="path3361" /></g><g
     transform="translate(0.31782,0.46024292)"
     style="font-style:normal;font-variant:normal;font-weight:bold;font-stretch:normal;font-size:170.94393921px;line-height:7.00000003%;font-family:Aharoni;-inkscape-font-specification:'Aharoni, Bold';text-align:start;letter-spacing:0px;word-spacing:-8.29310989px;writing-mode:lr-tb;text-anchor:start;fill:#ff8800;fill-opacity:1;stroke:#000000;stroke-width:7;stroke-linecap:round;stroke-linejoin:round;stroke-miterlimit:4;stroke-dasharray:none;stroke-opacity:1"
     id="text3373-5-8-2"><path
       style="color:#000000;font-style:normal;font-variant:normal;font-weight:normal;font-stretch:normal;font-size:medium;line-height:7.00000003%;font-family:Aharoni;-inkscape-font-specification:'Aharoni, Bold';text-indent:0;text-align:start;text-decoration:none;text-decoration-line:none;text-decoration-style:solid;text-decoration-color:#000000;letter-spacing:-10.96000004px;word-spacing:-12.86999989px;text-transform:none;direction:ltr;block-progression:tb;writing-mode:lr-tb;baseline-shift:baseline;text-anchor:start;white-space:normal;clip-rule:nonzero;display:inline;overflow:visible;visibility:visible;opacity:1;isolation:auto;mix-blend-mode:normal;color-interpolation:sRGB;color-interpolation-filters:linearRGB;solid-color:#000000;solid-opacity:1;fill:#000000;fill-opacity:1;fill-rule:nonzero;stroke:none;stroke-width:7;stroke-linecap:round;stroke-linejoin:round;stroke-miterlimit:4;stroke-dasharray:none;stroke-dashoffset:0;stroke-opacity:1;color-rendering:auto;image-rendering:auto;shape-rendering:auto;text-rendering:auto;enable-background:accumulate"
       d="m 44.097656,47.617188 c -10.235278,0 -19.553552,3.506131 -27.410156,10.283203 -9.9115471,8.532053 -14.9863281,20.316665 -14.9863281,34.367187 0,13.823832 4.9507447,25.477202 14.6250001,34.009762 8.068521,7.11226 17.594206,10.8086 28.023437,10.8086 6.466563,0 12.423506,-1.44458 17.650391,-4.36914 a 3.50035,3.50035 0 0 0 0.0078,-0.004 c 0.938726,-0.52803 1.814756,-1.29819 2.712891,-1.98242 l 0,0.34961 a 3.50035,3.50035 0 0 0 3.5,3.5 l 27.376953,0 a 3.50035,3.50035 0 0 0 3.5,-3.5 l 0,-77.458986 a 3.50035,3.50035 0 0 0 -3.5,-3.5 l -27.376953,0 a 3.50035,3.50035 0 0 0 -3.5,3.5 l 0,0.08008 C 63.537462,52.881426 62.356154,52.054667 61.144531,51.472656 55.835267,48.909563 50.101542,47.617188 44.097656,47.617188 Z m 0,7 c 5.013987,0 9.6308,1.047047 14.003906,3.158203 a 3.50035,3.50035 0 0 0 0.0078,0.0039 c 2.276918,1.09292 4.84766,3.019498 7.591797,5.867187 a 3.50035,3.50035 0 0 0 6.019531,-2.429687 l 0,-4.095703 20.376953,0 0,70.458986 -20.376953,0 0,-5.0957 a 3.50035,3.50035 0 0 0 -6.238281,-2.18165 c -2.413632,3.02989 -4.754882,5.09658 -6.900391,6.30469 -5.26e-4,3e-4 -0.0014,-2.9e-4 -0.002,0 -4.121225,2.30556 -8.789523,3.47852 -14.230469,3.47852 -8.824221,0 -16.438683,-2.92714 -23.394531,-9.0586 C 12.711381,113.75651 8.7011719,104.486 8.7011719,92.267578 c 0,-12.43488 4.1078641,-21.793385 12.5566401,-29.064453 a 3.50035,3.50035 0 0 0 0.002,-0.002 c 6.722598,-5.798883 14.153593,-8.583985 22.83789,-8.583984 z m 7.261719,16.623046 c -6.334242,0 -12.017143,2.608336 -16.103516,7.408204 a 3.50035,3.50035 0 0 0 -0.002,0.002 c -3.31644,3.901694 -5.089843,8.643717 -5.089844,13.701171 10e-7,5.054187 1.771681,9.793098 5.083985,13.693358 4.038458,4.81381 9.735117,7.41797 16.111328,7.41797 5.747785,0 10.991244,-2.11703 14.986328,-6.10742 4.049511,-3.98989 6.208984,-9.243944 6.208985,-15.003908 0,-5.713584 -2.166274,-10.936778 -6.208985,-14.919921 -4.034283,-4.029708 -9.271784,-6.191407 -14.986328,-6.191407 z m 0,7 c 4.074862,0 7.182288,1.283851 10.046875,4.148438 a 3.50035,3.50035 0 0 0 0.01953,0.02148 c 2.850251,2.804279 4.128907,5.866545 4.128907,9.941406 0,4.139744 -1.285472,7.227819 -4.128907,10.025388 a 3.50035,3.50035 0 0 0 -0.01953,0.0195 c -2.792581,2.79258 -5.894023,4.06641 -10.046875,4.06641 -4.636882,0 -7.894773,-1.50899 -10.755859,-4.92383 a 3.50035,3.50035 0 0 0 -0.01563,-0.0195 c -2.359434,-2.775803 -3.423829,-5.655967 -3.423829,-9.167968 0,-3.511064 1.063761,-6.390896 3.421876,-9.166015 l 0.002,-0.002 c 2.924516,-3.434132 6.200139,-4.94336 10.771484,-4.94336 z"
       id="path3351-9"
       inkscape:connector-curvature="0" /><path
       style="color:#000000;font-style:normal;font-variant:normal;font-weight:normal;font-stretch:normal;font-size:medium;line-height:7.00000003%;font-family:Aharoni;-inkscape-font-specification:'Aharoni, Bold';text-indent:0;text-align:start;text-decoration:none;text-decoration-line:none;text-decoration-style:solid;text-decoration-color:#000000;letter-spacing:-10.96000004px;word-spacing:-12.86999989px;text-transform:none;direction:ltr;block-progression:tb;writing-mode:lr-tb;baseline-shift:baseline;text-anchor:start;white-space:normal;clip-rule:nonzero;display:inline;overflow:visible;visibility:visible;opacity:1;isolation:auto;mix-blend-mode:normal;color-interpolation:sRGB;color-interpolation-filters:linearRGB;solid-color:#000000;solid-opacity:1;fill:#000000;fill-opacity:1;fill-rule:nonzero;stroke:none;stroke-width:7;stroke-linecap:round;stroke-linejoin:round;stroke-miterlimit:4;stroke-dasharray:none;stroke-dashoffset:0;stroke-opacity:1;color-rendering:auto;image-rendering:auto;shape-rendering:auto;text-rendering:auto;enable-background:accumulate"
       d="m 156.25391,49.037109 c -6.68119,0 -12.69806,1.46763 -17.8086,4.496094 a 3.50035,3.50035 0 0 0 -0.0176,0.0098 c -1.43574,0.861444 -2.7366,2.084867 -4.04687,3.285156 l 0,-3.207031 a 3.50035,3.50035 0 0 0 -3.5,-3.5 l -27.37891,0 a 3.50035,3.50035 0 0 0 -3.5,3.5 l 0,77.458986 a 3.50035,3.50035 0 0 0 3.5,3.5 l 27.37891,0 a 3.50035,3.50035 0 0 0 3.5,-3.5 l 0,-33.136721 c 0,-4.248052 0.50494,-7.472157 1.2793,-9.537109 a 3.50035,3.50035 0 0 0 0.0117,-0.0332 c 2.23883,-6.156787 6.17427,-8.714844 14.23828,-8.714844 3.4086,0 6.75775,0.777401 10.17578,2.412109 a 3.50035,3.50035 0 0 0 5.01172,-3.15625 l 0,-26.126953 a 3.50035,3.50035 0 0 0 -3.22461,-3.488281 c -2.17698,-0.171866 -4.03774,-0.261719 -5.61914,-0.261719 z m 0,7 c 0.47752,0 1.26483,0.06702 1.84375,0.08789 l 0,17.851562 c -2.69563,-0.783287 -5.42279,-1.318359 -8.1875,-1.318359 -9.95803,0 -17.70096,4.782573 -20.8086,13.304688 -1.22501,3.274273 -1.7207,7.220756 -1.7207,11.980468 l 0,29.636721 -20.37891,0 0,-70.458986 20.37891,0 0,9.1875 a 3.50035,3.50035 0 0 0 6.44531,1.890625 c 2.68823,-4.187438 5.47109,-7.010939 8.19727,-8.648438 3.90227,-2.310073 8.56262,-3.513672 14.23047,-3.513672 z"
       id="path3353-9"
       inkscape:connector-curvature="0" /><path
       style="color:#000000;font-style:normal;font-variant:normal;font-weight:normal;font-stretch:normal;font-size:medium;line-height:7.00000003%;font-family:Aharoni;-inkscape-font-specification:'Aharoni, Bold';text-indent:0;text-align:start;text-decoration:none;text-decoration-line:none;text-decoration-style:solid;text-decoration-color:#000000;letter-spacing:-10.96000004px;word-spacing:-12.86999989px;text-transform:none;direction:ltr;block-progression:tb;writing-mode:lr-tb;baseline-shift:baseline;text-anchor:start;white-space:normal;clip-rule:nonzero;display:inline;overflow:visible;visibility:visible;opacity:1;isolation:auto;mix-blend-mode:normal;color-interpolation:sRGB;color-interpolation-filters:linearRGB;solid-color:#000000;solid-opacity:1;fill:#000000;fill-opacity:1;fill-rule:nonzero;stroke:none;stroke-width:7;stroke-linecap:round;stroke-linejoin:round;stroke-miterlimit:4;stroke-dasharray:none;stroke-dashoffset:0;stroke-opacity:1;color-rendering:auto;image-rendering:auto;shape-rendering:auto;text-rendering:auto;enable-background:accumulate"
       d="m 203.55664,47.701172 c -14.92407,0 -27.34753,5.249444 -36.2832,15.564453 -7.18051,8.25951 -10.8711,18.17209 -10.8711,29.169922 0,10.948213 3.69321,20.854193 10.86719,29.164063 a 3.50035,3.50035 0 0 0 0.004,0.004 c 8.93567,10.315 21.35913,15.56445 36.2832,15.56445 6.76358,0 13.29354,-1.55791 19.42774,-4.625 a 3.50035,3.50035 0 0 0 1.93359,-3.13086 l 0,-23.28906 a 3.50035,3.50035 0 0 0 -5.4707,-2.89063 c -4.47876,3.05371 -8.50945,4.40039 -12.21875,4.40039 -4.70329,0 -8.14156,-1.37475 -11.06641,-4.2539 -2.91475,-2.86921 -4.29688,-6.251976 -4.29688,-10.943363 0,-4.691385 1.38213,-8.07611 4.29688,-10.945313 2.92485,-2.879148 6.36312,-4.251953 11.06641,-4.251953 3.76117,0 7.76688,1.362998 12.17968,4.457031 a 3.50035,3.50035 0 0 0 5.50977,-2.865234 l 0,-23.289062 A 3.50035,3.50035 0 0 0 223.0332,52.4375 c -6.04757,-3.144741 -12.60078,-4.736328 -19.47656,-4.736328 z m 0,7 c 5.10302,0 9.83837,1.067497 14.36133,3.101562 l 0,15.029297 c -3.52495,-1.642189 -7.09964,-2.59375 -10.68945,-2.59375 -6.20329,0 -11.77875,2.131449 -15.97657,6.263672 -4.20792,4.142169 -6.38672,9.718399 -6.38672,15.933594 0,6.215197 2.1788,11.789473 6.38672,15.931643 4.19782,4.13222 9.77328,6.26562 15.97657,6.26562 3.57039,0 7.14427,-0.94232 10.68945,-2.57031 l 0,14.92773 c -4.6204,2.00884 -9.35254,3.17774 -14.36133,3.17774 -13.34401,0 -23.34736,-4.32129 -30.99414,-13.14844 -6.17778,-7.15827 -9.16016,-15.16824 -9.16016,-24.583983 0,-9.477961 2.98418,-17.482186 9.15625,-24.580078 a 3.50035,3.50035 0 0 0 0.004,-0.0059 c 7.64678,-8.827151 17.65013,-13.148437 30.99414,-13.148437 z"
       id="path3355-0"
       inkscape:connector-curvature="0" /><path
       style="color:#000000;font-style:normal;font-variant:normal;font-weight:normal;font-stretch:normal;font-size:medium;line-height:7.00000003%;font-family:Aharoni;-inkscape-font-specification:'Aharoni, Bold';text-indent:0;text-align:start;text-decoration:none;text-decoration-line:none;text-decoration-style:solid;text-decoration-color:#000000;letter-spacing:-10.96000004px;word-spacing:-12.86999989px;text-transform:none;direction:ltr;block-progression:tb;writing-mode:lr-tb;baseline-shift:baseline;text-anchor:start;white-space:normal;clip-rule:nonzero;display:inline;overflow:visible;visibility:visible;opacity:1;isolation:auto;mix-blend-mode:normal;color-interpolation:sRGB;color-interpolation-filters:linearRGB;solid-color:#000000;solid-opacity:1;fill:#000000;fill-opacity:1;fill-rule:nonzero;stroke:none;stroke-width:7;stroke-linecap:round;stroke-linejoin:round;stroke-miterlimit:4;stroke-dasharray:none;stroke-dashoffset:0;stroke-opacity:1;color-rendering:auto;image-rendering:auto;shape-rendering:auto;text-rendering:auto;enable-background:accumulate"
       d="m 261.95898,47.617188 c -10.23528,0 -19.55355,3.506131 -27.41015,10.283203 l 0.002,-0.0039 c -9.91434,8.532343 -14.98828,20.318567 -14.98828,34.371094 0,13.823832 4.94879,25.477202 14.62305,34.009762 8.06851,7.11226 17.5942,10.8086 28.02343,10.8086 6.46657,0 12.42351,-1.44458 17.6504,-4.36914 a 3.50035,3.50035 0 0 0 0.008,-0.004 c 0.93872,-0.52803 1.81475,-1.29819 2.71289,-1.98242 l 0,0.34961 a 3.50035,3.50035 0 0 0 3.5,3.5 l 27.3789,0 a 3.50035,3.50035 0 0 0 3.5,-3.5 l 0,-77.458986 a 3.50035,3.50035 0 0 0 -3.5,-3.5 l -27.3789,0 a 3.50035,3.50035 0 0 0 -3.5,3.5 l 0,0.08008 c -1.18278,-0.819423 -2.36309,-1.646639 -3.57422,-2.228516 l -0.004,-0.002 c -5.30816,-2.561828 -11.04057,-3.853515 -17.04297,-3.853515 z m 0,7 c 5.01399,0 9.6308,1.047047 14.00391,3.158203 a 3.50035,3.50035 0 0 0 0.006,0.0039 c 2.27691,1.09292 4.84765,3.019497 7.5918,5.867187 a 3.50035,3.50035 0 0 0 6.01953,-2.429687 l 0,-4.095703 20.3789,0 0,70.458986 -20.3789,0 0,-5.0957 a 3.50035,3.50035 0 0 0 -6.23633,-2.18165 c -2.41363,3.02989 -4.75683,5.09658 -6.90234,6.30469 -5.3e-4,3e-4 -0.001,-2.9e-4 -0.002,0 -4.12122,2.30556 -8.78951,3.47852 -14.23047,3.47852 -8.8237,0 -16.43706,-2.92788 -23.39257,-9.0586 -8.2437,-7.27083 -12.25391,-16.54134 -12.25391,-28.759762 0,-12.43488 4.10591,-21.793385 12.55469,-29.064453 a 3.50035,3.50035 0 0 0 0.004,-0.002 c 6.7226,-5.798883 14.15359,-8.583985 22.83789,-8.583984 z m 7.26172,16.623046 c -6.33424,0 -12.01714,2.608336 -16.10351,7.408204 a 3.50035,3.50035 0 0 0 -0.002,0.002 c -3.31643,3.901694 -5.08984,8.643718 -5.08984,13.701171 0,5.054187 1.77168,9.793098 5.08399,13.693358 4.03845,4.81381 9.73511,7.41797 16.11132,7.41797 5.74778,0 10.9893,-2.11703 14.98438,-6.10742 4.04951,-3.98989 6.21094,-9.243943 6.21094,-15.003908 0,-5.713584 -2.16823,-10.936778 -6.21094,-14.919921 -4.03428,-4.029706 -9.26984,-6.191407 -14.98438,-6.191407 z m 0,7 c 4.07486,0 7.18034,1.283851 10.04492,4.148438 a 3.50035,3.50035 0 0 0 0.0195,0.02148 c 2.85025,2.804279 4.13086,5.866545 4.13086,9.941406 0,4.139744 -1.28743,7.227819 -4.13086,10.025388 a 3.50035,3.50035 0 0 0 -0.0195,0.0195 c -2.79258,2.79258 -5.89207,4.06641 -10.04492,4.06641 -4.63688,0 -7.89477,-1.50899 -10.75586,-4.92383 a 3.50035,3.50035 0 0 0 -0.0156,-0.0195 c -2.35943,-2.775803 -3.42383,-5.655966 -3.42383,-9.167968 0,-3.511065 1.06376,-6.390896 3.42188,-9.166015 l 0.002,-0.002 c 2.92452,-3.434131 6.20013,-4.94336 10.77148,-4.94336 z"
       id="path3357-6"
       inkscape:connector-curvature="0" /><path
       style="color:#000000;font-style:normal;font-variant:normal;font-weight:normal;font-stretch:normal;font-size:medium;line-height:7.00000003%;font-family:Aharoni;-inkscape-font-specification:'Aharoni, Bold';text-indent:0;text-align:start;text-decoration:none;text-decoration-line:none;text-decoration-style:solid;text-decoration-color:#000000;letter-spacing:-10.96000004px;word-spacing:-12.86999989px;text-transform:none;direction:ltr;block-progression:tb;writing-mode:lr-tb;baseline-shift:baseline;text-anchor:start;white-space:normal;clip-rule:nonzero;display:inline;overflow:visible;visibility:visible;opacity:1;isolation:auto;mix-blend-mode:normal;color-interpolation:sRGB;color-interpolation-filters:linearRGB;solid-color:#000000;solid-opacity:1;fill:#000000;fill-opacity:1;fill-rule:nonzero;stroke:none;stroke-width:7;stroke-linecap:round;stroke-linejoin:round;stroke-miterlimit:4;stroke-dasharray:none;stroke-dashoffset:0;stroke-opacity:1;color-rendering:auto;image-rendering:auto;shape-rendering:auto;text-rendering:auto;enable-background:accumulate"
       d="m 381.29297,2.2109375 a 3.50035,3.50035 0 0 0 -3.5,3.5 l 0,47.9902345 c -1.18324,-0.819746 -2.36455,-1.646505 -3.57617,-2.228516 -5.30927,-2.563093 -11.04299,-3.855468 -17.04688,-3.855468 -10.23528,0 -19.55355,3.506131 -27.41015,10.283203 -9.91155,8.532053 -14.98633,20.316665 -14.98633,34.367187 0,13.823832 4.95075,25.477202 14.625,34.009762 8.06852,7.11226 17.5942,10.8086 28.02344,10.8086 6.46656,0 12.4235,-1.44458 17.65039,-4.36914 a 3.50035,3.50035 0 0 0 0.008,-0.004 c 0.93872,-0.52803 1.81475,-1.29819 2.71289,-1.98242 l 0,0.34961 a 3.50035,3.50035 0 0 0 3.5,3.5 l 27.37695,0 a 3.50035,3.50035 0 0 0 3.5,-3.5 l 0,-125.3691425 a 3.50035,3.50035 0 0 0 -3.5,-3.5 l -27.37695,0 z m 3.5,7 20.37695,0 0,118.3691425 -20.37695,0 0,-5.0957 a 3.50035,3.50035 0 0 0 -6.23828,-2.18165 c -2.41363,3.02989 -4.75488,5.09658 -6.90039,6.30469 -5.3e-4,3e-4 -0.001,-2.9e-4 -0.002,0 -4.12122,2.30556 -8.78952,3.47852 -14.23046,3.47852 -8.82423,0 -16.43869,-2.92714 -23.39454,-9.0586 -8.24369,-7.27083 -12.2539,-16.54134 -12.2539,-28.759762 0,-12.43488 4.10786,-21.793385 12.55664,-29.064453 a 3.50035,3.50035 0 0 0 0.002,-0.002 c 6.7226,-5.798883 14.1536,-8.583984 22.83789,-8.583984 5.01399,0 9.6308,1.047047 14.00391,3.158203 a 3.50035,3.50035 0 0 0 0.008,0.0039 c 2.27692,1.09292 4.84766,3.019499 7.5918,5.867187 a 3.50035,3.50035 0 0 0 6.01953,-2.429687 l 0,-52.0058595 z M 364.43164,71.240234 c -6.33424,0 -12.01715,2.608334 -16.10352,7.408204 a 3.50035,3.50035 0 0 0 -0.002,0.002 c -3.31644,3.901694 -5.08984,8.643716 -5.08984,13.701171 0,5.054188 1.77168,9.793098 5.08398,13.693358 4.03846,4.81381 9.73512,7.41797 16.11133,7.41797 5.74779,0 10.99125,-2.11703 14.98633,-6.10742 4.04951,-3.98989 6.20898,-9.243944 6.20898,-15.003908 0,-5.713584 -2.16627,-10.936778 -6.20898,-14.919921 -4.03428,-4.029709 -9.27178,-6.191407 -14.98633,-6.191407 z m 0,7 c 4.07486,0 7.18229,1.283852 10.04688,4.148438 a 3.50035,3.50035 0 0 0 0.0195,0.02148 c 2.85025,2.804279 4.1289,5.866545 4.1289,9.941406 0,4.139744 -1.28547,7.227819 -4.1289,10.025388 a 3.50035,3.50035 0 0 0 -0.0195,0.0195 c -2.79258,2.79258 -5.89402,4.06641 -10.04688,4.06641 -4.63688,0 -7.89477,-1.50899 -10.75586,-4.92383 a 3.50035,3.50035 0 0 0 -0.0156,-0.0195 c -2.35944,-2.775804 -3.42383,-5.655968 -3.42383,-9.167968 0,-3.511063 1.06376,-6.390896 3.42187,-9.166015 l 0.002,-0.002 c 2.92451,-3.43413 6.20013,-4.94336 10.77148,-4.94336 z"
       id="path3359-3"
       inkscape:connector-curvature="0" /><path
       style="color:#000000;font-style:normal;font-variant:normal;font-weight:normal;font-stretch:normal;font-size:medium;line-height:7.00000003%;font-family:Aharoni;-inkscape-font-specification:'Aharoni, Bold';text-indent:0;text-align:start;text-decoration:none;text-decoration-line:none;text-decoration-style:solid;text-decoration-color:#000000;letter-spacing:-10.96000004px;word-spacing:-12.86999989px;text-transform:none;direction:ltr;block-progression:tb;writing-mode:lr-tb;baseline-shift:baseline;text-anchor:start;white-space:normal;clip-rule:nonzero;display:inline;overflow:visible;visibility:visible;opacity:1;isolation:auto;mix-blend-mode:normal;color-interpolation:sRGB;color-interpolation-filters:linearRGB;solid-color:#000000;solid-opacity:1;fill:#000000;fill-opacity:1;fill-rule:nonzero;stroke:none;stroke-width:7;stroke-linecap:round;stroke-linejoin:round;stroke-miterlimit:4;stroke-dasharray:none;stroke-dashoffset:0;stroke-opacity:1;color-rendering:auto;image-rendering:auto;shape-rendering:auto;text-rendering:auto;enable-background:accumulate"
       d="m 456.55664,47.951172 c -14.34809,0 -26.06005,4.1671 -34.3125,12.664062 -8.161,8.402809 -12.25781,19.507483 -12.25781,32.570313 0,11.079563 3.2854,20.828823 9.82226,28.697263 8.73867,10.55556 21.96233,15.78711 38.58399,15.78711 13.16783,0 24.18064,-3.75348 32.35156,-11.375 4.67642,-4.36044 8.06761,-10.38063 10.3125,-17.82422 a 3.50035,3.50035 0 0 0 -3.34961,-4.51172 l -26.46094,0 a 3.50035,3.50035 0 0 0 -2.96679,1.64454 c -2.54009,4.06413 -5.48595,5.70117 -10.22071,5.70117 -5.01667,0 -8.12911,-1.22388 -10.1289,-3.29297 -1.51236,-1.56477 -2.58033,-3.8594 -3.01367,-7.15234 l 53.875,0 a 3.50035,3.50035 0 0 0 3.5,-3.500005 l 0,-3.505859 c 0,-9.645223 -2.1718,-18.333043 -6.57618,-25.814454 a 3.50035,3.50035 0 0 0 -0.004,-0.0039 C 487.87111,54.767744 474.26441,47.951172 456.55664,47.951172 Z m 0,7 c 16.0136,0 26.50083,5.427785 33.12891,16.644531 3.71757,6.317394 5.60547,13.653937 5.60547,22.257813 l 0,0.0059 -54.09375,0 a 3.50035,3.50035 0 0 0 -3.5,3.5 c 0,6.378785 1.57878,11.769735 5.19921,15.515625 3.62044,3.74589 8.93834,5.42969 15.16211,5.42969 6.00443,0 11.20968,-2.71482 14.82618,-7.34571 l 19.85937,0 c -1.80924,4.33403 -4.08487,7.70989 -6.77344,10.2168 -6.74203,6.28921 -15.70596,9.49414 -27.57812,9.49414 -15.20492,0 -25.90795,-4.45029 -33.19531,-13.25586 a 3.50035,3.50035 0 0 0 -0.004,-0.004 c -5.48263,-6.59946 -8.20703,-14.49264 -8.20703,-24.224613 0,-11.643912 3.41593,-20.626632 10.27929,-27.693359 6.77193,-6.972574 16.26136,-10.541016 29.29102,-10.541016 z m 1.08398,10.361328 c -5.3548,0 -10.17377,1.671229 -13.75195,5.042969 a 3.50035,3.50035 0 0 0 -0.0117,0.01172 c -2.88259,2.741984 -4.6712,6.466694 -5.38086,10.724609 a 3.50035,3.50035 0 0 0 3.45313,4.076172 l 31.30078,0 a 3.50035,3.50035 0 0 0 3.41211,-4.275391 c -1.09514,-4.818592 -3.2309,-8.834337 -6.55078,-11.568359 -3.31989,-2.734022 -7.65062,-4.011719 -12.47071,-4.011719 z m 0,7 c 3.63808,0 6.13849,0.86531 8.02149,2.416016 1.02325,0.842677 1.88478,2.011191 2.62305,3.439453 l -21.58594,0 c 0.53818,-1.052713 1.19297,-1.955345 1.99609,-2.720703 2.20811,-2.0783 4.95477,-3.134766 8.94531,-3.134766 z"
       id="path3361-8"
       inkscape:connector-curvature="0" /></g></svg>