<?xml version="1.0" encoding="utf-8"?>
<!-- Generator: Adobe Illustrator 13.0.0, SVG Export Plug-In . SVG Version: 6.00 Build 14948)  -->
<!DOCTYPE svg PUBLIC "-//W3C//DTD SVG 1.1//EN" "http://www.w3.org/Graphics/SVG/1.1/DTD/svg11.dtd">
<svg version="1.1" id="Layer_2_1_" xmlns="http://www.w3.org/2000/svg" xmlns:xlink="http://www.w3.org/1999/xlink" x="0px" y="0px"
	 width="566.929px" height="129.21px" viewBox="0 0 566.929 129.21" enable-background="new 0 0 566.929 129.21"
	 xml:space="preserve">
<g id="Layer_2_2_">
	<g>
		<g>
			<path d="M291.876,68.978l4.205-9.665l-5.256-0.042l-2.709,6.27l-4.288-3.842c3.194-3.114,3.6-3.842,3.76-6.835
				c0.162-2.992-2.547-6.672-7.603-6.672c-5.055,0-7.076,4.165-7.076,6.916c0,2.75,1.496,4.447,3.356,6.227
				c-3.114,2.063-5.581,3.962-5.581,9.988c0,4.61,4.084,8.654,9.907,8.654s8.331-4.65,9.098-6.309
				c1.941,1.777,6.35,5.781,6.35,5.781l3.194-3.518L291.876,68.978z M280.231,52.964c1.227,0,2.507,0.701,2.507,2.225
				c0,1.778-2.467,3.234-2.467,3.234c-2.035-1.685-2.547-1.981-2.547-3.437C277.724,53.529,279.112,52.964,280.231,52.964z
				 M280.554,75.205c-1.941,0-5.176-0.564-5.176-4.164s1.375-4.389,4.569-6.471c0,0,5.054,4.569,6.146,5.499
				C284.558,74.396,282.496,75.205,280.554,75.205z"/>
		</g>
	</g>
	<polygon points="277.696,42.962 298.669,11.42 303.846,11.42 303.846,33.203 318.511,11.474 323.796,11.474 323.796,42.962 
		318.511,42.962 318.511,21.179 303.846,43.07 298.617,43.07 298.617,21.072 284.059,42.962 	"/>
	<polygon points="328.326,43.016 328.326,11.474 344.554,11.474 344.554,16.812 333.664,16.812 333.664,24.846 344.554,24.846 
		344.554,30.238 333.609,30.238 333.609,37.678 344.5,37.678 344.5,43.016 	"/>
	<g>
		<g>
			<path d="M270.795,11.474l-20.974,31.65h6.471l4.475-6.902h10.137v6.902h5.229v-31.65H270.795z M270.849,30.777h-6.416
				l6.416-9.651V30.777z"/>
		</g>
	</g>
	<g>
		<g>
			<path d="M270.31,83.774l-20.974,31.649h6.47l4.475-6.901h10.137v6.901h5.23V83.774H270.31z M270.364,103.078h-6.416l6.416-9.652
				V103.078z"/>
		</g>
	</g>
	<g>
		<g>
			<path d="M253.336,27.68h-16.509v5.146l10.705,0.048c-1.858,4.143-6.019,7.029-10.854,7.029c-6.566,0-11.889-5.323-11.889-11.889
				s5.323-11.889,11.889-11.889c4.078,0,7.675,2.053,9.817,5.181l5.436-0.005c-2.582-5.857-8.439-9.947-15.252-9.947
				c-9.201,0-16.661,7.459-16.661,16.661c0,9.202,7.459,16.661,16.661,16.661c9.202,0,16.661-7.459,16.661-16.661
				C253.339,27.902,253.338,27.791,253.336,27.68z"/>
		</g>
	</g>
	<rect x="236.827" y="27.649" fill="none" width="16.795" height="5.257"/>
	<rect x="240.952" y="21.341" fill="none" width="16.283" height="3.316"/>
	<g>
		<g>
			<path d="M318.919,106.932c-2.096,2.429-5.197,3.966-8.656,3.966c-6.313,0-11.432-5.117-11.432-11.432
				c0-6.313,5.117-11.43,11.432-11.43c3.324,0,6.316,1.42,8.404,3.686l6.119-0.002c-2.779-5.238-8.289-8.805-14.633-8.805
				c-9.142,0-16.552,7.41-16.552,16.551c0,9.144,7.41,16.554,16.552,16.554c6.459,0,12.053-3.698,14.779-9.091L318.919,106.932z"/>
		</g>
	</g>
	<polygon points="220.274,83.884 220.274,115.481 225.72,115.481 240.116,93.916 240.116,115.427 245.616,115.427 266.428,83.939 
		259.904,83.939 245.562,105.722 245.562,83.994 240.17,83.994 225.72,105.776 225.72,83.884 	"/>
	<polygon points="277.535,83.833 295.003,83.833 295.003,89.169 288.912,89.169 288.912,115.32 283.519,115.32 283.519,89.223 
		277.481,89.223 	"/>
	<polygon points="326.437,83.884 326.437,115.482 331.777,115.482 331.777,102.056 341.535,102.056 341.535,115.375 346.98,115.375 
		346.98,83.939 341.642,83.939 341.642,96.666 331.777,96.666 331.777,83.939 	"/>
	<g>
		<g>
			<path d="M347.888,1.961H217.522c-4.734,0-8.573,3.838-8.573,8.573V116.88c0,4.734,3.838,8.572,8.573,8.572h130.366
				c4.734,0,8.572-3.838,8.572-8.572V10.534C356.46,5.8,352.623,1.961,347.888,1.961z M354.927,116.654
				c0,4.109-3.332,7.441-7.439,7.441H217.923c-4.109,0-7.441-3.332-7.441-7.441V10.761c0-4.109,3.332-7.441,7.441-7.441h129.565
				c4.107,0,7.439,3.332,7.439,7.441V116.654z"/>
		</g>
	</g>
</g>
</svg>
