<?xml version="1.0" encoding="UTF-8" standalone="no"?>
<!-- Created with Inkscape (http://www.inkscape.org/) -->

<svg
   xmlns:dc="http://purl.org/dc/elements/1.1/"
   xmlns:cc="http://creativecommons.org/ns#"
   xmlns:rdf="http://www.w3.org/1999/02/22-rdf-syntax-ns#"
   xmlns:svg="http://www.w3.org/2000/svg"
   xmlns="http://www.w3.org/2000/svg"
   xmlns:sodipodi="http://sodipodi.sourceforge.net/DTD/sodipodi-0.dtd"
   xmlns:inkscape="http://www.inkscape.org/namespaces/inkscape"
   version="1.2"
   width="598.672"
   height="163.673"
   viewBox="0 0 598.672 163.673"
   id="Layer_3"
   xml:space="preserve"
   inkscape:version="0.91 r13725"
   sodipodi:docname="controller2.svg"><sodipodi:namedview
     pagecolor="#ffffff"
     bordercolor="#666666"
     borderopacity="1"
     objecttolerance="10"
     gridtolerance="10"
     guidetolerance="10"
     inkscape:pageopacity="0"
     inkscape:pageshadow="2"
     inkscape:window-width="2560"
     inkscape:window-height="1377"
     id="namedview15"
     showgrid="false"
     inkscape:zoom="1.5023917"
     inkscape:cx="457.858"
     inkscape:cy="94.308435"
     inkscape:window-x="-8"
     inkscape:window-y="-8"
     inkscape:window-maximized="1"
     inkscape:current-layer="Layer_3" /><metadata
     id="metadata27"><rdf:RDF><cc:Work
         rdf:about=""><dc:format>image/svg+xml</dc:format><dc:type
           rdf:resource="http://purl.org/dc/dcmitype/StillImage" /><dc:title /></cc:Work></rdf:RDF></metadata><defs
     id="defs25" /><g
     id="g4522"
     transform="matrix(1.0548715,0,0,1.0548715,0.75001495,-3.1982077)"
     style="stroke:#f4f4f4;stroke-opacity:1;fill:none;stroke-width:2.23249941;stroke-miterlimit:4;stroke-dasharray:none"><path
       style="font-style:normal;font-variant:normal;font-weight:bold;font-stretch:normal;font-size:205.44360352px;line-height:125%;font-family:'Comic Sans MS';-inkscape-font-specification:'Comic Sans MS Bold';text-align:start;writing-mode:lr-tb;text-anchor:start;display:inline;fill:none;fill-opacity:1;stroke:#f4f4f4;stroke-width:2.35500002;stroke-miterlimit:4;stroke-dasharray:none;stroke-opacity:1"
       d="M 564.63672 11.431641 C 560.48762 11.581797 557.24902 12.673507 554.04688 14.171875 C 550.84473 15.670243 547.78642 17.33798 544.86328 21.216797 C 541.58363 25.56873 540.17572 29.882797 538.55469 35.404297 C 537.52647 38.906598 536.59314 42.850503 535.74219 47.101562 C 532.2625 42.114502 528.90168 37.566438 526.3418 34.632812 C 521.74241 29.361999 517.15182 25.332944 511.51562 23.720703 C 508.08849 22.740368 505.02466 22.589451 501.93359 22.787109 C 499.77148 22.925366 497.69622 23.105039 495.31641 23.962891 C 494.90408 20.596373 494.91486 17.751145 491.44727 14.615234 C 489.26705 12.643664 488.43355 12.859438 487.61133 12.652344 C 486.78911 12.445249 486.09337 12.340095 485.35156 12.251953 C 483.86794 12.075669 482.24935 12.001953 480.46289 12.001953 C 476.67901 12.001953 473.17868 12.486925 469.9668 13.646484 C 466.75491 14.806044 463.50593 16.657344 461.5293 20.40625 C 460.09372 23.12899 460.44395 23.761303 460.2793 25.242188 C 460.11464 26.723071 459.99317 28.530636 459.87695 30.925781 C 459.64453 35.716074 459.45355 42.812565 459.25195 53.222656 C 459.06055 63.105546 458.89702 70.476932 458.68359 76.275391 C 454.87787 70.047111 450.49769 61.349983 443.2207 45.644531 C 440.66899 40.137332 438.59191 35.848922 436.93359 32.6875 C 436.10444 31.106789 435.38798 29.814483 434.69727 28.703125 C 434.00655 27.591768 433.85278 26.844166 431.82422 25.216797 C 429.3094 23.199332 425.38846 22.212891 422.24414 22.212891 C 419.85145 22.212891 416.97393 22.259349 413.86133 23.003906 C 412.30503 23.376185 410.60773 23.811851 408.60352 25.417969 C 406.5993 27.024086 404.67024 31.135503 405.33398 34.339844 L 405.55273 35.408203 L 405.75781 37.248047 C 403.6477 36.694861 401.50865 36.430765 399.35156 36.363281 C 395.32739 36.237391 391.23185 36.766452 387.18945 38.794922 C 383.14705 40.823385 378.80137 45.532706 378.43359 51.410156 A 8.9099783 8.9099783 0 0 0 378.45312 52.755859 C 378.72779 55.848252 378.96434 58.878157 379.18164 61.869141 C 374.18596 59.502063 369.20576 58.507802 364.92773 57.96875 A 10.516431 10.516431 0 0 0 363.61328 57.884766 C 354.71067 57.884841 346.16847 61.087596 339.22656 66.675781 C 337.52022 63.57953 334.86342 61.263202 332.4668 59.958984 C 328.76273 57.943254 325.09229 57.239183 321.39062 57.060547 C 317.68898 56.881911 313.95817 57.285312 310.1875 58.664062 C 309.17845 59.033025 308.13587 59.506704 307.09961 60.070312 C 306.33117 59.587008 305.55557 59.086843 304.82227 58.771484 C 300.72591 57.009858 296.72401 56.617383 292.66602 56.832031 C 290.9949 56.920426 289.31439 57.129437 287.63672 57.484375 C 287.5017 50.632121 286.87762 43.170514 280.4707 37.736328 C 276.86832 34.169725 272.31808 32.444317 267.72461 32.164062 C 263.00911 31.876364 257.94749 33.172307 253.77148 36.525391 A 9.7489938 9.7489938 0 0 0 253.10938 37.109375 C 253.16038 37.060188 249.27476 40.35343 248.18555 44.863281 C 247.19501 48.964564 247.7415 52.564096 248.79688 57.554688 C 248.80044 57.874632 248.77534 57.924359 248.76758 58.205078 C 248.44332 58.205285 248.54287 58.242215 248.16992 58.230469 A 9.7489938 9.7489938 0 0 0 247.62891 58.228516 C 240.22436 58.405395 233.52481 60.548436 227.95703 64.009766 C 228.10869 63.292491 228.24205 62.576078 228.34766 61.865234 A 4.3134751 4.3134751 0 0 0 228.35156 61.849609 C 228.47605 60.990575 228.48833 60.118274 228.39062 59.255859 C 227.86037 54.515334 225.99528 49.708272 222.30273 46.029297 C 218.57241 42.312688 213.50387 40.350191 208.25195 40.023438 A 4.3134751 4.3134751 0 0 0 208.20703 40.021484 C 207.86329 40.003636 207.51954 40.004257 207.17578 40.021484 C 201.71741 40.253731 196.33514 41.874671 192.2168 45.628906 C 188.02286 49.452049 186.05152 54.801364 185.85742 59.996094 C 185.82975 60.599467 185.85548 61.204062 185.93555 61.802734 A 4.3134751 4.3134751 0 0 0 185.94141 61.853516 C 186.04715 62.578525 186.18913 63.298149 186.35742 64.011719 C 183.58712 62.93435 180.91813 62.236228 178.58398 61.466797 A 10.152499 10.152499 0 0 0 177.67969 61.214844 C 175.83007 60.789506 173.92759 60.528587 171.93164 60.404297 C 169.93569 60.280014 167.84816 60.29289 165.63086 60.414062 C 158.97746 60.777673 151.40583 62.134664 144.36719 66.111328 C 143.48857 66.607728 142.61521 67.170457 141.75977 67.792969 C 140.67925 66.453625 139.45852 65.240999 138.08398 64.195312 C 132.13292 59.668018 124.90367 58.431875 117.41211 58.21875 C 115.35248 58.160152 113.16634 58.171306 110.88672 58.269531 C 102.92621 58.446733 95.870599 60.651778 90.115234 64.388672 C 88.634039 56.258589 85.289169 49.747847 80.308594 45.111328 C 73.978726 39.21873 66.487792 36.770229 59.453125 34.373047 C 59.41597 34.365323 59.379066 34.356769 59.341797 34.349609 C 59.034805 34.247641 58.721857 34.165114 58.404297 34.103516 C 47.722451 30.795525 36.024523 30.679048 26.294922 30.375 C 25.884574 30.348613 25.701363 30.348613 25.291016 30.375 C 25.223933 30.381538 25.156727 30.390092 25.089844 30.398438 C 19.317383 30.928814 12.689827 31.955978 7.1816406 36.738281 C 1.6070292 41.578246 -0.066108988 49.720598 1.890625 57.59375 C 1.8906143 57.601195 1.8906143 57.607789 1.890625 57.615234 C 4.4873716 78.307931 4.4456702 102.38555 1.4882812 123.30664 C 1.5349185 122.97676 1.5236604 123.02721 1.4648438 123.44141 C 1.4180358 123.78923 1.3962318 124.13929 1.3984375 124.49023 C 1.1407242 127.33157 1.653639 130.2332 3.2304688 132.8418 C 4.937439 135.6657 7.3511815 137.42021 9.4824219 138.53516 C 13.676359 140.72919 18.004886 141.31062 22.029297 141.48242 C 26.09751 141.6561 30.088201 141.3334 33.730469 140.47852 C 35.547942 140.05193 37.40706 139.45703 39.267578 138.46875 C 40.793111 137.65841 43.96986 135.43653 45.296875 131.70312 C 45.784747 132.72881 46.401998 133.76111 47.171875 134.7832 C 47.182064 134.79597 47.18504 134.81544 47.195312 134.82812 C 47.21732 134.86553 47.239069 134.90243 47.261719 134.93945 C 46.254879 133.63222 46.294342 133.74642 47.396484 135.14062 C 47.885085 135.74761 48.46456 136.27637 49.115234 136.70508 C 50.357693 137.76725 51.604128 138.60661 52.441406 138.98242 C 53.894119 139.63447 55.383023 140.089 56.884766 140.43359 C 59.776186 141.09707 62.877869 141.44318 66.083984 141.57227 C 69.289299 141.70132 72.587797 141.61298 75.753906 141.14844 C 78.660146 140.72203 82.505803 140.0824 85.980469 137.08398 C 86.743426 136.4256 87.409954 135.71391 88.007812 134.9707 C 88.884583 135.62378 89.777268 136.25736 90.705078 136.84766 C 90.891138 136.97415 91.079032 137.0997 91.273438 137.21094 A 6.5348884 6.6930288 0 0 0 91.630859 137.40234 C 96.429805 139.76266 100.99422 141.35248 105.76953 141.7793 C 111.92093 142.32911 117.68955 140.81668 123.79883 138.39453 C 128.9629 136.36685 134.05128 134.0771 138.32617 130.7207 C 138.74853 131.05902 139.17216 131.38943 139.5918 131.69727 C 144.91675 135.60354 150.7512 137.87085 155.63867 139.51953 A 10.152499 10.152499 0 0 0 156.30859 139.71875 C 168.74011 142.97608 179.62622 139.76893 186.61328 136.42773 C 187.37269 136.12235 188.0957 135.77484 188.78516 135.39258 C 189.64634 136.30194 190.6033 137.10908 191.64648 137.78125 C 196.11939 140.66332 201.04936 141.43012 205.49414 141.37109 C 209.93785 141.31208 214.81855 140.41901 219.18164 137.45508 C 220.7768 136.37145 222.37806 134.89232 223.65234 132.98047 C 229.77047 137.7842 237.35665 140.84432 245.67188 141.50977 C 250.42094 142.04975 254.88889 141.05568 258.77734 139.47461 C 260.49291 140.4918 262.58549 141.49217 265.92578 141.49219 A 9.7489938 9.7489938 0 0 0 266.25391 141.48633 C 271.31625 141.31601 276.7119 139.79682 280.61328 135.72266 C 281.1932 135.11706 281.7093 134.47205 282.17578 133.80273 C 287.35069 137.86749 294.13512 140.42206 301.73828 140.98438 A 10.325046 10.325046 0 0 0 302.5 141.01367 C 306.18303 141.01368 309.09318 140.31518 311.43359 139.5332 C 314.49435 141.143 318.1983 141.69954 321.73047 141.50781 C 325.73546 141.52307 329.69883 140.84463 333.26367 138.6582 C 334.76313 137.73854 336.05589 136.55345 337.14648 135.25781 C 342.65909 139.10615 349.5625 141.35729 357.12695 142.14062 A 10.516431 10.516431 0 0 0 358.50781 142.19141 C 362.38527 142.08169 365.62503 141.18618 368.49219 140.09766 C 370.63683 141.35914 373.12654 142.41014 376.13477 142.6875 A 10.516431 10.516431 0 0 0 377.51758 142.72266 C 381.50752 142.56433 385.36412 141.11983 388.4668 138.91211 C 392.20495 140.86317 396.05369 141.5391 399.83789 141.56055 C 403.65037 141.58216 407.42114 140.96245 411.10547 139.08984 C 414.78979 137.21724 418.93449 133.17098 419.48242 127.54102 A 8.9099783 8.9099783 0 0 0 419.47656 125.75781 C 418.55043 116.83143 417.3822 95.412346 417.88281 74.224609 C 421.06417 81.677199 424.72363 89.619051 428.60547 96.464844 C 432.97148 104.16448 438.52308 113.40223 443.30469 121.06055 C 445.69549 124.8897 447.88829 128.31604 449.66797 130.98633 C 451.44764 133.65662 451.96052 134.86853 454.16797 137.03906 C 455.15283 138.00744 457.31067 139.94302 460.0332 140.54492 C 462.75574 141.14681 464.23953 140.81288 466.67773 140.63672 C 469.92247 140.40226 473.29885 139.7785 476.34375 138.98242 C 477.8662 138.58438 479.28691 138.14851 480.62891 137.625 C 481.97091 137.10149 483.1098 136.80804 484.96875 135.12695 C 487.1818 133.12557 486.89097 132.50987 487.13477 131.88086 C 487.37857 131.25185 487.52566 130.74793 487.67578 130.19727 C 487.97603 129.09595 488.24798 127.85406 488.54883 126.33398 C 489.15051 123.29385 489.83573 119.20045 490.58984 114.16016 C 491.75703 106.35909 492.74024 99.039077 493.55078 92.107422 C 495.18721 100.44576 496.75758 108.20234 497.85742 113.29102 C 499.93708 122.91295 500.65056 127.26972 502.39453 131.77344 C 503.2665 134.02531 505.02454 137.39052 508.56445 139.51953 C 512.10436 141.64854 514.70626 141.4743 515.44727 141.53906 C 518.35755 141.79343 519.01551 141.49767 520.5 141.30078 C 521.98448 141.10391 523.55772 140.83188 525.15039 140.48633 C 528.71289 139.71336 532.26016 139.34608 536.4375 135.50391 C 540.61474 131.66182 541.44079 125.77971 541.43359 122.61914 C 541.43126 121.59588 541.3772 120.56203 541.29883 119.51953 C 544.25926 120.24394 546.82053 119.95307 549.4043 119.47852 C 551.83031 119.03293 554.33083 118.26256 556.75977 116.76172 C 557.18926 118.21077 557.67494 119.60955 558.29297 121.00391 C 559.27338 123.21581 559.98043 125.7388 564.32812 128.50781 C 570.14838 132.21457 575.76467 131.50316 581.09375 130.53516 C 584.3766 129.93882 587.32532 129.22912 590.55078 127.35156 C 593.77624 125.47402 597.86748 120.96278 598.20508 115.5293 C 598.3955 112.46377 598.14288 113.33807 598.09375 112.9668 C 598.04463 112.59551 597.99247 112.25942 597.92969 111.86523 C 597.80412 111.07685 597.63579 110.09108 597.41992 108.86523 C 596.98821 106.41353 596.36989 103.03406 595.60547 98.931641 C 594.07664 90.726798 591.96291 79.646687 589.625 67.630859 C 584.98415 43.77904 582.82488 32.408333 581.14844 25.835938 C 580.31021 22.54974 580.07888 20.334978 577.34375 16.787109 C 575.97618 15.013175 573.41494 13.154846 571.4375 12.427734 C 569.46006 11.700622 568.55489 11.695705 568.55273 11.695312 C 567.08534 11.428088 565.80878 11.389223 564.63672 11.431641 z M 421.4043 45.345703 C 421.41863 45.474995 421.50526 45.643553 421.41602 46.494141 A 7.3287215 7.3287215 0 0 0 421.4043 45.345703 z M 421.33203 47.238281 C 421.29 47.655304 421.21648 48.207493 420.82422 48.980469 A 7.3287215 7.3287215 0 0 0 421.33203 47.238281 z M 547.56055 64.601562 C 548.4892 65.198628 548.10014 65.152809 547.56055 64.601562 z M 532.42578 79.177734 C 532.42196 79.257882 532.60629 79.577489 532.53125 80.222656 C 532.48111 79.65539 532.43215 79.043779 532.42578 79.177734 z M 174.14453 83.412109 C 174.19615 83.437982 174.35262 83.681028 174.49023 83.884766 C 174.19958 83.600945 174.04466 83.36205 174.14453 83.412109 z M 110.53125 87.949219 C 110.54579 87.999307 110.56467 88.047787 110.58008 88.097656 C 110.57959 88.096143 110.57468 88.093288 110.57422 88.091797 L 110.53125 87.949219 z M 110.82031 88.162109 C 111.02134 88.501414 111.20671 88.785418 111.24219 88.890625 C 111.24264 88.894887 111.23978 88.905736 111.24023 88.910156 C 111.0494 88.671954 110.90949 88.551738 110.79883 88.367188 C 110.80348 88.321083 110.81191 88.23058 110.82031 88.162109 z M 457.69922 88.902344 C 457.67964 89.001912 457.65037 89.21331 457.63672 89.259766 C 457.60776 89.358286 457.57458 89.20543 457.69922 88.902344 z "
       transform="matrix(0.94798276,0,0,0.94798276,-0.71100125,3.0318458)"
       id="path4715" /><g
       style="display:inline;stroke:#f4f4f4;fill:none;stroke-opacity:1;stroke-width:19.77560602;stroke-miterlimit:4;stroke-dasharray:none"
       transform="matrix(0.11289158,0,0,0.11289158,339.71236,-34.084938)"
       id="g4778"><g
         id="layer2-2"
         inkscape:label="green"
         style="display:inline;stroke:#f4f4f4;fill:none;stroke-opacity:1;stroke-width:19.77560602;stroke-miterlimit:4;stroke-dasharray:none" /></g><path
       inkscape:connector-curvature="0"
       sodipodi:nodetypes="cccccccscccccccccc"
       id="path4525"
       d="m 23.915738,40.489671 c -9.553732,0.877811 -17.420375,4.10959 -13.788056,15.608741 2.575483,20.523334 2.510756,44.011248 -0.4420688,64.805998 -1.8500229,9.1274 22.8030458,7.68424 24.0179338,3.55001 -0.449183,-7.03527 -2.226039,-11.12477 3.283017,-15.13203 5.229921,-2.25473 7.226067,0.1327 9.489145,2.03973 4.35478,5.7247 1.58672,9.55835 4.867713,13.70931 1.832865,2.89878 19.594173,3.97898 23.504303,0.60478 4.381006,-3.78052 1.797991,-9.66495 -0.737038,-14.01456 C 70.695148,105.20043 63.318422,99.97546 63.164137,94.27755 64.174033,85.978688 75.853367,84.305482 76.414916,71.192734 75.647328,52.11602 65.932964,48.355433 52.707085,43.848488 44.363778,41.100344 33.465912,40.788119 23.915738,40.489671 Z M 40.326356,63.38181 c 7.051416,0.118444 8.625722,6.275896 8.583523,9.31419 0.25591,3.247557 -0.539997,11.071634 -8.320151,11.111618 -7.040745,-0.421826 -8.290716,-7.874132 -8.246566,-11.04119 0.160214,-3.341549 1.501069,-9.167338 7.983194,-9.384618 z"
       style="font-style:normal;font-variant:normal;font-weight:bold;font-stretch:normal;font-size:205.44360352px;line-height:125%;font-family:'Comic Sans MS';-inkscape-font-specification:'Comic Sans MS Bold';text-align:start;writing-mode:lr-tb;text-anchor:start;display:inline;fill:none;fill-opacity:1;stroke:#f4f4f4;stroke-opacity:1;stroke-width:2.23249941;stroke-miterlimit:4;stroke-dasharray:none" /><path
       transform="matrix(0.67734952,0,0,0.67734952,-25.59016,-24.499086)"
       d="m 198.90625,137.46875 c -2.57828,-0.0716 -5.30651,-0.0292 -8.15625,0.0937 -28.32836,0.58421 -40.21928,21.05446 -41.75,47.28125 1.22617,18.55111 7.99972,27.55273 20.34375,35.15625 5.76058,2.76636 10.47802,4.28469 15.09375,4.6875 5.91641,0.51633 11.66514,-0.82377 19.21875,-3.75 18.66254,-7.15474 32.78406,-17.65977 18.71875,-31.40625 -6.21999,-2.801 -13.81854,1.65359 -32.03125,7.0625 -4.97085,1.50653 -8.84189,-3.41916 -1.25,-5.5625 27.38,-7.44887 38.79034,-10.42806 39.28125,-29.1875 -0.32361,-18.11709 -11.42077,-23.87368 -29.46875,-24.375 z m -6.8125,19.0625 c 4.11735,-0.21806 7.93126,1.28502 9.15625,5.09375 4.71827,11.89036 -19.22889,20.01897 -21.84375,7.4375 -1.91509,-7.04922 5.82525,-12.16781 12.6875,-12.53125 z"
       id="path4701"
       style="font-style:normal;font-variant:normal;font-weight:bold;font-stretch:normal;font-size:176.14732361px;line-height:125%;font-family:'Comic Sans MS';-inkscape-font-specification:'Comic Sans MS Bold';text-align:start;writing-mode:lr-tb;text-anchor:start;display:inline;fill:none;fill-opacity:1;stroke:#f4f4f4;stroke-opacity:1;stroke-width:3.29593414;stroke-miterlimit:4;stroke-dasharray:none"
       inkscape:original="M 198.90625 137.46875 C 196.32797 137.39713 193.59974 137.43951 190.75 137.5625 C 162.42164 138.14671 150.53072 158.61696 149 184.84375 C 150.22617 203.39486 156.99972 212.39648 169.34375 220 C 175.10433 222.76636 179.82177 224.28469 184.4375 224.6875 C 190.35391 225.20383 196.10264 223.86373 203.65625 220.9375 C 222.31879 213.78276 236.44031 203.27773 222.375 189.53125 C 216.15501 186.73025 208.55646 191.18484 190.34375 196.59375 C 185.3729 198.10028 181.50186 193.17459 189.09375 191.03125 C 216.47375 183.58238 227.88409 180.60319 228.375 161.84375 C 228.05139 143.72666 216.95423 137.97007 198.90625 137.46875 z M 192.09375 156.53125 C 196.2111 156.31319 200.02501 157.81627 201.25 161.625 C 205.96827 173.51536 182.02111 181.64397 179.40625 169.0625 C 177.49116 162.01328 185.2315 156.89469 192.09375 156.53125 z "
       inkscape:radius="0"
       sodipodi:type="inkscape:offset" /><path
       transform="matrix(0.67734952,0,0,0.67734952,-24.235426,-24.499086)"
       d="m 267.3125,140.3125 c -15.3985,0.84151 -35.51152,7.23846 -35.625,25.15625 1.55896,21.88225 34.93809,25.78667 36.5625,31.125 -0.50006,9.00788 -25.67939,-11.10555 -31.375,-6.125 -10.20439,10.14289 -6.38833,18.12153 1.625,24 5.32351,3.90524 12.48694,6.8775 18.59375,8.9375 13.35766,3.49999 25.8886,-0.25389 33.40625,-3.96875 8.39372,-3.27294 11.41308,-14.17094 11.0625,-23.28125 -3.86056,-18.00193 -31.83682,-22.03465 -34.3125,-28.71875 0.31085,-10.60897 25.03514,12.83593 31.59375,5.5 12.30826,-22.39115 -3.55602,-26.8764 -18.625,-31.84375 -3.16983,-0.72894 -7.77342,-1.06175 -12.90625,-0.78125 z"
       id="path4705"
       style="font-style:normal;font-variant:normal;font-weight:bold;font-stretch:normal;font-size:182.18806458px;line-height:125%;font-family:'Comic Sans MS';-inkscape-font-specification:'Comic Sans MS Bold';text-align:start;writing-mode:lr-tb;text-anchor:start;display:inline;fill:none;fill-opacity:1;stroke:#f4f4f4;stroke-opacity:1;stroke-width:3.29593414;stroke-miterlimit:4;stroke-dasharray:none"
       inkscape:original="M 267.3125 140.3125 C 251.914 141.15401 231.80098 147.55096 231.6875 165.46875 C 233.24646 187.351 266.62559 191.25542 268.25 196.59375 C 267.74994 205.60163 242.57061 185.4882 236.875 190.46875 C 226.67061 200.61164 230.48667 208.59028 238.5 214.46875 C 243.82351 218.37399 250.98694 221.34625 257.09375 223.40625 C 270.45141 226.90624 282.98235 223.15236 290.5 219.4375 C 298.89372 216.16456 301.91308 205.26656 301.5625 196.15625 C 297.70194 178.15432 269.72568 174.1216 267.25 167.4375 C 267.56085 156.82853 292.28514 180.27343 298.84375 172.9375 C 311.15201 150.54635 295.28773 146.0611 280.21875 141.09375 C 277.04892 140.36481 272.44533 140.032 267.3125 140.3125 z "
       inkscape:radius="0"
       sodipodi:type="inkscape:offset" /><path
       transform="matrix(0.67734952,0,0,0.67734952,-22.880761,-24.499086)"
       d="m 323.3125,111.28125 c -10.6165,0.44334 -16.0078,5.91577 -16.3125,14.375 1.42163,9.74741 6.52451,13.74902 16.3125,14.3125 9.5651,-0.69978 13.42442,-3.91783 14.96875,-14.3125 -0.91728,-8.20423 -5.94378,-13.8135 -14.96875,-14.375 z M 320.5,144.75 c -7.8403,0.40004 -15.59749,4.61781 -14.5,11.4375 2.66429,16.49494 2.57594,38.25787 -0.96875,57.03125 -4.10992,15.87299 34.56217,14.96683 29.5625,0 -4.26239,-17.03914 -3.11196,-36.01129 0.96875,-57.03125 0.69224,-8.41985 -7.2222,-11.83754 -15.0625,-11.4375 z"
       id="path4707"
       style="font-style:normal;font-variant:normal;font-weight:bold;font-stretch:normal;font-size:179.68840027px;line-height:125%;font-family:'Comic Sans MS';-inkscape-font-specification:'Comic Sans MS Bold';text-align:start;writing-mode:lr-tb;text-anchor:start;display:inline;fill:none;fill-opacity:1;stroke:#f4f4f4;stroke-opacity:1;stroke-width:3.29593414;stroke-miterlimit:4;stroke-dasharray:none"
       inkscape:original="M 323.3125 111.28125 C 312.696 111.72459 307.3047 117.19702 307 125.65625 C 308.42163 135.40366 313.52451 139.40527 323.3125 139.96875 C 332.8776 139.26897 336.73692 136.05092 338.28125 125.65625 C 337.36397 117.45202 332.33747 111.84275 323.3125 111.28125 z M 320.5 144.75 C 312.6597 145.15004 304.90251 149.36781 306 156.1875 C 308.66429 172.68244 308.57594 194.44537 305.03125 213.21875 C 300.92133 229.09174 339.59342 228.18558 334.59375 213.21875 C 330.33136 196.17961 331.48179 177.20746 335.5625 156.1875 C 336.25474 147.76765 328.3403 144.34996 320.5 144.75 z "
       inkscape:radius="0"
       sodipodi:type="inkscape:offset" /><path
       transform="matrix(0.67734952,0,0,0.67734952,-21.526025,-24.499086)"
       d="m 404.59375,98.65625 c -3.52981,-0.215362 -7.2086,0.758205 -10.15625,3.125 -2.54267,2.45128 -5.10381,2.90832 -1.84375,17.78125 0.3944,11.13369 1.58844,16.11525 -14.96875,15.59375 -27.36095,0.65359 -39.97091,22.87856 -41.375,47.6875 0.3256,23.83872 16.3794,40.0078 39.6875,41.71875 8.15442,0.99936 12.23628,-1.05413 18.125,-5.25 2.37595,2.04009 5.79344,5.09373 8.84375,5.09375 9.68547,-0.32586 14.28138,-5.26412 13.71875,-14.1875 -11.2245,-25.90766 13.72332,-95.16678 -2.78125,-107.5625 -2.33479,-2.39228 -5.72019,-3.784638 -9.25,-4 z m -28.78125,65.8125 c 16.58914,-0.51274 14.88096,28.84785 0.375,29.6875 -15.29117,0.2982 -15.97506,-29.22887 -0.375,-29.6875 z"
       id="path4709"
       style="font-style:normal;font-variant:normal;font-weight:bold;font-stretch:normal;font-size:167.25732422px;line-height:125%;font-family:'Comic Sans MS';-inkscape-font-specification:'Comic Sans MS Bold';text-align:start;writing-mode:lr-tb;text-anchor:start;display:inline;fill:none;fill-opacity:1;stroke:#f4f4f4;stroke-opacity:1;stroke-width:3.29593414;stroke-miterlimit:4;stroke-dasharray:none"
       inkscape:original="M 404.59375 98.65625 C 401.06394 98.440888 397.38515 99.414455 394.4375 101.78125 C 391.89483 104.23253 389.33369 104.68957 392.59375 119.5625 C 392.98815 130.69619 394.18219 135.67775 377.625 135.15625 C 350.26405 135.80984 337.65409 158.03481 336.25 182.84375 C 336.5756 206.68247 352.6294 222.85155 375.9375 224.5625 C 384.09192 225.56186 388.17378 223.50837 394.0625 219.3125 C 396.43845 221.35259 399.85594 224.40623 402.90625 224.40625 C 412.59172 224.08039 417.18763 219.14213 416.625 210.21875 C 405.4005 184.31109 430.34832 115.05197 413.84375 102.65625 C 411.50896 100.26397 408.12356 98.871612 404.59375 98.65625 z M 375.8125 164.46875 C 392.40164 163.95601 390.69346 193.3166 376.1875 194.15625 C 360.89633 194.45445 360.21244 164.92738 375.8125 164.46875 z "
       inkscape:radius="0"
       sodipodi:type="inkscape:offset" /><path
       inkscape:connector-curvature="0"
       sodipodi:nodetypes="cccccccccc"
       id="path4518"
       d="m 265.1732,73.975759 c -2.03723,20.035161 -6.3072,51.249391 20.87232,53.259531 3.51633,0 6.96367,-1.72462 10.31741,-2.74373 1.86858,1.74816 2.21293,3.57407 7.53262,3.2354 11.1952,0.24963 9.49291,-8.04969 9.30096,-15.87368 -2.91293,-11.41709 -1.83761,-26.366161 -0.43865,-39.119221 -0.52075,-6.792354 -17.37441,-7.582461 -20.53335,-1.018018 -2.16487,6.876603 2.84304,31.080179 -3.30366,32.611729 -5.61814,-1.67245 0.14592,-28.248252 -1.08083,-32.331394 -0.65013,-7.129805 -20.01064,-6.886105 -22.66682,1.979383 z"
       style="font-style:normal;font-variant:normal;font-weight:bold;font-stretch:normal;font-size:166.08294678px;line-height:125%;font-family:'Comic Sans MS';-inkscape-font-specification:'Comic Sans MS Bold';text-align:start;writing-mode:lr-tb;text-anchor:start;display:inline;fill:none;fill-opacity:1;stroke:#f4f4f4;stroke-opacity:1;stroke-width:2.23249941;stroke-miterlimit:4;stroke-dasharray:none" /><path
       transform="matrix(0.67734952,0,0,0.67734952,-18.816624,-24.499086)"
       d="m 535.625,135.46875 c -11.38768,8e-5 -21.65912,4.71388 -29.84375,13.6875 -8.1991,8.93737 -12.53127,20.35466 -12.53125,33.03125 0.265,25.07963 9.29772,39.23274 34.8125,41.875 5.89792,-0.16689 11.3655,-2.7404 16.5625,-5.3125 2.71497,3.02362 5.67923,5.67565 9.875,6.0625 8.06066,-0.31988 12.70786,-6.75693 13.3125,-14.3125 -2.44983,-11.16272 -4.32272,-20.87144 -4.9375,-32.53125 -0.2751,-7.67394 0.31392,-15.32132 0.75,-22.40625 -0.88518,-13.71358 -16.47312,-18.64131 -28,-20.09375 z m -5.5625,29.4375 c 15.98839,0.91287 14.81779,29.85985 0.15625,29.5625 -14.69914,-0.24871 -14.13421,-28.90571 -0.15625,-29.5625 z"
       id="path4711"
       style="font-style:normal;font-variant:normal;font-weight:bold;font-stretch:normal;font-size:162.06369019px;line-height:125%;font-family:'Comic Sans MS';-inkscape-font-specification:'Comic Sans MS Bold';text-align:start;writing-mode:lr-tb;text-anchor:start;display:inline;fill:none;fill-opacity:1;stroke:#f4f4f4;stroke-opacity:1;stroke-width:3.29593414;stroke-miterlimit:4;stroke-dasharray:none"
       inkscape:original="M 535.625 135.46875 C 524.23732 135.46883 513.96588 140.18263 505.78125 149.15625 C 497.58215 158.09362 493.24998 169.51091 493.25 182.1875 C 493.515 207.26713 502.54772 221.42024 528.0625 224.0625 C 533.96042 223.89561 539.428 221.3221 544.625 218.75 C 547.33997 221.77362 550.30423 224.42565 554.5 224.8125 C 562.56066 224.49262 567.20786 218.05557 567.8125 210.5 C 565.36267 199.33728 563.48978 189.62856 562.875 177.96875 C 562.5999 170.29481 563.18892 162.64743 563.625 155.5625 C 562.73982 141.84892 547.15188 136.92119 535.625 135.46875 z M 530.0625 164.90625 C 546.05089 165.81912 544.88029 194.7661 530.21875 194.46875 C 515.51961 194.22004 516.08454 165.56304 530.0625 164.90625 z "
       inkscape:radius="0"
       sodipodi:type="inkscape:offset" /><path
       transform="matrix(0.67734952,0,0,0.67734952,-18.816624,-24.499086)"
       d="m 585.25,102.5 c -7.93215,-0.24815 -16.01875,2.68299 -16.4375,9.375 3.40499,38.33592 3.71089,71.51778 1.59375,94.4375 l 0.0312,9.125 c 2.32226,12.64669 29.90028,11.97858 30.96875,1 -1.8631,-17.95716 -4.2532,-66.03963 -0.59375,-104.25 0.15499,-6.0126 -7.63035,-9.43935 -15.5625,-9.6875 z"
       id="path4713"
       style="font-style:normal;font-variant:normal;font-weight:bold;font-stretch:normal;font-size:167.99964905px;line-height:125%;font-family:'Comic Sans MS';-inkscape-font-specification:'Comic Sans MS Bold';text-align:start;writing-mode:lr-tb;text-anchor:start;display:inline;fill:none;fill-opacity:1;stroke:#f4f4f4;stroke-opacity:1;stroke-width:3.29593414;stroke-miterlimit:4;stroke-dasharray:none"
       inkscape:original="M 585.25 102.5 C 577.31785 102.25185 569.23125 105.18299 568.8125 111.875 C 572.21749 150.21092 572.52339 183.39278 570.40625 206.3125 L 570.4375 215.4375 C 572.75976 228.08419 600.33778 227.41608 601.40625 216.4375 C 599.54315 198.48034 597.15305 150.39787 600.8125 112.1875 C 600.96749 106.1749 593.18215 102.74815 585.25 102.5 z "
       inkscape:radius="0"
       sodipodi:type="inkscape:offset" /><path
       sodipodi:nodetypes="cccssssssssssssssssscc"
       inkscape:connector-curvature="0"
       id="path5747"
       d="m 482.03796,118.83321 c -2.41569,-10.0144 -12.47378,-67.641306 -13.60547,-76.601266 -1.81898,-7.970108 7.20815,-12.392331 12.95199,-9.596537 4.40227,2.314662 11.22016,10.590538 23.18923,28.148315 6.11908,8.976248 7.73057,10.551865 8.88373,8.686019 0.27243,-0.440802 1.57263,-6.712735 2.88935,-13.937627 2.70159,-14.824032 5.40436,-24.104578 8.40372,-28.855846 2.81841,-4.464629 9.11278,-6.836567 12.79503,-4.585691 1.42497,0.870998 4.02202,3.891713 7.85855,23.839105 7.34591,38.193891 14.42215,60.405458 12.21529,67.907818 -1.40467,4.77528 -13.62477,5.43828 -16.06445,2.9632 -4.16235,-4.22273 -3.16696,-6.15709 -4.73136,-19.814 -1.30661,-11.406755 -3.96021,-25.216758 -5.34563,-27.819744 -2.16237,-4.062928 -4.18404,3.487885 -6.66417,24.890194 -0.73962,6.38231 -1.64824,10.89108 -2.33283,11.57566 -1.58351,1.58354 -7.50577,2.25367 -8.99483,1.01783 -0.66156,-0.54905 -4.53222,-6.99654 -8.60152,-14.32777 -8.10966,-14.610512 -10.60269,-18.10203 -11.96823,-16.761564 -1.10483,1.084582 0.15267,11.589423 2.37746,19.860784 4.90887,18.25037 8.18003,22.44453 7.47919,26.73597 -0.68543,4.19716 -1.31498,5.6135 -8.78071,7.89667 -7.31206,1.21304 -10.13257,-4.40421 -11.95434,-11.22152 z"
       style="display:inline;fill:none;fill-opacity:1;stroke:#f4f4f4;stroke-opacity:1;stroke-width:2.23249941;stroke-miterlimit:4;stroke-dasharray:none" /><path
       sodipodi:nodetypes="csssssssssssscc"
       inkscape:connector-curvature="0"
       id="path5745"
       d="m 432.74158,123.95987 c -8.1402,-11.28251 -11.4721,-18.75445 -19.67941,-33.268913 -10.83439,-19.160451 -22.7683,-49.821678 -22.7683,-55.873517 0,-3.802246 2.30499,-5.301566 8.15058,-5.301566 7.5587,0 6.57482,-1.354125 20.50454,28.220348 10.20345,21.6631 13.07522,26.869543 17.57794,31.868425 2.36728,2.628133 3.16556,3.098073 3.75564,2.210991 0.94586,-1.422007 1.6688,-13.838885 2.45118,-42.10031 0.5649,-20.405665 0.75573,-22.492424 2.33778,-25.564128 1.89418,-3.677889 4.71538,-5.139042 9.92249,-5.139042 2.36066,0 3.45558,0.503697 4.83013,2.221944 1.76339,2.204403 1.77364,2.40048 1.29984,24.845325 -0.26261,12.442867 -0.33131,29.545753 -0.86524,37.334327 -1.4482,21.125986 0.47192,25.274876 -4.19115,39.689336 -5.56764,7.23008 -18.84596,8.80322 -23.32602,0.85678 z"
       style="display:inline;fill:none;fill-opacity:1;stroke:#f4f4f4;stroke-opacity:1;stroke-width:2.23249941;stroke-miterlimit:4;stroke-dasharray:none" /></g></svg>