<?xml version="1.0" encoding="UTF-8" standalone="no"?>
<!-- Generator: Adobe Illustrator 16.0.3, SVG Export Plug-In . SVG Version: 6.00 Build 0)  -->

<svg
   xmlns:dc="http://purl.org/dc/elements/1.1/"
   xmlns:cc="http://creativecommons.org/ns#"
   xmlns:rdf="http://www.w3.org/1999/02/22-rdf-syntax-ns#"
   xmlns:svg="http://www.w3.org/2000/svg"
   xmlns="http://www.w3.org/2000/svg"
   xmlns:xlink="http://www.w3.org/1999/xlink"
   xmlns:sodipodi="http://sodipodi.sourceforge.net/DTD/sodipodi-0.dtd"
   xmlns:inkscape="http://www.inkscape.org/namespaces/inkscape"
   version="1.1"
   id="Layer_1"
   inkscape:version="0.91 r13725"
   sodipodi:version="0.32"
   inkscape:output_extension="org.inkscape.output.svg.inkscape"
   sodipodi:docname="system.svg"
   x="0px"
   y="0px"
   width="566.931px"
   height="154.093px"
   viewBox="-0.003 -0.001 566.931 154.093"
   enable-background="new -0.003 -0.001 566.931 154.093"
   xml:space="preserve"><metadata
     id="metadata64"><rdf:RDF><cc:Work
         rdf:about=""><dc:format>image/svg+xml</dc:format><dc:type
           rdf:resource="http://purl.org/dc/dcmitype/StillImage" /></cc:Work></rdf:RDF></metadata><defs
     id="defs3"><inkscape:perspective
       id="perspective2709"
       inkscape:vp_z="1160 : 170 : 1"
       sodipodi:type="inkscape:persp3d"
       inkscape:vp_x="0 : 170 : 1"
       inkscape:vp_y="0 : 1000 : 0"
       inkscape:persp3d-origin="580 : 113.33333 : 1" /></defs><sodipodi:namedview
     guidetolerance="10.0"
     inkscape:zoom="2.696759"
     showgrid="false"
     inkscape:cx="331.15924"
     gridtolerance="10.0"
     inkscape:cy="90.416406"
     bordercolor="#666666"
     pagecolor="#ffffff"
     borderopacity="1.0"
     objecttolerance="10.0"
     id="namedview2703"
     inkscape:pageopacity="0.0"
     inkscape:window-height="1377"
     inkscape:pageshadow="2"
     inkscape:window-y="-8"
     inkscape:current-layer="Layer_1"
     inkscape:window-x="-8"
     inkscape:window-width="2560"
     inkscape:window-maximized="1" /><path
     sodipodi:type="inkscape:offset"
     inkscape:radius="0"
     inkscape:original="M 74.125 221.6875 C 74.031114 221.69665 73.937356 221.70707 73.84375 221.71875 C 65.764917 222.46104 56.490218 223.90069 48.78125 230.59375 C 40.979317 237.36751 38.636458 248.7624 41.375 259.78125 C 41.374985 259.79167 41.374985 259.80208 41.375 259.8125 C 45.00927 288.77291 44.951506 322.46994 40.8125 351.75 C 40.877771 351.28831 40.863567 351.35781 40.78125 351.9375 C 40.71574 352.42429 40.684413 352.91508 40.6875 353.40625 C 40.326818 357.38283 41.043152 361.44289 43.25 365.09375 C 45.638986 369.04594 49.017228 371.50208 52 373.0625 C 57.869614 376.13316 63.930146 376.94705 69.5625 377.1875 C 75.256157 377.43057 80.839974 376.9777 85.9375 375.78125 C 88.48114 375.18423 91.083617 374.35189 93.6875 372.96875 C 95.822556 371.83464 100.26778 368.72508 102.125 363.5 C 102.8078 364.9355 103.67252 366.38203 104.75 367.8125 C 104.76426 367.83037 104.76687 367.85722 104.78125 367.875 C 104.81205 367.92735 104.8433 367.97944 104.875 368.03125 C 103.46588 366.20171 103.52 366.36121 105.0625 368.3125 C 105.74632 369.16201 106.5581 369.9 107.46875 370.5 C 109.20763 371.98656 110.95319 373.16154 112.125 373.6875 C 114.15814 374.60007 116.24199 375.23648 118.34375 375.71875 C 122.39043 376.64731 126.73164 377.13184 131.21875 377.3125 C 135.70474 377.49312 140.31888 377.3689 144.75 376.71875 C 148.81742 376.12197 154.19954 375.22767 159.0625 371.03125 C 166.19708 364.87457 167.99837 355.68373 166.8125 348.59375 C 165.73006 342.12213 162.97819 337.12214 160.8125 333.40625 C 157.15528 326.48782 152.62408 322.02174 149.71875 318.4375 C 148.57525 317.02679 147.97226 315.91924 147.46875 315 C 147.85067 314.56314 148.38551 313.77625 152.53125 309.65625 C 157.93988 304.28118 165.40939 294.75999 166 280.96875 C 166.01643 280.58546 166.01643 280.22704 166 279.84375 C 165.3404 263.45041 160.13488 250.69998 151.125 242.3125 C 142.26605 234.06553 131.78285 230.63622 121.9375 227.28125 C 121.8855 227.27044 121.83341 227.26002 121.78125 227.25 C 121.3516 227.10729 120.91319 226.99246 120.46875 226.90625 C 105.519 222.27656 89.148288 222.11303 75.53125 221.6875 C 74.956949 221.65057 74.699301 221.65057 74.125 221.6875 z "
     style="font-style:normal;font-variant:normal;font-weight:bold;font-stretch:normal;font-size:205.44360352px;line-height:125%;font-family:'Comic Sans MS';-inkscape-font-specification:'Comic Sans MS Bold';text-align:start;writing-mode:lr-tb;text-anchor:start;display:inline;fill:#000000;fill-opacity:1;stroke:none"
     id="path4715"
     d="m 74.125,221.6875 c -0.09389,0.009 -0.187644,0.0196 -0.28125,0.0312 -8.078833,0.74229 -17.353532,2.18194 -25.0625,8.875 -7.801933,6.77376 -10.144792,18.16865 -7.40625,29.1875 -1.5e-5,0.0104 -1.5e-5,0.0208 0,0.0312 3.63427,28.96041 3.576506,62.65744 -0.5625,91.9375 0.06527,-0.46169 0.05107,-0.39219 -0.03125,0.1875 -0.06551,0.48679 -0.09684,0.97758 -0.09375,1.46875 -0.360682,3.97658 0.355652,8.03664 2.5625,11.6875 2.388986,3.95219 5.767228,6.40833 8.75,7.96875 5.869614,3.07066 11.930146,3.88455 17.5625,4.125 5.693657,0.24307 11.277474,-0.2098 16.375,-1.40625 2.54364,-0.59702 5.146117,-1.42936 7.75,-2.8125 2.135056,-1.13411 6.58028,-4.24367 8.4375,-9.46875 0.6828,1.4355 1.54752,2.88203 2.625,4.3125 0.0143,0.0179 0.0169,0.0447 0.0312,0.0625 0.0308,0.0523 0.062,0.10444 0.0937,0.15625 -1.40912,-1.82954 -1.355,-1.67004 0.1875,0.28125 0.68382,0.84951 1.4956,1.5875 2.40625,2.1875 1.73888,1.48656 3.48444,2.66154 4.65625,3.1875 2.03314,0.91257 4.11699,1.54898 6.21875,2.03125 4.04668,0.92856 8.38789,1.41309 12.875,1.59375 4.48599,0.18062 9.10013,0.0564 13.53125,-0.59375 4.06742,-0.59678 9.44954,-1.49108 14.3125,-5.6875 7.13458,-6.15668 8.93587,-15.34752 7.75,-22.4375 -1.08244,-6.47162 -3.83431,-11.47161 -6,-15.1875 -3.65722,-6.91843 -8.18842,-11.38451 -11.09375,-14.96875 -1.1435,-1.41071 -1.74649,-2.51826 -2.25,-3.4375 0.38192,-0.43686 0.91676,-1.22375 5.0625,-5.34375 5.40863,-5.37507 12.87814,-14.89626 13.46875,-28.6875 0.0164,-0.38329 0.0164,-0.74171 0,-1.125 -0.6596,-16.39334 -5.86512,-29.14377 -14.875,-37.53125 -8.85895,-8.24697 -19.34215,-11.67628 -29.1875,-15.03125 -0.052,-0.0108 -0.10409,-0.0212 -0.15625,-0.0312 -0.42965,-0.14271 -0.86806,-0.25754 -1.3125,-0.34375 -14.94975,-4.62969 -31.320462,-4.79322 -44.9375,-5.21875 -0.574301,-0.0369 -0.831949,-0.0369 -1.40625,0 z"
     transform="matrix(0.67734952,0,0,0.67734952,-26.944827,-118.33286)" /><path
     sodipodi:type="inkscape:offset"
     inkscape:radius="8.8865232"
     inkscape:original="M 199 275.375 C 196.35438 275.30151 193.54936 275.31129 190.625 275.4375 C 175.74622 275.74435 164.70375 281.47836 157.46875 290.625 C 150.23375 299.77164 146.78904 312.04342 146 325.5625 C 145.99218 325.68738 145.99218 325.81262 146 325.9375 C 147.26991 345.15038 154.95425 355.56774 167.78125 363.46875 C 167.86197 363.5249 167.94541 363.57704 168.03125 363.625 C 173.98183 366.48259 179.09768 368.14957 184.1875 368.59375 C 190.71946 369.16379 197.00598 367.65624 204.75 364.65625 C 214.30336 360.99374 222.8602 356.58955 227.65625 350.46875 C 230.05427 347.40835 231.46817 343.69485 231 339.78125 C 230.53183 335.86765 228.30113 332.02676 224.46875 328.28125 C 224.21454 328.03309 223.91827 327.83205 223.59375 327.6875 C 220.86909 326.46053 217.91816 326.5569 214.78125 327.0625 C 216.83237 326.16283 218.73355 325.20625 220.4375 324.125 C 227.44781 319.67656 231.11375 312.82694 231.375 302.84375 C 231.37636 302.79168 231.37636 302.73957 231.375 302.6875 C 231.20236 293.02239 227.91835 285.91211 222.0625 281.5625 C 216.20665 277.21289 208.32552 275.63403 199 275.375 z M 192.25 300.4375 C 193.89629 300.35031 195.38533 300.63699 196.40625 301.15625 C 197.42717 301.67551 198.03639 302.28753 198.40625 303.4375 C 198.42502 303.50067 198.44586 303.5632 198.46875 303.625 C 199.2842 305.68 198.93153 307.13232 197.78125 308.71875 C 196.63097 310.30518 194.48715 311.79076 192.125 312.59375 C 189.76285 313.39674 187.21936 313.49375 185.5 312.9375 C 183.78064 312.38125 182.79873 311.53291 182.34375 309.34375 C 182.33472 309.2914 182.3243 309.2393 182.3125 309.1875 C 181.67121 306.82698 182.45805 305.15201 184.40625 303.46875 C 186.35445 301.78549 189.50217 300.58303 192.25 300.4375 z "
     style="font-style:normal;font-variant:normal;font-weight:bold;font-stretch:normal;font-size:176.14732361px;line-height:125%;font-family:'Comic Sans MS';-inkscape-font-specification:'Comic Sans MS Bold';text-align:start;writing-mode:lr-tb;text-anchor:start;display:inline;fill:#000000;fill-opacity:1;stroke:none"
     id="path4703"
     d="m 199.24609,266.49219 c -2.80109,-0.0778 -5.77473,-0.064 -8.875,0.0664 -17.03728,0.37029 -31.0402,7.38854 -39.87109,18.55274 -8.77932,11.09901 -12.5087,25.21376 -13.36914,39.91601 -0.0298,0.48829 -0.0306,0.9766 0,1.46485 a 8.8874119,8.8874119 0 0 0 0.002,0.0312 c 1.40495,21.25585 11.45369,35.46949 25.79297,44.37695 0.25304,0.16797 0.5071,0.33471 0.77149,0.48242 a 8.8874119,8.8874119 0 0 0 0.48632,0.25196 c 6.52654,3.13417 12.73608,5.24574 19.23047,5.8125 8.36587,0.73008 16.20899,-1.27787 24.51758,-4.49415 10.12066,-3.87999 20.03414,-8.47288 26.71875,-17.0039 3.50461,-4.47265 5.97139,-10.55556 5.17383,-17.22266 -0.64805,-5.4173 -3.28129,-10.15174 -6.85938,-14.28125 4.49118,-5.8124 7.08022,-13.23914 7.29297,-21.36914 0.005,-0.18791 0.004,-0.37654 0,-0.56445 -0.21144,-11.59194 -4.6002,-21.92167 -12.89648,-28.08399 -8.09341,-6.01162 -17.92676,-7.65254 -28.11524,-7.93554 z m -9.35742,39.47656 c 0.0198,0.0665 0.0455,0.13105 0.0664,0.19727 -6.7e-4,-0.002 -0.007,-0.006 -0.008,-0.008 l -0.0586,-0.18945 z m 0.39258,0.2832 c 0.2734,0.45055 0.52597,0.8271 0.57422,0.9668 6.2e-4,0.006 -0.003,0.0215 -0.002,0.0273 -0.25954,-0.3163 -0.45107,-0.47759 -0.60157,-0.72265 0.006,-0.0612 0.0179,-0.18057 0.0293,-0.27149 z m 36.92773,13.31836 0.0332,0.0137 c -0.008,-0.004 -0.0169,-0.004 -0.0254,-0.008 -0.003,-0.001 -0.005,-0.005 -0.008,-0.006 z"
     transform="matrix(0.697049,0,0,0.71391717,-28.290983,-132.03033)" /><path
     sodipodi:type="inkscape:offset"
     inkscape:radius="14.207483"
     inkscape:original="M 267.3125 279.84375 C 251.914 280.68527 231.80098 287.05096 231.6875 304.96875 C 233.24646 326.851 266.62559 330.75542 268.25 336.09375 C 267.74994 345.10163 242.57061 324.9882 236.875 329.96875 C 226.67061 340.11163 230.48667 348.09028 238.5 353.96875 C 243.82351 357.87397 250.98694 360.84625 257.09375 362.90625 C 270.45141 366.40625 282.98235 362.65236 290.5 358.9375 C 298.89372 355.66456 301.91308 344.76656 301.5625 335.65625 C 297.70194 317.6543 269.72568 313.6216 267.25 306.9375 C 267.56085 296.32852 292.28514 319.77343 298.84375 312.4375 C 311.15201 290.04633 295.28773 285.59235 280.21875 280.625 C 277.04892 279.89607 272.44533 279.56324 267.3125 279.84375 z "
     style="font-style:normal;font-variant:normal;font-weight:bold;font-stretch:normal;font-size:182.18806458px;line-height:125%;font-family:'Comic Sans MS';-inkscape-font-specification:'Comic Sans MS Bold';text-align:start;writing-mode:lr-tb;text-anchor:start;display:inline;fill:#000000;fill-opacity:1;stroke:none"
     id="path4649"
     d="m 275.35547,265.64453 c -2.79343,-0.17394 -5.71514,-0.15592 -8.81836,0.0137 -9.31175,0.50889 -19.9069,2.40908 -29.75781,7.97461 -9.85092,5.56554 -19.20849,16.98213 -19.29883,31.2461 a 14.208904,14.208904 0 0 0 0.0352,1.09961 c 0.47697,6.69495 2.97976,12.70435 6.31641,17.54296 -5.18593,6.54533 -8.32384,14.54576 -6.98242,22.42969 1.59478,9.37297 7.63489,15.35635 13.24609,19.47266 7.45252,5.46701 15.61678,8.6379 22.45703,10.94531 a 14.208904,14.208904 0 0 0 0.93946,0.28125 c 17.39849,4.55879 32.63339,0.0687 42.41211,-4.60742 8.47716,-3.40895 13.80507,-10.49917 16.54297,-17.14453 2.7664,-6.71457 3.55642,-13.45031 3.3125,-19.78906 a 14.208904,14.208904 0 0 0 -0.30469,-2.43165 c -0.99085,-4.62034 -2.85148,-8.49313 -5.12891,-11.87304 a 14.208904,14.208904 0 0 0 0.96875,-1.52344 c 3.79348,-6.90108 6.14252,-13.49187 6.1582,-20.53125 0.0157,-7.03938 -3.12713,-14.09264 -7.35937,-18.54297 -8.46448,-8.90065 -18.10204,-10.66132 -25.42773,-13.07617 a 14.208904,14.208904 0 0 0 -1.26368,-0.35156 c -2.58863,-0.59528 -5.25344,-0.96082 -8.04687,-1.13477 z m 3.09765,32.20117 c 0.0722,0.0362 0.29178,0.37697 0.48438,0.66211 -0.40678,-0.39722 -0.62416,-0.73217 -0.48438,-0.66211 z"
     transform="matrix(0.67734952,0,0,0.67734952,-24.235426,-119.64034)" /><path
     sodipodi:type="inkscape:offset"
     inkscape:radius="6.0363092"
     inkscape:original="M 322.96875 241.4375 C 316.33103 241.71469 310.28285 243.64363 305.8125 247.71875 C 301.34215 251.79387 299.08725 257.7324 298.875 263.625 C 298.85149 264.11547 298.87241 264.60705 298.9375 265.09375 C 299.74132 270.60515 301.88797 275.68098 305.59375 279.46875 C 305.47189 279.55119 305.33964 279.60247 305.21875 279.6875 C 300.74155 282.83667 296.90025 289.11043 297.96875 295.75 C 300.44883 311.10446 300.36775 332.32926 297.03125 350 L 297.125 350.03125 C 295.6681 356.81925 299.36608 364.02947 304.21875 367.15625 C 309.20564 370.36951 314.759 371.29167 320.25 371.21875 C 325.741 371.14583 331.23935 370.07895 336.09375 366.78125 C 338.52095 365.1324 340.84972 362.7324 342.15625 359.46875 C 343.38274 356.40504 343.3363 352.79055 342.40625 349.5625 L 342.5 349.53125 C 338.66644 334.20637 339.60186 316.43271 343.5625 296.03125 C 343.62112 295.73175 343.66286 295.42919 343.6875 295.125 C 344.12489 289.805 341.90804 284.72624 338.625 281.21875 C 338.86773 281.01494 339.1397 280.87611 339.375 280.65625 C 343.6609 276.65149 345.44487 271.14398 346.34375 265.09375 C 346.44427 264.40009 346.45477 263.69635 346.375 263 C 345.75658 257.46881 343.60977 252.09501 339.59375 248.09375 C 335.57773 244.09249 329.89865 241.81616 323.8125 241.4375 C 323.53144 241.42291 323.24981 241.42291 322.96875 241.4375 z "
     style="font-style:normal;font-variant:normal;font-weight:bold;font-stretch:normal;font-size:179.68840027px;line-height:125%;font-family:'Comic Sans MS';-inkscape-font-specification:'Comic Sans MS Bold';text-align:start;writing-mode:lr-tb;text-anchor:start;display:inline;fill:#000000;fill-opacity:1;stroke:none"
     id="path4717"
     d="m 322.68164,235.41016 c -7.63925,0.32504 -15.17173,2.59342 -20.93555,7.84765 -5.86961,5.35067 -8.62678,12.83715 -8.89843,20.10742 -0.0387,0.84445 -0.005,1.69143 0.10742,2.5293 a 6.0369129,6.0369129 0 0 0 0.01,0.0703 c 0.64898,4.44968 2.13585,8.7841 4.49414,12.66407 -4.01298,4.57933 -6.5989,10.93601 -5.44921,18.08007 a 6.0369129,6.0369129 0 0 0 0,0.004 c 2.33714,14.46956 2.26615,35.34564 -0.91016,52.16797 a 6.0369129,6.0369129 0 0 0 -0.0859,1.46875 c -1.28521,9.08937 3.1029,17.4783 9.93555,21.88086 6.26004,4.0336 13.16018,5.10605 19.38086,5.02344 6.21918,-0.0826 13.0499,-1.3323 19.15625,-5.48047 3.19482,-2.17032 6.4266,-5.44724 8.27344,-10.06055 1.64647,-4.1128 1.64958,-8.38459 0.76953,-12.32422 a 6.0369129,6.0369129 0 0 0 -0.17383,-1.32226 c -3.51022,-14.03231 -2.73695,-30.9473 1.13086,-50.875 l 0.002,-0.01 c 0.10107,-0.51829 0.17414,-1.04173 0.2168,-1.56836 l -0.002,0.006 c 0.42406,-5.15776 -0.97439,-9.925 -3.33203,-13.93945 3.51634,-4.76282 5.14786,-10.34482 5.94336,-15.69922 a 6.0369129,6.0369129 0 0 0 0.004,-0.0215 c 0.17422,-1.20226 0.19143,-2.42191 0.0547,-3.6289 l 0,-0.002 c -0.74214,-6.63459 -3.35164,-13.36086 -8.51953,-18.50976 -5.22076,-5.20157 -12.31572,-7.94894 -19.66602,-8.40625 a 6.0369129,6.0369129 0 0 0 -0.0625,-0.002 c -0.48108,-0.025 -0.96225,-0.0241 -1.44336,0 z"
     transform="matrix(0.67734952,0,0,0.67734952,-22.880761,-118.48314)" /><path
     sodipodi:type="inkscape:offset"
     inkscape:radius="13.642815"
     inkscape:original="M 404.59375 238.53125 C 401.06394 238.31589 397.38515 239.28946 394.4375 241.65625 C 391.89483 244.10753 389.33369 244.56458 392.59375 259.4375 C 392.98815 270.57119 394.18219 275.55275 377.625 275.03125 C 350.26405 275.68485 337.65409 297.90981 336.25 322.71875 C 336.5756 346.5575 352.6294 362.6953 375.9375 364.40625 C 384.09192 365.40563 388.17378 363.38338 394.0625 359.1875 C 396.43845 361.2276 399.85594 364.28124 402.90625 364.28125 C 412.59172 363.9554 417.18763 359.01714 416.625 350.09375 C 405.4005 324.18611 430.34832 254.92697 413.84375 242.53125 C 411.50896 240.13897 408.12356 238.74661 404.59375 238.53125 z M 375.8125 304.34375 C 392.40164 303.83101 390.69346 333.1916 376.1875 334.03125 C 360.89633 334.32945 360.21244 304.80237 375.8125 304.34375 z "
     style="font-style:normal;font-variant:normal;font-weight:bold;font-stretch:normal;font-size:167.25732422px;line-height:125%;font-family:'Comic Sans MS';-inkscape-font-specification:'Comic Sans MS Bold';text-align:start;writing-mode:lr-tb;text-anchor:start;display:inline;fill:#000000;fill-opacity:1;stroke:none"
     id="path4653"
     d="m 405.42383,224.91406 c -6.59957,-0.40265 -13.68283,1.41072 -19.52735,6.10352 a 13.644179,13.644179 0 0 0 -0.92773,0.8164 c 0.0714,-0.0688 -5.36622,4.53982 -6.89063,10.85157 -1.3863,5.73994 -0.62158,10.7791 0.85547,17.76367 0.005,0.44778 -0.0301,0.51728 -0.041,0.91016 -0.45382,2.9e-4 -0.31593,0.0516 -0.83789,0.0351 a 13.644179,13.644179 0 0 0 -0.75586,-0.002 c -17.32126,0.41377 -31.92246,8.46931 -40.89258,20.08594 -8.97012,11.61662 -12.95809,25.99333 -13.77734,40.46875 a 13.644179,13.644179 0 0 0 -0.0195,0.95703 c 0.40625,29.74367 23.03788,52.73123 51.94921,55.04492 6.64657,0.75573 12.89972,-0.63683 18.3418,-2.84961 2.40101,1.4236 5.33097,2.8242 10.00586,2.82422 a 13.644179,13.644179 0 0 0 0.45898,-0.008 c 7.08499,-0.23837 14.63749,-2.36638 20.09766,-8.06836 5.46017,-5.70199 7.21541,-13.66555 6.77734,-20.61328 a 13.644179,13.644179 0 0 0 -1.09765,-4.56446 c -1.19176,-2.75073 -2.20041,-10.44681 -1.74024,-19.90625 0.46018,-9.45944 1.95291,-20.67886 3.34961,-31.82031 1.39671,-11.14145 2.73538,-22.13887 2.55078,-32.26758 -0.17637,-9.67777 -0.97364,-20.27217 -10.04101,-27.96289 -5.0417,-4.99163 -11.40911,-7.4066 -17.83789,-7.79883 z"
     transform="matrix(0.67734952,0,0,0.67734952,-21.526025,-118.82228)" /><path
     sodipodi:type="inkscape:offset"
     inkscape:radius="14.448946"
     inkscape:original="M 439.09375 274.96875 C 431.33791 275.379 423.24195 278.737 421.28125 285.28125 C 418.27354 314.86002 411.96745 360.9386 452.09375 363.90625 C 457.28498 363.90626 462.36129 361.37955 467.3125 359.875 C 470.07121 362.45589 470.58389 365.125 478.4375 364.625 C 494.96542 364.99353 492.43958 352.73839 492.15625 341.1875 C 487.8557 324.33196 489.46595 302.26538 491.53125 283.4375 C 490.7625 273.40965 465.88241 272.24614 461.21875 281.9375 C 458.02261 292.08973 465.38712 327.83265 456.3125 330.09375 C 448.01819 327.62464 456.52985 288.37186 454.71875 282.34375 C 454.23883 277.08073 446.84959 274.5585 439.09375 274.96875 z "
     style="font-style:normal;font-variant:normal;font-weight:bold;font-stretch:normal;font-size:166.08294678px;line-height:125%;font-family:'Comic Sans MS';-inkscape-font-specification:'Comic Sans MS Bold';text-align:start;writing-mode:lr-tb;text-anchor:start;display:inline;fill:#000000;fill-opacity:1;stroke:none"
     id="path4655"
     d="m 438.33008,260.53906 c -5.68967,0.30096 -11.45577,1.54955 -17.0586,4.50586 -5.60283,2.95631 -11.47749,8.23107 -13.83203,16.08985 a 14.450391,14.450391 0 0 0 -0.5332,2.68554 c -1.47743,14.52955 -4.32915,34.42173 -0.57227,53.53907 1.87845,9.55866 5.63014,19.34199 13.1836,27.18945 7.55346,7.84746 18.70758,12.82076 31.50976,13.76758 a 14.450391,14.450391 0 0 0 1.06641,0.0391 c 5.15457,10e-6 9.22643,-0.97786 12.50195,-2.07227 4.28368,2.25299 9.46672,3.03201 14.41016,2.76368 5.60517,0.0214 11.15342,-0.92828 16.14258,-3.98829 5.25406,-3.22248 8.78526,-8.71965 10.24023,-13.35937 2.90995,-9.27943 1.33182,-16.0168 1.21289,-20.86524 a 14.450391,14.450391 0 0 0 -0.44531,-3.21875 c -3.34013,-13.09129 -2.28235,-34.18088 -0.26172,-52.60156 a 14.450391,14.450391 0 0 0 0.043,-2.67969 c -0.64459,-8.40832 -6.72027,-14.59491 -11.9043,-17.41601 -5.18402,-2.82111 -10.32129,-3.80663 -15.50195,-4.05664 -5.18066,-0.25001 -10.40246,0.31256 -15.67969,2.24219 -1.41222,0.51638 -2.87001,1.17995 -4.32031,1.96875 -1.07547,-0.67641 -2.1612,-1.37505 -3.1875,-1.81641 -5.73304,-2.46548 -11.33431,-3.01721 -17.01367,-2.7168 z"
     transform="matrix(0.67734952,0,0,0.67734952,-20.17136,-119.56922)" /><path
     sodipodi:type="inkscape:offset"
     inkscape:radius="14.716772"
     inkscape:original="M 535.625 276.875 C 524.23732 276.87509 513.96588 281.58887 505.78125 290.5625 C 497.58215 299.49987 493.24998 310.91716 493.25 323.59375 C 493.515 348.67338 502.54772 362.79524 528.0625 365.4375 C 533.96042 365.27062 539.428 362.72834 544.625 360.15625 C 547.33997 363.17986 550.30423 365.80065 554.5 366.1875 C 562.56066 365.86763 567.20786 359.43056 567.8125 351.875 C 565.36267 340.71226 563.48978 331.0348 562.875 319.375 C 562.5999 311.70106 563.18892 304.05368 563.625 296.96875 C 562.73982 283.25516 547.15188 278.32745 535.625 276.875 z M 530.0625 306.3125 C 546.05089 307.22536 544.88029 336.17235 530.21875 335.875 C 515.51961 335.62628 516.08454 306.96928 530.0625 306.3125 z "
     style="font-style:normal;font-variant:normal;font-weight:bold;font-stretch:normal;font-size:162.06369019px;line-height:125%;font-family:'Comic Sans MS';-inkscape-font-specification:'Comic Sans MS Bold';text-align:start;writing-mode:lr-tb;text-anchor:start;display:inline;fill:#000000;fill-opacity:1;stroke:none"
     id="path4657"
     d="m 535.625,262.1582 c -15.43971,1.3e-4 -30.11209,6.87208 -40.69727,18.4668 -10.66747,11.63387 -16.39455,26.9444 -16.39453,42.96875 a 14.718244,14.718244 0 0 0 0,0.15625 c 0.15086,14.27714 2.72042,27.59775 11.07032,38.25586 8.34989,10.65811 21.69092,16.4908 36.94336,18.07031 a 14.718244,14.718244 0 0 0 1.93164,0.0723 c 5.42669,-0.15355 9.95993,-1.4082 13.97265,-2.93164 3.00153,1.7655 6.48711,3.23682 10.69727,3.625 a 14.718244,14.718244 0 0 0 1.93554,0.0508 c 7.82663,-0.31058 15.32412,-4.11986 19.9961,-9.51758 4.67197,-5.39772 6.88737,-11.89114 7.40234,-18.32617 a 14.718244,14.718244 0 0 0 -0.29492,-4.32813 c -2.3962,-10.91838 -4.04313,-19.54806 -4.60352,-30.01562 -0.22354,-6.53475 0.28747,-13.63467 0.73047,-20.83203 a 14.718244,14.718244 0 0 0 -0.004,-1.85157 c -0.79298,-12.28513 -9.22343,-21.78492 -17.36914,-26.46093 -8.14572,-4.67601 -16.48136,-6.40568 -23.47657,-7.28711 A 14.718244,14.718244 0 0 0 535.625,262.1582 Z"
     transform="matrix(0.67734952,0,0,0.67734952,-18.816624,-119.66635)" /><path
     sodipodi:type="inkscape:offset"
     inkscape:radius="12.46869"
     inkscape:original="M 585.25 244 C 577.31785 243.75185 569.23125 246.68299 568.8125 253.375 C 572.21749 291.71092 572.52339 324.89278 570.40625 347.8125 L 570.4375 356.9375 C 572.75976 369.58418 600.33778 368.91608 601.40625 357.9375 C 599.54315 339.98035 597.15305 291.89787 600.8125 253.6875 C 600.96749 247.6749 593.18215 244.24815 585.25 244 z "
     style="font-style:normal;font-variant:normal;font-weight:bold;font-stretch:normal;font-size:167.99964905px;line-height:125%;font-family:'Comic Sans MS';-inkscape-font-specification:'Comic Sans MS Bold';text-align:start;writing-mode:lr-tb;text-anchor:start;display:inline;fill:#000000;fill-opacity:1;stroke:none;stroke-opacity:1"
     id="path4659"
     d="m 585.64062,231.53711 c -5.63202,-0.17619 -11.362,0.56536 -17.01953,3.4043 -5.65753,2.83893 -11.73918,9.42852 -12.2539,17.65429 a 12.469937,12.469937 0 0 0 0.0254,1.88282 c 3.35472,37.76991 3.60329,70.47487 1.59765,92.1875 a 12.469937,12.469937 0 0 0 -0.0527,1.18945 l 0.0312,9.125 a 12.469937,12.469937 0 0 0 0.20508,2.20898 c 1.37583,7.49259 6.8487,13.0345 12.11719,15.8125 5.26848,2.778 10.6955,3.73343 16.03125,3.76367 5.33574,0.0302 10.61314,-0.83818 15.76953,-3.45898 5.15638,-2.6208 10.95776,-8.28271 11.72461,-16.16211 a 12.469937,12.469937 0 0 0 -0.008,-2.49414 c -1.74028,-16.77342 -4.09968,-65.0641 -0.58398,-101.77344 a 12.469937,12.469937 0 0 0 0.0527,-0.86718 c 0.21766,-8.44359 -5.75686,-15.19387 -11.10742,-18.19922 -5.35056,-3.00536 -10.89776,-4.09726 -16.5293,-4.27344 z"
     transform="matrix(0.67734952,0,0,0.67734952,-18.816624,-119.32801)" /><g
     id="g4778"
     transform="matrix(0.11289158,0,0,0.11289158,339.71236,-36.084938)"
     style="display:inline;stroke:none;stroke-opacity:1"><g
       style="display:inline;stroke:none;stroke-opacity:1"
       inkscape:label="green"
       id="layer2-2" /><path
       inkscape:href="#path5719"
       sodipodi:type="inkscape:offset"
       inkscape:radius="26.804295"
       inkscape:original="M 1019.0938 491.09375 C 966.95222 491.09375 926.79075 505.59221 914.53125 528.84375 C 908.94205 539.44435 905.8774 602.50661 902.5 776.90625 C 895.1976 1153.9622 894.3699 1156.7973 820.375 1056.2812 C 774.34645 993.75501 734.15005 918.40669 650.53125 737.9375 C 608.15244 646.47397 581.83656 596.29708 572.15625 588.53125 C 561.38098 579.88701 550.45234 576.84375 530.21875 576.84375 C 494.59167 576.84375 443.52747 580.80138 448.46875 604.65625 L 450.90625 616.5 L 462 716.34375 C 458.4573 684.38745 544.92815 945.82075 637.15625 1108.4688 C 709.2273 1235.5688 822.58609 1417.1201 841.4375 1435.6562 C 857.1036 1451.0599 858.29395 1451.3094 898.90625 1448.375 C 942.97655 1445.1906 1002.665 1429.5921 1015.6562 1417.8438 C 1020.5904 1413.3815 1030.7928 1361.782 1043.2812 1278.3125 C 1081.7063 1021.4932 1096.2559 828.88719 1090.1562 657.375 C 1086.1327 544.23922 1081.525 507.52233 1070.0625 497.15625 C 1066.0959 493.56925 1045.2078 491.09375 1019.0938 491.09375 z "
       xlink:href="#path5719"
       style="fill:#000000;fill-opacity:1;stroke:none;stroke-opacity:1"
       id="path5721"
       d="m 1019.0938,464.28906 c -28.55524,0 -54.38106,3.82044 -76.33989,11.74805 -21.95884,7.92761 -41.24381,20.03028 -51.9336,40.30469 -6.03968,11.45499 -5.45358,17.11312 -6.6914,28.24609 -1.23783,11.13297 -2.25725,25.82648 -3.21485,45.5625 -1.9152,39.47205 -3.52236,98.94212 -5.21289,186.23633 -1.82542,94.25484 -3.25092,165.06611 -5.48633,216.20703 -1.5056,34.44455 -3.72075,59.65765 -6.06054,76.58785 -6.31165,-7.7914 -13.86161,-17.473 -22.19336,-28.791 -44.35053,-60.2467 -83.67168,-133.64429 -167.10938,-313.72263 -21.29309,-45.95555 -38.58138,-81.62688 -52.0332,-107.27149 -6.72591,-12.8223 -12.46437,-23.11274 -17.52539,-31.25586 -5.06103,-8.14311 -7.57732,-13.46922 -16.36328,-20.51757 -15.28035,-12.25835 -35.78966,-17.58399 -58.71094,-17.58399 -18.80606,0 -41.56878,0.73242 -62.32422,5.69727 -10.37772,2.48242 -20.55477,5.61613 -30.50976,13.59375 -9.95162,7.9749 -18.28224,25.66461 -15.16602,40.74804 l 2.18359,10.61329 10.95704,98.61328 a 26.806975,26.806975 0 0 0 7.8164,15.75195 c 1.74502,3.93172 3.56294,7.98634 6.85156,16.18359 8.89992,22.18401 22.32202,57.10754 38.75196,98.15039 32.85987,82.08572 77.67993,188.74118 125.06054,272.29888 36.30871,64.0317 82.77779,141.3766 122.67774,205.2812 19.94997,31.9523 38.23923,60.5146 52.8789,82.4805 14.63968,21.9659 22.51367,34.7635 33.24805,45.3183 8.02347,7.8891 18.2898,17.1784 32.38672,20.295 14.09692,3.1165 25.42725,1.5174 45.80664,0.045 24.30537,-1.7563 51.29341,-6.6891 74.87891,-12.8555 11.79275,-3.0832 22.66943,-6.4593 32.1562,-10.1601 9.4869,-3.7009 17.129,-6.5624 25.7618,-14.3692 8.4429,-7.6355 7.7759,-10.6167 9.1054,-14.0469 1.3296,-3.4301 2.3481,-6.8059 3.418,-10.7304 2.1399,-7.849 4.3367,-17.7348 6.7715,-30.0371 4.8696,-24.6047 10.5787,-58.6391 16.8613,-100.6309 38.5688,-257.7796 53.3312,-452.11989 47.1524,-625.85742 -2.021,-56.82817 -4.1356,-94.61235 -7.4493,-121.03126 -3.3137,-26.4189 -5.37,-43.5705 -21.4531,-58.11523 -8.5345,-7.71774 -12.7386,-7.39907 -17.3965,-8.57227 -4.6579,-1.17319 -9.3494,-1.91742 -14.5976,-2.54101 -10.4964,-1.24717 -23.0492,-1.87305 -36.9531,-1.87305 z M 488.64062,713.39062 c -8.4e-4,-0.008 0.0894,0.46182 0.0723,1.56641 a 26.806975,26.806975 0 0 0 -0.0723,-1.56641 z m -47.8789,15.96485 c 0.17749,0.35495 1.05848,2.55191 1.32812,3.13867 -1.47204,-1.66823 -1.14966,-2.67243 -1.32812,-3.13867 z" /><path
       inkscape:href="#path5719"
       sodipodi:type="inkscape:offset"
       inkscape:radius="-76.356903"
       inkscape:original="M 1019.0938 491.09375 C 966.95222 491.09375 926.79075 505.59221 914.53125 528.84375 C 908.94205 539.44435 905.8774 602.50661 902.5 776.90625 C 895.1976 1153.9622 894.3699 1156.7973 820.375 1056.2812 C 774.34645 993.75501 734.15005 918.40669 650.53125 737.9375 C 608.15244 646.47397 581.83656 596.29708 572.15625 588.53125 C 561.38098 579.88701 550.45234 576.84375 530.21875 576.84375 C 494.59167 576.84375 443.52747 580.80138 448.46875 604.65625 L 450.90625 616.5 L 462 716.34375 C 458.4573 684.38745 544.92815 945.82075 637.15625 1108.4688 C 709.2273 1235.5688 822.58609 1417.1201 841.4375 1435.6562 C 857.1036 1451.0599 858.29395 1451.3094 898.90625 1448.375 C 942.97655 1445.1906 1002.665 1429.5921 1015.6562 1417.8438 C 1020.5904 1413.3815 1030.7928 1361.782 1043.2812 1278.3125 C 1081.7063 1021.4932 1096.2559 828.88719 1090.1562 657.375 C 1086.1327 544.23922 1081.525 507.52233 1070.0625 497.15625 C 1066.0959 493.56925 1045.2078 491.09375 1019.0938 491.09375 z "
       xlink:href="#path5719"
       style="fill:#000000;fill-opacity:1;stroke:none;stroke-opacity:1"
       id="path5729"
       d="m 1003.166,535.64648 c 0.085,0.36805 0.7077,1.46029 1.6465,2.875 -0.9706,-2.47309 -1.7888,-3.49054 -1.6465,-2.875 z m -14.06248,13.43946 c -0.18959,-0.18079 -1.30818,2.28829 -1.97657,5.12109 1.42221,-3.15072 2.10773,-4.99602 1.97657,-5.12109 z m 19.95698,18.75 c -9.4546,0.5515 -17.62391,1.72965 -23.68745,3.12109 -0.47233,6.64008 -0.95779,14.66884 -1.41993,24.19336 -1.80661,37.23422 -3.42783,96.30343 -5.11132,183.23438 -1.82611,94.29005 -3.23184,165.34821 -5.56446,218.71289 -2.33261,53.36464 -3.53992,85.98854 -13.57226,120.11914 -5.01617,17.0653 -10.8385,43.7602 -48.73438,62.6191 -18.94793,9.4295 -43.3794,10.2546 -59.63281,5.9844 -16.2534,-4.2702 -26.2031,-10.9916 -33.86523,-16.7598 -30.64856,-23.0727 -39.94924,-42.1899 -58.58985,-67.5117 C 708.07411,1032.5292 665.38469,951.62167 581.25,770.03906 561.54858,727.51872 545.79813,695.14047 533.92578,672.23242 l 1.89844,17.08985 c 3.36878,7.30154 6.23998,14.26505 9.94726,23.50585 9.47567,23.61912 22.65246,57.93402 38.78125,98.22461 32.2576,80.58119 76.51937,184.79084 119.02539,259.75197 35.25733,62.1776 81.29563,138.8264 120.44532,201.5293 19.57484,31.3514 37.48038,59.2985 51.21484,79.9062 4.93833,7.4097 10.09493,14.2577 14.5957,20.1387 1.29145,-0.071 2.15378,-0.06 3.56836,-0.1621 15.56801,-1.1249 38.52443,-5.1434 56.21875,-9.7695 0.84231,-0.2203 1.48881,-0.4412 2.3086,-0.6641 4.30097,-21.8605 9.78389,-54.3191 15.83593,-94.7695 38.01578,-254.0836 51.95628,-441.75293 46.08208,-606.92581 -1.4534,-40.86551 -3.0686,-71.17801 -4.7872,-92.25195 z m 32.002,0.55078 c 2.1873,0.37539 3.6127,0.15906 4.3848,0.35351 2.0149,0.50751 0.7619,0.14064 -1.5723,-0.13671 -0.6468,-0.0769 -1.9912,-0.13999 -2.8125,-0.2168 z m -66.24805,6.09766 c -0.65121,0.42635 -0.66038,0.52236 0,0 z m -1.29687,779.40042 c -0.25608,0.074 -1.11621,0.6281 -2.65235,1.832 1.78798,-0.8272 3.10241,-1.9617 2.65235,-1.832 z m -25.57227,26.0097 c -1.77192,3.5624 -1.20012,5.0696 -1.3789,6.127 0.0288,-0.1019 0.0326,-0.099 0.0625,-0.209 0.25983,-0.9531 0.94527,-4.3844 1.3164,-5.918 z" /><path
       inkscape:href="#path5719"
       sodipodi:type="inkscape:offset"
       inkscape:radius="72.43335"
       inkscape:original="M 1019.0938 491.09375 C 966.95222 491.09375 926.79075 505.59221 914.53125 528.84375 C 908.94205 539.44435 905.8774 602.50661 902.5 776.90625 C 895.1976 1153.9622 894.3699 1156.7973 820.375 1056.2812 C 774.34645 993.75501 734.15005 918.40669 650.53125 737.9375 C 608.15244 646.47397 581.83656 596.29708 572.15625 588.53125 C 561.38098 579.88701 550.45234 576.84375 530.21875 576.84375 C 494.59167 576.84375 443.52747 580.80138 448.46875 604.65625 L 450.90625 616.5 L 462 716.34375 C 458.4573 684.38745 544.92815 945.82075 637.15625 1108.4688 C 709.2273 1235.5688 822.58609 1417.1201 841.4375 1435.6562 C 857.1036 1451.0599 858.29395 1451.3094 898.90625 1448.375 C 942.97655 1445.1906 1002.665 1429.5921 1015.6562 1417.8438 C 1020.5904 1413.3815 1030.7928 1361.782 1043.2812 1278.3125 C 1081.7063 1021.4932 1096.2559 828.88719 1090.1562 657.375 C 1086.1327 544.23922 1081.525 507.52233 1070.0625 497.15625 C 1066.0959 493.56925 1045.2078 491.09375 1019.0938 491.09375 z "
       xlink:href="#path5719"
       style="fill:#000000;fill-opacity:1;stroke:none;stroke-opacity:1"
       id="path5735"
       d="m 1019.0938,418.66016 c -32.78443,0 -63.29012,4.15402 -91.83403,14.45898 -28.54392,10.30496 -58.34842,26.9444 -76.80079,61.94141 -13.94242,26.4435 -10.25161,31.64223 -11.67968,44.48633 -1.42808,12.84409 -2.4598,28.16164 -3.44141,48.39257 -1.96323,40.46186 -3.56417,100.10957 -5.25781,187.56446 -1.227,63.35532 -2.35144,112.45308 -3.57422,155.4414 -27.66579,-49.45011 -60.90198,-116.94584 -110.25391,-223.45898 -21.4696,-46.33651 -38.95144,-82.45452 -53.02539,-109.28516 -7.03697,-13.41532 -13.14758,-24.44092 -19.17968,-34.14648 -6.03211,-9.70556 -6.94183,-16.28159 -26.56446,-32.02344 -22.94937,-18.41066 -59.76712,-27.62109 -87.26367,-27.62109 -20.49562,0 -45.11322,0.29298 -72.93945,6.94922 -13.91312,3.32811 -29.44044,7.14747 -48.42774,22.36328 -18.98729,15.2158 -37.65253,55.00796 -31.31054,85.625 l 1.74414,8.47656 10.72461,96.51758 a 72.440593,72.440593 0 0 0 13.09179,33.32031 c -0.0397,-0.23926 -0.11754,-0.49141 -0.14258,-0.71289 0.14269,0.33106 0.31366,0.75737 0.47657,1.13672 a 72.440593,72.440593 0 0 0 12.44726,13.09179 c -5.50231,-3.3777 -8.8194,-6.24085 -10.55859,-8.57812 1.11863,2.66477 1.03819,2.34544 2.35547,5.62891 8.64526,21.54925 22.17514,56.7455 38.73828,98.12109 33.12627,82.75118 78.19379,190.48769 127.73047,277.84769 36.77374,64.8518 83.43227,142.5014 123.66406,206.9375 20.1159,32.218 38.57517,61.0563 53.61523,83.623 15.04007,22.5667 18.23975,31.913 39.22461,52.5469 a 72.440593,72.440593 0 0 0 0.002,0 c 8.34761,8.2078 28.91513,26.6502 54.52734,32.3125 25.61221,5.6623 38.44125,2.4834 58.94531,1.0019 28.16998,-2.0354 56.93965,-7.373 83.13086,-14.2207 13.09559,-3.4238 25.36889,-7.1806 37.19729,-11.7949 11.8284,-4.6143 21.9856,-6.9405 39.7851,-23.0371 21.7655,-19.6839 18.7725,-25.5354 21.045,-31.3984 2.2725,-5.8631 3.5759,-10.3752 4.8964,-15.2188 2.641,-9.6871 4.9548,-20.2702 7.5098,-33.1797 5.1099,-25.819 10.8784,-60.3089 17.2266,-102.7383 38.8134,-259.4144 53.9385,-456.70466 47.625,-634.23042 -2.0368,-57.27122 -4.075,-95.60153 -7.7735,-125.08789 -3.6984,-29.48636 -2.4179,-55.79813 -36.123,-86.2793 a 72.440593,72.440593 0 0 0 -0,-0.002 c -21.3746,-19.32914 -29.2461,-17.05802 -36.8554,-18.97461 -7.6094,-1.91658 -13.8224,-2.82874 -20.3594,-3.60547 -13.0741,-1.55346 -26.9902,-2.1914 -42.3359,-2.1914 z M 533.99219,708.36328 c 0.16381,1.4776 1.08328,3.29881 0.0332,12.57422 a 72.440593,72.440593 0 0 0 -0.0332,-12.57422 z m -0.54492,17.71289 c -0.52375,4.90217 -0.86972,12.03386 -7.45118,22.8125 a 72.440593,72.440593 0 0 0 7.45118,-22.8125 z m 283.97851,346.27343 c -0.14542,0.8471 -0.41196,2.6998 -0.47266,2.9063 -0.0843,0.2868 -0.10173,-0.8941 0.47266,-2.9063 z" /><path
       inkscape:href="#path5723"
       sodipodi:type="inkscape:offset"
       inkscape:radius="95.23587"
       inkscape:original="M 1729.375 462.6875 C 1698.2169 463.81512 1652.9726 484.39554 1635.9375 507 C 1610.5378 540.70414 1584.3486 629.92421 1565.6562 746.375 C 1559.3329 785.76866 1550.6164 834.27772 1546.2812 854.1875 C 1533.8454 911.30016 1528.4107 908.44967 1465.8125 811.625 C 1419.7929 740.44359 1358.8425 655.04962 1332.5938 624.96875 C 1297.4853 584.73504 1278.0037 569.24588 1253.6562 562.28125 C 1225.2906 554.16722 1183.38 556.85351 1164.125 568 C 1139.2322 582.41013 1139.1129 580.81137 1185.5 832.875 C 1208.1762 956.0957 1240.9143 1122.5423 1258.25 1202.75 C 1293.2017 1364.4599 1292.5077 1362.6836 1321.1562 1365.1875 C 1329.2213 1365.8924 1353.0642 1362.7325 1374.1562 1358.1562 C 1426.4874 1346.8018 1435.9278 1338.1307 1435.8438 1301.4062 C 1435.7542 1262.1155 1424.9939 1211.7068 1399.6562 1131.9062 C 1382.4918 1077.8499 1374.7877 1046.4012 1367.2188 999.5 C 1346.966 874.00158 1367.8829 887.88768 1466 1065.0625 C 1517.2531 1157.6131 1526.4885 1174.5882 1539.75 1177.625 C 1559.579 1188.1033 1601.7709 1182.3025 1622.7188 1160.4375 C 1628.4128 1152.4321 1630.5249 1089.2163 1637.0312 1036.2188 C 1650.9127 923.14511 1663.8346 863.13339 1674.7188 861.15625 C 1685.6133 859.17728 1690.0367 871.03762 1707.5938 949.4375 C 1719.5718 1002.9246 1724.6171 1035.4624 1727.875 1080.3438 C 1735.0073 1178.6 1754.3575 1257.4839 1774.5 1270.3125 C 1788.8024 1279.4213 1810.9329 1280.5373 1847.0938 1273.9688 C 1890.0913 1266.1583 1911.64 1253.6147 1912.75 1235.75 C 1913.1589 1229.1671 1881.4635 1059.0043 1842.2812 857.625 C 1764.3212 456.94557 1767.1405 468.06131 1741.75 463.4375 C 1737.9975 462.75414 1733.8262 462.52641 1729.375 462.6875 z "
       xlink:href="#path5723"
       style="fill:#000000;fill-opacity:1;stroke:none;stroke-opacity:1"
       id="path5725"
       d="m 1725.9297,367.51367 c -34.8412,1.26091 -62.0443,10.43536 -88.9336,23.01758 -26.8893,12.58222 -52.5688,26.57886 -77.1152,59.15039 a 95.245394,95.245394 0 0 0 0,0.002 c -27.5402,36.54442 -39.3663,72.78088 -52.9786,119.14649 -8.6342,29.40982 -16.4597,62.5292 -23.6054,98.22656 -29.2199,-41.87777 -57.4492,-80.06863 -78.9453,-104.70312 a 95.245394,95.245394 0 0 0 0,-0.002 c -38.6224,-44.26052 -77.1752,-78.09436 -124.5039,-91.63281 -28.7786,-8.23215 -54.4946,-9.50159 -80.4512,-7.8418 -25.9566,1.6598 -50.2992,3.78012 -82.9844,22.70117 -5.5338,3.20347 -35.9127,20.02017 -51.8535,53.28126 -15.9408,33.26108 -13.233,57.44599 -11.4024,80.12109 3.6614,45.35019 15.492,105.12 38.6817,231.13086 22.8663,124.25348 55.4733,290.15747 73.3262,372.75777 17.4635,80.7981 23.4472,117.3724 38.0918,155.1914 7.3222,18.9096 22.0907,47.1651 51.8164,65.043 29.7256,17.8779 51.5686,16.4152 57.791,16.959 24.4385,2.136 29.964,-0.3487 42.4297,-2.002 12.4656,-1.6532 25.6825,-3.9322 39.0566,-6.8339 29.9153,-6.4908 59.6991,-9.5722 94.7774,-41.836 35.0775,-32.2631 42.0135,-81.6609 41.9531,-108.2011 -0.02,-8.5926 -0.4689,-17.2712 -1.127,-26.0254 24.8596,6.0831 46.3698,3.649 68.0664,-0.336 20.3719,-3.7417 41.3692,-10.2173 61.7657,-22.8203 3.6066,12.1681 7.6793,23.9104 12.8691,35.6192 8.2328,18.574 14.1767,39.7614 50.6855,63.0136 a 95.245394,95.245394 0 0 0 0,0 c 48.8743,31.1267 96.0236,25.1599 140.7734,17.0313 27.567,-5.0076 52.3407,-10.97 79.4258,-26.7364 27.0851,-15.7663 61.4268,-53.6528 64.2617,-99.2793 a 95.245394,95.245394 0 0 0 0,-0 c 1.599,-25.7421 -0.521,-18.3979 -0.9336,-21.5156 -0.4125,-3.1178 -0.8458,-5.936 -1.373,-9.2461 -1.0544,-6.6203 -2.4686,-14.9054 -4.2813,-25.1992 -3.6252,-20.5877 -8.8094,-48.9532 -15.2285,-83.4024 -12.838,-68.8984 -30.5905,-161.95512 -50.2226,-262.85545 -38.9705,-200.29052 -57.1021,-295.77261 -71.1797,-350.96289 -7.0388,-27.59514 -8.9854,-46.19192 -31.9531,-75.98438 -11.4839,-14.89623 -32.9965,-30.49775 -49.6016,-36.60351 -16.6051,-6.10577 -24.1987,-6.13928 -24.2168,-6.14258 -12.3221,-2.24396 -23.0407,-2.58471 -32.8828,-2.22852 z m -143.3985,446.49219 c 7.7982,5.01373 4.5311,4.62897 0,0 z m 16.8809,94.38867 c 0.01,0.0257 0.5412,2.04835 0.6094,2.28516 -0.4628,-1.41852 -0.63,-2.34061 -0.6094,-2.28516 z m -143.9726,28.01563 c -0.032,0.67302 1.5109,3.35774 0.8808,8.77539 -0.421,-4.7635 -0.8273,-9.90025 -0.8808,-8.77539 z"
       transform="translate(0,57.256923)" /></g><path
     style="font-style:normal;font-variant:normal;font-weight:bold;font-stretch:normal;font-size:205.44360352px;line-height:125%;font-family:'Comic Sans MS';-inkscape-font-specification:'Comic Sans MS Bold';text-align:start;writing-mode:lr-tb;text-anchor:start;display:inline;fill:#76bf00;fill-opacity:1;stroke:none"
     d="m 23.915738,38.489671 c -9.553732,0.877811 -17.420375,4.10959 -13.788056,15.608741 2.575483,20.523334 2.510756,44.011248 -0.4420688,64.805998 -1.8500229,9.1274 22.8030458,7.68424 24.0179338,3.55001 -0.449183,-7.03527 -2.226039,-11.12477 3.283017,-15.13203 5.229921,-2.25473 7.226067,0.1327 9.489145,2.03973 4.35478,5.7247 1.58672,9.55835 4.867713,13.70931 1.832865,2.89878 19.594173,3.97898 23.504303,0.60478 4.381006,-3.78052 1.797991,-9.66495 -0.737038,-14.01456 C 70.695148,103.20043 63.318422,97.97546 63.164137,92.27755 64.174033,83.978688 75.853367,82.305482 76.414916,69.192734 75.647328,50.11602 65.932964,46.355433 52.707085,41.848488 44.363778,39.100344 33.465912,38.788119 23.915738,38.489671 Z M 40.326356,61.38181 c 7.051416,0.118444 8.625722,6.275896 8.583523,9.31419 0.25591,3.247557 -0.539997,11.071634 -8.320151,11.111618 -7.040745,-0.421826 -8.290716,-7.874132 -8.246566,-11.04119 0.160214,-3.341549 1.501069,-9.167338 7.983194,-9.384618 z"
     id="path4525"
     sodipodi:nodetypes="cccccccscccccccccc"
     inkscape:connector-curvature="0" /><path
     sodipodi:type="inkscape:offset"
     inkscape:radius="0"
     inkscape:original="M 198.90625 137.46875 C 196.32797 137.39713 193.59974 137.43951 190.75 137.5625 C 162.42164 138.14671 150.53072 158.61696 149 184.84375 C 150.22617 203.39486 156.99972 212.39648 169.34375 220 C 175.10433 222.76636 179.82177 224.28469 184.4375 224.6875 C 190.35391 225.20383 196.10264 223.86373 203.65625 220.9375 C 222.31879 213.78276 236.44031 203.27773 222.375 189.53125 C 216.15501 186.73025 208.55646 191.18484 190.34375 196.59375 C 185.3729 198.10028 181.50186 193.17459 189.09375 191.03125 C 216.47375 183.58238 227.88409 180.60319 228.375 161.84375 C 228.05139 143.72666 216.95423 137.97007 198.90625 137.46875 z M 192.09375 156.53125 C 196.2111 156.31319 200.02501 157.81627 201.25 161.625 C 205.96827 173.51536 182.02111 181.64397 179.40625 169.0625 C 177.49116 162.01328 185.2315 156.89469 192.09375 156.53125 z "
     style="font-style:normal;font-variant:normal;font-weight:bold;font-stretch:normal;font-size:176.14732361px;line-height:125%;font-family:'Comic Sans MS';-inkscape-font-specification:'Comic Sans MS Bold';text-align:start;writing-mode:lr-tb;text-anchor:start;display:inline;fill:#76bf00;fill-opacity:1;stroke:none"
     id="path4701"
     d="m 198.90625,137.46875 c -2.57828,-0.0716 -5.30651,-0.0292 -8.15625,0.0937 -28.32836,0.58421 -40.21928,21.05446 -41.75,47.28125 1.22617,18.55111 7.99972,27.55273 20.34375,35.15625 5.76058,2.76636 10.47802,4.28469 15.09375,4.6875 5.91641,0.51633 11.66514,-0.82377 19.21875,-3.75 18.66254,-7.15474 32.78406,-17.65977 18.71875,-31.40625 -6.21999,-2.801 -13.81854,1.65359 -32.03125,7.0625 -4.97085,1.50653 -8.84189,-3.41916 -1.25,-5.5625 27.38,-7.44887 38.79034,-10.42806 39.28125,-29.1875 -0.32361,-18.11709 -11.42077,-23.87368 -29.46875,-24.375 z m -6.8125,19.0625 c 4.11735,-0.21806 7.93126,1.28502 9.15625,5.09375 4.71827,11.89036 -19.22889,20.01897 -21.84375,7.4375 -1.91509,-7.04922 5.82525,-12.16781 12.6875,-12.53125 z"
     transform="matrix(0.67734952,0,0,0.67734952,-25.59016,-24.499086)" /><path
     sodipodi:type="inkscape:offset"
     inkscape:radius="0"
     inkscape:original="M 267.3125 140.3125 C 251.914 141.15401 231.80098 147.55096 231.6875 165.46875 C 233.24646 187.351 266.62559 191.25542 268.25 196.59375 C 267.74994 205.60163 242.57061 185.4882 236.875 190.46875 C 226.67061 200.61164 230.48667 208.59028 238.5 214.46875 C 243.82351 218.37399 250.98694 221.34625 257.09375 223.40625 C 270.45141 226.90624 282.98235 223.15236 290.5 219.4375 C 298.89372 216.16456 301.91308 205.26656 301.5625 196.15625 C 297.70194 178.15432 269.72568 174.1216 267.25 167.4375 C 267.56085 156.82853 292.28514 180.27343 298.84375 172.9375 C 311.15201 150.54635 295.28773 146.0611 280.21875 141.09375 C 277.04892 140.36481 272.44533 140.032 267.3125 140.3125 z "
     style="font-style:normal;font-variant:normal;font-weight:bold;font-stretch:normal;font-size:182.18806458px;line-height:125%;font-family:'Comic Sans MS';-inkscape-font-specification:'Comic Sans MS Bold';text-align:start;writing-mode:lr-tb;text-anchor:start;display:inline;fill:#76bf00;fill-opacity:1;stroke:none"
     id="path4705"
     d="m 267.3125,140.3125 c -15.3985,0.84151 -35.51152,7.23846 -35.625,25.15625 1.55896,21.88225 34.93809,25.78667 36.5625,31.125 -0.50006,9.00788 -25.67939,-11.10555 -31.375,-6.125 -10.20439,10.14289 -6.38833,18.12153 1.625,24 5.32351,3.90524 12.48694,6.8775 18.59375,8.9375 13.35766,3.49999 25.8886,-0.25389 33.40625,-3.96875 8.39372,-3.27294 11.41308,-14.17094 11.0625,-23.28125 -3.86056,-18.00193 -31.83682,-22.03465 -34.3125,-28.71875 0.31085,-10.60897 25.03514,12.83593 31.59375,5.5 12.30826,-22.39115 -3.55602,-26.8764 -18.625,-31.84375 -3.16983,-0.72894 -7.77342,-1.06175 -12.90625,-0.78125 z"
     transform="matrix(0.67734952,0,0,0.67734952,-24.235426,-24.499086)" /><path
     sodipodi:type="inkscape:offset"
     inkscape:radius="0"
     inkscape:original="M 323.3125 111.28125 C 312.696 111.72459 307.3047 117.19702 307 125.65625 C 308.42163 135.40366 313.52451 139.40527 323.3125 139.96875 C 332.8776 139.26897 336.73692 136.05092 338.28125 125.65625 C 337.36397 117.45202 332.33747 111.84275 323.3125 111.28125 z M 320.5 144.75 C 312.6597 145.15004 304.90251 149.36781 306 156.1875 C 308.66429 172.68244 308.57594 194.44537 305.03125 213.21875 C 300.92133 229.09174 339.59342 228.18558 334.59375 213.21875 C 330.33136 196.17961 331.48179 177.20746 335.5625 156.1875 C 336.25474 147.76765 328.3403 144.34996 320.5 144.75 z "
     style="font-style:normal;font-variant:normal;font-weight:bold;font-stretch:normal;font-size:179.68840027px;line-height:125%;font-family:'Comic Sans MS';-inkscape-font-specification:'Comic Sans MS Bold';text-align:start;writing-mode:lr-tb;text-anchor:start;display:inline;fill:#76bf00;fill-opacity:1;stroke:none"
     id="path4707"
     d="m 323.3125,111.28125 c -10.6165,0.44334 -16.0078,5.91577 -16.3125,14.375 1.42163,9.74741 6.52451,13.74902 16.3125,14.3125 9.5651,-0.69978 13.42442,-3.91783 14.96875,-14.3125 -0.91728,-8.20423 -5.94378,-13.8135 -14.96875,-14.375 z M 320.5,144.75 c -7.8403,0.40004 -15.59749,4.61781 -14.5,11.4375 2.66429,16.49494 2.57594,38.25787 -0.96875,57.03125 -4.10992,15.87299 34.56217,14.96683 29.5625,0 -4.26239,-17.03914 -3.11196,-36.01129 0.96875,-57.03125 0.69224,-8.41985 -7.2222,-11.83754 -15.0625,-11.4375 z"
     transform="matrix(0.67734952,0,0,0.67734952,-22.880761,-24.499086)" /><path
     sodipodi:type="inkscape:offset"
     inkscape:radius="0"
     inkscape:original="M 404.59375 98.65625 C 401.06394 98.440888 397.38515 99.414455 394.4375 101.78125 C 391.89483 104.23253 389.33369 104.68957 392.59375 119.5625 C 392.98815 130.69619 394.18219 135.67775 377.625 135.15625 C 350.26405 135.80984 337.65409 158.03481 336.25 182.84375 C 336.5756 206.68247 352.6294 222.85155 375.9375 224.5625 C 384.09192 225.56186 388.17378 223.50837 394.0625 219.3125 C 396.43845 221.35259 399.85594 224.40623 402.90625 224.40625 C 412.59172 224.08039 417.18763 219.14213 416.625 210.21875 C 405.4005 184.31109 430.34832 115.05197 413.84375 102.65625 C 411.50896 100.26397 408.12356 98.871612 404.59375 98.65625 z M 375.8125 164.46875 C 392.40164 163.95601 390.69346 193.3166 376.1875 194.15625 C 360.89633 194.45445 360.21244 164.92738 375.8125 164.46875 z "
     style="font-style:normal;font-variant:normal;font-weight:bold;font-stretch:normal;font-size:167.25732422px;line-height:125%;font-family:'Comic Sans MS';-inkscape-font-specification:'Comic Sans MS Bold';text-align:start;writing-mode:lr-tb;text-anchor:start;display:inline;fill:#76bf00;fill-opacity:1;stroke:none"
     id="path4709"
     d="m 404.59375,98.65625 c -3.52981,-0.215362 -7.2086,0.758205 -10.15625,3.125 -2.54267,2.45128 -5.10381,2.90832 -1.84375,17.78125 0.3944,11.13369 1.58844,16.11525 -14.96875,15.59375 -27.36095,0.65359 -39.97091,22.87856 -41.375,47.6875 0.3256,23.83872 16.3794,40.0078 39.6875,41.71875 8.15442,0.99936 12.23628,-1.05413 18.125,-5.25 2.37595,2.04009 5.79344,5.09373 8.84375,5.09375 9.68547,-0.32586 14.28138,-5.26412 13.71875,-14.1875 -11.2245,-25.90766 13.72332,-95.16678 -2.78125,-107.5625 -2.33479,-2.39228 -5.72019,-3.784638 -9.25,-4 z m -28.78125,65.8125 c 16.58914,-0.51274 14.88096,28.84785 0.375,29.6875 -15.29117,0.2982 -15.97506,-29.22887 -0.375,-29.6875 z"
     transform="matrix(0.67734952,0,0,0.67734952,-21.526025,-24.499086)" /><path
     style="font-style:normal;font-variant:normal;font-weight:bold;font-stretch:normal;font-size:166.08294678px;line-height:125%;font-family:'Comic Sans MS';-inkscape-font-specification:'Comic Sans MS Bold';text-align:start;writing-mode:lr-tb;text-anchor:start;display:inline;fill:#76bf00;fill-opacity:1;stroke:none"
     d="m 265.1732,71.975759 c -2.03723,20.035161 -6.3072,51.249391 20.87232,53.259531 3.51633,0 6.96367,-1.72462 10.31741,-2.74373 1.86858,1.74816 2.21293,3.57407 7.53262,3.2354 11.1952,0.24963 9.49291,-8.04969 9.30096,-15.87368 -2.91293,-11.41709 -1.83761,-26.366161 -0.43865,-39.119221 -0.52075,-6.792354 -17.37441,-7.582461 -20.53335,-1.018018 -2.16487,6.876603 2.84304,31.080179 -3.30366,32.611729 -5.61814,-1.67245 0.14592,-28.248252 -1.08083,-32.331394 -0.65013,-7.129805 -20.01064,-6.886105 -22.66682,1.979383 z"
     id="path4518"
     sodipodi:nodetypes="cccccccccc"
     inkscape:connector-curvature="0" /><path
     sodipodi:type="inkscape:offset"
     inkscape:radius="0"
     inkscape:original="M 535.625 135.46875 C 524.23732 135.46883 513.96588 140.18263 505.78125 149.15625 C 497.58215 158.09362 493.24998 169.51091 493.25 182.1875 C 493.515 207.26713 502.54772 221.42024 528.0625 224.0625 C 533.96042 223.89561 539.428 221.3221 544.625 218.75 C 547.33997 221.77362 550.30423 224.42565 554.5 224.8125 C 562.56066 224.49262 567.20786 218.05557 567.8125 210.5 C 565.36267 199.33728 563.48978 189.62856 562.875 177.96875 C 562.5999 170.29481 563.18892 162.64743 563.625 155.5625 C 562.73982 141.84892 547.15188 136.92119 535.625 135.46875 z M 530.0625 164.90625 C 546.05089 165.81912 544.88029 194.7661 530.21875 194.46875 C 515.51961 194.22004 516.08454 165.56304 530.0625 164.90625 z "
     style="font-style:normal;font-variant:normal;font-weight:bold;font-stretch:normal;font-size:162.06369019px;line-height:125%;font-family:'Comic Sans MS';-inkscape-font-specification:'Comic Sans MS Bold';text-align:start;writing-mode:lr-tb;text-anchor:start;display:inline;fill:#76bf00;fill-opacity:1;stroke:none"
     id="path4711"
     d="m 535.625,135.46875 c -11.38768,8e-5 -21.65912,4.71388 -29.84375,13.6875 -8.1991,8.93737 -12.53127,20.35466 -12.53125,33.03125 0.265,25.07963 9.29772,39.23274 34.8125,41.875 5.89792,-0.16689 11.3655,-2.7404 16.5625,-5.3125 2.71497,3.02362 5.67923,5.67565 9.875,6.0625 8.06066,-0.31988 12.70786,-6.75693 13.3125,-14.3125 -2.44983,-11.16272 -4.32272,-20.87144 -4.9375,-32.53125 -0.2751,-7.67394 0.31392,-15.32132 0.75,-22.40625 -0.88518,-13.71358 -16.47312,-18.64131 -28,-20.09375 z m -5.5625,29.4375 c 15.98839,0.91287 14.81779,29.85985 0.15625,29.5625 -14.69914,-0.24871 -14.13421,-28.90571 -0.15625,-29.5625 z"
     transform="matrix(0.67734952,0,0,0.67734952,-18.816624,-24.499086)" /><path
     sodipodi:type="inkscape:offset"
     inkscape:radius="0"
     inkscape:original="M 585.25 102.5 C 577.31785 102.25185 569.23125 105.18299 568.8125 111.875 C 572.21749 150.21092 572.52339 183.39278 570.40625 206.3125 L 570.4375 215.4375 C 572.75976 228.08419 600.33778 227.41608 601.40625 216.4375 C 599.54315 198.48034 597.15305 150.39787 600.8125 112.1875 C 600.96749 106.1749 593.18215 102.74815 585.25 102.5 z "
     style="font-style:normal;font-variant:normal;font-weight:bold;font-stretch:normal;font-size:167.99964905px;line-height:125%;font-family:'Comic Sans MS';-inkscape-font-specification:'Comic Sans MS Bold';text-align:start;writing-mode:lr-tb;text-anchor:start;display:inline;fill:#71b900;fill-opacity:1;stroke:none;stroke-opacity:1"
     id="path4713"
     d="m 585.25,102.5 c -7.93215,-0.24815 -16.01875,2.68299 -16.4375,9.375 3.40499,38.33592 3.71089,71.51778 1.59375,94.4375 l 0.0312,9.125 c 2.32226,12.64669 29.90028,11.97858 30.96875,1 -1.8631,-17.95716 -4.2532,-66.03963 -0.59375,-104.25 0.15499,-6.0126 -7.63035,-9.43935 -15.5625,-9.6875 z"
     transform="matrix(0.67734952,0,0,0.67734952,-18.816624,-24.499086)" /><path
     style="display:inline;fill:#c87137;fill-opacity:1;stroke:none;stroke-opacity:1"
     d="m 482.03796,116.83321 c -2.41569,-10.0144 -12.47378,-67.641306 -13.60547,-76.601266 -1.81898,-7.970108 7.20815,-12.392331 12.95199,-9.596537 4.40227,2.314662 11.22016,10.590538 23.18923,28.148315 6.11908,8.976248 7.73057,10.551865 8.88373,8.686019 0.27243,-0.440802 1.57263,-6.712735 2.88935,-13.937627 2.70159,-14.824032 5.40436,-24.104578 8.40372,-28.855846 2.81841,-4.464629 9.11278,-6.836567 12.79503,-4.585691 1.42497,0.870998 4.02202,3.891713 7.85855,23.839105 7.34591,38.193891 14.42215,60.405458 12.21529,67.907818 -1.40467,4.77528 -13.62477,5.43828 -16.06445,2.9632 -4.16235,-4.22273 -3.16696,-6.15709 -4.73136,-19.814 -1.30661,-11.406755 -3.96021,-25.216758 -5.34563,-27.819744 -2.16237,-4.062928 -4.18404,3.487885 -6.66417,24.890194 -0.73962,6.38231 -1.64824,10.89108 -2.33283,11.57566 -1.58351,1.58354 -7.50577,2.25367 -8.99483,1.01783 -0.66156,-0.54905 -4.53222,-6.99654 -8.60152,-14.32777 -8.10966,-14.610512 -10.60269,-18.10203 -11.96823,-16.761564 -1.10483,1.084582 0.15267,11.589423 2.37746,19.860784 4.90887,18.25037 8.18003,22.44453 7.47919,26.73597 -0.68543,4.19716 -1.31498,5.6135 -8.78071,7.89667 -7.31206,1.21304 -10.13257,-4.40421 -11.95434,-11.22152 z"
     id="path5747"
     inkscape:connector-curvature="0"
     sodipodi:nodetypes="cccssssssssssssssssscc" /><path
     style="display:inline;fill:#c87137;fill-opacity:1;stroke:none;stroke-opacity:1"
     d="m 432.74158,121.95987 c -8.1402,-11.28251 -11.4721,-18.75445 -19.67941,-33.268913 -10.83439,-19.160451 -22.7683,-49.821678 -22.7683,-55.873517 0,-3.802246 2.30499,-5.301566 8.15058,-5.301566 7.5587,0 6.57482,-1.354125 20.50454,28.220348 10.20345,21.6631 13.07522,26.869543 17.57794,31.868425 2.36728,2.628133 3.16556,3.098073 3.75564,2.210991 0.94586,-1.422007 1.6688,-13.838885 2.45118,-42.10031 0.5649,-20.405665 0.75573,-22.492424 2.33778,-25.564128 1.89418,-3.677889 4.71538,-5.139042 9.92249,-5.139042 2.36066,0 3.45558,0.503697 4.83013,2.221944 1.76339,2.204403 1.77364,2.40048 1.29984,24.845325 -0.26261,12.442867 -0.33131,29.545753 -0.86524,37.334327 -1.4482,21.125986 0.47192,25.274876 -4.19115,39.689336 -5.56764,7.23008 -18.84596,8.80322 -23.32602,0.85678 z"
     id="path5745"
     inkscape:connector-curvature="0"
     sodipodi:nodetypes="csssssssssssscc" /></svg>