<?xml version="1.0" encoding="utf-8"?>
<!-- Generator: Adobe Illustrator 13.0.0, SVG Export Plug-In . SVG Version: 6.00 Build 14948)  -->
<svg version="1.2" baseProfile="tiny"
	 id="Layer_3" xmlns:cc="http://creativecommons.org/ns#" xmlns:dc="http://purl.org/dc/elements/1.1/" xmlns:rdf="http://www.w3.org/1999/02/22-rdf-syntax-ns#"
	 xmlns="http://www.w3.org/2000/svg" xmlns:xlink="http://www.w3.org/1999/xlink" x="0px" y="0px" width="598.189px"
	 height="350.26px" viewBox="0 0 598.189 350.26" xml:space="preserve">
<path fill="#F4F4F4" d="M291.761,195.13c13.334-1.834,35.001-6.167,46.334-11.834c-3.5,3.334-4.5,3.5-4.5,3.5
	c17.833,0.167,21.332,0.001,30.666-1.666c-1.999,5.166-24.5,7.333-35.333,7.833S298.429,198.63,291.761,195.13z"/>
<path fill="#F4F4F4" d="M278.262,195.63c-17-12.666-17.833-17.5-25-24.667c-7.167-7.167-11.667-10.167-15.333-11.5
	c3.667,2.833,4.167,6.333,4.167,6.333c-6.333-3.833-17.833-5.166-22.333-1.833c1.167,2.5,3.333,3.333,9.667,4.333s15.5,5,25,13.5
	C263.929,190.296,273.929,195.13,278.262,195.63z"/>
<path fill="#F4F4F4" d="M309.134,203.992c-1.549-0.718-2.684-1.394-3.525-2.155l0,0c-0.829-0.743-1.433-1.717-1.428-2.82l0,0
	c0.021-1.348,0.779-2.297,1.588-3.076l0,0c0.838-0.787,1.873-1.494,3.006-2.232l0,0c2.01-1.27,5.551-2.146,9.717-2.889l0,0
	c4.138-0.713,8.757-1.168,12.477-1.17l0,0c2.714,0.031,4.834,0.16,6.416,0.949l0,0c1.389,0.545,2.271,1.605,3.366,2.627l0,0
	c1.086,1.079,2.241,2.139,3.146,2.545l0,0l4.727,2.203l-5.171,0.645l0,0c-0.021,0.004-0.065,0.012-0.136,0.026l0,0
	c-0.139,0.03-0.379,0.089-0.73,0.193l0,0c-0.697,0.206-1.834,0.596-3.503,1.31l0,0c-5.839,3.24-14.372,5.313-21.486,5.327l0,0
	C314.385,205.471,311.462,205.058,309.134,203.992L309.134,203.992z M337.692,197.489l0.076-0.043l0.068-0.029
	c0.795-0.341,1.486-0.616,2.082-0.84l0,0c-0.447-0.405-0.868-0.819-1.271-1.209l0,0c-1.063-1.098-2.151-1.986-2.317-1.969l0,0
	l0.431-1.435l0.741-1.306l-0.741,1.306l-0.431,1.435l-0.165-0.049l-0.145-0.082c-0.411-0.296-2.514-0.653-5.053-0.618l0,0
	c-3.478-0.002-7.992,0.437-11.967,1.125l0,0c-3.947,0.659-7.494,1.689-8.588,2.444l0,0c-1.091,0.709-2.015,1.359-2.579,1.899l0,0
	c-0.593,0.55-0.665,0.883-0.655,0.897l0,0c0.002,0-0.028,0.154,0.45,0.604l0,0c0.466,0.429,1.373,1.01,2.761,1.648l0,0
	c1.693,0.788,4.268,1.213,7.206,1.207l0,0C324.146,202.489,332.489,200.435,337.692,197.489L337.692,197.489z"/>
<path fill="#F4F4F4" d="M247.171,199.733c-4.792-1.379-7.459-5.002-8.695-9.072l0,0c-1.154-3.704-1.347-7.878-1.376-11.813l0,0
	c-0.926-0.087-1.9-0.161-2.924-0.222l0,0l0.17-2.993c11.838,0.659,17.677,3.347,21.673,5.702l0,0
	c7.017,4.104,11.485,9.103,12.068,15.154l0,0l0.154,1.641h-1.647c-3.485-0.078-7.646,2.416-13.604,2.463l0,0
	c-0.007,0-0.015,0-0.022,0l0,0C251.19,200.593,249.261,200.349,247.171,199.733L247.171,199.733z M241.338,189.765
	c1.139,3.51,2.971,5.973,6.68,7.09l0,0c1.824,0.538,3.457,0.739,4.971,0.739l0,0c4.406,0.043,7.897-1.813,11.862-2.333l0,0
	c-0.979-4.053-4.427-7.868-10.348-11.337l0,0c-3.033-1.763-6.938-3.698-14.402-4.73l0,0
	C240.14,182.921,240.372,186.698,241.338,189.765L241.338,189.765z"/>
<path fill="#F4F4F4" d="M238.907,182.255c5,0.5,9.625,5.875,4.5,13.313C241.22,193.38,238.72,190.317,238.907,182.255z"/>
<path fill="#F4F4F4" d="M310.157,194.88c3.125,2.688,3.125,6.125,1.313,8.063c-2.875-0.75-5.75-2.438-5.688-3.875
	S307.72,195.817,310.157,194.88z"/>
<path fill="#F4F4F4" d="M282.595,197.284c0.09-3.197,1.419-14.382,3.921-20.655l0,0v0.002l2.781,1.124
	c-2.248,5.478-3.669,16.915-3.702,19.594l0,0L282.595,197.284L282.595,197.284z"/>
<path fill="#F4F4F4" d="M298.851,204.655l1.822-2.383c11.012,8.443,29.609,15.287,41.777,18.233l0,0l-0.71,2.916
	C329.237,220.366,310.506,213.545,298.851,204.655L298.851,204.655z M298.851,204.654L298.851,204.654L298.851,204.654v0.002
	V204.654L298.851,204.654z"/>
<path fill="#F4F4F4" d="M242.828,210.126l0.199-2.992c0.52,0.033,1.033,0.051,1.542,0.051l0,0
	c6.197,0.013,12.138-2.646,22.147-8.041l0,0l1.423,2.641c-10.028,5.391-16.428,8.389-23.57,8.401l0,0
	C243.991,210.186,243.409,210.165,242.828,210.126L242.828,210.126z"/>
<path fill="#F4F4F4" d="M253.732,236.23c-4.889-3.363-7.063-7.574-8.205-10.563l0,0l-0.274-0.715l0.415-0.64
	c1.765-2.746,4.081-5.2,9.3-8.452l0,0c5.234-3.276,13.47-7.495,27.489-14.09l0,0v0.002l1.277,2.714
	c-13.981,6.572-22.159,10.773-27.174,13.916l0,0c-4.58,2.883-6.454,4.768-7.942,6.903l0,0c1.088,2.589,2.928,5.761,6.819,8.455l0,0
	c4.26,2.938,11.085,5.331,22.315,5.333l0,0c1.061,0,2.16-0.021,3.299-0.065l0,0c-0.536-0.44-1.142-1.034-1.184-2.121l0,0
	c0.006-1.047,0.732-1.772,1.388-2.138l0,0c0.689-0.4,1.514-0.662,2.611-0.891l0,0c2.182-0.446,5.456-0.706,10.341-0.71l0,0
	c1.477,0.002,3.096,0.027,4.871,0.081l0,0c0.029-0.443,0.043-0.891,0.043-1.339l0,0c0.01-5.887-2.416-11.954-3.4-14.183l0,0
	l2.749-1.2c1.035,2.388,3.64,8.714,3.649,15.383l0,0c0,1.025-0.062,2.058-0.203,3.091l0,0l-0.188,1.341l-1.354-0.05
	c-2.306-0.084-4.354-0.123-6.166-0.123l0,0c-3.651,0-6.347,0.154-8.233,0.401l0,0c-1.083,0.132-1.907,0.317-2.459,0.486l0,0
	c0.221,0.116,0.481,0.237,0.768,0.352l0,0c1.221,0.499,2.93,0.917,4.456,1.06l0,0l0.019,2.983
	c-4.036,0.441-7.689,0.642-11.005,0.644l0,0C266.111,242.099,258.617,239.602,253.732,236.23L253.732,236.23z"/>
<path fill="#F4F4F4" d="M261.851,275.342c0.001-0.001,0-0.001,0.002-0.001l0,0v0.001H261.851L261.851,275.342z M260.669,272.584
	c17.102-7.315,20.932-8.342,24.188-8.369l0,0c0.71,0,1.323,0.05,1.971,0.083l0,0c4.286,0.257,13.13,3.771,19.108,7.756l0,0
	l-1.684,2.484c-5.355-3.681-14.514-7.166-17.567-7.244l0,0c-0.712-0.035-1.269-0.079-1.828-0.079l0,0
	c-2.292-0.026-5.933,0.796-23.004,8.126l0,0L260.669,272.584L260.669,272.584z"/>
<path fill="#F4F4F4" d="M277.566,285.498c-5.292-0.002-10.295,1.084-13.296,1.454l0,0c-0.958,0.113-1.749,0.182-2.451,0.182l0,0
	c-0.861-0.002-1.622-0.095-2.337-0.439l0,0c-0.722-0.34-1.257-0.952-1.576-1.541l0,0c-0.639-1.188-0.89-2.421-1.69-4.267l0,0
	l2.758-1.182c0.653,1.528,1.008,2.711,1.298,3.431l0,0c0.311,0.759,0.423,0.809,0.522,0.862l0,0c0.093,0.05,0.396,0.14,1.025,0.137
	l0,0c0.501,0,1.199-0.054,2.094-0.161l0,0c2.734-0.326,7.987-1.475,13.653-1.477l0,0c5.21,0.002,10.916,0.96,15.472,4.633l0,0
	l-1.887,2.333C287.401,286.421,282.432,285.494,277.566,285.498L277.566,285.498z M256.215,280.886L256.215,280.886L256.215,280.886
	v0.002V280.886L256.215,280.886z"/>
<path fill="#F4F4F4" d="M314.856,164.462c-28.418-1.332-59.731-5.374-96.3-24.842l0,0l-0.885-0.472l0.096-0.997
	c1.665-17.309,3.327-39.263,3.33-39.302l0,0l0.178-2.314l2.038,1.111c18.355,9.988,30.549,16.807,67.762,20.489l0,0
	c3.793,0.374,7.738,0.547,11.781,0.547l0,0c17.576,0.002,36.928-3.305,53.365-7.805l0,0c16.418-4.473,30.012-10.231,35.783-14.766
	l0,0l0.407-0.317h0.517c0.996,0.002,1.718,0.633,2.098,1.185l0,0c0.408,0.574,0.658,1.205,0.877,1.905l0,0
	c0.424,1.393,0.676,3.076,0.85,4.757l0,0c0.343,3.346,0.341,6.624,0.341,6.653l0,0h-2.999c-0.002-0.004,0-1.375-0.094-3.231l0,0
	c-0.092-1.853-0.283-4.183-0.641-5.977l0,0c-0.141-0.755-0.341-1.423-0.518-1.865l0,0c-6.828,4.843-19.978,10.196-35.831,14.549l0,0
	c-16.653,4.555-36.209,7.907-54.155,7.911l0,0c-4.128-0.002-8.17-0.178-12.076-0.562l0,0c-36.051-3.514-49.574-10.299-66.868-19.73
	l0,0c-0.461,5.951-1.751,22.278-3.062,36.049l0,0c35.714,18.795,66.133,22.7,94.147,24.025l0,0c0.897,0.041,1.813,0.062,2.746,0.062
	l0,0c13.853,0.008,31.215-4.608,46.229-10.291l0,0c14.49-5.459,26.92-12.003,31.816-15.994l0,0c0.306-7.334,0.306-7.334,0.306-7.341
	l0,0h0.002l2.996,0.125c0,0.008,0,0-0.332,7.999l0,0l-0.027,0.647l-0.49,0.425c-5.161,4.443-17.954,11.161-33.21,16.945l0,0
	c-15.237,5.752-32.798,10.475-47.29,10.483l0,0C316.765,164.525,315.804,164.505,314.856,164.462L314.856,164.462z"/>
<path fill="#F4F4F4" d="M225.629,99.91L225.629,99.91L225.629,99.91h0.002H225.629L225.629,99.91z M222.894,98.682
	c16.187-36.055,49.411-68.573,88.354-88.389l0,0l0.707-0.36l0.695,0.381c51.863,28.412,72.954,56.475,81.719,86.563l0,0
	l-2.881,0.841c-8.525-29.117-28.63-56.271-79.585-84.391l0,0c-38.085,19.55-70.556,51.521-86.273,86.583l0,0L222.894,98.682
	L222.894,98.682z"/>
<path fill="#F4F4F4" d="M278.844,117.852c0.755-40.76,12.077-77.793,31.843-107.063l0,0l0.883-1.31l1.264,0.953
	c41.424,31.211,60.146,49.444,72.449,91.272l0,0v0.002l-2.877,0.847c-12.07-40.749-29.609-58.08-70.113-88.769l0,0
	c-18.863,28.527-29.715,64.493-30.447,104.122l0,0L278.844,117.852L278.844,117.852z"/>
<path fill="#F4F4F4" d="M232.843,130.755c0.002-5.454,4.421-9.875,9.875-9.875l0,0c5.454,0,9.875,4.421,9.875,9.875l0,0
	c0,5.454-4.421,9.874-9.875,9.875l0,0C237.265,140.628,232.845,136.209,232.843,130.755L232.843,130.755z M235.845,130.755
	c0.006,3.796,3.077,6.868,6.874,6.874l0,0c3.798-0.006,6.869-3.077,6.875-6.874l0,0c-0.006-3.798-3.077-6.869-6.875-6.875l0,0
	C238.922,123.886,235.851,126.957,235.845,130.755L235.845,130.755z"/>
<path fill="#F4F4F4" d="M330.345,141.629c0.002-5.661,4.588-10.248,10.25-10.25l0,0c5.661,0.002,10.248,4.589,10.25,10.25l0,0
	c-0.002,5.662-4.589,10.249-10.25,10.25l0,0C334.933,151.878,330.347,147.291,330.345,141.629L330.345,141.629z M333.345,141.629
	c0.006,4.003,3.246,7.242,7.25,7.25l0,0c4.003-0.008,7.242-3.247,7.25-7.25l0,0c-0.008-4.003-3.247-7.244-7.25-7.25l0,0
	C336.591,134.386,333.351,137.626,333.345,141.629L333.345,141.629z"/>
<path fill="#F4F4F4" d="M394.961,128.442c-1.983-0.815-2.95-2.652-3.528-4.454l0,0c-0.573-1.836-0.761-3.821-0.763-5.452l0,0
	c0-0.177,0.002-0.36,0.009-0.531l0,0c0.152-3.394,1.41-7.15,4.083-9.042l0,0l0.4-0.266l0.479,0.016
	c1.535,0.057,3.639,0.478,5.584,1.525l0,0c1.914,1.015,3.787,2.875,3.949,5.635l0,0c0.045,0.781,0.104,1.688,0.104,2.654l0,0
	c-0.007,2.064-0.246,4.466-1.704,6.516l0,0c-1.465,2.066-4.129,3.417-8.022,3.502l0,0l-0.308,0.008L394.961,128.442L394.961,128.442
	z M393.676,118.101c-0.005,0.128-0.007,0.275-0.007,0.436l0,0c-0.002,1.389,0.18,3.146,0.625,4.553l0,0
	c0.383,1.251,0.962,2.101,1.517,2.441l0,0c3.098-0.17,4.496-1.109,5.328-2.238l0,0c0.87-1.188,1.149-2.942,1.142-4.765l0,0
	c0-0.844-0.053-1.686-0.1-2.475l0,0c-0.09-1.41-0.967-2.384-2.386-3.179l0,0c-1.185-0.655-2.682-1.021-3.745-1.129l0,0
	C394.845,112.845,393.688,115.73,393.676,118.101L393.676,118.101z"/>
<path fill="#F4F4F4" d="M228.667,266.009c-5.085-15.682-10.512-32.773-12.878-44.755l0,0c-1.722-8.724-2.451-18.419-2.451-28.548
	l0,0c0-17.766,2.252-36.871,5.448-54.345l0,0l2.95,0.538c-3.172,17.339-5.398,36.292-5.398,53.807l0,0
	c0,9.984,0.723,19.499,2.395,27.967l0,0c2.301,11.684,7.708,28.757,12.788,44.409l0,0c5.085,15.69,9.829,29.856,10.888,36.308l0,0
	l-2.962,0.479C238.506,295.985,233.75,281.651,228.667,266.009L228.667,266.009z"/>
<path fill="#F4F4F4" d="M297.16,342.309c-12.254-0.006-24.619-3.197-33.172-6.976l0,0c-8.605-3.83-13.958-5.61-17.635-9.323l0,0
	c-3.674-3.793-4.916-9.077-5.588-18.946l0,0c-1.298-19.377-12.991-75.202-19.263-94.3l0,0c-2.525-7.706-3.515-12.94-3.517-17.235
	l0,0c0.013-6.645,2.367-10.67,4.515-17.359l0,0c3.59-11.044,2.98-17.339,10.426-31.889l0,0l2.669,1.367
	c-7.222,14.118-6.498,19.82-10.242,31.444l0,0c-2.292,7.036-4.379,10.624-4.367,16.438l0,0c-0.002,3.814,0.889,8.751,3.367,16.301
	l0,0c6.393,19.567,18.034,75.076,19.403,95.032l0,0c0.662,9.798,1.918,14.179,4.744,17.053l0,0c2.824,2.953,7.971,4.84,16.7,8.677
	l0,0c8.151,3.61,20.233,6.723,31.959,6.717l0,0c12.648-0.007,24.69-3.574,31.532-13.529l0,0
	c13.721-19.831,14.777-44.147,28.544-73.454l0,0c5.292-11.227,9.747-18.597,12.812-24.585l0,0c3.07-6.007,4.726-10.502,4.732-16.367
	l0,0c0-3.514-0.61-7.559-1.969-12.693l0,0c-5.97-22.642-11.332-36.127-11.384-44.716l0,0h3.001
	c-0.054,7.412,5.252,21.26,11.281,43.948l0,0c1.4,5.293,2.07,9.596,2.07,13.461l0,0c0.007,6.48-1.92,11.614-5.061,17.734l0,0
	c-3.148,6.141-7.537,13.394-12.77,24.495l0,0c-13.564,28.693-14.506,53.041-28.787,73.88l0,0
	c-7.66,11.099-20.846,14.827-33.97,14.827l0,0C297.183,342.309,297.171,342.309,297.16,342.309L297.16,342.309z"/>
<path fill="#F4F4F4" d="M396.761,166.962c0.004-6.197-0.999-16.934-0.999-29.999l0,0h2.999c0,12.934,0.997,23.53,1.002,29.999l0,0
	H396.761L396.761,166.962z"/>
<path fill="#F4F4F4" d="M388.063,226.394c10.833-14.387,13.784-27.566,13.792-38.039l0,0c0-5.99-0.975-11.091-2.039-14.996l0,0
	c-1.057-3.882-2.876-7.351-4.77-9.778l0,0c-1.854-2.468-3.951-3.703-4.646-3.604l0,0c-0.241,0.012-0.303,0.039-0.461,0.177l0,0
	c-0.152,0.142-0.387,0.494-0.557,1.173l0,0c-1.479,5.935-5.584,15.54-5.607,46.542l0,0c0,4.725,0.1,9.938,0.319,15.703l0,0v0.002
	l-2.999,0.113c-0.221-5.802-0.319-11.053-0.319-15.818l0,0c-0.022-31.146,4.282-41.639,5.696-47.269l0,0
	c0.262-1.042,0.691-1.933,1.381-2.604l0,0c0.684-0.675,1.641-1.031,2.547-1.019l0,0c2.594,0.099,4.814,2.026,7.014,4.762l0,0
	c2.157,2.775,4.125,6.55,5.295,10.83l0,0c1.117,4.099,2.148,9.472,2.148,15.787l0,0c0.006,11.041-3.176,24.967-14.397,39.847l0,0
	L388.063,226.394L388.063,226.394z"/>
<path fill="#F4F4F4" d="M369.637,259.198c4.64-7.743,16.632-17.718,22.185-36.657l0,0h0.002l2.877,0.843
	c-5.779,19.728-18.456,30.419-22.482,37.342l0,0L369.637,259.198L369.637,259.198z"/>
<path fill="#F4F4F4" d="M334.286,317.489c13.533-11.544,32.381-32.068,42.912-58.745l0,0l0.002,0.002l2.789,1.101
	c-10.803,27.325-29.951,48.137-43.754,59.926l0,0L334.286,317.489L334.286,317.489z"/>
</svg>
