<?xml version="1.0" encoding="UTF-8" standalone="no"?>
<svg
   xmlns:dc="http://purl.org/dc/elements/1.1/"
   xmlns:cc="http://creativecommons.org/ns#"
   xmlns:rdf="http://www.w3.org/1999/02/22-rdf-syntax-ns#"
   xmlns:svg="http://www.w3.org/2000/svg"
   xmlns="http://www.w3.org/2000/svg"
   xmlns:sodipodi="http://sodipodi.sourceforge.net/DTD/sodipodi-0.dtd"
   xmlns:inkscape="http://www.inkscape.org/namespaces/inkscape"
   version="1.1"
   width="400"
   height="120"
   id="svg2"
   inkscape:version="0.91 r13725"
   sodipodi:docname="system.svg">
  <metadata
     id="metadata26">
    <rdf:RDF>
      <cc:Work
         rdf:about="">
        <dc:format>image/svg+xml</dc:format>
        <dc:type
           rdf:resource="http://purl.org/dc/dcmitype/StillImage" />
        <dc:title></dc:title>
        <cc:license
           rdf:resource="http://creativecommons.org/licenses/by-nc-sa/3.0/" />
        <dc:creator>
          <cc:Agent>
            <dc:title>https://github.com/sirskunkalot</dc:title>
          </cc:Agent>
        </dc:creator>
      </cc:Work>
      <cc:License
         rdf:about="http://creativecommons.org/licenses/by-nc-sa/3.0/">
        <cc:permits
           rdf:resource="http://creativecommons.org/ns#Reproduction" />
        <cc:permits
           rdf:resource="http://creativecommons.org/ns#Distribution" />
        <cc:requires
           rdf:resource="http://creativecommons.org/ns#Notice" />
        <cc:requires
           rdf:resource="http://creativecommons.org/ns#Attribution" />
        <cc:prohibits
           rdf:resource="http://creativecommons.org/ns#CommercialUse" />
        <cc:permits
           rdf:resource="http://creativecommons.org/ns#DerivativeWorks" />
        <cc:requires
           rdf:resource="http://creativecommons.org/ns#ShareAlike" />
      </cc:License>
    </rdf:RDF>
  </metadata>
  <sodipodi:namedview
     pagecolor="#5f563e"
     bordercolor="#666666"
     borderopacity="1"
     objecttolerance="10"
     gridtolerance="10"
     guidetolerance="10"
     inkscape:pageopacity="0"
     inkscape:pageshadow="2"
     inkscape:window-width="1920"
     inkscape:window-height="1137"
     id="namedview24"
     showgrid="false"
     inkscape:zoom="3.6725"
     inkscape:cx="199.97719"
     inkscape:cy="57.826649"
     inkscape:window-x="-8"
     inkscape:window-y="-8"
     inkscape:window-maximized="1"
     inkscape:current-layer="svg2"
     inkscape:snap-object-midpoints="false"
     inkscape:snap-others="true"
     inkscape:snap-center="true"
     inkscape:snap-bbox="false"
     inkscape:snap-bbox-edge-midpoints="false"
     inkscape:snap-bbox-midpoints="true" />
  <defs
     id="defs4" />
  <g
     id="g4215">
    <g
       id="g4199">
      <path
         d="M 163.29998,37.018991 140.29172,71.041865 159.13891,88.420476 199.03624,58.558668 163.29998,37.018991 Z"
         id="path8078"
         style="fill:#171a21;fill-opacity:1;fill-rule:evenodd;stroke:none"
         inkscape:connector-curvature="0" />
      <g
         id="g4186">
        <circle
           r="28.75"
           cy="36.779259"
           cx="189.56975"
           id="path4144"
           style="opacity:1;fill:#171a21;fill-opacity:1;stroke:none;stroke-width:0.2;stroke-miterlimit:4;stroke-dasharray:none;stroke-opacity:1" />
        <path
           inkscape:connector-curvature="0"
           style="opacity:1;fill:#ffffff;fill-opacity:1;fill-rule:evenodd;stroke:none;stroke-width:7.53281212;stroke-linecap:round;stroke-linejoin:bevel;stroke-miterlimit:4;stroke-dasharray:none;stroke-dashoffset:0;stroke-opacity:1"
           id="path7107"
           d="m 211.58055,36.779259 a 22.010825,22.010856 0 1 1 -44.02162,0 22.010825,22.010856 0 1 1 44.02162,0 z" />
        <path
           inkscape:connector-curvature="0"
           style="fill:#171a21;fill-opacity:1;fill-rule:evenodd;stroke:none"
           id="path10018"
           d="m 207.12496,36.790947 a 17.555218,17.555218 0 0 1 -35.11043,0 17.555218,17.555218 0 1 1 35.11043,0 z" />
      </g>
    </g>
    <g
       id="g4206">
      <g
         id="g4191">
        <path
           inkscape:connector-curvature="0"
           style="fill:#171a21;fill-opacity:1;fill-rule:evenodd;stroke:none;stroke-width:5.53848743;stroke-linecap:round;stroke-linejoin:bevel;stroke-miterlimit:4;stroke-dasharray:none;stroke-dashoffset:0;stroke-opacity:1"
           id="path5167"
           d="m 161.10529,85.015903 a 17.623371,17.623371 0 1 1 -35.24674,0 17.623371,17.623371 0 1 1 35.24674,0 z" />
        <path
           inkscape:connector-curvature="0"
           style="fill:#ffffff;fill-opacity:1;fill-rule:evenodd;stroke:none;stroke-width:5.53848743;stroke-linecap:round;stroke-linejoin:bevel;stroke-miterlimit:4;stroke-dasharray:none;stroke-dashoffset:0;stroke-opacity:1"
           id="path5167-9"
           d="m 156.63935,85.015903 a 13.157435,13.557435 0 0 1 -26.31487,0 13.157435,13.557435 0 1 1 26.31487,0 z" />
      </g>
      <g
         id="g4195">
        <path
           inkscape:connector-curvature="0"
           style="color:#000000;clip-rule:nonzero;display:inline;overflow:visible;visibility:visible;opacity:1;isolation:auto;mix-blend-mode:normal;color-interpolation:sRGB;color-interpolation-filters:linearRGB;solid-color:#000000;solid-opacity:1;fill:#171a21;fill-opacity:1;fill-rule:evenodd;stroke:none;stroke-width:5.53848743;stroke-linecap:round;stroke-linejoin:bevel;stroke-miterlimit:4;stroke-dasharray:none;stroke-dashoffset:0;stroke-opacity:1;color-rendering:auto;image-rendering:auto;shape-rendering:auto;text-rendering:auto;enable-background:accumulate"
           id="path2252"
           d="m 48.258612,38.977203 a 17.623371,17.623371 0 1 1 -35.246741,0 17.623371,17.623371 0 1 1 35.246741,0 z" />
        <path
           d="m 43.865761,38.977203 a 13.23052,12.83052 0 1 1 -26.461039,0 13.23052,12.83052 0 1 1 26.461039,0 z"
           id="path4188"
           style="color:#000000;clip-rule:nonzero;display:inline;overflow:visible;visibility:visible;opacity:1;isolation:auto;mix-blend-mode:normal;color-interpolation:sRGB;color-interpolation-filters:linearRGB;solid-color:#000000;solid-opacity:1;fill:#ffffff;fill-opacity:1;fill-rule:evenodd;stroke:none;stroke-width:5.53848743;stroke-linecap:round;stroke-linejoin:bevel;stroke-miterlimit:4;stroke-dasharray:none;stroke-dashoffset:0;stroke-opacity:1;color-rendering:auto;image-rendering:auto;shape-rendering:auto;text-rendering:auto;enable-background:accumulate"
           inkscape:connector-curvature="0" />
      </g>
      <rect
         width="141.70076"
         height="22.776436"
         rx="13.68118"
         x="33.120049"
         y="13.313908"
         transform="matrix(0.92586714,0.37784924,-0.37784924,0.92586714,0,0)"
         id="rect4196"
         style="fill:#171a21;fill-opacity:1;fill-rule:evenodd;stroke:none" />
    </g>
  </g>
  <g
     transform="scale(0.95096987,1.051558)"
     style="font-style:normal;font-variant:normal;font-weight:bold;font-stretch:normal;font-size:42.06233215px;line-height:125%;font-family:'Bitstream Vera Sans';-inkscape-font-specification:'Bitstream Vera Sans Bold';letter-spacing:2.79714489px;word-spacing:0px;fill:#171a21;fill-opacity:1;stroke:none;stroke-width:1px;stroke-linecap:butt;stroke-linejoin:miter;stroke-opacity:1"
     id="text4156">
    <path
       d="m 263.04439,26.509251 0,6.490086 q -2.5262,-1.129603 -4.92918,-1.704674 -2.40297,-0.575071 -4.53895,-0.575071 -2.83428,0 -4.1898,0.780453 -1.35553,0.780454 -1.35553,2.423513 0,1.232295 0.90369,1.930596 0.92422,0.677762 3.32719,1.17068 l 3.36828,0.677762 q 5.11402,1.026913 7.27054,3.121814 2.15651,2.094901 2.15651,5.956092 0,5.072947 -3.01912,7.558075 -2.99858,2.46459 -9.1806,2.46459 -2.91643,0 -5.8534,-0.554533 -2.93697,-0.554533 -5.87394,-1.64306 l 0,-6.67493 q 2.93697,1.560907 5.66856,2.361898 2.75213,0.780454 5.29887,0.780454 2.58782,0 3.96388,-0.862607 1.37606,-0.862606 1.37606,-2.46459 0,-1.437677 -0.94476,-2.21813 -0.92422,-0.780454 -3.71742,-1.396601 l -3.0602,-0.677762 q -4.60057,-0.985836 -6.73654,-3.142352 -2.11544,-2.156516 -2.11544,-5.812325 0,-4.580029 2.9575,-7.044619 2.95751,-2.464589 8.50284,-2.464589 2.5262,0 5.19618,0.390226 2.66997,0.369689 5.52478,1.129604 z"
       style="fill:#171a21;fill-opacity:1"
       id="path4150" />
    <path
       d="m 271.16095,25.543953 28.26062,0 0,5.97663 -10.16643,0 0,24.686975 -7.90722,0 0,-24.686975 -10.18697,0 0,-5.97663 z"
       style="fill:#171a21;fill-opacity:1"
       id="path4152" />
    <path
       d="m 306.28529,25.543953 21.33924,0 0,5.97663 -13.43201,0 0,5.709633 12.63102,0 0,5.976631 -12.63102,0 0,7.02408 13.88385,0 0,5.976631 -21.79108,0 0,-30.663605 z"
       style="fill:#171a21;fill-opacity:1"
       id="path4154" />
    <path
       d="m 356.44364,50.621154 -12.36403,0 -1.95113,5.586404 -7.94831,0 11.35766,-30.663605 9.42705,0 11.35765,30.663605 -7.9483,0 -1.93059,-5.586404 z m -10.39236,-5.689095 8.40015,0 -4.18981,-12.199719 -4.21034,12.199719 z"
       style="fill:#171a21;fill-opacity:1"
       id="path4156" />
    <path
       d="m 373.16571,25.543953 10.06374,0 6.98301,16.41006 7.02408,-16.41006 10.0432,0 0,30.663605 -7.47592,0 0,-22.427767 -7.06516,16.533289 -5.01133,0 -7.06516,-16.533289 0,22.427767 -7.49646,0 0,-30.663605 z"
       style="fill:#171a21;fill-opacity:1"
       id="path4158" />
  </g>
</svg>
