<?xml version="1.0" encoding="utf-8"?>
<!-- Generator: Adobe Illustrator 13.0.0, SVG Export Plug-In . SVG Version: 6.00 Build 14948)  -->
<!DOCTYPE svg [
	<!ENTITY ns_flows "http://ns.adobe.com/Flows/1.0/">
	<!ENTITY ns_extend "http://ns.adobe.com/Extensibility/1.0/">
	<!ENTITY ns_ai "http://ns.adobe.com/AdobeIllustrator/10.0/">
	<!ENTITY ns_graphs "http://ns.adobe.com/Graphs/1.0/">
	<!ENTITY ns_vars "http://ns.adobe.com/Variables/1.0/">
	<!ENTITY ns_imrep "http://ns.adobe.com/ImageReplacement/1.0/">
	<!ENTITY ns_sfw "http://ns.adobe.com/SaveForWeb/1.0/">
	<!ENTITY ns_custom "http://ns.adobe.com/GenericCustomNamespace/1.0/">
	<!ENTITY ns_adobe_xpath "http://ns.adobe.com/XPath/1.0/">
]>
<svg version="1.2" baseProfile="tiny"
	 id="Layer_3" xmlns:x="&ns_extend;" xmlns:i="&ns_ai;" xmlns:graph="&ns_graphs;" xmlns:rdf="http://www.w3.org/1999/02/22-rdf-syntax-ns#" xmlns:dc="http://purl.org/dc/elements/1.1/" xmlns:cc="http://creativecommons.org/ns#"
	 xmlns="http://www.w3.org/2000/svg" xmlns:xlink="http://www.w3.org/1999/xlink" xmlns:a="http://ns.adobe.com/AdobeSVGViewerExtensions/3.0/"
	 x="0px" y="0px" width="598.189px" height="350.26px" viewBox="0 0 598.189 350.26" xml:space="preserve">
<metadata  id="metadata55">
	<rdf:RDF>
		<cc:Work  rdf:about="">
			<dc:format>image/svg+xml</dc:format>
			<dc:type  rdf:resource="http://purl.org/dc/dcmitype/StillImage"></dc:type>
			<dc:title></dc:title>
		</cc:Work>
	</rdf:RDF>
	<sfw  xmlns="&ns_sfw;">
		<slices></slices>
		<sliceSourceBounds  x="-7231" y="-7652" width="16383" height="16383" bottomLeftOrigin="true"></sliceSourceBounds>
	</sfw>
</metadata>
<g id="g3162" transform="matrix(0.21198622,0,0,0.21198622,-35.5732,-32.444887)">
	<g id="g3088">
		<path id="path3098" fill="#F4F4F4" d="M1853.596,189.618c-2.764,0.092-5.597,0.431-8.306,1.108
			c-5.597,1.398-10.706,4.547-15.35,7.511c-4.639,2.962-8.946,5.834-10.591,6.567c-2.612,1.168-3.57,1.366-3.335,1.343
			c0.258-0.012,0.258-0.083-1.575-0.47c0.825,0.177,0.848,0.398-0.64-0.956c-1.469-1.352-4.455-3.402-8.306-3.953
			c-4.98-0.714-14.686-2.414-24.125,0.875c-5.072,1.762-9.845,5.109-14.322,8.304c-4.422,3.151-8.61,6.277-9.974,7.048
			c-1.654-1.329-3.976-2.193-6.565-2.382c-4.109-0.279-15.188-1.866-24.287,0.313c-8.573,2.068-16.681,7.034-22.398,11.001
			c-6.74,4.68-10.844,11.13-12.738,12.901c-2.004,1.866-2.833,3.384-2.847,3.476c-0.055-0.023-0.161-0.083-0.954,0.083
			c-0.585,0.115-4.713,0-9.264-0.235c-4.524-0.23-9.831-0.428-15.105,1.658c-9.435,3.757-16.202,11.627-23.024,17.729
			c-7.279,6.5-15.29,14.219-22.232,22.232c-6.915,7.979-14.193,17.743-18.989,25.397c-5.031,8.046-6.242,13.88-9.015,19.305
			c-2.815,5.48-6.56,9.458-10.605,18.837c-2.156,4.991-4.34,12.307-6.491,19.06c-0.403,1.26-0.716,2.225-1.11,3.407
			c-2.508-6.615-6.482-20.882-10.918-30.784c-4.395-9.822-7.921-15.995-14.873-26.187c-6.984-10.229-18.275-25.616-27.219-35.599
			c-9.008-10.068-18.848-17.745-25.323-23.107c-3.156-2.614-5.388-4.715-7.907-6.652c-2.52-1.935-5.424-3.637-9.022-4.745
			c-4.849-1.493-9.029-0.504-12.422-0.071c-3.391,0.422-5.804,0.375-7.041-0.164c-1.546-0.663-4.128-2.891-6.807-5.772
			c-2.67-2.893-5.494-6.311-9.015-9.098c-2.398-1.891-4.346-3.978-7.12-6.171c-2.78-2.207-6.41-4.317-11.24-5.54
			c-5.199-1.334-11.462-1.472-17.727-1.587c-6.263-0.106-12.48-0.083-15.582-0.316c-3.87-0.29-6.145-0.318-7.276-0.396
			c-1.138-0.083-1.106-0.046-2.612-0.712c-0.465-0.212-1.755-1.237-3.483-2.93c-1.734-1.691-3.98-3.964-7.357-5.54
			c-5.528-2.575-11.816-3.582-17.013-4.188c-5.376-0.64-10.982-0.723-16.142,0.233c-3.483,0.654-5.957,2.218-7.753,3.243
			c-1.801,1.025-2.948,1.283-2.382,1.271c-0.046,0-0.016,0.106-0.942-0.477c-0.928-0.585-2.497-1.857-4.828-3.01
			c-2.9-1.435-7.728-4.386-11.786-5.936c-2.101-0.795-3.962-0.924-5.146-0.947c-0.613-0.887-1.195-1.84-2.294-2.529
			c-1.481-0.924-3.061-1.435-4.745-1.656c-6.201-0.841-18.091-0.666-23.978,0.152c-1.626,0.221-3.195,0.627-4.828,1.817
			c-0.751,0.551-0.857,1.283-1.341,2.064c-0.486,0.037-1.126,0.187-2.612,0.316c-1.011,0.083-2.036,0.212-3.169,0.396
			c-1.124,0.175-2.308,0.152-4.185,1.343c-1.267,0.795-2.091,2.299-2.614,3.789c-1.149-0.138-2.315-0.304-3.243-0.548
			c-0.217-0.055-0.666-0.408-2.769-1.903c-2.108-1.481-5.62-3.241-10.289-3.637c-8.036-0.689-24.132-1.283-34.497,1.82
			c-5.577,1.67-9.467,5.192-12.344,8.156c-2.665,2.727-4.637,4.722-4.828,4.98c-0.979-0.258-1.919-0.516-3.087-0.548
			c-1.087-0.037-4.676-0.712-8.78-1.191c-4.1-0.477-9.036-0.758-14.161,0.792c-5.24,1.576-10.342,4.782-15.193,7.907
			c-4.853,3.126-9.543,6.279-11.314,7.127c-1.016,0.491-1.396,0.666-1.82,0.864c-0.905-0.106-1.937-0.198-3.402-0.152
			c-2.257,0.06-7.062-0.198-12.107-0.396c-5.054-0.21-10.37-0.419-14.797,0.083c-8.241,0.91-14.398,3.467-19.546,5.692
			c-5.698,2.46-10.093,5.54-14.002,8.785c-3.089,2.566-4.333,5.399-5.383,7.044c-1.05,1.633-1.387,2.032-2.372,2.368
			c-0.822,0.281-4.176,0.41-8.149,0.166c-3.971-0.258-8.635-0.691-13.371,0.069c-7.776,1.269-16.545,3.499-23.342,7.359
			c-6.73,3.826-11.413,9.285-14.56,14.64c-3.847,6.555-4.178,14.159-4.828,17.402c-0.804,4.049-1.055,6.463-0.712,10.054
			c0.398,4.072,1.628,8.716,2.854,12.505c1.582,4.911,3.784,8.165,3.87,8.619c0.516,2.672,0.769,2.451-0.154,4.201
			c0.184-0.362-1.099,1.06-3.004,2.764c-1.914,1.704-4.526,4.024-6.012,7.838c-2.564,6.532-2.121,13.963-1.986,18.593
			c0.164,5.461,1.675,8.306,2.538,11.63c0.875,3.381,1.573,9.402,4.268,14.79c1.721,3.444,4.158,5.321,5.699,6.73
			c1.541,1.412,1.866,2.216,1.737,1.578c-0.108-0.562-0.078,0.124-0.942,1.981c-0.871,1.854-2.412,4.621-2.695,8.469
			c-0.258,3.508-1.873,9.319,1.9,18.51c2.018,4.922,5.832,11.268,9.651,17.648c3.824,6.383,7.652,12.763,9.022,15.504
			c0.638,1.283,0.822,1.774,1.03,2.216c-0.129,1.108-0.177,2.156,0,3.487c0.168,1.294-0.124,5.063-0.083,9.494
			c0.046,4.422,0.534,9.775,2.93,15.103c2.393,5.346,6.528,10.768,10.683,15.995c4.153,5.213,8.35,10.114,10.126,12.574
			c2.193,3.034,3.545,4.607,4.036,5.226c-0.037,0.083-0.023-0.06-0.076,0.083c-0.643,1.596-1.32,5.072-0.479,8.617
			c1.039,4.376,2.409,15.446,9.022,24.054c3.342,4.363,8.062,8.131,12.738,11.63c4.678,3.499,9.322,6.601,11.796,8.469
			c3.28,2.483,6.097,3.628,7.35,4.116c1.262,0.477,0.359-0.304,1.032,0.629c0.97,1.343,2.568,7.898,4.982,13.928
			c1.511,3.757,1.778,10.358,7.599,16.925c5.395,6.099,14.47,12.821,22.391,16.775c4.69,2.345,9.471,3.02,13.452,3.637
			c3.973,0.631,7.212,1.518,7.44,1.668c0.603,0.41,0.357,0.051,0.629,1.587c0.274,1.527,0.311,4.574,2.137,8.059
			c1.536,2.941,2.891,9.214,9.495,14.325c6.677,5.169,18.441,10.128,24.531,12.422c3.259,1.237,5.927,1.251,7.99,1.191
			c-0.857,0.783-1.704,1.587-2.534,2.135c-1.615,1.073-6.092,1.364-12.821,5.459c-5.968,3.639-14.292,9.541-21.278,15.352
			c-7.041,5.853-12.687,11.779-20.097,18.987c-7.258,7.048-17.791,15.958-25.636,25.475c-7.638,9.264-14.009,19.272-19.466,29.28
			c-5.59,10.229-9.211,20.166-13.449,30.932c-4.264,10.814-9.483,23.787-12.662,35.368c-3.098,11.282-4.703,19.747-5.933,32.521
			c-1.283,13.251-1.161,35.626-1.585,44.151c-0.223,4.561-0.081,6.518-0.076,6.892c-0.06,0.166-0.251,0.643-0.638,1.658
			c-1.583,4.162-4.22,10.043-7.673,13.765c-3.156,3.402-9.817,6.272-17.33,12.666c-6.839,5.807-15.343,13.53-22.787,21.44
			c-7.129,7.569-13.576,13.905-21.675,25.793c-7.866,11.535-18.706,27.686-26.429,44.856c-7.649,17.008-15.126,39.245-19.07,56.34
			c-3.902,16.916-4.164,25.047-4.432,45.574c-0.265,20.542-0.617,53.553,2.769,79.683c3.308,25.494,6.627,47.509,17.409,75.163
			c10.642,27.309,26.62,63.186,46.996,90.043c20.297,26.756,47.005,48.951,73.348,68.613c13.617,10.144,31.07,19.625,47.076,28.156
			c16.011,8.532,30.748,16.28,37.75,21.518c3.699,2.792,5.738,4.768,6.641,5.938c0.91,1.179,0.781,1.147,0.795,1.35
			c0.005,0.198-0.152,1.142-0.398,3.082c-0.244,1.939-0.244,4.782,0.712,7.841c2.306,7.32,1.949,16.865,6.486,30.768
			c4.261,13.065,10.738,32.464,19.387,48.265c8.463,15.46,18.701,30.298,31.335,44.386c12.551,14.009,27.541,28.184,44.384,40.115
			c16.739,11.862,34.804,21.914,56.018,31.017c21.329,9.154,48.258,17.694,71.213,23.665c23.16,6.021,48.783,9.826,66.622,12.18
			c17.927,2.382,19.8,1.774,41.297,2.137c21.769,0.369,64.052,0.35,89.255,0.157c25.157-0.184,44.289-0.299,62.182-1.271
			c17.791-0.944,28.635-1.944,44.874-4.501c15.755-2.483,28.4-3.229,52.931-11.001c24.089-7.629,66.687-20.984,93.448-35.361
			c26.489-14.249,46.795-32.266,63.614-49.214c17.031-17.169,28.156-33.482,38.609-53.807
			c10.757-20.951,20.039-52.867,24.453-68.521c2.377-8.495,2.331-14.672,1.972-18.842c-0.364-4.151-0.562-5.224-0.083-6.247
			c0.99-2.078-0.267-0.783,1.032-1.267c1.299-0.474,5.072-1.419,10.282-4.192c8.453-4.487,23.071-8.822,43.207-22.154
			c19.698-13.042,54.894-37.867,75.08-56.253c20.104-18.316,32.487-35.905,44.082-52.461c11.885-16.98,19.565-32.851,26.821-48.666
			c7.334-15.967,12.913-30.828,17.409-47.624c4.538-16.985,7.145-35.785,9.499-52.784c2.354-17.086,4.174-33.371,4.814-50.48
			c0.645-16.893,1.073-36.057-1.023-52.144c-2.11-16.202-7.242-29.068-11.231-41.93c-4.063-13.069-7.749-26.332-13.765-38.844
			c-6.053-12.576-14.442-23.914-21.371-34.108c-7.048-10.358-14.138-20.505-21.67-29.115c-7.587-8.665-16.22-16.188-22.794-21.686
			c-3.745-3.112-7.164-4.874-9.822-6.332c-2.64-1.447-4.505-2.568-6.555-4.664c-4.763-4.842-11.595-14.129-13.613-18.991
			c-0.967-2.322-1.041-3.722-0.944-6.007c0.069-2.287,0.511-5.378,0.304-9.497c-0.327-6.869-0.401-16.059-0.949-24.927
			c-0.502-8.35-0.336-16.891-2.294-27.772c-1.912-10.697-5.519-24.169-9.103-35.449c-3.473-10.95-5.97-20.025-12.503-32.6
			c-6.486-12.542-17.704-30.333-26.028-41.693c-8.38-11.475-16.059-18.455-23.333-25.719c-7.62-7.617-14.884-13.728-22.075-19.781
			c-7.242-6.092-15.138-12.542-21.831-17.172c-6.569-4.524-12.88-7.442-16.225-9.333c0.931-0.221,1.599-0.419,3.478-1.025
			c0.382-0.069,0.751-0.175,1.106-0.313c3.847-1.389,10.43-3.651,15.184-5.857c3.838-1.774,8.541-3.126,12.742-7.525
			c4.386-4.57,6.528-10.519,8.232-14.322c1.423-3.162,1.589-5.892,1.82-7.428c0.235-1.555,0.244-1.518,0.318-1.587
			c0.175-0.164,1.483-0.875,3.805-1.576c2.313-0.712,5.491-1.495,8.849-3.008c5.588-2.534,14.18-6.486,19.551-9.658
			c1.976-1.168,3.303-1.587,5.459-2.93c2.156-1.341,4.326-3.51,6.251-6.648c2.248-3.665,4.012-8.596,5.851-13.53
			c1.847-4.925,3.699-9.893,4.598-11.784c2.474-5.272-0.797-0.767,2.769-3.883c1.967-1.714,8.864-5.728,14.161-10.206
			c4.855-4.095,10.232-9.25,14.009-13.599c3.662-4.236,6.205-7.981,8.371-12.427c2.276-4.616,4.017-9.925,4.68-14.555
			c0.479-3.407-0.461-6.111-0.875-7.523c-0.41-1.412-0.166-1.168-0.396-0.551c-0.019,0.083,2.584-2.497,6.021-5.623
			c1.608-1.467,6.542-3.192,10.918-9.098c3.506-4.736,8.836-12.339,10.835-20.892c1.147-4.86,0.567-9.467,0.161-13.53
			c-0.405-4.059-0.617-7.592-0.313-8.935c0.839-3.778,3.962-5.715,7.514-11.561c2.506-4.128,5.823-8.465,8.38-14.239
			c2.073-4.644,5.639-10.697,5.777-18.595c0.097-4.773-1.548-8.76-2.76-12.259c-1.216-3.499-1.879-6.578-1.824-7.281
			c0.226-2.552,3.492-5.724,6.73-10.999c0.751-1.223,1.705-2.156,3.151-3.801c1.47-1.633,3.299-4.167,4.28-7.514
			c1.483-5.088,3.312-12.913,1.506-21.285c-1.078-4.925-3.644-8.96-5.86-12.821c-2.216-3.849-3.99-7.606-4.192-8.774
			c-0.3-1.714-0.046-2.647,0.719-4.515c0.751-1.877,2.198-4.386,2.999-7.99c0.944-4.211,3.676-9.808,3.16-17.565
			c-0.428-6.707-1.728-16.038-6.251-23.421c-4.432-7.246-11.595-11.957-17.552-15.271c-6.555-3.651-13.29-4.911-19.786-6.019
			c-4.399-0.735-8.269-0.184-11.563,0c-3.275,0.187-5.763,0.023-7.426-0.712c-1.502-0.654-3.883-2.81-6.569-5.772
			c-2.681-2.951-5.717-6.615-10.208-9.25c-7.394-4.363-16.105-7.419-24.6-8.946c-9.306-1.668-20.27-0.304-25.323-0.235
			c-3.533,0.048-6.168,0.7-7.292,0.944c-1.101,0.258-0.138,0.339-0.779,0.083c-0.014,0-1.179-0.875-2.764-2.529
			c-1.594-1.67-3.685-3.957-6.73-5.857c-4.303-2.683-10.093-6.532-17.487-8.152c-7.813-1.718-17.911-0.749-21.914-0.633
			c-1.506,0.046-2.856,0.445-4.118,0.947c-0.617-0.514-1.589-1.246-3.321-2.847c-2.271-2.087-4.796-4.584-8.159-6.334
			c-4.934-2.566-9.26-3.582-15.898-4.27c-6.763-0.698-18.45-1.504-26.268-0.23c-4.293,0.686-7.486,2.598-9.646,4.118
			c-2.17,1.504-3.409,2.345-3.487,2.368c-1.575,0.451-3.045,0.129-4.27-0.083c-0.594-1.145-1.516-2.451-3.252-3.395
			c-2.184-1.202-3.34-1.037-4.505-1.106c-0.267-0.937-0.58-1.916-1.258-2.697c-1.728-1.969-3.639-2.497-5.459-2.847
			C1869.927,191.039,1861.925,189.302,1853.596,189.618L1853.596,189.618z M1860.327,201.957c3.464,0.295,6.173,0.783,8.55,1.191
			c0.046,0.189,0,0.267,0.069,0.465c0.511,1.423,1.658,2.78,2.778,3.49c2.833,1.783,4.547,1.576,5.938,1.737
			c0.474,0.06,0.152-0.078,0.474,0c0.198,0.465,0.258,0.735,0.7,1.343c0.88,1.191,2.474,2.414,4.036,2.928
			c3.105,1.027,7.537,1.702,12.668,0.244c3.533-1.016,5.482-2.891,7.117-4.035c1.631-1.145,2.842-1.831,4.759-2.133
			c4.574-0.746,17.04-0.318,23.094,0.313c6.187,0.629,7.772,0.99,11.627,2.997c1.055,0.551,3.354,2.485,5.542,4.515
			c2.197,2.032,3.897,4.082,7.279,5.692c1.216,0.585,2.617,1.285,4.837,1.039c2.004-0.23,3.257-1.366,3.796-1.817
			c-0.345,0.161-0.488,0.161,0,0.152c4.736-0.143,14.691-0.61,18.897,0.313c4.644,1.016,9.453,3.895,13.857,6.648
			c1.308,0.818,2.672,2.29,4.353,4.038c1.668,1.751,3.579,3.93,7.03,5.305c2.824,1.108,6.049,0.937,7.758,0.551
			c1.727-0.385,2.612-0.675,4.832-0.712c6.445-0.092,16.713-1.048,23.024,0.083c7.104,1.269,14.709,3.93,20.657,7.428
			c2.17,1.283,4.657,4.001,7.435,7.046c2.769,3.057,5.805,6.542,10.6,8.619c4.63,2.018,9.145,1.88,12.899,1.668
			c3.745-0.207,6.952-0.417,8.937-0.078c6.265,1.06,11.457,2.144,15.981,4.662c5.132,2.861,10.665,7.034,13.138,11.084
			c2.4,3.909,4.146,12.48,4.51,17.964c0.29,4.418-1.516,8.14-2.847,14.159c-0.336,1.504-1.341,3.338-2.46,6.088
			c-1.124,2.766-2.179,6.675-1.419,11.084c0.857,4.943,3.4,8.794,5.62,12.657c2.216,3.858,4.192,7.638,4.593,9.412
			c1.078,5.028-0.097,11.139-1.35,15.433c-0.401,1.343-0.751,1.808-1.741,2.925c-0.99,1.122-2.787,2.789-4.432,5.461
			c-1.562,2.543-7.689,7.511-8.467,16.142c-0.438,4.89,1.225,8.785,2.46,12.344c1.226,3.559,2.142,6.813,2.124,8.069
			c-0.074,4.188-2.29,8.679-4.671,14.011c-1.861,4.185-4.828,8.059-7.744,12.89c-1.884,3.126-7.104,6.963-8.942,15.115
			c-1.041,4.621-0.332,8.845,0.078,12.821c0.396,3.969,0.534,7.583,0.074,9.577c-1.202,5.169-5.648,12.224-8.771,16.46
			c-2.29,3.066-5.053,3.439-9.333,7.348c-2.501,2.262-6.938,4.374-9.195,10.206c-1.341,3.499-0.383,6.624,0.087,8.237
			c0.475,1.605,0.59,2.17,0.544,2.446c-0.387,2.755-1.912,7.668-3.547,11.001c-1.728,3.513-3.441,6.019-6.726,9.81
			c-3.188,3.662-8.343,8.691-12.659,12.341c-3.897,3.292-10.121,6.638-14.322,10.289c-2.612,2.276-3.455,2.928-5.791,7.838
			c-1.497,3.195-3.1,7.861-4.901,12.652c-1.787,4.796-3.842,9.769-4.892,11.48c-1.377,2.239-1.658,2.359-2.303,2.766
			c-0.645,0.405-2.506,1.119-5.302,2.764c-4.174,2.469-12.94,6.542-18.432,9.029c-2.179,0.979-4.676,1.702-7.362,2.529
			c-2.681,0.818-5.694,1.668-8.463,4.27c-2.884,2.704-3.699,6.311-4.036,8.55c-0.332,2.239-0.447,3.51-0.788,4.268
			c-1.824,4.059-4.386,9.296-6.021,11.001c-1.792,1.877-4.386,2.718-9.094,4.897c-3.639,1.693-9.743,3.886-13.691,5.309
			c-0.152,0.06-0.396,0.106-0.548,0.152c-3.105,1.117-5.731,0.864-9.651,3.255c-1.548,0.933-2.962,2.041-4.28,3.554
			c-1.318,1.509-3.257,3.596-2.368,7.677c0.304,1.435,1.189,3.034,2.124,3.955c0.944,0.924,1.797,1.377,2.46,1.737
			c1.341,0.737,2.414,1.168,4.036,2.138c4.491,2.681,10.812,5.408,16.621,9.425c6.044,4.174,13.765,10.46,20.882,16.446
			c7.163,6.03,14.083,11.943,21.283,19.152c7.55,7.548,14.539,13.774,22.232,24.284c7.785,10.642,18.957,28.532,25.005,40.198
			c6.039,11.65,8.255,19.558,11.784,30.699c3.446,10.835,6.855,24.075,8.628,33.945c1.746,9.693,1.594,17.402,2.142,26.348
			c0.516,8.433,0.594,17.499,0.944,24.766c0.138,2.948-0.198,5.413-0.318,8.548c-0.11,3.13,0.198,6.906,1.894,11.001
			c3.312,7.944,10.36,16.868,16.146,22.78c3.216,3.292,6.463,5.178,9.26,6.73c2.796,1.541,5.164,2.778,7.91,5.063
			c6.39,5.318,14.645,12.565,21.532,20.412c6.906,7.898,13.737,17.66,20.717,27.928c7.104,10.434,15.022,21.38,20.426,32.597
			c5.408,11.273,9.015,23.927,13.129,37.186c4.183,13.461,9.02,25.466,10.922,39.968c1.898,14.613,1.497,33.325,0.871,50.075
			c-0.626,16.561-2.34,32.413-4.676,49.292c-2.34,16.985-4.906,35.426-9.181,51.36c-4.312,16.11-9.642,30.211-16.773,45.722
			c-7.187,15.691-14.442,30.764-25.706,46.846c-11.577,16.529-23.236,32.998-42.331,50.402
			c-19.007,17.312-54.332,42.354-73.662,55.152c-18.911,12.516-31.823,16.059-42.258,21.606c-4.229,2.239-6.081,2.52-8.707,3.469
			c-2.626,0.972-6.127,3.833-7.827,7.449c-2.216,4.662-1.327,8.827-1.036,12.337c0.304,3.501,0.488,7.481-1.506,14.557
			c-4.339,15.46-13.903,47.316-23.656,66.305c-10.08,19.606-20.196,34.546-36.393,50.881
			c-16.409,16.534-35.716,33.615-60.772,47.072c-24.775,13.323-67.304,26.876-91.379,34.509
			c-23.633,7.477-34.832,8.011-51.195,10.605c-15.898,2.492-26.143,3.404-43.755,4.344c-17.496,0.935-36.393,1.087-61.564,1.262
			c-25.111,0.189-67.44,0.212-88.931-0.147c-21.755-0.378-22.467,0.258-40.035-2.064c-17.662-2.336-42.863-6.081-65.123-11.867
			c-22.453-5.841-49.096-14.322-69.543-23.107c-20.557-8.817-37.782-18.395-53.809-29.746
			c-15.914-11.277-30.245-24.904-42.329-38.379c-12.003-13.387-21.702-27.382-29.753-42.092
			c-7.861-14.373-14.364-33.339-18.593-46.288c-3.946-12.093-3.278-20.643-6.41-30.621c-0.396-1.267-0.362-1.774-0.237-2.769
			c0.129-1.009,0.61-2.686,0.479-5.219c-0.136-2.543-1.26-5.519-3.245-8.071c-1.988-2.566-4.766-5.026-8.939-8.154
			c-8.776-6.578-23.411-13.986-39.325-22.462c-15.918-8.481-32.947-17.86-45.498-27.226c-26.003-19.362-51.826-40.968-70.99-66.213
			c-19.083-25.148-34.965-60.371-45.422-87.192c-10.319-26.466-13.484-46.97-16.775-72.317c-3.209-24.72-2.875-57.51-2.612-78.015
			c0.267-20.505,0.366-26.779,4.116-43.041c3.704-16.078,11.047-38.047,18.28-54.125c7.15-15.898,17.664-31.575,25.475-43.041
			c7.564-11.107,13.095-16.517,20.412-24.296c7.011-7.445,15.281-14.993,21.836-20.564c5.89-5.008,12.687-7.421,18.438-13.613
			c5.464-5.88,8.313-13.102,10.047-17.651c0.408-1.062,0.682-1.658,0.949-2.531c0.272-0.861,0.463-2.11,0.472-2.925
			c0.023-1.612-0.131-2.465,0.083-6.804c0.474-9.564,0.438-31.736,1.58-43.6c1.198-12.33,2.492-19.632,5.459-30.455
			c2.888-10.522,8.062-23.317,12.348-34.177c4.3-10.918,7.746-20.306,12.818-29.594c5.189-9.52,11.169-18.862,18.197-27.378
			c6.813-8.269,16.96-17.015,24.683-24.531c7.571-7.359,13.058-13.026,19.466-18.358c6.463-5.365,14.652-11.153,19.862-14.325
			c4.462-2.709,7.838-2.17,13.132-5.692c2.19-1.458,4.277-3.232,6.016-5.063c1.744-1.843,3.241-3.338,4.194-6.417
			c0.958-3.114-0.493-6.834-2.22-8.617c-1.718-1.787-3.483-2.591-5.137-3.245c-3.19-1.26-5.406-0.629-6.65-0.548
			c-1.239,0.071-2.094,0.175-4.036-0.56c-5.095-1.926-17.745-7.884-21.364-10.685c-3.678-2.845-3.644-5.305-6.327-10.439
			c-0.281-0.534-0.396-1.937-0.873-4.595c-0.472-2.647-2.078-6.963-5.851-9.497c-4.155-2.776-8.172-2.939-12.109-3.554
			c-3.934-0.62-7.721-1.283-10.05-2.451c-6.113-3.057-15.129-9.916-18.749-14.009c-3.202-3.607-2.831-7.083-5.385-13.452
			c-1.642-4.091-2.262-10.729-6.408-16.458c-1.886-2.598-4.858-4.222-6.41-4.819c-1.543-0.606-2.283-0.767-4.508-2.46
			c-3.045-2.299-7.511-5.282-11.869-8.536c-4.349-3.255-8.562-6.896-10.439-9.347c-3.84-4.989-5.471-13.889-6.807-19.535
			c-0.35-1.472-0.24-0.832,0-1.426c0.24-0.606,1.615-3.789,0.712-7.044c-0.456-1.645-1.474-3.605-2.375-4.747
			c-0.896-1.145-1.702-2.112-3.72-4.911c-2.474-3.421-6.555-8.073-10.522-13.053c-3.964-4.982-7.804-10.37-9.179-13.449
			c-1.377-3.077-1.787-6.613-1.82-10.287c-0.037-3.665,0.412-7.198-0.076-11.001c-0.122-0.91,0.016-0.979-0.083-0.465
			c-0.099,0.511-0.309,1.398,0.159-0.481c0.472-1.877-0.069-3.743-0.474-4.745c-0.41-1.002-0.884-2.009-1.741-3.72
			c-1.985-3.98-5.722-10.008-9.494-16.296c-3.771-6.3-7.562-12.892-8.861-16.064c-2.875-6.998-1.375-7.371-0.949-13.132
			c0.055-0.795,0.606-2.267,1.585-4.353c0.967-2.087,2.589-5.132,1.739-9.342c-0.864-4.27-3.559-6.38-5.302-7.99
			c-1.746-1.599-2.856-2.858-3.086-3.324c-1.207-2.414-2.138-7.838-3.321-12.422c-1.205-4.644-2.115-5.54-2.216-8.937
			c-0.127-4.234,0.313-11.697,1.186-13.926c0.221-0.574,1.152-1.81,2.764-3.241c1.622-1.437,3.851-2.812,5.622-6.173
			c2.246-4.268,2.018-8.82,1.426-11.954c-1.02-5.344-3.725-8.096-4.351-10.045c-0.993-3.068-1.979-7.5-2.216-9.974
			c-0.288-2.951-0.223-2.729,0.551-6.648c0.94-4.713,1.771-10.895,3.4-13.682c2.345-3.989,5.622-7.723,10.13-10.289
			c4.439-2.52,12.549-4.816,19.387-5.938c2.573-0.405,6.505-0.175,10.598,0.083c4.1,0.269,8.294,0.744,12.821-0.792
			c4.37-1.483,7.03-4.83,8.543-7.198c1.522-2.368,2.409-3.849,3.01-4.351c3.476-2.882,6.567-5.051,10.999-6.963
			c4.982-2.158,9.688-4.107,16.22-4.83c2.958-0.325,8.073-0.2,12.977,0c4.897,0.198,9.559,0.493,12.977,0.396
			c1.161-0.032,1.608-0.023,1.737,0c0.136,0.023,0.016,0.129,1.504,0.244c1.49,0.106,3.001-0.359,3.798-0.721
			c0.799-0.35,1.566-0.76,2.925-1.421c3.764-1.81,8.027-4.842,12.664-7.829c4.63-2.987,9.559-5.798,12.102-6.569
			c2.656-0.804,5.984-0.792,9.336-0.396c3.354,0.396,6.424,1.251,9.815,1.343c0.442,0.009,0.244-0.06,0.161-0.083
			c0.799,0.525,3.955,1.366,5.537,0.956c1.575-0.408,2.255-0.887,3.321-1.504c3.874-2.239,5.505-5.051,7.834-7.442
			c2.329-2.391,4.676-4.22,7.203-4.98c5.828-1.751,23.333-2.004,30.066-1.423c2.711,0.233,3.308,0.712,4.432,1.506
			c1.117,0.792,3.004,2.773,6.569,3.72c2.384,0.629,4.927,0.97,7.276,1.108c2.345,0.129,4.061,0.442,6.965-0.643
			c1.184-0.442,2.704-1.527,3.556-3.077c0.447-0.818,0.302-1.4,0.399-2.133c1.672-0.097,3.324-0.023,5.853-0.961
			c1.299-0.477,2.46-1.866,3.4-3.158c3.49-0.364,16.441-0.502,19.546-0.166c0.622,1.076,1.919,2.612,3.561,3.324
			c2.246,0.984,4.277,0.878,5.065,0.878c0.786,0,0.815,0,1.421,0.23c1.744,0.668,6.988,3.628,10.685,5.461
			c0.963,0.479,2.011,1.292,3.715,2.377c1.702,1.076,4.374,2.451,7.599,2.368c3.844-0.092,6.129-1.794,7.99-2.845
			c1.852-1.05,3.271-1.762,4.036-1.9c3.331-0.62,8.172-0.606,12.657-0.083c4.669,0.548,10.199,1.693,13.371,3.174
			c0.977,0.454,2.269,1.585,3.955,3.241c1.693,1.649,3.711,3.817,7.046,5.295c2.287,1.03,4.556,1.601,6.567,1.751
			c2.009,0.141,3.791,0.046,7.281,0.318c4.25,0.313,10.199,0.276,16.218,0.396c6.026,0.101,12.159,0.454,15.034,1.177
			c3.245,0.827,4.918,1.833,6.804,3.324c1.889,1.493,3.976,3.688,7.12,6.171c2.011,1.599,4.66,4.736,7.597,7.921
			c2.941,3.172,6.109,6.519,10.764,8.536c4.957,2.161,9.723,1.495,13.366,1.03c3.651-0.456,6.38-0.608,7.359-0.318
			c2.241,0.686,3.49,1.458,5.302,2.856c1.815,1.389,4.084,3.48,7.521,6.325c6.71,5.563,15.921,12.832,24.049,21.917
			c8.202,9.158,19.539,24.482,26.27,34.339c6.763,9.907,9.727,14.993,13.926,24.37c3.897,8.7,7.974,24.1,11.314,32.125
			c1.207,2.891,1.751,5.832,2.849,8.702c0.27,0.721,0.58,1.458,1.186,2.377c0.608,0.924,1.663,2.299,3.796,3.01
			c2.138,0.703,4.66,0.023,5.94-0.795c1.276-0.825,1.912-1.633,2.529-2.446c1.732-2.322,2.363-4.459,3.4-7.279
			c1.041-2.835,2.156-6.161,3.243-9.577c2.184-6.848,4.515-14.288,6.099-17.964c3.446-7.99,6.707-11.151,10.278-18.116
			c3.607-7.021,4.353-11.98,8.389-18.441c4.293-6.848,11.572-16.425,18.045-23.891c6.449-7.454,14.101-14.859,21.126-21.136
			c7.463-6.661,13.949-13.424,19.385-15.585c2.17-0.861,6.067-1.071,10.126-0.861c4.059,0.212,7.928,0.981,12.337,0.069
			c3.045-0.615,5.952-2.087,7.445-3.87c1.493-1.787,1.133-1.833,2.05-2.695c4.34-4.04,7.329-8.974,11.397-11.784
			c5.1-3.533,12.636-7.813,18.362-9.179c5.192-1.251,15.686-0.433,20.647-0.083c0.442,0.037,0.327,0.014,0.396,0
			c0.267,0.246,0.732,0.316,1.106,0.551c0.069,0.046,0.092,0.129,0.166,0.161c-0.129-0.069,0.299,0.841,2.216,1.739
			c2.05,0.979,4.21,0.629,5.459,0.246c1.235-0.387,2.202-0.864,3.556-1.589c3.441-1.854,7.15-4.888,11.397-7.907
			c4.247-3.031,8.886-5.959,11.314-6.811c5.528-1.926,13.599-1.027,18.593-0.316c1.143,0.161,1.05,0.187,1.889,0.956
			c0.843,0.758,2.589,3.091,6.256,3.872c1.023,0.223,2.497,0.804,4.911,0.633c2.414-0.175,4.303-0.961,7.274-2.299
			c3.943-1.764,7.924-4.667,12.263-7.433c4.363-2.773,8.96-5.307,11.793-6.019c3.054-0.758,7.684-0.686,12.107-0.313
			L1860.327,201.957z M1758.343,218.104c0.152,0.046,0.161-0.083,0.313,0c1.622,0.769,2.018,1.61,1.423,0.942
			c-0.23-0.256-1.129-0.5-1.668-0.873C1758.398,218.159,1758.366,218.113,1758.343,218.104z"/>
		<path id="path3102" fill="#F4F4F4" d="M1299.667,236.904c-1.366-0.069-4.211,0.491-5.775,2.697
			c-1.569,2.204-1.237,4.105-1.032,5.143c0.412,2.064,1.036,2.801,1.585,3.72c1.083,1.831,2.462,3.895,2.294,3.559
			c0.76,1.49,1.486,2.006,1.974,2.451c0.219,1.573,0.304,7.334,0.083,8.315c-0.092,0.396-0.145,0.514-0.237,0.861
			c-1.327-0.732-3.004-1.691-5.616-3.006c-4.913-2.465-13.912-8.414-23.425-12.424c-4.556-1.912-10.796-4.317-16.616-6.32
			c-5.821-2.009-10.607-3.619-14.714-4.038c-1.124-0.117-2.299-0.187-3.722,0.235c-1.421,0.419-3.137,1.559-4.109,3.087
			c-1.962,3.038-1.108,5.475-0.636,6.965c0.949,2.964,2.501,5.157,2.529,5.217c1.529,3.057,3.593,4.01,4.906,4.828
			c1.315,0.827,2.14,1.55,1.741,1.108c1.437,1.599,1.11,0.873,1.345,2.055c0.092,0.465,0.039,2.658,0,4.515
			c-0.627-0.212-0.521-0.166-1.426-0.479c-4.777-1.645-16.964-7.235-26.899-10.045c-4.793-1.352-10.858-2.776-16.381-3.883
			c-5.517-1.099-9.852-1.923-13.449-1.891c-0.986,0.014-2.041,0.025-3.556,0.714c-1.525,0.675-3.598,2.983-3.879,5.213
			c-0.281,2.239,0.401,3.513,0.871,4.363c0.468,0.838,0.926,1.329,1.345,1.817c1.668,1.926,3.607,3.722,3.241,3.245
			c1.974,2.6,3.872,3.255,4.591,3.708c0.712,0.465,0.274,0.048,0.242-0.071c0.184,0.643,0.64,3.49,0.712,5.857
			c0.016,0.772-0.048,1.341-0.083,1.972c-0.926-0.152-0.949-0.106-3.169-0.548c-2.967-0.606-9.352-2.697-16.135-4.83
			c-6.783-2.133-14.186-4.397-20.894-5.224c-6.194-0.772-14.124-1.248-21.205-1.177c-3.533,0.023-6.813,0.184-9.727,0.626
			c-2.918,0.445-5.424,0.435-8.387,3.395c-2.064,2.066-2.386,5.857-1.744,7.758c0.645,1.903,1.539,3.034,2.453,4.118
			c1.827,2.17,4.089,4.047,6.251,5.936c1.136,0.979,1.861,1.716,2.847,2.612c-3.499,0.445-8.343,0.712-13.848,1.03
			c-4.662,0.267-14.815-0.68-24.287-1.357c-4.736-0.322-9.414-0.58-13.452-0.546c-4.035,0.035-7.18-0.164-10.922,1.82
			c-1.675,0.887-3.354,2.497-4.188,4.515c-0.841,2.018-0.758,4.047-0.396,5.609c0.716,3.126,2.266,5.18,3.796,7.279
			c3.054,4.201,6.746,8.55,7.675,10.522c3.529,7.523,8.58,16.529,10.363,21.999c1.191,3.651,2.665,7.187,3.326,9.577
			c-0.035,0-0.046,0-0.081,0c-2.161-0.318-5.164-1.004-8.149-1.67c-2.99-0.652-6.014-1.352-8.863-1.656
			c-1.423-0.15-2.753-0.21-4.353,0c-1.592,0.212-3.959,0.7-5.772,3.16c-2.414,3.292-1.755,6.606-1.034,9.029
			c0.73,2.428,1.932,4.621,3.326,6.965c2.792,4.664,6.625,9.589,10.287,13.846c4.328,5.017,11.019,9.974,17.172,14.79
			c3.073,2.414,5.936,4.782,8.149,6.733c1.285,1.131,1.559,1.479,2.216,2.216c-1.552,0.546-3.437,1.117-5.544,1.737
			c-0.352,0.106-3.522,0.221-6.641-0.161c-3.121-0.375-5.722-1.191-9.495-0.716c0.198-0.018-0.235,0.028-0.871-0.078
			c-0.64-0.092-1.193-0.456-3.165-0.385c-0.986,0.021-3.215,0.117-5.063,2.601c-1.85,2.497-1.214,5.143-0.795,6.251
			c0.848,2.227,1.675,2.985,3.01,4.595c2.962,3.584,8.946,9.428,15.423,15.746c6.484,6.316,13.254,12.834,16.858,16.379
			c6.286,6.194,8.198,7.689,9.81,9.333c-1.787,0.055-3.315,0.115-5.933,0.083c-3.953-0.051-7.656-0.235-10.37,0
			c-0.184,0.009-0.412-0.028-0.709-0.083c-0.299-0.06-0.274-0.083-1.423-0.316c-0.288-0.06-0.677-0.212-1.663-0.166
			c-0.495,0.025-1.191,0.094-2.216,0.564c-1.023,0.463-2.368,1.628-3.004,3.077c-1.283,2.914-0.182,4.466,0.157,5.143
			c0.341,0.689,0.532,0.956,0.714,1.191c0.721,0.933,1.101,1.283,1.974,2.216c4.042,4.349,14.744,14.454,24.291,21.917
			c5.095,3.98,12.139,8.271,18.355,12.192c2.753,1.725,5.19,3.301,7.281,4.745c-0.938,0.187-1.502,0.304-2.451,0.551
			c-0.514,0.138-3.552,0.221-6.486,0.078c-1.467-0.069-2.969-0.161-4.432-0.161c-1.472,0-2.729-0.106-4.987,0.792
			c-0.433,0.175-1.096,0.35-2.133,0.878c-1.039,0.511-3.245,1.665-3.962,4.745c-0.712,3.066,0.739,5.318,1.741,6.569
			c1,1.232,2.025,2.156,3.483,3.324c6.341,5.049,23.16,15.103,30.702,19.618c7.753,4.632,10.503,5.438,15.11,7.829
			c4.286,2.225,9.195,4.653,12.581,6.495c-1.025,0.152-1.246,0.267-2.299,0.396c-4.093,0.502-8.106,0.97-10.52,1.343
			c-1.557,0.244-1.297,0.115-1.663,0.081c-0.088-0.012,0.053-0.293-1.896,0.069c-0.491,0.094-1.124,0.272-1.981,0.792
			c-0.426,0.272-1.343,1.113-1.343,1.113l-0.949,1.502c0,0-0.396,1.062-0.472,1.504c-0.025,0.129,0.009,0.198,0,0.318
			c-0.415,0.91-0.808,2.11-0.636,3.637c0.295,2.683,1.928,4.353,3.324,5.461c1.391,1.117,2.934,1.972,5.143,3.008
			c8.721,4.082,32.858,13.217,43.596,16.937c9.762,3.37,15.251,3.906,17.25,4.27c-0.965,0.5-2.11,1.011-3.402,1.585
			c-2.958,1.297-5.597,1.946-8.628,4.268c-0.141,0.106-0.424,0.352-0.944,0.629c-0.518,0.281-1.103,0.083-2.854,2.055
			c-0.873,0.993-2.027,3.734-1.338,6.019c0.682,2.285,1.942,3.047,2.688,3.559c1.493,1.025,2.402,1.306,3.877,1.82
			c5.917,2.087,19.8,5.936,32.837,7.677c6.841,0.919,15.663,1.083,23.812,1.269c8.149,0.175,16.041,0.617,18.279,1.177
			c-0.168,0.479-0.099,0.143-0.472,0.958c0.721-1.587-1.161,0.944-3.566,2.531c-2.4,1.587-4.839,2.649-7.352,5.295
			c-1.055,1.108-2.144,1.647-3.407,4.432c-0.631,1.4-0.99,4.549,0.477,6.733c1.472,2.179,3.186,2.716,4.429,3.08
			c1.428,0.428,3.506,0.91,6.173,0.956c2.667,0.046,6.104-0.187,11.948-0.712c11.208-1.016,34.306-2.124,53.885-6.334
			c18.719-4.024,42.511-8.446,61.475-18.676c18.839-10.16,36.955-27.433,48.186-40.664c11.521-13.576,19.249-28.951,19.862-40.753
			c0.145-2.803-0.129-5.461-1.348-7.907c-1.221-2.451-3.167-4.095-4.823-5.226c-3.326-2.253-6.486-3.619-11.475-8.225
			c-11.015-10.169-33.528-30.932-50.716-44.628c-17.096-13.613-33.231-24.531-51.195-36.557
			c-18.049-12.083-37.483-24.287-57.128-35.995c-19.719-11.772-43.577-24.849-60.684-34.343
			c30.105,12.786,75.249,32.45,95.818,41.854c24.98,11.429,13.214,5.468,33.152,17.485c19.731,11.897,63.893,39.157,84.665,53.643
			c9.992,6.975,17.294,14.684,23.741,21.29c6.438,6.601,12.081,12.657,20.412,14.322c0.571,0.106,1.154,0.141,1.734,0.081
			c0.053,0,0.106-0.011,0.159,0c7.564,0.654,13.952-3.524,18.519-8.154c4.95-5.026,8.958-10.858,12.339-14.403
			c7.857-8.237,16.642-17.407,21.205-30.936c4.141-12.268,8.271-26.744,4.83-46.763c-3.395-19.712-12.89-48.571-24.609-70.651
			c-11.911-22.442-35.866-51.906-45.095-60.691c-1.304-1.237-2.467-2.276-4.515-3.008c-2.043-0.726-6.085-0.071-7.836,1.983
			c-1.741,2.041-1.84,3.674-1.976,4.98c-0.127,1.318-0.074,2.462,0,3.639c0.152,2.368,0.449,4.727,0.638,6.567
			c0.069,0.726,0.138,1.225,0.154,1.668c-0.518,0.947-0.64,1.062-1.976,1.576c-0.081,0.035-0.385,0-0.636-0.071
			c-0.774-0.91-1.877-2.216-3.72-4.199c-3.628-3.92-12.155-13.751-20.571-23.176c-4.204-4.724-8.38-9.294-12.026-13.134
			c-3.644-3.851-6.519-6.765-9.098-8.716c-1.253-0.933-2.43-1.76-4.432-2.216c-1.995-0.442-5.569,0.456-7.12,2.46
			c-1.552,2.009-1.605,3.596-1.663,4.832c-0.06,1.225,0.023,2.299,0.157,3.312c0.279,2.052,0.795,4.024,1.11,5.62
			c0.32,1.603,0.101,3.432,0.396,1.741c-0.327,1.9-0.396,3.335-0.474,4.116c-0.083,0.781-0.122,0.804-0.32,1.271
			c-0.29,0.686-0.769,1.702-1.267,2.534c-0.583-0.749-0.868-1.26-2.133-2.534c-3.787-3.826-14.085-14.873-20.571-20.659
			c-2.974-2.649-6.286-5.62-9.335-8.071c-1.527-1.225-3.004-2.239-4.512-3.16c-1.506-0.921-2.815-1.983-5.694-2.052
			c-1.746-0.06-4.031,0.827-5.302,2.133c-1.274,1.297-1.723,2.626-1.976,3.642c-0.521,2.018-0.392,3.476-0.323,4.897
			c0.152,2.847,0.304,5.88,0.323,5.775c-0.604,4.164-0.864,7.069-1.032,7.359c-0.521,0.898-1,1.504-1.426,2.066
			c-0.279-0.198-0.24-0.198-1.341-1.191c-1.732-1.564-4.199-3.941-7.675-6.567c-6.15-4.641-18.542-14.638-26.035-19.466
			c-3.658-2.359-7.136-4.257-10.128-5.613c-2.997-1.364-4.752-2.273-7.99-2.462H1299.667z M1249.258,253.297
			c5.468,1.886,11.425,4.174,15.582,5.936c8.055,3.384,16.448,8.946,22.711,12.095c2.559,1.297,4.416,2.405,6.327,3.407
			c1.914,1.002,4.422,2.23,7.597,1.817c3.768-0.488,6.164-3.508,7.2-5.623c1.039-2.098,1.396-3.918,1.739-5.457
			c0.871-3.817,0.698-7.537,0.32-10.754c0.207,0.129,0.345,0.184,0.553,0.313c6.143,3.957,18.828,13.998,25.321,18.908
			c2.838,2.147,4.869,4.201,6.882,6.019c2.018,1.82,4.114,3.837,7.755,4.584c4.035,0.832,7.677-1.338,9.57-3.241
			c1.896-1.9,2.958-3.84,3.722-5.146c2.757-4.713,2.209-8.854,2.612-11.627c0.131-0.933-0.085-1.329-0.083-2.138
			c2.253,1.903,4.607,4.001,7.041,6.171c5.53,4.925,15.951,15.912,20.099,20.099c1.824,1.843,1.917,2.138,1.741,1.82
			c-0.046-0.081-0.134-0.127,0.076,0.235c0.217,0.359,0.85,1.191,1.43,1.665c1.14,0.961,1.313,0.841,1.656,1.03
			c0.827,0.428,2.11,1.108,3.877,1.585c1.771,0.465,4.496,0.829,7.203-0.712c2.656-1.527,3.496-3.163,4.512-4.747
			c1.011-1.599,1.776-3.183,2.37-4.595c0.73-1.728,1.055-3.499,1.191-4.747c0.129-1.237,0.182-2.02,0.389-3.243
			c0.099-0.583-0.106-0.643-0.076-1.108c0.106,0.115,0.129,0.115,0.235,0.235c3.499,3.697,7.702,8.235,11.867,12.897
			c8.334,9.347,16.619,18.982,20.654,23.345c1.882,2.038,3.027,3.324,3.637,4.033c0.311,0.364,0.498,0.56,0.557,0.633
			c0.062,0.078,0.152,0.465-0.399-0.633c-0.035-0.069-0.113-0.207-0.159-0.313c0.198,0.431,0.382,0.746,0.557,0.947
			c0.138,0.161,0.306,0.534,0.474,0.709c0.122,0.141,0.304,0.256,0.557,0.477c0.122,0.12,0.214,0.221,0.472,0.396
			c0.129,0.092,0.336,0.198,0.553,0.318c0.216,0.115,0.868,0.394,0.868,0.394l1.903,0.396c0,0,0.214,0.014,0.313,0
			c2.589,0.772,5.339,0.984,8.073-0.078c2.2-0.855,6.502-3.139,8.785-7.76c1.011-2.052,0.866-3.206,0.866-4.349
			c9.962,11.326,27.134,32.906,36.078,49.771c10.932,20.601,20.343,49.214,23.423,67.095c3.027,17.579-0.327,29.068-4.349,40.991
			c-3.598,10.66-10.738,18.183-18.593,26.431c-4.482,4.69-8.354,10.427-12.192,14.311c-3.835,3.895-6.491,5.369-9.571,4.75
			c-3.188-0.631-7.854-4.455-14.166-10.918c-6.307-6.461-14.244-15.002-25.392-22.78c-21.525-15.016-65.51-42.064-85.381-54.044
			c-19.661-11.862-9.474-6.753-34.332-18.127c-25.049-11.452-90.997-40.567-116.076-50.716c-12.544-5.065-19.83-7.382-24.844-8.536
			c-5.024-1.159-7.758-1.145-9.418-1.343c-1.479-0.189-2.253-0.887-5.461,0.548c-0.799,0.362-1.93,1.025-2.771,2.296
			c-0.841,1.271-1.094,2.976-0.942,4.19c0.29,2.437,1.237,3.218,1.817,3.881c2.333,2.626,4.492,3.699,8.543,6.173
			c8.516,5.189,25.512,13.516,42.488,22.942c17.172,9.531,41.037,22.61,60.454,34.177c19.484,11.632,38.724,23.658,56.571,35.612
			c17.936,12.003,33.749,22.723,50.402,35.997c16.547,13.194,39.072,33.896,50.082,44.07c6.032,5.563,11.001,8.059,12.896,9.342
			c0.951,0.64,0.834,0.7,0.792,0.629c-0.037-0.081,0.171,0.293,0.083,1.969c-0.32,6.15-6.889,21.792-17.013,33.712
			c-10.418,12.272-28.189,28.951-44.787,37.897c-16.469,8.891-39.286,13.346-58.234,17.416c-18.098,3.888-40.634,5.097-52.464,6.173
			c-0.873,0.069-0.896,0.009-1.661,0.069c1.757-1.154,3.464-2.554,4.828-5.53c0.514-1.131,2.432-3.439,2.216-7.838
			c-0.108-2.193-1.242-4.828-3.084-6.486c-1.85-1.656-4.072-2.612-6.569-3.241c-5.464-1.403-12.689-1.329-20.889-1.504
			c-8.2-0.189-16.987-0.373-22.548-1.108c-7.037-0.947-14.161-2.649-20.336-4.27c0.91-0.433,1.813-0.792,2.688-1.274
			c1.546-0.825,2.99-1.559,4.591-3.474c1.896-2.273,3.255-5.47,2.693-8.866c-0.564-3.395-2.937-6.208-5.777-7.907
			c-6.516-3.932-11.436-2.299-21.05-5.622c-8.025-2.778-22.861-8.631-33.309-12.901c3.52-0.419,6.883-0.686,9.734-1.656
			c1.472-0.502,2.9-1.2,4.194-2.462c1.295-1.248,2.227-3.266,2.373-4.98c0.288-3.418-1.055-5.017-1.108-5.146
			c-0.797-1.972-2.506-3.556-3.796-4.432c-1.292-0.864-2.43-1.446-4.036-2.368c-3.81-2.202-10.388-5.457-15.276-7.99
			c-5.323-2.776-7.281-3.135-14.477-7.442c-5.468-3.266-14.654-9.181-21.758-13.843c1.562-0.037,2.934,0.221,4.667-0.235
			c1.276-0.336,5.003-0.712,8.55-1.903c1.771-0.594,3.895-1.214,5.775-4.033c0.938-1.412,1.513-3.57,1.262-5.378
			c-0.251-1.82-1.048-3.149-1.898-4.28c-1.803-2.396-3.833-3.874-6.406-5.696c-2.577-1.817-5.622-3.706-8.785-5.692
			c-6.325-3.987-13.249-8.29-17.326-11.475c-5.226-4.084-8.946-7.898-13.613-12.261c3.308,0.046,6.562,0.129,9.181-0.244
			c1.29-0.175,2.428-0.419,3.713-1.025c1.297-0.594,2.782-1.833,3.566-3.326c0.643-1.225,0.666-1.983,0.712-2.531
			c0.009-0.115,0.152-0.479,0.159-0.548c0.101,0.035,0.557-0.164,0.866-2.379c0.387-2.709-0.848-5.39-2.375-7.362
			c-2.881-3.72-5.639-5.353-12.814-12.422c-3.759-3.697-10.513-10.114-16.934-16.377c-3.239-3.149-4.736-4.77-7.357-7.428
			c3.054,0.371,6.348,0.675,10.052-0.396c1.889-0.562,5.648-1.168,9.335-3.093c1.84-0.956,3.95-2.377,5.295-5.143
			c1.352-2.764,0.963-6.475-0.47-9.101c-1.608-2.937-3.748-4.839-6.33-7.115c-2.584-2.273-5.599-4.618-8.702-7.044
			c-6.21-4.865-12.825-10.103-15.513-13.217c-3.342-3.872-6.899-8.516-9.098-12.176c-0.122-0.212-0.122-0.281-0.233-0.479
			c1.401,0.258,2.564,0.433,4.19,0.792c2.948,0.643,6.028,1.318,8.944,1.737c2.909,0.419,5.436,1.449,9.571-1.025
			c2.642-1.587,4.217-4.667,4.508-7.127c0.299-2.462-0.122-4.549-0.631-6.486c-1.018-3.883-2.699-7.557-3.637-10.441
			c-2.531-7.778-7.677-16.61-10.842-23.34c-2.421-5.155-6.486-9.236-8.861-12.505c-0.023-0.032,0.023-0.046,0-0.078
			c0.977-0.143,0.834-0.143,2.216-0.166c3.407-0.023,7.806,0.235,12.422,0.562c9.241,0.652,19.06,1.654,25.874,1.271
			c5.662-0.329,11.047-0.445,15.665-1.11c2.31-0.339,4.439-0.815,6.567-1.748c2.128-0.924,4.637-2.66,5.699-5.775
			c1.034-3.034-0.065-5.332-0.868-6.721c-0.808-1.398-1.649-2.391-2.612-3.402c-1.93-2.032-4.224-3.932-6.33-5.775
			c-0.279-0.244-0.362-0.396-0.636-0.643c1.389-0.081,2.497-0.221,4.118-0.235c6.362-0.055,13.993,0.412,19.618,1.108
			c5.123,0.633,12.15,2.674,18.752,4.75c6.608,2.073,12.639,4.197,17.328,5.143c3.794,0.758,5.5,1.398,8.469,1.269
			c1.481-0.069,3.584-0.732,4.904-1.829c1.318-1.085,1.843-2.052,2.299-2.764c1.311-2.055,1.536-3.688,1.737-5.295
			c0.205-1.619,0.205-3.209,0.159-4.828c-0.09-3.255-0.415-6.24-1.184-8.868c-0.175-0.594-0.539-0.979-0.795-1.504
			c4.561,0.956,9.384,2.138,13.058,3.174c8.318,2.343,19.878,7.606,26.27,9.81c2.771,0.956,4.012,1.447,5.535,1.82
			c1.529,0.359,3.784,0.138,4.51,0c1.992-0.41,4.478-2.078,5.54-3.886c1.062-1.797,1.283-3.135,1.504-4.349
			c0.64-3.49,0.705-7.373-0.083-11.314c-0.47-2.359-1.562-4.164-2.688-5.692H1249.258z"/>
		<path id="path3106" fill="#F4F4F4" d="M1861.354,236.835c-3.234,0.175-5.008,1.168-7.993,2.531
			c-2.994,1.366-6.472,3.266-10.121,5.623c-7.504,4.819-19.901,14.815-26.037,19.457c-3.474,2.635-5.947,5.003-7.675,6.567
			c-1.05,0.956-1.027,0.898-1.354,1.108c-0.419-0.548-0.898-1.168-1.424-2.052c-0.161-0.293-0.502-3.126-1.096-7.279
			c0.014,0.104,0.244-3.01,0.396-5.855c0.069-1.421,0.115-2.799-0.396-4.828c-0.258-1.016-0.709-2.336-1.981-3.642
			c-1.271-1.306-3.473-2.179-5.229-2.133c-2.879,0.083-4.266,1.062-5.772,1.969c-1.502,0.924-2.976,2.032-4.515,3.255
			c-3.045,2.451-6.274,5.411-9.25,8.059c-6.495,5.786-16.782,16.833-20.578,20.659c-1.258,1.274-1.548,1.785-2.133,2.534
			c-0.488-0.818-1.05-1.833-1.341-2.534c-0.198-0.468-0.152-0.491-0.244-1.271c-0.069-0.769-0.221-2.216-0.548-4.107
			c0.29,1.681,0.152-0.147,0.479-1.751c0.313-1.582,0.746-3.637,1.027-5.692c0.138-1.025,0.29-2.015,0.23-3.241
			c-0.06-1.225-0.106-2.824-1.654-4.832c-1.562-2.004-5.206-2.971-7.209-2.529c-1.995,0.442-3.174,1.274-4.436,2.216
			c-2.566,1.939-5.362,4.865-9.015,8.702c-3.649,3.849-7.896,8.506-12.093,13.217c-8.426,9.425-16.948,19.256-20.578,23.176
			c-1.88,2.029-2.939,3.289-3.722,4.199c-0.235,0.071-0.479,0.106-0.548,0.083c-1.35-0.525-1.539-0.631-2.064-1.587
			c0.009-0.442,0.083-0.942,0.152-1.656c0.184-1.852,0.562-4.211,0.723-6.567c0.074-1.189,0.051-2.333-0.078-3.639
			c-0.129-1.318-0.157-2.937-1.903-4.991c-1.75-2.041-5.869-2.787-7.91-2.055c-2.055,0.735-3.137,1.774-4.436,3.01
			c-9.236,8.785-33.182,38.236-45.091,60.678c-11.724,22.094-21.302,51.022-24.683,70.746c-3.455,20.016,0.756,34.576,4.902,46.834
			c4.57,13.53,13.341,22.617,21.205,30.865c3.381,3.545,7.38,9.379,12.341,14.405c4.478,4.524,10.669,8.587,18.031,8.14
			c0.037,0,0.06,0,0.097,0c0.746,0.129,1.534,0.094,2.285-0.081c8.324-1.665,13.972-7.712,20.412-14.313
			c6.436-6.601,13.668-14.311,23.656-21.285c20.786-14.488,65.019-41.749,84.741-53.648c19.938-12.026,8.168-6.051,33.164-17.485
			c20.555-9.414,65.697-29.068,95.811-41.85c-17.114,9.494-40.963,22.568-60.689,34.329c-19.643,11.72-39.065,23.911-57.124,36.006
			c-17.962,12.024-34.177,22.932-51.273,36.557c-17.197,13.694-39.71,34.525-50.72,44.699c-4.994,4.607-8.14,5.899-11.48,8.152
			c-1.654,1.122-3.589,2.776-4.814,5.226c-1.225,2.451-1.497,5.109-1.341,7.907c0.608,11.807,8.407,27.18,19.933,40.744
			c11.231,13.24,29.336,30.598,48.186,40.756c18.966,10.22,42.667,14.569,61.398,18.595c19.574,4.199,42.672,5.318,53.88,6.323
			c5.846,0.537,9.365,0.758,12.024,0.721c2.663-0.046,4.75-0.523,6.173-0.956c1.248-0.373,2.962-0.818,4.432-3.008
			c1.474-2.181,1.11-5.318,0.479-6.719c-1.258-2.801-2.354-3.407-3.404-4.515c-2.52-2.649-4.957-3.711-7.362-5.295
			c-2.405-1.599-4.28-4.116-3.556-2.531c-0.373-0.827-0.304-0.477-0.465-0.956c2.239-0.574,10.121-1.002,18.266-1.191
			c8.154-0.175,16.893-0.269,23.739-1.177c13.023-1.741,27-5.669,32.915-7.755c1.479-0.527,2.382-0.712,3.879-1.741
			c0.751-0.511,2.013-1.352,2.69-3.637c0.686-2.299-0.465-5.026-1.345-6.019c-1.76-1.986-2.326-1.787-2.856-2.055
			c-0.511-0.281-0.889-0.442-1.027-0.56c-3.027-2.322-5.574-3.045-8.536-4.351c-1.304-0.574-2.525-1.085-3.474-1.576
			c1.93-0.373,7.472-0.873,17.317-4.28c10.748-3.711,34.864-12.841,43.589-16.925c2.22-1.039,3.754-1.903,5.16-3.01
			c1.387-1.108,3.022-2.773,3.312-5.457c0.161-1.541-0.212-2.732-0.626-3.642c-0.014-0.115,0.018-0.184,0-0.313
			c-0.088-0.456-0.47-1.506-0.484-1.506l-0.944-1.504c0,0-0.921-0.841-1.35-1.108c-0.852-0.525-1.562-0.7-2.059-0.792
			c-1.944-0.362-1.723,0-1.82,0c-0.355,0.035-0.092,0.081-1.654-0.152c-2.414-0.385-6.505-0.841-10.6-1.354
			c-0.981-0.115-1.179-0.175-2.137-0.313c3.386-1.843,8.237-4.353,12.507-6.569c4.598-2.391,7.348-3.195,15.101-7.825
			c7.546-4.515,24.37-14.571,30.704-19.632c1.456-1.154,2.483-2.078,3.487-3.324c0.99-1.237,2.446-3.407,1.728-6.486
			c-0.714-3.068-2.916-4.305-3.943-4.828c-1.051-0.516-1.7-0.691-2.142-0.866c-2.271-0.896-3.515-0.79-4.98-0.79
			c-1.479,0-2.967,0.078-4.441,0.161c-2.925,0.138-5.966,0.046-6.482-0.083c-0.958-0.256-1.516-0.373-2.46-0.56
			c2.096-1.444,4.538-3.008,7.274-4.745c6.233-3.92,13.276-8.202,18.362-12.18c9.554-7.465,20.247-17.579,24.296-21.919
			c0.88-0.942,1.248-1.283,1.972-2.216c0.193-0.23,0.378-0.511,0.728-1.186c0.323-0.677,1.424-2.243,0.152-5.146
			c-0.64-1.447-1.986-2.626-3.008-3.08c-1.018-0.468-1.723-0.537-2.211-0.56c-1-0.046-1.377,0.106-1.667,0.164
			c-1.156,0.221-1.129,0.258-1.424,0.313c-0.304,0.06-0.608,0.092-0.792,0.083c-2.718-0.235-6.334-0.046-10.282,0
			c-2.607,0.023-4.155-0.037-5.943-0.083c1.608-1.654,3.524-3.149,9.822-9.342c3.593-3.533,10.361-10.054,16.842-16.379
			c6.486-6.309,12.461-12.153,15.433-15.746c1.327-1.61,2.16-2.354,3.008-4.584c0.424-1.119,1.064-3.757-0.792-6.249
			c-1.852-2.497-4.082-2.58-5.063-2.614c-1.972-0.06-2.534,0.293-3.16,0.394c-0.64,0.106-1.069,0.06-0.875,0.083
			c-3.773-0.477-6.38,0.339-9.49,0.712c-3.114,0.373-6.288,0.258-6.652,0.166c-2.11-0.62-3.976-1.191-5.537-1.751
			c0.649-0.723,0.93-1.076,2.216-2.216c2.216-1.937,5.072-4.319,8.149-6.721c6.15-4.819,12.844-9.785,17.169-14.801
			c3.667-4.247,7.49-9.17,10.278-13.846c1.4-2.336,2.617-4.526,3.335-6.965c0.728-2.423,1.377-5.728-1.023-9.015
			c-1.82-2.474-4.188-2.962-5.791-3.163c-1.585-0.207-2.921-0.161-4.344,0c-2.852,0.306-5.869,1.004-8.859,1.658
			c-2.994,0.663-5.993,1.269-8.159,1.585c-0.028,0-0.041-0.012-0.073,0c0.654-2.389,2.137-5.841,3.326-9.492
			c1.787-5.484,6.818-14.49,10.365-21.999c0.926-1.972,4.625-6.325,7.679-10.524c1.516-2.098,3.077-4.151,3.791-7.276
			c0.364-1.564,0.442-3.605-0.396-5.623c-0.829-2.018-2.511-3.619-4.188-4.505c-3.759-1.981-6.887-1.783-10.923-1.817
			c-4.035-0.046-8.725,0.212-13.461,0.548c-9.471,0.663-19.62,1.527-24.282,1.269c-5.51-0.313-10.356-0.5-13.852-0.956
			c0.995-0.884,1.723-1.619,2.852-2.612c2.16-1.889,4.418-3.837,6.251-6.007c0.907-1.083,1.806-2.135,2.451-4.038
			c0.64-1.898,0.313-5.692-1.741-7.755c-2.958-2.962-5.473-2.948-8.38-3.407c-2.916-0.442-6.279-0.677-9.817-0.709
			c-7.076-0.06-15.009,0.502-21.2,1.269c-6.707,0.829-14.115,3.01-20.896,5.146c-6.781,2.133-13.088,4.303-16.059,4.899
			c-2.216,0.456-2.244,0.405-3.16,0.557c-0.037-0.64-0.106-1.2-0.083-1.981c0.069-2.356,0.525-5.201,0.709-5.857
			c-0.032,0.129-0.474,0.468,0.244,0c0.7-0.451,2.612-1.025,4.584-3.637c-0.369,0.491,1.576-1.306,3.243-3.245
			c0.424-0.474,0.88-1.048,1.341-1.9c0.47-0.841,1.156-2.121,0.88-4.349c-0.295-2.23-2.368-4.455-3.888-5.143
			c-1.516-0.677-2.566-0.7-3.561-0.714c-3.589-0.023-7.914,0.806-13.447,1.9c-5.528,1.099-11.66,2.522-16.455,3.886
			c-9.927,2.799-22.034,8.398-26.816,10.043c-0.931,0.327-0.866,0.258-1.506,0.479c-0.037-1.857-0.092-4.049,0-4.515
			c0.23-1.191-0.092-0.465,1.341-2.055c-0.396,0.433,0.516-0.29,1.82-1.108c1.308-0.827,3.381-1.771,4.901-4.828
			c0.046-0.069,1.589-2.248,2.538-5.226c0.47-1.481,1.318-4.001-0.626-7.034c-0.981-1.527-2.69-2.589-4.128-3.008
			c-1.423-0.422-2.594-0.348-3.708-0.233c-4.109,0.408-8.905,2.018-14.728,4.026c-5.818,2.015-12.056,4.418-16.607,6.332
			c-9.518,3.999-18.593,9.948-23.504,12.422c-2.58,1.306-4.21,2.276-5.542,3.01c-0.092-0.362-0.138-0.456-0.23-0.875
			c-0.221-0.967-0.138-6.73,0.069-8.306c0.502-0.442,1.212-0.956,1.981-2.446c-0.161,0.322,1.216-1.728,2.299-3.573
			c0.548-0.91,1.179-1.645,1.576-3.708c0.212-1.039,0.47-3.022-1.096-5.224c-1.562-2.207-4.339-2.766-5.689-2.697H1861.354z
			 M1911.673,253.375c-1.106,1.518-2.23,3.292-2.695,5.613c-0.779,3.941-0.64,7.825,0,11.314c0.235,1.214,0.373,2.552,1.423,4.349
			c1.073,1.808,3.625,3.49,5.625,3.886c0.719,0.138,2.99,0.279,4.51-0.083c1.534-0.373,2.764-0.781,5.542-1.737
			c6.39-2.204,17.939-7.546,26.272-9.891c3.658-1.039,8.486-2.138,13.051-3.093c-0.244,0.514-0.622,0.852-0.792,1.423
			c-0.783,2.637-1.101,5.694-1.193,8.949c-0.032,1.619-0.046,3.209,0.166,4.828c0.198,1.608,0.419,3.241,1.732,5.295
			c0.461,0.712,0.986,1.599,2.303,2.695c1.318,1.085,3.418,1.829,4.911,1.889c2.962,0.138,4.667-0.502,8.458-1.26
			c4.703-0.947,10.715-3.139,17.321-5.226c6.611-2.075,13.65-4.033,18.754-4.667c5.634-0.696,13.263-1.246,19.62-1.186
			c1.658,0.023,2.792,0.219,4.201,0.313c-0.281,0.256-0.419,0.375-0.709,0.643c-2.119,1.843-4.399,3.743-6.339,5.775
			c-0.958,1.011-1.792,2.004-2.612,3.402c-0.806,1.389-1.893,3.688-0.861,6.721c1.059,3.114,3.566,4.851,5.689,5.775
			c2.124,0.933,4.275,1.329,6.583,1.668c4.616,0.663,9.996,0.861,15.649,1.177c6.813,0.396,16.635-0.689,25.876-1.341
			c4.616-0.327,9.015-0.502,12.438-0.479c1.373,0.023,1.235,0.023,2.216,0.166c-0.028,0.032,0.018,0.046,0,0.078
			c-2.382,3.268-6.445,7.35-8.873,12.505c-3.169,6.73-8.301,15.562-10.849,23.34c-0.931,2.884-2.612,6.558-3.635,10.441
			c-0.511,1.937-0.935,3.941-0.631,6.403c0.304,2.474,1.866,5.622,4.515,7.21c4.137,2.474,6.657,1.444,9.577,1.025
			c2.902-0.419,5.984-1.177,8.932-1.82c1.635-0.359,2.801-0.525,4.201-0.792c-0.129,0.221-0.106,0.327-0.244,0.562
			c-2.198,3.66-5.754,8.221-9.103,12.095c-2.677,3.114-9.292,8.433-15.497,13.297c-3.1,2.425-6.122,4.77-8.702,7.044
			c-2.589,2.276-4.736,4.178-6.33,7.115c-1.437,2.626-1.833,6.337-0.484,9.101c1.354,2.766,3.464,4.105,5.298,5.06
			c3.681,1.926,7.454,2.614,9.338,3.176c3.699,1.071,7.007,0.767,10.047,0.396c-2.612,2.658-4.118,4.28-7.348,7.428
			c-6.431,6.263-13.185,12.68-16.939,16.377c-7.173,7.069-9.937,8.702-12.821,12.422c-1.529,1.972-2.75,4.653-2.368,7.362
			c0.378,2.72,1.262,3.556,1.027,2.928c0.046,0.548,0.069,1.306,0.714,2.531c0.779,1.493,2.276,2.732,3.556,3.326
			c1.285,0.606,2.428,0.85,3.718,1.025c2.626,0.373,5.869,0.29,9.181,0.244c-4.662,4.363-8.384,8.177-13.613,12.261
			c-4.068,3.186-11.001,7.488-17.321,11.475c-3.169,1.986-6.219,3.957-8.794,5.775c-2.566,1.82-4.593,3.218-6.399,5.613
			c-0.857,1.131-1.649,2.541-1.907,4.349c-0.244,1.82,0.332,3.897,1.271,5.309c1.875,2.819,3.999,3.439,5.772,4.033
			c3.547,1.191,7.283,1.566,8.541,1.903c1.75,0.456,3.1,0.198,4.676,0.235c-7.104,4.662-16.294,10.577-21.748,13.843
			c-7.205,4.307-9.163,4.667-14.493,7.442c-4.888,2.534-11.448,5.788-15.267,7.99c-1.599,0.921-2.746,1.504-4.036,2.368
			c-1.294,0.875-2.994,2.543-3.787,4.515c-0.06,0.129-1.405,1.645-1.124,5.063c0.138,1.714,1.083,3.731,2.377,4.98
			c1.299,1.262,2.732,1.96,4.201,2.462c2.847,0.97,6.205,1.237,9.729,1.656c-10.448,4.27-25.291,10.123-33.316,12.901
			c-9.61,3.324-14.534,1.691-21.044,5.611c-2.842,1.711-5.21,4.524-5.786,7.919c-0.562,3.395,0.792,6.592,2.69,8.866
			c1.603,1.914,3.05,2.635,4.593,3.474c0.871,0.468,1.792,0.854,2.69,1.274c-6.168,1.622-13.364,3.324-20.412,4.27
			c-5.56,0.735-14.267,0.919-22.462,1.108c-8.205,0.175-15.502,0.184-20.979,1.576c-2.492,0.64-4.63,1.513-6.482,3.169
			c-1.852,1.658-3.059,4.293-3.16,6.486c-0.221,4.399,1.704,6.707,2.216,7.838c1.354,2.976,3.077,4.376,4.828,5.53
			c-0.746-0.06-0.746,0-1.585-0.069c-11.83-1.076-34.366-2.285-52.471-6.173c-18.943-4.07-41.824-8.525-58.307-17.416
			c-16.598-8.946-34.283-25.625-44.713-37.897c-10.121-11.934-16.773-27.562-17.073-33.712c-0.092-1.677,0.115-2.05,0.069-1.969
			c-0.037,0.071-0.069,0.012,0.871-0.629c1.903-1.297,6.873-3.78,12.894-9.342c11.024-10.174,33.454-30.877,50.015-44.07
			c16.658-13.274,32.533-23.994,50.485-35.997c17.847-11.954,37.066-23.98,56.571-35.612c19.408-11.581,43.183-24.646,60.362-34.177
			c16.99-9.425,34.053-17.752,42.566-22.942c4.063-2.474,6.219-3.547,8.555-6.173c0.58-0.663,1.525-1.444,1.815-3.881
			c0.157-1.214-0.101-2.918-0.944-4.19c-0.838-1.271-1.972-1.935-2.778-2.296c-3.197-1.435-3.976-0.737-5.454-0.548
			c-1.663,0.198-4.399,0.184-9.416,1.343c-5.026,1.154-12.309,3.471-24.844,8.536c-25.093,10.149-91.02,39.263-116.076,50.716
			c-24.867,11.374-14.672,6.265-34.339,18.127c-19.873,11.98-63.854,39.019-85.372,54.044c-11.167,7.778-19.095,16.319-25.392,22.78
			c-6.311,6.463-11.061,10.287-14.258,10.918c-3.082,0.62-5.726-0.855-9.564-4.75c-3.837-3.883-7.712-9.621-12.189-14.311
			c-7.85-8.248-14.921-15.771-18.51-26.431c-4.026-11.922-7.467-23.411-4.436-40.991c3.082-17.881,12.494-46.493,23.421-67.095
			c8.937-16.831,26.111-38.342,36.08-49.691c0,1.122-0.046,2.25,0.944,4.268c2.29,4.621,6.509,6.905,8.702,7.76
			c2.718,1.048,5.51,0.744,8.076,0c0.115,0.009,0.327,0.078,0.327,0.078l1.889-0.396c0,0,0.746-0.279,0.954-0.394
			c0.212-0.12,0.35-0.226,0.465-0.318c0.258-0.175,0.447-0.29,0.562-0.396c0.258-0.221,0.35-0.336,0.47-0.477
			c0.17-0.175,0.346-0.548,0.488-0.709c0.23-0.27,0.419-0.516,0.696-1.26c-0.101,0.299-0.244,0.488-0.299,0.627
			c-0.562,1.099-0.47,0.712-0.396,0.633c0.055-0.083,0.23-0.27,0.544-0.633c0.622-0.709,1.764-1.995,3.644-4.033
			c4.035-4.363,12.397-13.998,20.726-23.345c4.178-4.662,8.297-9.283,11.793-12.97c0.152-0.161,0.175-0.161,0.313-0.325
			c0.023,0.491-0.184,0.56-0.078,1.191c0.217,1.223,0.184,2.075,0.313,3.324c0.143,1.248,0.47,3.02,1.189,4.747
			c0.594,1.412,1.354,2.997,2.382,4.584c1.004,1.596,1.926,3.232,4.584,4.75c2.704,1.55,5.422,1.186,7.196,0.721
			c1.774-0.477,3.059-1.156,3.874-1.585c0.35-0.189,0.442-0.069,1.585-1.03c0.585-0.474,1.216-1.306,1.423-1.665
			c0.207-0.362,0.207-0.316,0.161-0.235c-0.184,0.318-0.092,0.023,1.741-1.82c4.155-4.188,14.497-15.175,20.03-20.099
			c2.423-2.17,4.851-4.268,7.113-6.171c0,0.809-0.207,1.205-0.083,2.138c0.41,2.773-0.147,6.915,2.612,11.627
			c0.76,1.306,1.833,3.245,3.727,5.146c1.889,1.903,5.523,4.072,9.563,3.241c3.639-0.746,5.735-2.842,7.753-4.667
			c2.018-1.817,4.049-3.789,6.896-5.936c6.482-4.911,19.086-14.951,25.226-18.908c0.226-0.138,0.415-0.175,0.645-0.313
			c-0.396,3.218-0.562,6.859,0.304,10.683c0.35,1.527,0.709,3.43,1.75,5.528c1.036,2.115,3.427,5.065,7.196,5.544
			c3.169,0.408,5.68-0.737,7.592-1.739c1.916-1.002,3.69-2.193,6.256-3.476c6.274-3.163,14.742-8.642,22.789-12.04
			c4.132-1.737,10.057-3.964,15.516-5.844H1911.673z M2003.297,566.93c-0.018,0.175,0.092,0.221,0.088,0.396
			c-0.042,0.011-0.042,0.058-0.088,0.071c0-0.046,0-0.106,0-0.152C2003.297,567.094,2003.292,567.045,2003.297,566.93z"/>
		<path id="path3110" fill="#F4F4F4" d="M1579.445,649.863c-45.874,0-87.466,10.699-118.05,28.417
			c-30.586,17.72-50.642,43.031-50.642,71.842c0,28.811,20.048,54.125,50.642,71.842c30.584,17.718,72.176,28.403,118.05,28.403
			c45.878,0,87.473-10.685,118.057-28.403c30.584-17.717,50.637-43.031,50.637-71.842c0-28.81-20.053-54.122-50.637-71.842
			C1666.918,660.562,1625.324,649.863,1579.445,649.863z M1579.445,661.822c43.999,0,83.741,10.43,112.036,26.816
			c28.313,16.402,44.704,38.236,44.704,61.484c0,23.25-16.391,45.084-44.704,61.472c-28.295,16.4-68.037,26.827-112.036,26.827
			c-43.997,0-83.81-10.427-112.121-26.827c-28.304-16.375-44.635-38.222-44.635-61.472c0-23.248,16.322-45.081,44.625-61.47
			c28.311-16.4,68.12-26.83,112.121-26.83H1579.445z"/>
		<path id="path3114" fill="#F4F4F4" d="M1761.752,846.471c-22.49,0.267-44.377,5.447-64.25,15.594
			c-82.751,42.205-108.152,155.712-58.556,252.96c49.61,97.248,156.445,143.32,239.191,101.118
			c82.741-42.212,108.157-155.791,58.561-253.039c-23.849-46.728-62.2-83.624-106.987-102.707
			c-22.398-9.527-45.468-14.184-67.958-13.917V846.471z M1761.904,858.343c20.749-0.244,42.175,4.049,63.14,12.973
			c41.921,17.872,78.407,52.876,101.035,97.25c47.164,92.436,22.458,198.271-53.397,236.977
			c-75.868,38.692-175.977-3.455-223.132-95.898c-47.159-92.453-22.453-198.271,53.411-236.977
			C1721.157,863.385,1741.165,858.591,1761.904,858.343L1761.904,858.343z"/>
		<path id="path3118" fill="#F4F4F4" d="M1394.057,857.564c-22.49-0.269-45.65,4.386-68.048,13.926
			c-44.784,19.083-83.138,56.062-106.973,102.79c-49.605,97.248-24.107,210.744,58.632,252.956
			c82.737,42.202,189.578-3.791,239.186-101.049c49.61-97.248,24.188-210.827-58.552-253.041
			C1438.422,863.009,1416.549,857.831,1394.057,857.564L1394.057,857.564z M1393.815,869.44c20.746,0.23,40.832,5.035,59.031,14.311
			c75.859,38.703,100.565,144.534,53.406,236.973c-47.155,92.443-147.349,134.599-223.201,95.908
			c-75.861-38.701-100.484-144.532-53.33-236.973c22.628-44.374,59.031-79.309,100.961-97.167
			c20.961-8.937,42.396-13.295,63.14-13.051H1393.815z"/>
		<path id="path3122" fill="#F4F4F4" d="M1796.791,683.879c-11.121,0.597-23.006,2.018-29.907,3.872
			c-3.031,0.818-5.201,1.062-7.841,3.243c-1.304,1.096-2.497,2.939-2.93,4.515c-0.428,1.564-0.35,2.787-0.313,3.955
			c0.152,4.69,1.986,10.358,8.472,19.466c6.601,9.25,20.786,25.989,30.22,36.559c9.435,10.556,14.967,15.815,26.433,26.899
			c11.558,11.162,30.335,28.73,42.893,40.113c12.429,11.291,19.15,17.66,32.422,28.251c13.35,10.625,34.283,25.954,46.929,35.053
			c12.595,9.052,19.745,14.265,29.359,19.772c9.762,5.609,21.325,10.579,27.926,13.062c3.266,1.225,5.482,2.009,7.91,2.287
			c2.419,0.281,4.846-0.233,6.482-0.781c0.82-0.281,2.99-0.454,5.556-2.462c2.552-2.006,4.036-5.339,4.662-9.181
			c1.271-7.79,0.585-20.597-0.166-31.167c-0.719-10.289-1.083-20.597-4.266-33.627c-3.142-12.83-8.688-29.863-14.484-43.041
			c-5.722-13.019-11.973-24.254-20.021-35.288c-8.057-11.068-17.902-21.721-28.161-30.782
			c-10.305-9.098-21.647-16.937-33.311-23.575c-11.839-6.74-25.756-12.583-36.872-16.458c-11.466-4.001-21.38-5.252-29.907-6.896
			c-0.207-0.032-0.419-0.055-0.64-0.069c-8.283-1.61-13.728-2.87-23.729-3.485C1823.27,683.483,1807.953,683.284,1796.791,683.879
			L1796.791,683.879z M1797.417,695.822c10.42-0.56,25.733-0.442,35.37,0.166c9.596,0.58,13.917,1.679,22.794,3.393
			c0.207,0.037,0.415,0.069,0.626,0.083c8.84,1.679,17.754,2.939,27.691,6.401c10.536,3.676,23.937,9.31,34.818,15.515
			c11.061,6.3,21.758,13.696,31.33,22.151c9.628,8.504,18.934,18.604,26.433,28.88c7.514,10.312,13.309,20.67,18.745,33.069
			c5.395,12.249,10.821,29.022,13.765,41.074c2.907,11.849,3.303,21.053,4.036,31.563c0.723,10.241,0.981,23.96,0.244,28.414
			c-0.369,2.285-0.613,2.041-0.244,1.739c0.396-0.304-0.014-0.106-1.972,0.546c-1.129,0.387-0.825,0.304-1.341,0.244
			c-0.525-0.055-2.096-0.463-5.063-1.585c-5.892-2.216-17.307-7.163-26.198-12.258c-9.043-5.203-15.723-10.1-28.322-19.152
			c-12.549-9.02-33.496-24.333-46.45-34.656c-12.991-10.37-19.371-16.425-31.888-27.772c-12.411-11.268-31.169-28.776-42.562-39.8
			c-11.494-11.107-16.589-15.958-25.793-26.27c-9.214-10.312-23.633-27.378-29.442-35.529c-5.408-7.608-5.947-9.833-6.09-12.178
			c0.447-0.161,0.309-0.083,2.055-0.56C1774.84,697.991,1786.969,696.384,1797.417,695.822L1797.417,695.822z"/>
		<path id="path3126" fill="#F4F4F4" d="M1329.567,676.123c-5.507-0.281-11.436-0.304-18.121,0.244
			c-13.164,1.06-30.847,3.722-44.787,7.359c-13.763,3.582-25.883,8.036-38.054,14.244c-12.201,6.205-24.231,14.159-34.815,22.861
			c-10.619,8.723-20.154,18.722-28.564,29.195c-8.527,10.616-16.48,23.423-22.075,33.781c-5.763,10.695-8.573,20.332-11.547,28.486
			c-3.034,8.317-5.102,13.378-7.362,23.421c-2.253,10.008-4.911,25.208-6.097,36.324c-1.17,11.07-1.603,22.946-0.866,30.061
			c0.318,3.126,0.24,5.365,1.976,8.317c0.875,1.467,2.478,2.879,3.962,3.554c1.481,0.68,2.711,0.878,3.872,1.03
			c4.66,0.594,10.549-0.419,20.574-5.378c10.19-5.049,28.976-16.331,40.901-23.985c11.934-7.638,17.943-12.268,30.702-21.834
			c12.862-9.635,33.221-25.415,46.452-35.997c13.122-10.496,20.435-16.11,32.993-27.539c12.606-11.48,31.114-29.7,42.087-40.744
			c10.936-11.001,17.172-17.344,24.137-25.954c7.083-8.75,13.834-19.362,17.326-25.475c1.734-3.031,2.905-5.086,3.563-7.44
			c0.661-2.345,0.516-4.773,0.235-6.486c-0.136-0.841-0.007-3.093-1.582-5.94c-1.573-2.845-4.618-4.862-8.311-6.085
			c-7.488-2.497-20.306-3.803-30.856-4.75C1340.176,676.936,1335.074,676.414,1329.567,676.123L1329.567,676.123z M1329.01,688.078
			c5.125,0.27,10.024,0.723,15.271,1.189c10.22,0.912,23.81,2.847,28.09,4.27c2.2,0.737,1.896,0.898,1.663,0.479
			c-0.235-0.433-0.099,0.009,0.237,2.055c0.193,1.163,0.141,0.836,0,1.338c-0.145,0.514-0.797,1.995-2.375,4.75
			c-3.116,5.457-9.778,15.944-16.225,23.897c-6.555,8.11-12.477,14-23.414,25.001c-10.888,10.964-29.379,29.221-41.62,40.357
			c-12.293,11.185-19.173,16.504-32.362,27.062c-13.09,10.476-33.443,26.258-46.13,35.764c-12.788,9.587-18.425,13.82-30.07,21.288
			c-11.641,7.451-30.752,18.977-39.719,23.423c-8.315,4.116-10.648,4.326-12.975,4.105c-0.076-0.445-0.046-0.292-0.242-2.133
			c-0.516-5.019-0.23-17.278,0.871-27.693c1.101-10.372,3.741-25.392,5.857-34.818c2.11-9.379,3.865-13.507,6.961-21.999
			c3.156-8.642,5.722-17.404,10.844-26.899c5.295-9.81,12.959-22.2,20.811-31.962c7.967-9.925,17.022-19.339,26.896-27.456
			c9.916-8.145,21.345-15.75,32.68-21.523c11.369-5.786,22.499-9.881,35.605-13.297c12.936-3.37,30.437-6.042,42.803-7.034
			C1318.55,687.739,1323.882,687.811,1329.01,688.078L1329.01,688.078z"/>
		<path id="path3130" fill="#F4F4F4" d="M2036.051,954.158c-2.414,0.046-5.104,0.514-7.744,1.981
			c-4.293,2.368-8.099,6.219-11.871,12.178c-3.225,5.086-8.601,12.192-11.784,24.381c-3.082,11.733-5.851,29.138-6.647,45.57
			c-0.792,16.202-0.396,30.672,1.889,52.222c2.299,21.523,6.717,54.175,11.876,77.384c5.127,23.19,12.761,45.542,18.754,60.763
			c6.09,15.525,12.157,23.946,17.639,31.413c6.085,8.278,12.982,13.06,17.404,15.981c2.23,1.465,4.16,2.778,6.813,3.556
			c2.63,0.792,5.717,0.511,8.301-0.318c5.206-1.654,9.504-5.15,15.584-11.462c5.97-6.21,16.073-17.128,22.711-27.544
			c6.611-10.379,11.604-22.882,15.502-32.353c4.031-9.757,6.625-17.722,8.863-26.433c2.22-8.578,3.801-15.516,4.759-26.351
			c0.949-10.826,1.469-27.074,0.949-38.296c-0.525-11.291-2.488-19.781-4.035-27.843c-1.576-8.2-2.902-15.488-5.777-23.19
			c-2.939-7.882-7.302-14.801-10.766-21.274c-3.58-6.721-7.15-13.24-11.31-19.947c-4.123-6.638-9.071-14.17-13.456-19.938
			c-4.372-5.735-8.232-9.771-12.572-14.156c-4.524-4.561-9.402-8.785-14.014-12.671c-4.736-3.973-10.13-8.115-14.166-11.068
			c-4.049-2.987-7.039-4.922-10.199-6.811c-2.612-1.555-5.565-4.167-10.453-5.146
			C2040.625,954.46,2038.478,954.112,2036.051,954.158L2036.051,954.158z M2040.022,966.497c1.267,0.258,3.169,1.658,6.634,3.722
			c2.93,1.739,5.376,3.384,9.181,6.171c3.824,2.824,9.167,6.882,13.613,10.605c4.556,3.824,9.181,7.79,13.217,11.872
			c4.201,4.238,7.532,7.781,11.549,13.055c3.999,5.247,8.84,12.526,12.816,18.906c3.916,6.311,7.339,12.622,10.913,19.302
			c3.699,6.933,7.684,13.498,10.052,19.869c2.446,6.555,3.727,12.996,5.302,21.205c1.603,8.343,3.326,15.981,3.792,26.189
			c0.488,10.287,0.028,26.498-0.862,36.637c-0.885,10.121-2.335,16.087-4.519,24.531c-2.128,8.315-4.39,15.562-8.219,24.844
			c-3.943,9.554-8.85,21.5-14.557,30.455c-5.689,8.923-15.469,19.671-21.209,25.636c-5.629,5.86-8.172,7.587-10.683,8.389
			c-1.262,0.396-1.069,0.318-1.354,0.235c-0.263-0.083-1.377-0.677-3.474-2.055c-4.201-2.773-9.637-6.542-14.479-13.134
			c-5.445-7.408-10.457-14.198-16.137-28.649c-5.804-14.732-13.244-36.61-18.197-58.938c-4.948-22.315-9.379-54.963-11.632-76.112
			c-2.253-21.136-2.58-34.712-1.815-50.402c0.737-15.465,3.469-32.519,6.247-43.124c2.663-10.158,6.647-15.105,10.36-20.972
			c3.146-4.968,5.27-6.894,7.523-8.142c1.248-0.698,3.114-0.643,5.938-0.081V966.497z"/>
		<path id="path3134" fill="#F4F4F4" d="M1104.302,958.521c-2.421-0.06-4.653,0.29-6.334,0.629
			c-4.881,0.981-7.834,3.596-10.439,5.146c-3.169,1.875-6.081,3.824-10.13,6.799c-4.026,2.964-9.435,7.104-14.163,11.081
			c-4.614,3.87-9.57,8.108-14.085,12.655c-4.349,4.386-8.129,8.426-12.503,14.161c-4.39,5.777-9.407,13.309-13.532,19.947
			c-4.164,6.707-7.64,13.217-11.231,19.933c-3.467,6.477-7.822,13.406-10.761,21.288c-2.868,7.698-4.197,14.981-5.775,23.177
			c-1.555,8.076-3.51,16.566-4.036,27.857c-0.525,11.208-0.007,27.47,0.954,38.296c0.949,10.821,2.529,17.764,4.745,26.35
			c2.246,8.702,4.752,16.667,8.778,26.42c3.911,9.471,8.893,21.983,15.506,32.372c6.645,10.411,16.745,21.329,22.711,27.525
			c6.078,6.325,10.469,9.808,15.667,11.48c2.589,0.825,5.662,1.092,8.311,0.313c2.642-0.783,4.501-2.087,6.724-3.556
			c4.422-2.93,11.397-7.712,17.487-15.981c5.491-7.468,11.542-15.902,17.639-31.413c5.991-15.234,13.613-37.573,18.754-60.772
			c5.148-23.213,9.573-55.861,11.872-77.384c2.292-21.546,2.679-36.02,1.896-52.222c-0.79-16.423-3.568-33.841-6.641-45.574
			c-3.195-12.176-8.656-19.291-11.874-24.367c-3.78-5.97-7.573-9.81-11.862-12.187
			C1109.331,959.034,1106.716,958.567,1104.302,958.521L1104.302,958.521z M1100.341,970.86c2.817-0.557,4.604-0.617,5.857,0.083
			c2.255,1.237,4.446,3.172,7.599,8.142c3.715,5.869,7.698,10.812,10.363,20.97c2.778,10.605,5.507,27.659,6.254,43.124
			c0.758,15.691,0.426,29.267-1.82,50.393c-2.257,21.163-6.765,53.811-11.71,76.122c-4.954,22.329-12.406,44.211-18.203,58.943
			c-5.682,14.451-10.692,21.242-16.14,28.645c-4.844,6.592-10.192,10.361-14.398,13.138c-2.094,1.377-3.282,1.972-3.563,2.05
			c-0.274,0.083-0.007,0.166-1.267-0.23c-2.506-0.806-5.049-2.543-10.678-8.389c-5.745-5.97-15.518-16.727-21.207-25.636
			c-5.708-8.96-10.605-20.901-14.555-30.469c-3.833-9.273-6.164-16.529-8.311-24.835c-2.177-8.453-3.536-14.405-4.429-24.531
			c-0.891-10.135-1.428-26.351-0.949-36.637c0.474-10.209,2.273-17.847,3.874-26.189c1.58-8.209,2.78-14.659,5.224-21.205
			c2.375-6.366,6.419-12.936,10.123-19.864c3.582-6.684,7-12.991,10.925-19.302c3.964-6.38,8.815-13.659,12.811-18.911
			c4.026-5.275,7.281-8.817,11.48-13.051c4.036-4.082,8.739-8.053,13.293-11.876c4.432-3.722,9.693-7.781,13.525-10.6
			c3.807-2.803,6.339-4.436,9.262-6.173c3.476-2.064,5.365-3.464,6.641-3.72V970.86z"/>
		<path id="path3138" fill="#F4F4F4" d="M1566.152,1273.589c-9.488-0.184-19.41-0.161-29.831,0.318
			c-20.67,0.954-45.012,2.87-67.095,6.413c-22,3.524-41.21,8.145-64.644,14.714c-23.305,6.542-51.632,14.401-76.672,24.922
			c-25.132,10.568-54.845,27.894-71.842,37.503c-0.336,0.184-0.654,0.396-0.951,0.631c-16.16,9.214-20.956,13.134-30.856,20.491
			c-10.667,7.938-24.141,19.915-30.702,25.328c-3.149,2.598-4.823,3.616-6.486,4.75c-1.663,1.129-3.757,3.008-5.063,5.376
			c-1.113,2.004-1.854,4.989-1.744,6.799c0.115,1.82,0.38,3.114,0.32,7.044c-0.129,8.255-0.903,26.691-0.161,40.111
			c0.728,13.184,2.393,26.134,4.515,38.379c2.08,12.083,3.927,22.748,8.304,35.684c4.317,12.775,10.561,28.193,17.648,41.069
			c7.021,12.774,15.147,24.37,24.45,35.449c9.377,11.181,20.714,21.988,31.406,31.1c10.549,8.979,18.632,15.548,33.155,23.886
			c14.599,8.389,38.026,19.556,53.565,25.954c15.559,6.417,24.867,8.541,39.169,12.259c14.115,3.685,26.046,7.836,48.583,10.605
			c22.361,2.75,54.696,5.118,85.215,5.938c30.609,0.829,73.104-0.18,97.718-0.944c24.66-0.769,33.574-1.801,50.485-3.727
			c17.077-1.944,35.251-4.786,51.909-7.988c16.612-3.183,34.141-6.924,48.173-11.157c14-4.215,22.439-8.126,35.135-13.917
			c12.738-5.823,29.511-13.567,42.566-21.527c12.954-7.901,24.867-17.188,34.339-25.484c9.577-8.375,15.078-15.046,22.711-24.448
			c7.514-9.246,16.911-19.887,24.365-33.463c7.302-13.286,14.488-30.123,19.146-45.809c4.662-15.723,6.998-31.367,8.628-47.638
			c1.654-16.617,1.589-38.632,1.258-50.803c-0.318-12.056-0.852-17.105-3.543-23.881c-2.755-6.906-6.205-10.849-13.138-17.57
			c-7.067-6.846-18.685-17.132-30.234-25.01c-11.337-7.716-22.089-13.751-37.743-21.357c-15.773-7.675-37.245-16.612-56.414-24.526
			c-19.03-7.864-37.278-16.124-59.252-23.259c-21.965-7.131-51.582-14.562-71.46-19.076c-19.956-4.538-31.948-6.063-48.03-8.066
			c-16.229-2.018-31.763-3.317-49.531-4.109C1584.715,1274.151,1575.64,1273.778,1566.152,1273.589L1566.152,1273.589z
			 M1565.915,1285.456c9.303,0.184,18.256,0.64,27.064,1.036c17.469,0.779,32.634,2.041,48.578,4.036
			c16.096,1.995,27.424,3.395,46.915,7.827c19.583,4.455,49.048,11.922,70.349,18.842c21.265,6.892,39.208,14.976,58.473,22.942
			c19.132,7.91,40.465,16.792,55.7,24.204c15.373,7.477,25.429,13.134,36.241,20.495c10.591,7.219,21.988,17.22,28.635,23.656
			c6.781,6.578,8.085,7.91,10.287,13.461c2.257,5.666,2.46,7.896,2.764,19.767c0.318,11.798,0.29,33.749-1.258,49.301
			c-1.585,15.907-3.801,30.741-8.154,45.422c-4.358,14.682-11.351,30.976-18.197,43.437c-6.68,12.162-15.386,22.204-23.103,31.722
			c-7.61,9.379-12.36,15.142-21.283,22.946c-9.048,7.91-20.564,16.856-32.763,24.296c-12.097,7.389-28.612,15.092-41.304,20.882
			c-12.715,5.804-20.214,9.287-33.546,13.295c-13.286,4.003-30.667,7.785-47.081,10.918c-16.363,3.137-34.223,5.929-50.95,7.841
			c-16.897,1.926-25.088,2.87-49.527,3.639c-24.503,0.76-66.878,1.76-96.932,0.944c-30.135-0.815-62.322-3.174-84.107-5.855
			c-21.619-2.658-32.36-6.472-46.995-10.291c-14.451-3.75-22.866-5.574-37.738-11.706c-14.903-6.141-38.365-17.404-52.151-25.314
			c-13.857-7.965-20.956-13.728-31.404-22.628c-10.305-8.785-21.223-19.224-29.99-29.677c-8.847-10.54-16.388-21.477-23.027-33.546
			c-6.578-11.968-12.728-26.908-16.854-39.083c-4.061-12.019-5.751-21.877-7.831-33.947c-2.055-11.913-3.658-24.342-4.353-36.955
			c-0.679-12.365,0.025-30.639,0.161-39.318c0.069-4.538-0.272-7.117-0.318-7.91c-0.053-0.806-0.447,0.912,0.24-0.327
			c0.484-0.875,0.005-0.41,1.265-1.262c1.26-0.857,3.817-2.474,7.438-5.454c6.993-5.777,20.396-17.556,30.305-24.932
			c10.404-7.735,13.668-10.789,30.536-20.325c0.166-0.106,0.32-0.212,0.479-0.318c17.195-9.743,46.362-26.585,70.105-36.559
			c24.017-10.103,51.922-17.902,75.246-24.448c23.193-6.509,41.753-10.964,63.214-14.405c21.389-3.432,45.466-5.312,65.835-6.251
			c10.105-0.465,19.74-0.571,29.041-0.396H1565.915z"/>
		<path id="path3142" fill="#F4F4F4" d="M1440.34,1339.276c-6.952,0-12.595,4.432-16.932,10.439
			c-4.34,6.007-7.891,14.009-10.842,23.651c-5.897,19.311-9.412,45.284-9.412,73.993c0,27.576,3.298,53.968,9.412,73.975
			c3.057,9.997,6.7,18.045,11.084,23.973c4.372,5.933,9.964,10.204,16.69,10.204c6.952,0,12.673-4.515,17.013-10.522
			c4.339-6.007,7.891-14.009,10.835-23.656c5.903-19.307,9.418-45.284,9.418-73.975c0-27.576-3.301-53.982-9.418-73.993
			c-3.057-9.992-6.701-17.962-11.077-23.881C1452.739,1343.542,1447.071,1339.276,1440.34,1339.276z M1440.34,1351.217
			c1.552,0,4.072,1.064,7.203,5.298c3.126,4.247,6.38,11.185,9.174,20.339c5.597,18.316,8.942,43.888,8.942,70.506
			c0,27.714-3.536,52.816-8.942,70.488c-2.702,8.84-5.885,15.852-9.018,20.177c-3.133,4.34-5.685,5.542-7.359,5.542
			c-1.55,0-3.989-1.142-7.124-5.376c-3.126-4.247-6.378-11.185-9.177-20.334c-5.616-18.307-8.96-43.902-8.96-70.525
			c0-27.714,3.536-52.816,8.944-70.497c2.697-8.831,5.883-15.755,9.015-20.095c3.133-4.335,5.609-5.533,7.279-5.533
			L1440.34,1351.217z"/>
		<path id="path3150" fill="#F4F4F4" d="M1701.127,1339.276c-6.952,0-12.581,4.432-16.921,10.439
			c-4.34,6.007-7.901,14.009-10.849,23.651c-5.906,19.311-9.416,45.284-9.416,73.993c0,27.576,3.303,53.968,9.416,73.975
			c3.054,9.997,6.707,18.045,11.079,23.973c4.376,5.933,9.96,10.204,16.69,10.204c6.952,0,12.682-4.515,17.022-10.522
			c4.339-6.007,7.882-14.009,10.835-23.656c5.892-19.307,9.411-45.284,9.411-73.975c0-27.576-3.298-53.982-9.411-73.993
			c-3.054-9.992-6.707-17.962-11.079-23.881C1713.529,1343.542,1707.858,1339.276,1701.127,1339.276z M1701.127,1351.217
			c1.552,0,4.072,1.064,7.196,5.298c3.133,4.247,6.394,11.185,9.181,20.339c5.602,18.316,8.946,43.888,8.946,70.506
			c0,27.714-3.542,52.816-8.946,70.488c-2.695,8.84-5.887,15.852-9.015,20.177c-3.123,4.34-5.689,5.542-7.362,5.542
			c-1.548,0-3.99-1.142-7.127-5.376c-3.123-4.247-6.367-11.185-9.167-20.334c-5.62-18.307-8.96-43.902-8.96-70.525
			c0-27.714,3.538-52.816,8.937-70.497c2.704-8.831,5.892-15.755,9.015-20.095c3.137-4.335,5.611-5.533,7.279-5.533
			L1701.127,1351.217z"/>
	</g>
</g>
</svg>
