<?xml version="1.0" encoding="utf-8"?>
<!-- Generator: Adobe Illustrator 18.1.1, SVG Export Plug-In . SVG Version: 6.00 Build 0)  -->
<svg version="1.1"
	 id="Layer_3" xmlns:rdf="http://www.w3.org/1999/02/22-rdf-syntax-ns#" xmlns:dc="http://purl.org/dc/elements/1.1/" xmlns:cc="http://creativecommons.org/ns#"
	 xmlns="http://www.w3.org/2000/svg" xmlns:xlink="http://www.w3.org/1999/xlink" x="0px" y="0px" viewBox="-96 437.7 598.2 350.3"
	 enable-background="new -96 437.7 598.2 350.3" xml:space="preserve">
<g>
	<g>
		<path fill="#F4F4F4" stroke="#F4F4F4" stroke-width="4" stroke-miterlimit="10" d="M203.2,610.3c15.9-18.6,39.5-30.3,65.8-30.3
			c5.3,0,10.5,0.5,15.5,1.4c3.4-9.3,5.2-19.3,5.2-29.7c0-47.8-38.8-86.6-86.6-86.6c-47.8,0-86.6,38.8-86.6,86.6
			c0,10.4,1.9,20.5,5.3,29.7c5.1-0.9,10.3-1.4,15.6-1.4C163.8,579.9,187.4,591.7,203.2,610.3z M284.5,581.3
			c-10.4,28.4-35.3,49.9-65.7,55.5c3.4,9.3,5.2,19.3,5.2,29.7c0,21.5-7.8,41.1-20.8,56.2c15.9,18.6,39.4,30.3,65.8,30.3
			c47.8,0,86.6-38.8,86.6-86.6C355.6,624,324.9,588.6,284.5,581.3z M187.7,636.8c-30.5-5.5-55.4-27-65.9-55.4
			c-40.4,7.4-71,42.7-71,85.1c0,47.8,38.8,86.6,86.6,86.6c26.3,0,49.9-11.8,65.8-30.3c-12.9-15.1-20.8-34.8-20.8-56.2
			C182.5,656.1,184.3,646.1,187.7,636.8z M187.7,636.8c5,0.9,10.2,1.4,15.5,1.4c5.3,0,10.6-0.5,15.6-1.4
			c-3.6-9.8-8.9-18.7-15.5-26.5C196.6,618,191.3,627,187.7,636.8z"/>
	</g>
</g>
</svg>
