<svg id="svg" version="1.1" width="400" height="175.33333333333334" xmlns="http://www.w3.org/2000/svg" xmlns:xlink="http://www.w3.org/1999/xlink" style="display: block;"><g id="svgg"><path id="path0" d="M93.953 52.082 C 93.797 52.332,93.544 52.433,93.075 52.433 C 92.533 52.433,92.416 52.495,92.416 52.784 C 92.416 53.018,92.299 53.135,92.065 53.135 C 91.872 53.135,91.714 53.248,91.714 53.386 C 91.714 53.524,91.556 53.687,91.363 53.748 C 90.841 53.914,90.805 111.705,91.327 111.705 C 91.531 111.705,91.701 111.907,91.809 112.275 C 91.965 112.803,92.039 112.849,92.810 112.899 C 93.500 112.943,93.643 113.011,93.643 113.293 C 93.643 113.824,96.785 113.815,96.924 113.284 C 96.992 113.023,97.163 112.933,97.590 112.933 C 98.172 112.933,98.378 112.705,98.378 112.062 C 98.378 111.888,98.536 111.705,98.729 111.655 C 99.075 111.564,99.079 111.415,99.079 98.307 C 99.079 86.640,99.111 85.050,99.342 85.050 C 99.532 85.050,99.605 84.856,99.605 84.349 C 99.605 83.764,99.664 83.648,99.956 83.648 C 100.240 83.648,100.307 83.531,100.307 83.034 C 100.307 82.589,100.384 82.420,100.586 82.420 C 100.740 82.420,100.907 82.262,100.958 82.069 C 101.008 81.876,101.166 81.719,101.308 81.719 C 101.451 81.719,101.609 81.561,101.659 81.368 C 101.709 81.175,101.855 81.017,101.981 81.017 C 102.108 81.017,102.262 80.859,102.324 80.666 C 102.385 80.473,102.548 80.316,102.686 80.316 C 102.824 80.316,102.937 80.158,102.937 79.965 C 102.937 79.731,103.054 79.614,103.288 79.614 C 103.483 79.614,103.639 79.497,103.639 79.351 C 103.639 79.166,103.826 79.088,104.269 79.088 C 104.752 79.088,104.921 79.006,104.991 78.737 C 105.063 78.463,105.230 78.387,105.764 78.387 C 106.211 78.387,106.565 78.266,106.795 78.036 C 107.061 77.770,107.380 77.685,108.110 77.685 C 108.841 77.685,109.160 77.600,109.426 77.335 C 109.727 77.033,110.010 76.984,111.442 76.984 C 112.991 76.984,113.108 77.008,113.108 77.335 C 113.108 77.654,113.225 77.685,114.403 77.685 C 115.550 77.685,115.708 77.725,115.790 78.036 C 115.856 78.291,116.029 78.387,116.424 78.387 C 116.732 78.387,117.117 78.538,117.317 78.737 C 117.510 78.930,117.826 79.088,118.018 79.088 C 118.213 79.088,118.369 79.205,118.369 79.351 C 118.369 79.497,118.525 79.614,118.720 79.614 C 118.913 79.614,119.228 79.772,119.421 79.965 C 119.614 80.158,119.890 80.316,120.035 80.316 C 120.180 80.316,120.298 80.469,120.298 80.657 C 120.298 80.845,120.495 81.212,120.737 81.472 C 120.978 81.732,121.175 82.013,121.175 82.095 C 121.175 82.177,121.285 82.245,121.418 82.245 C 121.558 82.245,121.711 82.507,121.777 82.858 C 121.846 83.226,121.995 83.472,122.147 83.472 C 122.329 83.472,122.402 83.679,122.402 84.190 C 122.402 84.741,122.478 84.928,122.727 84.993 C 123.185 85.113,123.279 87.599,123.279 99.623 C 123.279 105.955,123.341 109.443,123.455 109.513 C 123.551 109.573,123.630 110.059,123.630 110.592 C 123.630 111.399,123.686 111.578,123.964 111.650 C 124.177 111.706,124.339 111.955,124.411 112.335 C 124.512 112.876,124.580 112.933,125.117 112.933 C 125.557 112.933,125.740 113.024,125.822 113.284 C 125.922 113.600,126.087 113.634,127.500 113.634 C 128.949 113.634,129.066 113.608,129.066 113.284 C 129.066 113.000,129.183 112.933,129.680 112.933 C 130.109 112.933,130.294 112.854,130.294 112.670 C 130.294 112.524,130.450 112.407,130.644 112.407 C 130.871 112.407,130.995 112.290,130.995 112.077 C 130.995 111.894,131.152 111.705,131.346 111.655 C 131.693 111.564,131.697 111.415,131.697 98.378 C 131.697 85.340,131.693 85.192,131.346 85.101 C 131.035 85.020,130.995 84.862,130.995 83.715 C 130.995 82.537,130.964 82.420,130.644 82.420 C 130.336 82.420,130.294 82.303,130.294 81.439 C 130.294 80.606,130.241 80.444,129.943 80.366 C 129.679 80.298,129.592 80.127,129.592 79.681 C 129.592 79.271,129.511 79.088,129.329 79.088 C 129.168 79.088,129.066 78.924,129.066 78.664 C 129.066 78.059,128.892 77.685,128.609 77.685 C 128.475 77.685,128.365 77.556,128.365 77.399 C 128.365 77.032,127.706 76.458,127.286 76.458 C 127.025 76.458,126.962 76.321,126.962 75.756 C 126.962 75.172,126.903 75.055,126.611 75.055 C 126.377 75.055,126.260 74.938,126.260 74.704 C 126.260 74.511,126.179 74.353,126.080 74.353 C 125.980 74.353,125.645 74.077,125.336 73.740 C 124.913 73.279,124.630 73.126,124.201 73.126 C 123.747 73.126,123.630 73.054,123.630 72.775 C 123.630 72.549,123.513 72.424,123.300 72.424 C 123.117 72.424,122.928 72.268,122.878 72.074 C 122.813 71.826,122.639 71.723,122.286 71.723 C 121.975 71.723,121.702 71.590,121.566 71.372 C 121.426 71.147,121.157 71.021,120.815 71.021 C 120.523 71.021,120.114 70.864,119.907 70.671 C 119.671 70.451,119.288 70.320,118.881 70.320 C 118.465 70.320,118.195 70.225,118.130 70.057 C 118.043 69.830,117.185 69.794,111.886 69.794 C 106.543 69.794,105.743 69.828,105.743 70.057 C 105.743 70.247,105.548 70.320,105.042 70.320 C 104.574 70.320,104.223 70.437,103.989 70.671 C 103.790 70.870,103.405 71.021,103.096 71.021 C 102.701 71.021,102.529 71.117,102.462 71.372 C 102.393 71.638,102.223 71.723,101.761 71.723 C 101.298 71.723,101.129 71.808,101.059 72.074 C 101.008 72.268,100.820 72.424,100.637 72.424 C 100.424 72.424,100.307 72.549,100.307 72.775 C 100.307 73.059,100.190 73.126,99.693 73.126 L 99.079 73.126 99.079 63.655 C 99.079 54.400,99.071 54.176,98.729 53.883 C 98.536 53.718,98.378 53.482,98.378 53.359 C 98.378 53.235,98.220 53.135,98.027 53.135 C 97.793 53.135,97.676 53.018,97.676 52.784 C 97.676 52.500,97.560 52.433,97.063 52.433 C 96.683 52.433,96.315 52.300,96.098 52.082 C 95.852 51.836,95.514 51.732,94.960 51.732 C 94.362 51.732,94.119 51.816,93.953 52.082 M65.059 56.710 C 65.059 56.849,64.797 57.003,64.445 57.069 C 64.089 57.136,63.832 57.287,63.832 57.431 C 63.832 57.567,63.634 57.875,63.393 58.116 C 63.090 58.419,62.955 58.747,62.955 59.177 C 62.955 59.612,62.876 59.798,62.692 59.798 C 62.463 59.798,62.429 60.537,62.429 65.397 L 62.429 70.995 59.959 71.052 C 57.851 71.101,57.457 71.154,57.266 71.416 C 57.142 71.585,56.873 71.723,56.666 71.723 C 56.408 71.723,56.291 71.832,56.291 72.074 C 56.291 72.268,56.174 72.424,56.028 72.424 C 55.883 72.424,55.765 72.565,55.765 72.736 C 55.765 72.908,55.607 73.183,55.414 73.348 C 55.122 73.598,55.064 73.865,55.064 74.945 C 55.064 76.094,55.103 76.252,55.414 76.333 C 55.683 76.403,55.765 76.572,55.765 77.055 C 55.765 77.475,55.846 77.685,56.008 77.685 C 56.141 77.685,56.291 77.843,56.342 78.036 C 56.429 78.369,56.581 78.387,59.431 78.387 L 62.429 78.387 62.429 88.996 C 62.429 98.310,62.461 99.605,62.692 99.605 C 62.906 99.605,62.955 99.900,62.955 101.200 C 62.955 102.647,62.987 102.803,63.306 102.886 C 63.588 102.960,63.656 103.126,63.656 103.733 C 63.656 104.654,63.792 105.042,64.113 105.042 C 64.276 105.042,64.358 105.248,64.358 105.655 C 64.358 106.152,64.425 106.269,64.708 106.269 C 64.926 106.269,65.059 106.386,65.059 106.578 C 65.059 106.747,65.217 106.985,65.410 107.105 C 65.634 107.245,65.761 107.514,65.761 107.849 C 65.761 108.257,65.839 108.374,66.111 108.374 C 66.345 108.374,66.462 108.490,66.462 108.724 C 66.462 108.919,66.579 109.075,66.725 109.075 C 66.870 109.075,66.988 109.193,66.988 109.338 C 66.988 109.484,67.144 109.601,67.339 109.601 C 67.573 109.601,67.690 109.718,67.690 109.952 C 67.690 110.186,67.807 110.302,68.040 110.302 C 68.274 110.302,68.391 110.419,68.391 110.653 C 68.391 110.880,68.508 111.004,68.723 111.004 C 68.906 111.004,69.099 111.118,69.152 111.257 C 69.206 111.397,69.530 111.563,69.872 111.628 C 70.219 111.693,70.495 111.849,70.495 111.980 C 70.495 112.110,70.766 112.266,71.097 112.328 C 71.428 112.391,71.741 112.552,71.793 112.687 C 71.864 112.873,72.274 112.933,73.471 112.933 C 74.938 112.933,75.055 112.959,75.055 113.284 C 75.055 113.621,75.172 113.634,78.036 113.634 C 80.900 113.634,81.017 113.621,81.017 113.284 C 81.017 112.991,81.134 112.933,81.719 112.933 C 82.225 112.933,82.420 112.860,82.420 112.670 C 82.420 112.525,82.538 112.407,82.683 112.407 C 82.829 112.407,82.946 112.251,82.946 112.056 C 82.946 111.822,83.063 111.705,83.297 111.705 C 83.629 111.705,83.648 111.588,83.648 109.497 C 83.648 107.436,83.624 107.282,83.297 107.197 C 83.103 107.146,82.946 106.958,82.946 106.775 C 82.946 106.593,82.833 106.445,82.695 106.445 C 82.557 106.445,82.394 106.287,82.332 106.094 C 82.229 105.767,82.067 105.743,79.953 105.743 C 77.919 105.743,77.649 105.707,77.335 105.392 C 77.071 105.129,76.750 105.042,76.040 105.042 C 75.243 105.042,75.081 104.987,75.004 104.691 C 74.934 104.422,74.765 104.340,74.282 104.340 C 73.769 104.340,73.652 104.275,73.652 103.989 C 73.652 103.756,73.535 103.639,73.301 103.639 C 73.106 103.639,72.950 103.522,72.950 103.376 C 72.950 103.230,72.795 103.113,72.600 103.113 C 72.307 103.113,72.249 102.996,72.249 102.411 C 72.249 101.905,72.176 101.710,71.986 101.710 C 71.822 101.710,71.723 101.544,71.723 101.270 C 71.723 101.028,71.565 100.694,71.372 100.529 C 71.028 100.235,71.021 100.012,71.021 89.308 L 71.021 78.387 75.948 78.387 C 80.647 78.387,80.879 78.371,80.962 78.052 C 81.010 77.868,81.200 77.678,81.384 77.630 C 81.632 77.565,81.719 77.385,81.719 76.933 C 81.719 76.471,81.803 76.301,82.069 76.232 C 82.372 76.152,82.420 75.992,82.420 75.073 C 82.420 74.196,82.358 73.967,82.069 73.787 C 81.852 73.651,81.719 73.378,81.719 73.067 C 81.719 72.714,81.615 72.540,81.368 72.475 C 81.174 72.424,81.017 72.236,81.017 72.053 C 81.017 71.786,80.886 71.723,80.336 71.723 C 79.803 71.723,79.635 71.647,79.563 71.372 C 79.475 71.034,79.324 71.021,75.247 71.021 L 71.021 71.021 71.021 65.101 C 71.021 59.371,71.010 59.174,70.671 58.962 C 70.467 58.835,70.320 58.553,70.320 58.290 C 70.320 57.984,70.206 57.807,69.969 57.745 C 69.776 57.694,69.619 57.552,69.619 57.429 C 69.619 57.183,69.238 56.993,68.746 56.993 C 68.572 56.993,68.383 56.874,68.328 56.730 C 68.186 56.359,65.059 56.341,65.059 56.710 M22.797 70.057 C 22.670 70.210,22.287 70.320,21.882 70.320 C 21.333 70.320,21.167 70.394,21.094 70.671 C 21.018 70.962,20.855 71.021,20.130 71.021 C 19.404 71.021,19.241 71.081,19.165 71.372 C 19.093 71.647,18.926 71.723,18.393 71.723 C 17.828 71.723,17.712 71.783,17.712 72.074 C 17.712 72.307,17.595 72.424,17.361 72.424 C 17.127 72.424,17.010 72.541,17.010 72.775 C 17.010 73.059,16.893 73.126,16.396 73.126 C 15.968 73.126,15.783 73.205,15.783 73.389 C 15.783 73.535,15.627 73.652,15.432 73.652 C 15.198 73.652,15.081 73.769,15.081 74.003 C 15.081 74.222,14.964 74.353,14.769 74.353 C 14.597 74.353,14.343 74.511,14.204 74.704 C 14.065 74.897,13.804 75.055,13.623 75.055 C 13.442 75.055,13.255 75.205,13.207 75.389 C 13.159 75.573,12.969 75.763,12.785 75.811 C 12.547 75.874,12.451 76.055,12.451 76.441 C 12.451 76.867,12.375 76.984,12.100 76.984 C 11.866 76.984,11.749 77.101,11.749 77.335 C 11.749 77.568,11.632 77.685,11.399 77.685 C 11.165 77.685,11.048 77.802,11.048 78.036 C 11.048 78.229,10.938 78.387,10.804 78.387 C 10.521 78.387,10.346 78.760,10.346 79.366 C 10.346 79.673,10.250 79.790,9.996 79.790 C 9.762 79.790,9.645 79.906,9.645 80.140 C 9.645 80.335,9.528 80.491,9.382 80.491 C 9.180 80.491,9.119 80.715,9.119 81.456 C 9.119 82.303,9.076 82.420,8.768 82.420 C 8.485 82.420,8.417 82.537,8.417 83.022 C 8.417 83.470,8.328 83.652,8.067 83.735 C 7.751 83.835,7.716 84.001,7.716 85.393 C 7.716 86.791,7.682 86.947,7.365 87.030 C 6.815 87.174,6.815 96.274,7.365 96.274 C 7.691 96.274,7.716 96.390,7.716 97.940 C 7.716 99.489,7.741 99.605,8.067 99.605 C 8.355 99.605,8.417 99.722,8.417 100.265 C 8.417 100.734,8.518 100.987,8.768 101.143 C 9.034 101.309,9.119 101.552,9.119 102.150 C 9.119 102.733,9.187 102.937,9.382 102.937 C 9.528 102.937,9.645 103.093,9.645 103.288 C 9.645 103.522,9.762 103.639,9.996 103.639 C 10.268 103.639,10.346 103.756,10.346 104.163 C 10.346 104.498,10.473 104.767,10.697 104.907 C 10.890 105.027,11.048 105.232,11.048 105.363 C 11.048 105.675,11.755 106.256,12.144 106.263 C 12.378 106.268,12.451 106.418,12.451 106.899 C 12.451 107.382,12.533 107.551,12.801 107.621 C 12.994 107.672,13.152 107.814,13.152 107.937 C 13.152 108.180,13.531 108.374,14.007 108.374 C 14.194 108.374,14.370 108.588,14.475 108.943 C 14.614 109.416,14.740 109.523,15.213 109.568 C 15.641 109.610,15.783 109.708,15.783 109.963 C 15.783 110.150,15.901 110.302,16.046 110.302 C 16.190 110.302,16.466 110.460,16.659 110.653 C 16.852 110.846,17.159 111.004,17.340 111.004 C 17.523 111.004,17.712 111.161,17.762 111.355 C 17.833 111.623,18.002 111.705,18.484 111.705 C 18.904 111.705,19.114 111.786,19.114 111.948 C 19.114 112.224,19.640 112.401,20.473 112.404 C 20.862 112.406,21.043 112.491,21.043 112.670 C 21.043 112.880,21.306 112.933,22.359 112.933 C 23.557 112.933,23.674 112.964,23.674 113.284 C 23.674 113.617,23.791 113.634,26.002 113.634 C 28.105 113.634,28.359 113.668,28.628 113.981 C 28.942 114.348,29.369 114.302,29.529 113.884 C 29.606 113.685,30.108 113.634,31.998 113.634 C 34.254 113.634,34.371 113.617,34.371 113.284 C 34.371 112.959,34.488 112.933,35.955 112.933 C 37.201 112.933,37.560 112.877,37.639 112.670 C 37.698 112.517,37.960 112.407,38.264 112.407 C 38.640 112.407,38.814 112.308,38.879 112.056 C 38.951 111.781,39.119 111.705,39.652 111.705 C 40.216 111.705,40.333 111.645,40.333 111.355 C 40.333 111.071,40.450 111.004,40.947 111.004 C 41.392 111.004,41.561 110.927,41.561 110.724 C 41.561 110.571,41.719 110.404,41.911 110.353 C 42.106 110.303,42.262 110.114,42.262 109.931 C 42.262 109.663,42.394 109.601,42.964 109.601 C 43.456 109.601,43.665 109.526,43.665 109.350 C 43.665 109.212,43.823 109.049,44.016 108.987 C 44.209 108.926,44.367 108.763,44.367 108.625 C 44.367 108.487,44.480 108.374,44.618 108.374 C 44.756 108.374,44.919 108.216,44.980 108.023 C 45.041 107.830,45.205 107.672,45.343 107.672 C 45.481 107.672,45.594 107.523,45.594 107.342 C 45.594 107.159,45.751 106.971,45.945 106.920 C 46.138 106.869,46.295 106.702,46.295 106.549 C 46.295 106.386,46.442 106.269,46.646 106.269 C 46.930 106.269,46.997 106.152,46.997 105.655 C 46.997 105.159,47.064 105.042,47.348 105.042 C 47.581 105.042,47.698 104.925,47.698 104.691 C 47.698 104.497,47.815 104.340,47.959 104.340 C 48.128 104.340,48.260 104.093,48.332 103.639 C 48.400 103.216,48.540 102.937,48.685 102.937 C 48.843 102.937,48.926 102.727,48.926 102.324 C 48.926 101.827,48.993 101.710,49.277 101.710 C 49.588 101.710,49.627 101.593,49.627 100.658 C 49.627 99.722,49.666 99.605,49.978 99.605 C 50.257 99.605,50.329 99.489,50.329 99.034 C 50.329 98.652,50.445 98.389,50.680 98.243 C 51.020 98.031,51.030 97.834,51.030 91.799 C 51.030 85.790,51.018 85.563,50.680 85.273 C 50.444 85.071,50.329 84.755,50.329 84.311 C 50.329 83.840,50.228 83.588,49.978 83.431 C 49.726 83.274,49.627 83.023,49.627 82.537 C 49.627 82.009,49.551 81.841,49.277 81.769 C 49.012 81.700,48.926 81.530,48.926 81.079 C 48.926 80.708,48.826 80.442,48.663 80.379 C 48.518 80.324,48.400 80.168,48.400 80.034 C 48.400 79.899,48.242 79.790,48.049 79.790 C 47.757 79.790,47.698 79.673,47.698 79.088 C 47.698 78.504,47.640 78.387,47.348 78.387 C 47.114 78.387,46.997 78.270,46.997 78.036 C 46.997 77.802,46.880 77.685,46.646 77.685 C 46.371 77.685,46.295 77.568,46.295 77.143 C 46.295 76.748,46.200 76.575,45.945 76.509 C 45.751 76.458,45.594 76.269,45.594 76.087 C 45.594 75.905,45.476 75.756,45.331 75.756 C 45.186 75.756,45.068 75.635,45.068 75.488 C 45.068 75.340,44.930 75.168,44.761 75.105 C 44.592 75.042,44.351 74.847,44.225 74.672 C 44.093 74.488,43.777 74.353,43.480 74.353 C 43.081 74.353,42.964 74.274,42.964 74.003 C 42.964 73.769,42.847 73.652,42.613 73.652 C 42.418 73.652,42.262 73.535,42.262 73.389 C 42.262 73.205,42.077 73.126,41.648 73.126 C 41.152 73.126,41.035 73.059,41.035 72.775 C 41.035 72.541,40.918 72.424,40.684 72.424 C 40.450 72.424,40.333 72.307,40.333 72.074 C 40.333 71.783,40.216 71.723,39.652 71.723 C 39.119 71.723,38.951 71.647,38.879 71.372 C 38.803 71.079,38.640 71.021,37.895 71.021 C 37.118 71.021,37.001 70.976,37.001 70.671 C 37.001 70.380,36.884 70.320,36.319 70.320 C 35.874 70.320,35.601 70.228,35.535 70.057 C 35.448 69.830,34.582 69.794,29.225 69.794 C 23.919 69.794,22.984 69.832,22.797 70.057 M155.072 70.031 C 154.995 70.162,154.580 70.314,154.149 70.370 C 153.718 70.426,153.276 70.596,153.165 70.747 C 153.055 70.898,152.710 71.021,152.397 71.021 C 151.978 71.021,151.807 71.113,151.739 71.372 C 151.670 71.636,151.499 71.723,151.054 71.723 C 150.577 71.723,150.460 71.792,150.460 72.074 C 150.460 72.307,150.343 72.424,150.110 72.424 C 149.876 72.424,149.759 72.541,149.759 72.775 C 149.759 73.067,149.642 73.126,149.057 73.126 C 148.577 73.126,148.356 73.202,148.356 73.368 C 148.356 73.502,148.198 73.652,148.005 73.703 C 147.812 73.753,147.655 73.912,147.655 74.055 C 147.655 74.198,147.477 74.362,147.260 74.418 C 146.644 74.578,145.726 75.542,145.726 76.028 C 145.726 76.341,145.630 76.458,145.375 76.458 C 145.180 76.458,145.024 76.575,145.024 76.721 C 145.024 76.865,144.898 76.984,144.745 76.984 C 144.591 76.984,144.426 77.134,144.378 77.318 C 144.330 77.502,144.140 77.692,143.956 77.740 C 143.757 77.792,143.621 77.981,143.621 78.207 C 143.621 78.416,143.503 78.705,143.358 78.850 C 143.214 78.995,143.095 79.256,143.095 79.431 C 143.095 79.606,142.937 79.790,142.744 79.840 C 142.496 79.905,142.394 80.080,142.394 80.436 C 142.394 80.722,142.243 81.069,142.043 81.239 C 141.788 81.457,141.692 81.757,141.692 82.331 C 141.692 82.887,141.620 83.121,141.450 83.121 C 141.174 83.121,140.997 83.647,140.993 84.472 C 140.992 84.822,140.876 85.097,140.684 85.204 C 140.428 85.348,140.367 85.688,140.316 87.259 C 140.274 88.575,140.182 89.217,140.009 89.389 C 139.652 89.746,139.661 93.441,140.021 93.917 C 140.202 94.156,140.280 94.729,140.284 95.855 C 140.288 97.183,140.349 97.529,140.640 97.900 C 140.843 98.158,140.991 98.611,140.991 98.975 C 140.991 99.489,141.056 99.605,141.342 99.605 C 141.653 99.605,141.692 99.722,141.692 100.658 C 141.692 101.593,141.731 101.710,142.043 101.710 C 142.327 101.710,142.394 101.827,142.394 102.324 C 142.394 102.820,142.460 102.937,142.744 102.937 C 143.037 102.937,143.095 103.054,143.095 103.639 C 143.095 104.145,143.168 104.340,143.358 104.340 C 143.504 104.340,143.621 104.496,143.621 104.691 C 143.621 104.925,143.738 105.042,143.972 105.042 C 144.247 105.042,144.323 105.159,144.323 105.584 C 144.323 105.979,144.418 106.152,144.673 106.218 C 144.867 106.269,145.024 106.458,145.024 106.640 C 145.024 106.854,145.148 106.971,145.375 106.971 C 145.609 106.971,145.726 107.088,145.726 107.321 C 145.726 107.555,145.842 107.672,146.076 107.672 C 146.310 107.672,146.427 107.789,146.427 108.023 C 146.427 108.257,146.544 108.374,146.778 108.374 C 147.012 108.374,147.128 108.490,147.128 108.724 C 147.128 108.917,147.238 109.075,147.373 109.075 C 147.507 109.075,147.662 109.193,147.718 109.338 C 147.781 109.503,148.049 109.601,148.438 109.601 C 148.941 109.601,149.057 109.667,149.057 109.952 C 149.057 110.186,149.174 110.302,149.408 110.302 C 149.642 110.302,149.759 110.419,149.759 110.653 C 149.759 110.848,149.876 111.004,150.022 111.004 C 150.167 111.004,150.443 111.162,150.636 111.355 C 150.870 111.588,151.220 111.705,151.688 111.705 C 152.272 111.705,152.389 111.764,152.389 112.056 C 152.389 112.348,152.506 112.407,153.091 112.407 C 153.597 112.407,153.792 112.480,153.792 112.670 C 153.792 112.880,154.053 112.933,155.087 112.933 C 156.234 112.933,156.392 112.973,156.473 113.284 C 156.560 113.614,156.713 113.634,159.118 113.634 C 161.492 113.634,161.684 113.659,161.859 113.985 C 161.962 114.178,162.209 114.336,162.408 114.336 C 162.621 114.336,162.806 114.193,162.860 113.985 C 162.945 113.660,163.099 113.634,164.948 113.634 C 166.827 113.634,166.944 113.614,166.944 113.284 C 166.944 112.958,167.061 112.933,168.610 112.933 C 169.974 112.933,170.276 112.885,170.276 112.670 C 170.276 112.485,170.463 112.407,170.906 112.407 C 171.389 112.407,171.558 112.325,171.628 112.056 C 171.697 111.793,171.867 111.705,172.312 111.705 C 172.714 111.705,172.974 111.593,173.123 111.355 C 173.256 111.142,173.532 111.004,173.826 111.004 C 174.193 111.004,174.310 110.919,174.310 110.653 C 174.310 110.419,174.426 110.302,174.660 110.302 C 174.894 110.302,175.011 110.186,175.011 109.952 C 175.011 109.660,175.128 109.601,175.712 109.601 C 176.219 109.601,176.414 109.528,176.414 109.338 C 176.414 109.193,176.532 109.075,176.677 109.075 C 176.823 109.075,176.940 108.919,176.940 108.724 C 176.940 108.490,177.057 108.374,177.291 108.374 C 177.521 108.374,177.641 108.257,177.641 108.032 C 177.641 107.843,177.774 107.615,177.936 107.525 C 178.435 107.245,178.501 105.225,178.014 105.098 C 177.724 105.022,177.641 104.865,177.641 104.391 C 177.641 103.929,177.557 103.759,177.291 103.690 C 177.098 103.639,176.940 103.489,176.940 103.355 C 176.940 103.222,176.822 103.113,176.677 103.113 C 176.532 103.113,176.256 102.955,176.063 102.762 C 175.762 102.460,175.479 102.411,174.046 102.411 C 172.497 102.411,172.381 102.436,172.381 102.762 C 172.381 103.046,172.264 103.113,171.761 103.113 C 171.373 103.113,171.104 103.211,171.041 103.376 C 170.986 103.520,170.830 103.639,170.696 103.639 C 170.561 103.639,170.452 103.797,170.452 103.989 C 170.452 104.270,170.335 104.340,169.865 104.340 C 169.501 104.340,169.158 104.473,168.961 104.691 C 168.786 104.884,168.451 105.042,168.216 105.042 C 167.936 105.042,167.757 105.163,167.697 105.392 C 167.616 105.700,167.457 105.743,166.398 105.743 C 165.425 105.743,165.123 105.811,164.840 106.094 C 164.524 106.410,164.255 106.445,162.122 106.445 C 159.988 106.445,159.720 106.410,159.404 106.094 C 159.131 105.821,158.819 105.743,158.001 105.743 C 157.218 105.743,156.949 105.680,156.949 105.499 C 156.949 105.216,156.575 105.042,155.970 105.042 C 155.716 105.042,155.546 104.939,155.546 104.787 C 155.546 104.634,155.299 104.485,154.932 104.416 C 154.594 104.353,154.318 104.197,154.318 104.069 C 154.318 103.942,154.168 103.790,153.984 103.732 C 153.800 103.673,153.605 103.510,153.551 103.369 C 153.494 103.222,153.225 103.113,152.921 103.113 C 152.506 103.113,152.389 103.036,152.389 102.762 C 152.389 102.542,152.272 102.411,152.075 102.411 C 151.871 102.411,151.701 102.210,151.593 101.841 C 151.466 101.413,151.283 101.230,150.855 101.104 C 150.361 100.958,150.285 100.859,150.285 100.358 C 150.285 99.898,150.214 99.781,149.934 99.781 C 149.642 99.781,149.584 99.664,149.584 99.079 C 149.584 98.602,149.507 98.378,149.343 98.378 C 149.187 98.378,149.071 98.090,149.010 97.556 C 148.958 97.095,148.794 96.643,148.637 96.528 C 148.468 96.405,148.356 96.067,148.356 95.684 L 148.356 95.046 163.629 95.046 C 178.754 95.046,178.903 95.043,178.993 94.695 C 179.062 94.432,179.233 94.345,179.678 94.345 C 180.143 94.345,180.272 94.273,180.272 94.014 C 180.272 93.832,180.428 93.643,180.623 93.592 C 180.915 93.516,180.973 93.353,180.973 92.607 C 180.973 91.961,181.041 91.714,181.218 91.714 C 181.785 91.714,181.883 89.982,181.324 89.836 C 180.996 89.750,180.973 89.597,180.973 87.440 C 180.973 85.325,180.944 85.117,180.623 84.916 C 180.331 84.734,180.272 84.507,180.272 83.571 C 180.272 82.804,180.188 82.361,180.009 82.182 C 179.864 82.037,179.746 81.748,179.746 81.539 C 179.746 81.307,179.609 81.124,179.395 81.068 C 179.131 80.999,179.044 80.829,179.044 80.383 C 179.044 79.906,178.975 79.790,178.694 79.790 C 178.405 79.790,178.343 79.673,178.343 79.130 C 178.343 78.661,178.242 78.408,177.992 78.252 C 177.798 78.131,177.641 77.843,177.641 77.608 C 177.641 77.337,177.514 77.142,177.291 77.071 C 177.098 77.010,176.940 76.847,176.940 76.709 C 176.940 76.571,176.822 76.458,176.677 76.458 C 176.531 76.458,176.414 76.302,176.414 76.107 C 176.414 75.873,176.297 75.756,176.063 75.756 C 175.829 75.756,175.712 75.639,175.712 75.406 C 175.712 75.172,175.595 75.055,175.362 75.055 C 175.128 75.055,175.011 74.938,175.011 74.704 C 175.011 74.470,174.894 74.353,174.660 74.353 C 174.426 74.353,174.310 74.236,174.310 74.003 C 174.310 73.769,174.193 73.652,173.959 73.652 C 173.764 73.652,173.608 73.535,173.608 73.389 C 173.608 73.205,173.423 73.126,172.994 73.126 C 172.497 73.126,172.381 73.059,172.381 72.775 C 172.381 72.541,172.264 72.424,172.030 72.424 C 171.796 72.424,171.679 72.307,171.679 72.074 C 171.679 71.781,171.562 71.723,170.978 71.723 C 170.393 71.723,170.276 71.664,170.276 71.372 C 170.276 71.080,170.159 71.021,169.575 71.021 C 169.094 71.021,168.873 70.945,168.873 70.779 C 168.873 70.503,168.347 70.326,167.514 70.322 C 167.126 70.321,166.944 70.236,166.944 70.057 C 166.944 69.683,155.293 69.657,155.072 70.031 M191.021 70.042 C 190.944 70.178,190.644 70.316,190.355 70.349 C 189.974 70.391,189.814 70.512,189.775 70.784 C 189.746 70.991,189.568 71.299,189.381 71.469 C 188.836 71.962,188.846 111.705,189.391 111.705 C 189.675 111.705,189.741 111.822,189.741 112.319 C 189.741 112.900,189.773 112.933,190.335 112.933 C 190.780 112.933,190.951 113.020,191.020 113.284 C 191.155 113.803,194.123 113.812,194.639 113.296 C 194.826 113.109,195.240 112.932,195.560 112.901 C 196.049 112.854,196.173 112.749,196.338 112.239 C 196.446 111.906,196.623 111.603,196.732 111.567 C 196.878 111.518,196.931 107.928,196.931 98.102 C 196.931 84.893,196.936 84.700,197.282 84.484 C 197.532 84.328,197.633 84.075,197.633 83.605 C 197.633 83.063,197.695 82.946,197.983 82.946 C 198.267 82.946,198.334 82.829,198.334 82.332 C 198.334 81.835,198.401 81.719,198.685 81.719 C 198.919 81.719,199.036 81.602,199.036 81.368 C 199.036 81.134,199.152 81.017,199.386 81.017 C 199.620 81.017,199.737 80.900,199.737 80.666 C 199.737 80.472,199.854 80.316,200.000 80.316 C 200.146 80.316,200.263 80.160,200.263 79.965 C 200.263 79.763,200.380 79.614,200.539 79.614 C 200.894 79.614,202.367 78.753,202.367 78.545 C 202.367 78.458,202.631 78.387,202.954 78.387 C 203.318 78.387,203.661 78.254,203.858 78.036 C 204.107 77.760,204.398 77.685,205.217 77.685 C 206.111 77.685,206.271 77.636,206.350 77.335 C 206.439 76.995,206.589 76.984,211.068 76.984 C 215.578 76.984,215.695 76.975,215.695 76.633 C 215.695 76.399,215.812 76.282,216.046 76.282 C 216.336 76.282,216.396 76.165,216.396 75.600 C 216.396 75.155,216.488 74.882,216.659 74.816 C 216.840 74.747,216.922 74.465,216.922 73.920 C 216.922 73.331,216.854 73.126,216.659 73.126 C 216.469 73.126,216.396 72.930,216.396 72.413 C 216.396 71.420,216.143 71.021,215.513 71.021 C 215.110 71.021,214.993 70.943,214.993 70.671 C 214.993 70.437,214.877 70.320,214.643 70.320 C 214.448 70.320,214.292 70.203,214.292 70.057 C 214.292 69.829,213.561 69.794,208.763 69.794 C 204.009 69.794,203.219 69.831,203.132 70.057 C 203.069 70.221,202.802 70.320,202.420 70.320 C 201.956 70.320,201.786 70.405,201.717 70.671 C 201.649 70.930,201.478 71.021,201.059 71.021 C 200.715 71.021,200.368 71.159,200.175 71.372 C 200.001 71.565,199.673 71.723,199.447 71.723 C 199.152 71.723,199.036 71.823,199.036 72.074 C 199.036 72.307,198.919 72.424,198.685 72.424 C 198.451 72.424,198.334 72.541,198.334 72.775 C 198.334 73.049,198.217 73.126,197.802 73.126 C 197.415 73.126,197.228 73.233,197.112 73.520 C 196.989 73.826,196.951 73.687,196.942 72.901 C 196.934 72.169,196.858 71.859,196.668 71.786 C 196.523 71.731,196.405 71.536,196.405 71.353 C 196.405 71.138,196.282 71.021,196.054 71.021 C 195.821 71.021,195.704 70.905,195.704 70.671 C 195.704 70.437,195.587 70.320,195.353 70.320 C 195.158 70.320,195.002 70.203,195.002 70.057 C 195.002 69.682,191.233 69.667,191.021 70.042 M31.791 77.335 C 31.867 77.624,32.030 77.685,32.734 77.685 C 33.395 77.685,33.634 77.763,33.804 78.036 C 33.976 78.311,34.213 78.387,34.898 78.387 C 35.657 78.387,35.774 78.434,35.774 78.737 C 35.774 78.965,35.891 79.088,36.106 79.088 C 36.288 79.088,36.483 79.206,36.539 79.351 C 36.598 79.505,36.860 79.614,37.171 79.614 C 37.586 79.614,37.703 79.691,37.703 79.965 C 37.703 80.199,37.820 80.316,38.053 80.316 C 38.287 80.316,38.404 80.433,38.404 80.666 C 38.404 80.900,38.521 81.017,38.755 81.017 C 38.989 81.017,39.106 81.134,39.106 81.368 C 39.106 81.563,39.223 81.719,39.369 81.719 C 39.513 81.719,39.632 81.844,39.632 81.998 C 39.632 82.152,39.785 82.318,39.972 82.367 C 40.171 82.418,40.360 82.668,40.425 82.964 C 40.486 83.243,40.649 83.472,40.786 83.472 C 40.934 83.472,41.035 83.649,41.035 83.911 C 41.035 84.232,41.128 84.349,41.385 84.349 C 41.671 84.349,41.736 84.466,41.736 84.979 C 41.736 85.462,41.818 85.631,42.087 85.701 C 42.381 85.778,42.438 85.940,42.438 86.715 C 42.438 87.321,42.528 87.713,42.701 87.856 C 43.084 88.174,43.079 94.966,42.695 95.474 C 42.545 95.672,42.438 96.196,42.438 96.725 C 42.438 97.488,42.381 97.650,42.087 97.727 C 41.818 97.798,41.736 97.966,41.736 98.449 C 41.736 98.962,41.671 99.079,41.385 99.079 C 41.191 99.079,41.035 99.196,41.035 99.342 C 41.035 99.487,40.877 99.763,40.684 99.956 C 40.491 100.149,40.333 100.465,40.333 100.658 C 40.333 100.862,40.216 101.008,40.054 101.008 C 39.900 101.008,39.733 101.166,39.683 101.359 C 39.632 101.552,39.482 101.710,39.348 101.710 C 39.215 101.710,39.106 101.868,39.106 102.060 C 39.106 102.294,38.989 102.411,38.755 102.411 C 38.521 102.411,38.404 102.528,38.404 102.762 C 38.404 102.996,38.287 103.113,38.053 103.113 C 37.859 103.113,37.703 103.230,37.703 103.376 C 37.703 103.522,37.547 103.639,37.352 103.639 C 37.118 103.639,37.001 103.756,37.001 103.989 C 37.001 104.273,36.884 104.340,36.388 104.340 C 35.891 104.340,35.774 104.407,35.774 104.691 C 35.774 104.979,35.657 105.042,35.115 105.042 C 34.645 105.042,34.392 105.143,34.236 105.392 C 34.054 105.685,33.827 105.743,32.879 105.743 C 31.974 105.743,31.668 105.815,31.390 106.094 C 31.082 106.402,30.805 106.445,29.110 106.445 C 27.415 106.445,27.139 106.402,26.830 106.094 C 26.561 105.824,26.246 105.743,25.470 105.743 C 24.650 105.743,24.418 105.677,24.241 105.392 C 24.104 105.173,23.832 105.042,23.516 105.042 C 23.236 105.042,22.966 104.928,22.913 104.788 C 22.859 104.649,22.535 104.482,22.192 104.418 C 21.834 104.351,21.569 104.198,21.569 104.058 C 21.569 103.924,21.462 103.814,21.330 103.814 C 21.198 103.814,20.890 103.656,20.645 103.463 C 20.400 103.270,20.073 103.113,19.920 103.113 C 19.757 103.113,19.641 102.966,19.641 102.762 C 19.641 102.528,19.524 102.411,19.290 102.411 C 19.056 102.411,18.939 102.294,18.939 102.060 C 18.939 101.868,18.830 101.710,18.696 101.710 C 18.563 101.710,18.413 101.552,18.362 101.359 C 18.312 101.166,18.145 101.008,17.991 101.008 C 17.789 101.008,17.712 100.839,17.712 100.395 C 17.712 99.898,17.645 99.781,17.361 99.781 C 17.127 99.781,17.010 99.664,17.010 99.430 C 17.010 99.196,16.893 99.079,16.659 99.079 C 16.355 99.079,16.309 98.962,16.309 98.186 C 16.309 97.440,16.251 97.278,15.958 97.201 C 15.662 97.124,15.607 96.962,15.607 96.160 C 15.607 95.478,15.533 95.182,15.344 95.109 C 15.123 95.025,15.081 94.481,15.081 91.714 C 15.081 88.948,15.123 88.404,15.344 88.319 C 15.533 88.246,15.607 87.951,15.607 87.268 C 15.607 86.466,15.662 86.305,15.958 86.227 C 16.223 86.158,16.309 85.988,16.309 85.532 C 16.309 85.152,16.438 84.812,16.659 84.612 C 16.852 84.437,17.010 84.149,17.010 83.971 C 17.010 83.764,17.137 83.648,17.361 83.648 C 17.645 83.648,17.712 83.531,17.712 83.034 C 17.712 82.589,17.789 82.420,17.991 82.420 C 18.145 82.420,18.312 82.262,18.362 82.069 C 18.413 81.876,18.563 81.719,18.696 81.719 C 18.830 81.719,18.939 81.561,18.939 81.368 C 18.939 81.134,19.056 81.017,19.290 81.017 C 19.524 81.017,19.641 80.900,19.641 80.666 C 19.641 80.449,19.757 80.316,19.949 80.316 C 20.119 80.316,20.356 80.158,20.477 79.965 C 20.602 79.765,20.886 79.614,21.138 79.614 C 21.381 79.614,21.626 79.496,21.681 79.351 C 21.737 79.206,21.880 79.088,21.999 79.088 C 22.119 79.088,22.359 78.930,22.534 78.737 C 22.749 78.500,23.074 78.387,23.542 78.387 C 24.085 78.387,24.252 78.312,24.324 78.036 C 24.402 77.740,24.564 77.685,25.360 77.685 C 26.187 77.685,26.304 77.642,26.304 77.335 C 26.304 76.999,26.421 76.984,29.002 76.984 C 31.552 76.984,31.705 77.003,31.791 77.335 M163.963 77.335 C 164.193 77.565,164.548 77.685,164.995 77.685 C 165.528 77.685,165.696 77.761,165.768 78.036 C 165.844 78.327,166.007 78.387,166.732 78.387 C 167.457 78.387,167.620 78.446,167.697 78.737 C 167.747 78.930,167.914 79.088,168.068 79.088 C 168.221 79.088,168.347 79.206,168.347 79.351 C 168.347 79.497,168.503 79.614,168.698 79.614 C 168.932 79.614,169.049 79.731,169.049 79.965 C 169.049 80.199,169.166 80.316,169.399 80.316 C 169.633 80.316,169.750 80.433,169.750 80.666 C 169.750 80.900,169.867 81.017,170.101 81.017 C 170.335 81.017,170.452 81.134,170.452 81.368 C 170.452 81.563,170.568 81.719,170.715 81.719 C 170.860 81.719,170.978 81.874,170.978 82.068 C 170.978 82.260,171.135 82.516,171.328 82.636 C 171.521 82.757,171.679 83.033,171.679 83.251 C 171.679 83.469,171.837 83.805,172.030 83.998 C 172.242 84.211,172.381 84.583,172.381 84.942 C 172.381 85.388,172.468 85.558,172.731 85.627 C 173.029 85.705,173.082 85.867,173.082 86.700 L 173.082 87.681 160.719 87.681 C 148.578 87.681,148.356 87.675,148.356 87.339 C 148.356 87.151,148.480 86.927,148.632 86.843 C 148.787 86.756,148.951 86.349,149.008 85.913 C 149.064 85.487,149.216 85.075,149.346 84.998 C 149.477 84.921,149.584 84.585,149.584 84.253 C 149.584 83.764,149.651 83.648,149.934 83.648 C 150.218 83.648,150.285 83.531,150.285 83.034 C 150.285 82.537,150.352 82.420,150.636 82.420 C 150.870 82.420,150.986 82.303,150.986 82.069 C 150.986 81.835,151.103 81.719,151.337 81.719 C 151.564 81.719,151.688 81.602,151.688 81.388 C 151.688 81.205,151.844 81.017,152.039 80.966 C 152.231 80.916,152.389 80.749,152.389 80.595 C 152.389 80.441,152.508 80.316,152.652 80.316 C 152.798 80.316,152.915 80.160,152.915 79.965 C 152.915 79.731,153.032 79.614,153.266 79.614 C 153.459 79.614,153.617 79.505,153.617 79.371 C 153.617 79.233,153.875 79.079,154.214 79.015 C 154.542 78.954,154.855 78.787,154.910 78.645 C 154.971 78.485,155.244 78.387,155.628 78.387 C 156.130 78.387,156.247 78.320,156.247 78.036 C 156.247 77.727,156.364 77.685,157.228 77.685 C 158.062 77.685,158.223 77.632,158.301 77.335 C 158.387 77.004,158.540 76.984,161.002 76.984 C 163.379 76.984,163.644 77.015,163.963 77.335 " stroke="none" fill="#000000" fill-rule="evenodd"></path><path id="path1" d="M229.795 70.645 C 230.166 71.063,230.250 71.101,230.250 70.852 C 230.250 70.759,230.072 70.590,229.855 70.476 C 229.463 70.270,229.463 70.271,229.795 70.645 M265.744 77.360 C 265.412 77.734,265.412 77.735,265.804 77.529 C 266.021 77.415,266.199 77.246,266.199 77.153 C 266.199 76.904,266.115 76.942,265.744 77.360 M292.372 90.750 C 292.374 91.135,292.410 91.273,292.452 91.055 C 292.494 90.836,292.492 90.521,292.448 90.353 C 292.405 90.185,292.370 90.364,292.372 90.750 M292.372 92.679 C 292.374 93.064,292.410 93.202,292.452 92.983 C 292.494 92.765,292.492 92.450,292.448 92.282 C 292.405 92.114,292.370 92.293,292.372 92.679 " stroke="none" fill="#0000ff" fill-rule="evenodd"></path><path id="path2" d="M383.927 52.017 C 383.623 52.261,383.627 52.266,383.986 52.093 C 384.196 51.991,384.491 51.956,384.643 52.014 C 384.795 52.072,384.919 52.049,384.919 51.963 C 384.919 51.703,384.274 51.738,383.927 52.017 M385.094 52.170 C 385.094 52.315,385.222 52.433,385.379 52.433 C 385.612 52.433,385.624 52.386,385.445 52.170 C 385.325 52.025,385.197 51.907,385.160 51.907 C 385.124 51.907,385.094 52.025,385.094 52.170 M246.481 70.043 C 246.848 70.311,247.015 70.282,246.829 69.981 C 246.765 69.878,246.584 69.794,246.427 69.794 C 246.188 69.794,246.196 69.835,246.481 70.043 M308.680 69.920 C 308.560 69.963,308.461 70.064,308.461 70.144 C 308.461 70.326,308.879 70.275,308.958 70.082 C 309.039 69.886,308.940 69.828,308.680 69.920 M260.493 70.682 C 260.429 70.785,260.419 70.912,260.471 70.963 C 260.596 71.089,260.938 70.867,260.938 70.660 C 260.938 70.436,260.635 70.451,260.493 70.682 M324.524 71.345 C 324.463 71.443,324.499 71.576,324.603 71.641 C 324.873 71.807,325.047 71.579,324.822 71.354 C 324.696 71.228,324.598 71.225,324.524 71.345 M223.121 71.994 C 223.063 72.142,223.066 72.313,223.126 72.373 C 223.186 72.434,223.235 72.357,223.235 72.203 C 223.235 72.050,223.374 71.888,223.542 71.844 C 223.830 71.769,223.830 71.762,223.537 71.743 C 223.365 71.732,223.178 71.845,223.121 71.994 M325.734 72.074 C 325.909 72.267,326.079 72.424,326.112 72.424 C 326.237 72.424,326.078 71.981,325.910 71.857 C 325.547 71.591,325.429 71.736,325.734 72.074 M299.912 74.616 C 299.663 74.899,299.632 75.055,299.826 75.055 C 299.900 75.055,300.058 74.897,300.179 74.704 C 300.429 74.304,300.242 74.242,299.912 74.616 M239.014 77.251 C 238.892 77.398,238.843 77.569,238.905 77.631 C 238.967 77.693,239.018 77.643,239.018 77.520 C 239.018 77.397,239.123 77.337,239.252 77.387 C 239.380 77.436,239.486 77.366,239.486 77.230 C 239.486 76.908,239.292 76.917,239.014 77.251 M242.039 77.192 C 242.077 77.307,242.202 77.432,242.317 77.470 C 242.445 77.512,242.484 77.432,242.419 77.261 C 242.297 76.943,241.934 76.876,242.039 77.192 M268.479 77.227 C 268.479 77.369,268.643 77.538,268.843 77.602 C 269.364 77.767,269.386 77.646,268.900 77.282 C 268.553 77.023,268.479 77.013,268.479 77.227 M361.171 78.059 C 360.985 78.239,360.916 78.387,361.018 78.387 C 361.220 78.387,361.688 77.889,361.577 77.791 C 361.539 77.758,361.356 77.878,361.171 78.059 M272.074 78.737 C 272.248 78.930,272.421 79.088,272.458 79.088 C 272.494 79.088,272.440 78.930,272.337 78.737 C 272.233 78.544,272.061 78.387,271.953 78.387 C 271.845 78.387,271.899 78.544,272.074 78.737 M333.012 78.482 C 333.012 78.534,333.170 78.746,333.363 78.953 C 333.744 79.363,333.819 79.262,333.532 78.726 C 333.367 78.418,333.012 78.251,333.012 78.482 M233.857 79.951 C 233.522 80.321,233.648 80.435,234.085 80.158 C 234.218 80.074,234.295 79.911,234.256 79.796 C 234.211 79.661,234.070 79.716,233.857 79.951 M260.189 80.276 C 259.939 80.802,259.933 80.861,260.158 80.579 C 260.571 80.061,260.794 79.614,260.637 79.619 C 260.562 79.621,260.360 79.917,260.189 80.276 M273.949 80.504 C 273.983 80.608,274.086 80.693,274.178 80.693 C 274.270 80.693,274.373 80.608,274.407 80.504 C 274.442 80.400,274.339 80.316,274.178 80.316 C 274.017 80.316,273.914 80.400,273.949 80.504 M247.786 81.236 C 247.786 81.394,247.870 81.574,247.973 81.638 C 248.274 81.824,248.303 81.657,248.035 81.290 C 247.827 81.006,247.786 80.997,247.786 81.236 M355.940 81.397 C 355.681 81.669,355.675 81.719,355.902 81.719 C 356.050 81.719,356.217 81.597,356.274 81.448 C 356.427 81.052,356.290 81.031,355.940 81.397 M303.858 82.259 C 303.689 82.357,303.557 82.572,303.565 82.736 C 303.576 82.979,303.598 82.985,303.681 82.771 C 303.737 82.626,303.909 82.412,304.062 82.294 C 304.400 82.034,304.279 82.013,303.858 82.259 M283.735 83.463 C 283.735 83.578,283.854 83.791,283.998 83.936 C 284.224 84.161,284.261 84.162,284.261 83.945 C 284.261 83.805,284.143 83.592,283.998 83.472 C 283.799 83.307,283.735 83.305,283.735 83.463 M335.642 84.091 C 335.642 84.233,335.761 84.349,335.905 84.349 C 336.050 84.349,336.168 84.480,336.168 84.641 C 336.168 84.802,336.215 84.887,336.272 84.830 C 336.329 84.773,336.326 84.570,336.265 84.378 C 336.130 83.952,335.642 83.727,335.642 84.091 M293.198 85.590 C 293.019 85.923,293.034 85.937,293.367 85.759 C 293.567 85.652,293.731 85.488,293.731 85.395 C 293.731 85.094,293.398 85.216,293.198 85.590 M258.173 85.927 C 258.173 86.265,258.209 86.403,258.253 86.234 C 258.297 86.065,258.297 85.789,258.253 85.620 C 258.209 85.452,258.173 85.590,258.173 85.927 M275.669 86.005 C 275.669 86.251,275.747 86.453,275.844 86.453 C 275.940 86.453,276.019 86.300,276.019 86.113 C 276.019 85.926,275.940 85.724,275.844 85.664 C 275.744 85.603,275.669 85.750,275.669 86.005 M231.253 86.555 C 231.017 86.870,231.003 86.949,231.195 86.875 C 231.335 86.821,231.498 86.653,231.556 86.502 C 231.720 86.075,231.595 86.097,231.253 86.555 M336.570 86.769 C 336.417 86.866,336.453 86.964,336.701 87.118 C 336.908 87.247,337.045 87.262,337.045 87.156 C 337.045 87.059,336.962 86.979,336.859 86.979 C 336.757 86.979,336.723 86.900,336.782 86.804 C 336.911 86.596,336.857 86.587,336.570 86.769 M275.862 98.203 C 275.848 108.999,275.905 110.493,276.317 110.054 C 276.394 109.971,276.359 109.869,276.238 109.825 C 275.960 109.726,275.914 88.118,276.192 87.946 C 276.287 87.887,276.349 87.651,276.330 87.422 C 276.311 87.192,276.240 87.039,276.172 87.081 C 276.105 87.123,276.010 87.058,275.963 86.937 C 275.916 86.815,275.870 91.885,275.862 98.203 M292.714 88.768 C 292.598 88.884,292.503 89.094,292.503 89.236 C 292.503 89.480,292.763 89.359,292.769 89.113 C 292.770 89.049,292.834 88.897,292.911 88.777 C 293.087 88.499,292.987 88.494,292.714 88.768 M343.890 89.598 C 343.648 90.051,343.660 90.786,343.911 90.942 C 344.030 91.015,344.066 90.990,344.000 90.883 C 343.937 90.782,344.017 90.648,344.178 90.587 C 344.400 90.502,344.420 90.426,344.264 90.270 C 343.994 90.001,344.003 89.487,344.279 89.375 C 344.444 89.309,344.446 89.283,344.285 89.273 C 344.168 89.265,343.990 89.412,343.890 89.598 M343.814 92.562 C 343.765 92.643,343.793 92.939,343.878 93.220 C 344.028 93.713,344.032 93.708,344.002 93.074 C 343.970 92.373,343.956 92.334,343.814 92.562 M292.503 94.329 C 292.503 94.410,292.622 94.575,292.766 94.695 C 292.980 94.873,293.029 94.864,293.029 94.648 C 293.029 94.502,292.911 94.337,292.766 94.281 C 292.622 94.226,292.503 94.247,292.503 94.329 M388.075 96.518 C 388.075 96.684,387.996 96.772,387.900 96.712 C 387.804 96.652,387.725 96.687,387.725 96.789 C 387.725 96.891,387.806 96.975,387.906 96.975 C 388.124 96.975,388.338 96.478,388.185 96.324 C 388.125 96.264,388.075 96.351,388.075 96.518 M293.043 97.430 C 293.036 97.536,293.187 97.765,293.380 97.940 C 293.695 98.225,293.731 98.228,293.731 97.967 C 293.731 97.807,293.619 97.676,293.482 97.676 C 293.346 97.676,293.194 97.578,293.146 97.457 C 293.094 97.331,293.051 97.319,293.043 97.430 M387.330 98.973 C 386.991 99.230,386.931 99.430,387.192 99.430 C 387.285 99.430,387.446 99.272,387.549 99.079 C 387.768 98.671,387.744 98.659,387.330 98.973 M335.853 99.114 C 335.599 99.368,335.579 99.605,335.811 99.605 C 335.905 99.605,336.065 99.448,336.168 99.255 C 336.375 98.868,336.184 98.783,335.853 99.114 M347.216 103.887 C 347.216 104.040,347.341 104.165,347.494 104.165 C 347.647 104.165,347.740 104.071,347.702 103.957 C 347.594 103.631,347.216 103.578,347.216 103.887 M358.493 104.055 C 358.764 104.308,359.119 104.511,359.282 104.504 C 359.498 104.496,359.471 104.450,359.185 104.335 C 358.968 104.248,358.790 104.082,358.790 103.966 C 358.790 103.850,358.738 103.808,358.675 103.871 C 358.611 103.935,358.434 103.898,358.280 103.791 C 358.127 103.683,358.222 103.802,358.493 104.055 M359.667 104.764 C 359.667 104.917,359.792 105.042,359.944 105.042 C 360.254 105.042,360.200 104.664,359.875 104.556 C 359.761 104.518,359.667 104.611,359.667 104.764 M360.935 105.392 C 361.156 105.747,361.420 105.861,361.420 105.603 C 361.420 105.421,361.040 105.042,360.858 105.042 C 360.780 105.042,360.815 105.199,360.935 105.392 M311.676 105.980 C 311.676 106.136,311.829 106.313,312.015 106.372 C 312.430 106.503,312.804 106.198,312.476 105.995 C 312.345 105.914,312.222 105.946,312.180 106.072 C 312.130 106.223,312.043 106.199,311.892 105.992 C 311.698 105.727,311.676 105.725,311.676 105.980 M318.048 105.860 C 317.854 106.054,317.915 106.211,318.186 106.211 C 318.326 106.211,318.405 106.152,318.360 106.080 C 318.316 106.007,318.378 105.908,318.500 105.860 C 318.645 105.801,318.625 105.766,318.442 105.757 C 318.289 105.749,318.112 105.796,318.048 105.860 M362.911 105.950 C 363.104 106.072,363.301 106.176,363.349 106.180 C 363.398 106.184,363.541 106.253,363.668 106.333 C 363.795 106.414,363.948 106.431,364.007 106.371 C 364.186 106.192,363.825 105.962,363.174 105.842 C 362.632 105.741,362.601 105.754,362.911 105.950 M368.761 106.088 C 368.534 106.278,368.446 106.435,368.566 106.439 C 368.687 106.442,368.786 106.366,368.786 106.269 C 368.786 106.173,368.939 106.094,369.126 106.094 C 369.313 106.094,369.515 106.015,369.575 105.918 C 369.765 105.611,369.190 105.730,368.761 106.088 M317.310 106.105 C 317.246 106.208,317.236 106.335,317.288 106.386 C 317.413 106.512,317.755 106.290,317.755 106.083 C 317.755 105.859,317.453 105.874,317.310 106.105 M297.764 106.701 C 297.764 106.849,297.883 106.971,298.027 106.971 C 298.172 106.971,298.290 107.084,298.290 107.223 C 298.290 107.362,298.368 107.524,298.464 107.583 C 298.743 107.756,298.445 107.093,298.087 106.745 C 297.815 106.481,297.764 106.474,297.764 106.701 M331.083 107.179 C 331.083 107.293,330.911 107.569,330.702 107.792 C 330.492 108.016,330.393 108.198,330.482 108.198 C 330.572 108.198,330.865 107.922,331.134 107.584 C 331.500 107.126,331.555 106.971,331.353 106.971 C 331.205 106.971,331.083 107.064,331.083 107.179 M299.342 108.328 C 299.487 108.384,299.708 108.556,299.834 108.709 C 300.028 108.945,300.034 108.927,299.872 108.593 C 299.767 108.376,299.545 108.204,299.380 108.212 C 299.136 108.223,299.129 108.245,299.342 108.328 M351.249 108.530 C 351.249 108.616,351.368 108.732,351.512 108.788 C 351.673 108.849,351.776 108.788,351.776 108.631 C 351.776 108.489,351.657 108.374,351.512 108.374 C 351.368 108.374,351.249 108.444,351.249 108.530 M377.108 111.191 C 377.045 111.294,377.035 111.420,377.086 111.472 C 377.212 111.597,377.554 111.376,377.554 111.169 C 377.554 110.945,377.251 110.960,377.108 111.191 M324.356 111.968 C 324.300 112.113,324.322 112.231,324.403 112.231 C 324.485 112.231,324.650 112.113,324.770 111.968 C 324.948 111.754,324.939 111.705,324.722 111.705 C 324.576 111.705,324.411 111.824,324.356 111.968 M306.469 112.670 C 306.524 112.815,306.689 112.933,306.835 112.933 C 307.052 112.933,307.061 112.884,306.883 112.670 C 306.763 112.525,306.598 112.407,306.516 112.407 C 306.435 112.407,306.413 112.525,306.469 112.670 M357.953 112.615 C 358.059 112.933,358.381 112.978,358.381 112.675 C 358.381 112.527,358.269 112.407,358.132 112.407 C 357.996 112.407,357.915 112.501,357.953 112.615 M278.530 113.194 C 278.550 113.386,278.713 113.571,278.892 113.605 C 279.096 113.645,279.173 113.596,279.097 113.473 C 279.030 113.366,278.909 113.320,278.826 113.371 C 278.744 113.422,278.635 113.324,278.585 113.154 C 278.513 112.908,278.502 112.916,278.530 113.194 M309.163 113.072 C 309.163 113.165,309.290 113.346,309.446 113.476 C 309.691 113.679,309.721 113.666,309.665 113.380 C 309.599 113.039,309.163 112.772,309.163 113.072 M366.068 113.810 C 366.127 113.906,366.290 113.985,366.429 113.985 C 366.568 113.985,366.681 113.906,366.681 113.810 C 366.681 113.713,366.519 113.634,366.320 113.634 C 366.122 113.634,366.008 113.713,366.068 113.810 " stroke="none" fill="#0055ff" fill-rule="evenodd"></path><path id="path3" d="M384.135 51.883 C 384.332 52.080,383.527 52.423,382.860 52.428 C 382.310 52.432,382.059 52.525,381.897 52.784 C 381.777 52.977,381.539 53.135,381.369 53.135 C 381.200 53.135,381.061 53.256,381.061 53.405 C 381.061 53.554,380.903 53.845,380.710 54.052 C 380.368 54.419,380.359 54.675,380.354 64.873 L 380.348 75.318 379.924 74.836 C 379.691 74.570,379.387 74.353,379.249 74.353 C 379.110 74.353,378.954 74.188,378.901 73.985 C 378.848 73.782,378.725 73.666,378.626 73.727 C 378.528 73.787,378.362 73.677,378.258 73.481 C 378.132 73.247,377.890 73.126,377.548 73.126 C 377.145 73.126,377.028 73.047,377.028 72.775 C 377.028 72.557,376.911 72.424,376.719 72.424 C 376.549 72.424,376.315 72.272,376.199 72.085 C 376.076 71.888,375.745 71.723,375.411 71.691 C 375.066 71.657,374.853 71.548,374.879 71.416 C 374.904 71.295,374.864 71.190,374.792 71.182 C 374.026 71.098,373.587 70.958,373.477 70.763 C 373.405 70.634,372.932 70.473,372.425 70.405 C 371.918 70.338,371.374 70.168,371.216 70.029 C 370.821 69.679,360.085 69.752,359.867 70.105 C 359.791 70.228,359.439 70.339,359.084 70.353 C 358.729 70.366,358.439 70.443,358.439 70.524 C 358.439 70.605,358.321 70.671,358.176 70.671 C 358.032 70.671,357.913 70.750,357.913 70.846 C 357.913 70.943,357.649 71.021,357.327 71.021 C 356.963 71.021,356.620 71.155,356.423 71.372 C 356.248 71.565,355.913 71.723,355.678 71.723 C 355.397 71.723,355.218 71.844,355.158 72.074 C 355.103 72.283,354.916 72.427,354.692 72.430 C 354.261 72.436,353.655 72.842,353.824 73.012 C 353.887 73.074,353.770 73.126,353.564 73.126 C 353.154 73.126,352.078 74.071,352.270 74.263 C 352.335 74.329,352.310 74.367,352.214 74.347 C 351.771 74.258,351.508 74.433,350.349 75.592 C 349.259 76.683,349.040 76.997,348.983 77.554 C 348.976 77.626,348.851 77.685,348.707 77.685 C 348.561 77.685,348.444 77.841,348.444 78.036 C 348.444 78.233,348.327 78.387,348.176 78.387 C 348.029 78.387,347.840 78.567,347.756 78.788 C 347.672 79.009,347.477 79.295,347.322 79.424 C 347.167 79.552,347.041 79.793,347.041 79.959 C 347.041 80.125,346.887 80.400,346.700 80.570 C 346.512 80.739,346.335 81.087,346.305 81.342 C 346.274 81.616,346.156 81.786,346.019 81.758 C 345.892 81.732,345.834 81.785,345.891 81.877 C 345.948 81.970,345.914 82.095,345.816 82.155 C 345.718 82.216,345.638 82.616,345.638 83.044 C 345.638 83.619,345.569 83.823,345.375 83.823 C 345.138 83.823,344.968 84.983,345.106 85.664 C 345.125 85.761,345.083 85.781,345.011 85.710 C 344.625 85.324,344.410 86.038,344.410 87.702 C 344.410 88.740,344.340 89.434,344.235 89.434 C 343.998 89.434,344.012 90.018,344.254 90.260 C 344.396 90.402,344.349 90.507,344.078 90.652 C 343.778 90.813,343.709 91.014,343.709 91.731 C 343.709 92.215,343.771 92.573,343.846 92.527 C 343.922 92.480,343.981 92.732,343.978 93.086 C 343.975 93.441,344.071 93.835,344.191 93.963 C 344.330 94.110,344.410 94.728,344.410 95.658 C 344.410 97.169,344.516 97.740,344.767 97.585 C 344.997 97.443,345.088 97.719,345.133 98.695 C 345.161 99.312,345.249 99.605,345.406 99.605 C 345.536 99.605,345.650 99.818,345.665 100.088 C 345.679 100.353,345.710 100.649,345.732 100.745 C 345.754 100.842,345.791 101.000,345.814 101.096 C 345.836 101.192,345.845 101.331,345.834 101.403 C 345.823 101.475,345.894 101.534,345.993 101.534 C 346.174 101.534,346.597 102.383,346.541 102.635 C 346.525 102.710,346.631 102.817,346.776 102.873 C 346.922 102.929,347.041 103.115,347.041 103.286 C 347.041 103.458,347.199 103.639,347.391 103.690 C 347.645 103.756,347.742 103.929,347.742 104.312 C 347.742 104.689,347.844 104.875,348.093 104.954 C 348.286 105.015,348.444 105.135,348.444 105.220 C 348.444 105.452,349.244 106.269,349.472 106.269 C 349.582 106.269,349.671 106.430,349.671 106.627 C 349.671 107.096,350.944 108.374,351.411 108.374 C 351.651 108.374,351.776 108.486,351.776 108.704 C 351.776 108.892,351.934 109.076,352.144 109.130 C 352.347 109.183,352.460 109.311,352.397 109.414 C 352.330 109.522,352.425 109.601,352.622 109.601 C 352.815 109.601,353.002 109.753,353.054 109.952 C 353.137 110.271,353.522 110.398,354.168 110.320 C 354.278 110.307,354.357 110.433,354.343 110.600 C 354.326 110.807,354.483 110.934,354.834 110.998 C 355.118 111.049,355.335 111.171,355.317 111.267 C 355.298 111.363,355.355 111.442,355.444 111.442 C 355.532 111.442,355.663 111.502,355.736 111.574 C 355.808 111.646,356.051 111.705,356.276 111.705 C 356.519 111.705,356.686 111.810,356.686 111.962 C 356.686 112.138,356.961 112.256,357.555 112.335 C 358.053 112.401,358.409 112.535,358.388 112.648 C 358.364 112.777,358.822 112.863,359.711 112.896 C 360.926 112.942,361.070 112.984,361.070 113.291 C 361.070 113.624,361.224 113.634,366.331 113.634 C 371.474 113.634,371.591 113.627,371.591 113.284 C 371.591 112.964,371.708 112.933,372.907 112.933 C 373.959 112.933,374.222 112.880,374.222 112.670 C 374.222 112.509,374.386 112.407,374.646 112.407 C 375.251 112.407,375.625 112.232,375.625 111.950 C 375.625 111.736,376.411 111.601,376.788 111.749 C 376.850 111.773,376.965 111.616,377.046 111.399 C 377.153 111.108,377.332 111.004,377.723 111.004 C 378.138 111.004,378.255 110.927,378.255 110.653 C 378.255 110.419,378.372 110.302,378.606 110.302 C 378.840 110.302,378.957 110.186,378.957 109.952 C 378.957 109.668,379.074 109.601,379.570 109.601 C 379.908 109.601,380.184 109.520,380.184 109.421 C 380.184 109.323,380.381 109.167,380.623 109.075 C 380.864 108.983,381.061 108.788,381.061 108.641 C 381.061 108.494,381.179 108.374,381.324 108.374 C 381.470 108.374,381.587 108.218,381.587 108.023 C 381.587 107.830,381.646 107.681,381.719 107.693 C 382.106 107.754,382.288 107.635,382.288 107.321 C 382.288 107.088,382.405 106.971,382.639 106.971 C 382.873 106.971,382.990 106.854,382.990 106.620 C 382.990 106.386,383.107 106.269,383.341 106.269 C 383.534 106.269,383.691 106.183,383.691 106.078 C 383.691 105.973,383.849 105.756,384.041 105.596 C 384.233 105.436,384.421 105.107,384.459 104.866 C 384.497 104.625,384.616 104.448,384.724 104.472 C 384.831 104.496,384.919 104.327,384.919 104.098 C 384.919 103.827,385.043 103.647,385.270 103.588 C 385.524 103.521,385.620 103.349,385.620 102.960 C 385.620 102.603,385.738 102.361,385.971 102.236 C 386.196 102.116,386.322 101.869,386.322 101.549 C 386.322 101.197,386.425 101.022,386.673 100.958 C 386.961 100.882,387.023 100.718,387.023 100.036 C 387.023 99.448,387.113 99.140,387.330 98.981 C 387.672 98.731,387.672 98.731,387.703 97.491 C 387.715 97.003,387.795 96.647,387.880 96.700 C 387.966 96.752,388.083 96.619,388.141 96.403 C 388.334 95.683,388.266 54.011,388.072 54.011 C 387.973 54.011,387.803 53.814,387.693 53.573 C 387.583 53.332,387.393 53.135,387.270 53.135 C 387.147 53.135,386.997 52.977,386.936 52.784 C 386.844 52.496,386.670 52.433,385.959 52.433 C 385.315 52.433,385.094 52.367,385.094 52.176 C 385.094 52.007,384.993 51.957,384.802 52.030 C 384.636 52.094,384.555 52.070,384.614 51.974 C 384.671 51.882,384.570 51.807,384.388 51.807 C 384.207 51.807,384.093 51.841,384.135 51.883 M225.150 70.171 C 225.052 70.355,224.899 70.460,224.811 70.406 C 224.722 70.351,224.549 70.467,224.427 70.664 C 224.304 70.861,224.104 71.021,223.982 71.021 C 223.861 71.021,223.762 71.219,223.762 71.460 C 223.762 71.716,223.661 71.898,223.519 71.898 C 223.385 71.898,223.228 72.076,223.170 72.293 C 223.016 72.861,223.041 111.532,223.195 111.508 C 223.569 111.451,223.762 111.562,223.765 111.837 C 223.769 112.324,224.536 112.933,225.145 112.933 C 225.582 112.933,225.690 113.006,225.690 113.302 C 225.690 113.799,228.498 113.754,228.883 113.251 C 229.008 113.088,229.347 112.930,229.636 112.900 C 230.084 112.853,230.170 112.763,230.216 112.293 C 230.252 111.922,230.381 111.712,230.610 111.652 C 230.944 111.565,230.951 111.298,230.951 99.241 C 230.951 87.826,230.974 86.895,231.253 86.585 C 231.553 86.254,231.606 85.894,231.637 83.954 C 231.651 83.068,231.695 82.946,232.004 82.946 C 232.287 82.946,232.354 82.829,232.354 82.332 C 232.354 81.936,232.438 81.719,232.589 81.719 C 232.718 81.719,232.916 81.517,233.028 81.270 C 233.141 81.024,233.311 80.871,233.407 80.930 C 233.505 80.990,233.582 80.851,233.582 80.616 C 233.582 80.155,234.070 79.614,234.486 79.614 C 234.630 79.614,234.973 79.344,235.249 79.014 C 235.560 78.640,235.969 78.373,236.331 78.305 C 236.674 78.240,236.914 78.090,236.914 77.940 C 236.914 77.755,237.129 77.685,237.703 77.685 C 238.736 77.685,238.718 77.690,238.984 77.311 C 239.340 76.802,242.275 76.823,242.438 77.335 C 242.530 77.626,242.703 77.685,243.459 77.685 C 244.180 77.685,244.416 77.758,244.589 78.036 C 244.709 78.229,244.961 78.387,245.148 78.387 C 245.524 78.387,246.383 79.102,246.383 79.415 C 246.383 79.525,246.541 79.614,246.734 79.614 C 246.968 79.614,247.085 79.731,247.085 79.965 C 247.085 80.199,247.202 80.316,247.435 80.316 C 247.657 80.316,247.786 80.433,247.786 80.633 C 247.786 80.807,247.902 81.103,248.044 81.290 C 248.185 81.478,248.303 81.769,248.307 81.938 C 248.310 82.107,248.470 82.402,248.663 82.595 C 248.897 82.829,249.014 83.180,249.014 83.648 C 249.014 84.033,249.097 84.349,249.199 84.349 C 249.301 84.349,249.336 84.428,249.276 84.526 C 249.216 84.623,249.290 84.750,249.441 84.807 C 249.686 84.901,249.715 86.303,249.718 98.090 C 249.720 110.641,249.768 111.910,250.222 111.630 C 250.342 111.556,250.416 111.655,250.416 111.887 C 250.416 112.117,250.554 112.300,250.767 112.356 C 250.960 112.406,251.118 112.557,251.118 112.690 C 251.118 112.851,251.326 112.933,251.732 112.933 C 252.229 112.933,252.345 113.000,252.345 113.284 C 252.345 113.607,252.462 113.634,253.852 113.634 C 255.212 113.634,255.368 113.600,255.451 113.284 C 255.512 113.050,255.690 112.933,255.984 112.933 C 256.444 112.933,257.080 112.354,257.080 111.936 C 257.080 111.803,257.199 111.649,257.343 111.593 C 257.574 111.505,257.606 109.970,257.606 99.250 C 257.606 87.409,257.637 86.343,257.975 86.552 C 258.062 86.606,258.142 86.369,258.154 86.025 C 258.166 85.682,258.196 85.322,258.220 85.226 C 258.244 85.129,258.274 84.586,258.286 84.019 C 258.304 83.145,258.361 82.973,258.658 82.895 C 258.910 82.829,259.009 82.656,259.009 82.280 C 259.009 81.992,259.119 81.714,259.253 81.663 C 259.473 81.578,259.697 81.225,260.304 80.010 C 260.411 79.794,260.622 79.616,260.772 79.616 C 260.922 79.615,261.347 79.338,261.715 79.000 C 262.084 78.663,262.518 78.387,262.681 78.387 C 262.843 78.387,263.146 78.229,263.353 78.036 C 263.626 77.781,263.972 77.685,264.613 77.685 C 265.443 77.685,265.593 77.590,265.518 77.115 C 265.466 76.786,268.506 76.980,268.957 77.335 C 269.228 77.548,269.668 77.685,270.081 77.685 C 270.564 77.685,270.758 77.760,270.758 77.946 C 270.758 78.115,271.005 78.247,271.454 78.318 C 271.915 78.392,272.242 78.572,272.426 78.852 C 272.578 79.085,272.778 79.228,272.870 79.171 C 272.963 79.114,273.038 79.190,273.038 79.341 C 273.038 79.497,273.188 79.614,273.389 79.614 C 273.623 79.614,273.740 79.731,273.740 79.965 C 273.740 80.189,273.856 80.316,274.064 80.316 C 274.307 80.316,274.392 80.454,274.403 80.873 C 274.412 81.181,274.541 81.498,274.693 81.583 C 274.844 81.667,274.967 81.883,274.967 82.064 C 274.967 82.578,275.158 82.946,275.424 82.946 C 275.606 82.946,275.674 83.239,275.690 84.086 C 275.716 85.395,275.719 85.422,275.887 85.686 C 275.957 85.795,275.985 86.211,275.951 86.611 C 275.918 87.011,275.971 87.388,276.069 87.449 C 276.168 87.510,276.196 87.474,276.131 87.369 C 276.067 87.265,276.077 87.140,276.155 87.092 C 276.232 87.044,276.311 87.192,276.330 87.422 C 276.349 87.651,276.287 87.887,276.192 87.946 C 275.953 88.093,275.955 109.776,276.195 109.776 C 276.291 109.776,276.370 110.182,276.370 110.677 C 276.370 111.412,276.450 111.652,276.808 111.984 C 277.050 112.207,277.247 112.464,277.247 112.555 C 277.247 112.765,277.681 112.933,278.226 112.933 C 278.493 112.933,278.650 113.034,278.650 113.206 C 278.650 113.357,278.723 113.434,278.813 113.379 C 278.903 113.323,279.026 113.358,279.086 113.456 C 279.318 113.831,281.631 113.674,281.631 113.284 C 281.631 113.000,281.748 112.933,282.238 112.933 C 282.669 112.933,282.901 112.830,283.036 112.577 C 283.141 112.382,283.298 112.266,283.386 112.320 C 284.250 112.854,284.865 84.802,284.008 83.946 C 283.852 83.789,283.740 83.270,283.715 82.588 C 283.687 81.790,283.586 81.394,283.355 81.163 C 283.177 80.985,283.033 80.588,283.031 80.272 C 283.028 79.383,282.845 78.880,282.565 78.988 C 282.429 79.040,282.331 78.985,282.346 78.866 C 282.430 78.213,282.303 77.820,281.982 77.736 C 281.730 77.670,281.631 77.497,281.631 77.122 C 281.631 76.748,281.532 76.574,281.280 76.509 C 281.064 76.452,280.929 76.269,280.929 76.032 C 280.929 75.820,280.772 75.478,280.579 75.271 C 280.386 75.064,280.227 74.832,280.225 74.755 C 280.220 74.549,279.420 73.827,279.195 73.827 C 279.088 73.827,279.000 73.669,279.000 73.477 C 279.000 73.247,278.884 73.126,278.662 73.126 C 278.475 73.126,278.273 72.968,278.211 72.775 C 278.116 72.474,277.709 72.324,277.203 72.404 C 277.131 72.415,277.071 72.267,277.071 72.074 C 277.071 71.816,276.955 71.723,276.633 71.723 C 276.371 71.723,276.195 71.623,276.195 71.474 C 276.195 71.337,275.950 71.171,275.651 71.105 C 275.352 71.040,274.957 70.836,274.774 70.653 C 274.561 70.440,274.195 70.320,273.758 70.320 C 273.313 70.320,273.041 70.228,272.975 70.057 C 272.888 69.832,272.148 69.794,267.795 69.794 C 263.515 69.794,262.676 69.835,262.454 70.057 C 262.309 70.202,261.951 70.320,261.658 70.320 C 261.305 70.320,261.063 70.438,260.938 70.671 C 260.815 70.900,260.571 71.021,260.231 71.021 C 259.944 71.021,259.553 71.179,259.360 71.372 C 259.167 71.565,258.906 71.723,258.779 71.723 C 258.653 71.723,258.380 71.881,258.173 72.074 C 257.966 72.267,257.635 72.424,257.438 72.424 C 257.197 72.424,257.080 72.539,257.080 72.775 C 257.080 73.009,256.963 73.126,256.730 73.126 C 256.537 73.126,256.379 73.215,256.379 73.325 C 256.379 73.559,255.559 74.353,255.318 74.353 C 255.226 74.353,255.151 74.474,255.151 74.622 C 255.151 74.770,255.026 74.938,254.874 74.997 C 254.721 75.056,254.529 75.270,254.446 75.474 L 254.297 75.844 254.286 75.470 C 254.279 75.243,254.130 75.058,253.906 74.999 C 253.703 74.946,253.583 74.830,253.638 74.742 C 253.692 74.653,253.538 74.489,253.295 74.378 C 253.051 74.267,252.895 74.107,252.947 74.022 C 253.000 73.937,252.886 73.826,252.694 73.776 C 252.502 73.726,252.345 73.559,252.345 73.405 C 252.345 73.243,252.199 73.126,251.995 73.126 C 251.761 73.126,251.644 73.009,251.644 72.775 C 251.644 72.514,251.527 72.424,251.187 72.424 C 250.853 72.424,250.757 72.353,250.830 72.162 C 250.905 71.967,250.755 71.873,250.235 71.789 C 249.712 71.706,249.540 71.597,249.540 71.350 C 249.540 71.169,249.480 71.031,249.408 71.042 C 248.873 71.127,248.312 70.986,248.312 70.766 C 248.312 70.608,248.063 70.470,247.655 70.402 C 247.293 70.342,246.760 70.175,246.471 70.030 C 245.767 69.679,236.199 69.744,236.081 70.101 C 236.040 70.221,235.790 70.320,235.523 70.320 C 235.257 70.320,234.896 70.478,234.722 70.671 C 234.547 70.864,234.184 71.021,233.915 71.021 C 233.631 71.021,233.327 71.163,233.189 71.360 C 233.059 71.546,232.739 71.752,232.478 71.817 C 232.217 71.883,232.004 72.008,232.004 72.096 C 232.004 72.184,231.809 72.345,231.571 72.454 C 231.333 72.562,231.176 72.713,231.223 72.789 C 231.270 72.864,231.228 72.976,231.130 73.036 C 231.021 73.103,230.951 72.895,230.951 72.506 C 230.951 72.013,230.871 71.844,230.601 71.774 C 230.407 71.723,230.250 71.535,230.250 71.352 C 230.250 71.170,230.151 71.021,230.029 71.021 C 229.908 71.021,229.710 70.864,229.589 70.671 C 229.469 70.478,229.261 70.320,229.127 70.320 C 228.994 70.320,228.838 70.198,228.781 70.050 C 228.611 69.607,225.395 69.714,225.150 70.171 M308.877 70.005 C 308.799 70.132,308.843 70.150,309.004 70.056 C 309.150 69.971,309.191 69.978,309.104 70.073 C 309.024 70.161,308.905 70.237,308.841 70.243 C 308.117 70.307,307.207 70.571,307.102 70.748 C 307.030 70.870,306.622 71.015,306.196 71.071 C 305.759 71.127,305.353 71.292,305.266 71.447 C 305.171 71.617,304.873 71.723,304.490 71.723 C 304.028 71.723,303.847 71.808,303.782 72.055 C 303.732 72.248,303.482 72.429,303.185 72.489 C 302.889 72.548,302.674 72.703,302.674 72.858 C 302.674 73.024,302.514 73.126,302.255 73.126 C 302.024 73.126,301.790 73.244,301.734 73.389 C 301.679 73.534,301.512 73.652,301.365 73.652 C 301.213 73.652,301.096 73.805,301.096 74.003 C 301.096 74.233,300.979 74.353,300.756 74.353 C 300.568 74.353,300.366 74.434,300.305 74.532 C 300.245 74.630,300.122 74.665,300.034 74.610 C 299.945 74.555,299.919 74.633,299.977 74.783 C 300.050 74.972,299.976 75.055,299.732 75.055 C 299.540 75.055,299.252 75.255,299.092 75.499 C 298.932 75.743,298.725 75.896,298.633 75.839 C 298.541 75.782,298.466 75.859,298.466 76.011 C 298.466 76.162,298.308 76.421,298.115 76.586 C 297.922 76.751,297.764 77.057,297.764 77.265 C 297.764 77.497,297.628 77.680,297.413 77.736 C 297.221 77.786,297.063 77.954,297.063 78.107 C 297.063 78.261,296.942 78.387,296.795 78.387 C 296.648 78.387,296.453 78.584,296.361 78.825 C 296.270 79.066,296.114 79.263,296.015 79.263 C 295.916 79.263,295.835 79.421,295.835 79.614 C 295.835 79.807,295.670 80.131,295.467 80.333 C 295.265 80.535,295.079 80.885,295.054 81.109 C 295.030 81.334,294.880 81.647,294.721 81.806 C 294.538 81.989,294.432 82.385,294.432 82.887 C 294.432 83.533,294.367 83.697,294.082 83.772 C 293.792 83.848,293.731 84.011,293.731 84.714 C 293.731 85.385,293.657 85.604,293.380 85.752 C 293.075 85.915,293.029 86.119,293.029 87.326 C 293.029 88.088,292.949 88.762,292.851 88.822 C 292.753 88.883,292.715 89.001,292.766 89.084 C 292.818 89.167,292.780 89.284,292.682 89.345 C 292.583 89.406,292.503 89.534,292.503 89.631 C 292.503 89.727,292.602 89.747,292.722 89.674 C 292.891 89.573,292.896 89.601,292.742 89.795 C 292.435 90.183,292.525 93.330,292.854 93.748 C 293.097 94.056,293.094 94.063,292.810 93.841 C 292.545 93.633,292.503 93.639,292.503 93.890 C 292.503 94.050,292.622 94.226,292.766 94.281 C 292.969 94.359,293.029 94.696,293.029 95.752 C 293.029 97.273,293.125 97.676,293.487 97.676 C 293.666 97.676,293.731 97.933,293.731 98.641 C 293.731 99.489,293.773 99.605,294.082 99.605 C 294.385 99.605,294.432 99.722,294.432 100.474 C 294.432 101.046,294.518 101.390,294.684 101.483 C 294.823 101.560,294.979 101.860,295.031 102.148 C 295.083 102.437,295.236 102.754,295.370 102.852 C 295.504 102.950,295.670 103.285,295.738 103.596 C 295.807 103.908,295.961 104.222,296.081 104.295 C 296.202 104.368,296.351 104.566,296.413 104.735 C 296.475 104.904,296.646 105.042,296.794 105.042 C 296.948 105.042,297.063 105.195,297.063 105.399 C 297.063 105.596,297.365 106.050,297.735 106.408 C 298.105 106.766,298.457 107.196,298.519 107.365 C 298.580 107.534,298.751 107.672,298.898 107.672 C 299.046 107.672,299.167 107.790,299.167 107.935 C 299.167 108.080,299.256 108.198,299.366 108.198 C 299.475 108.198,299.827 108.477,300.148 108.818 C 300.470 109.159,300.773 109.442,300.823 109.447 C 301.289 109.496,301.628 109.695,301.716 109.971 C 301.774 110.153,301.970 110.302,302.151 110.302 C 302.333 110.302,302.549 110.424,302.632 110.572 C 302.715 110.720,303.015 110.903,303.298 110.979 C 303.582 111.055,303.788 111.181,303.755 111.260 C 303.665 111.479,304.110 111.700,304.647 111.703 C 304.948 111.704,305.129 111.800,305.129 111.958 C 305.129 112.122,305.403 112.251,305.913 112.327 C 306.344 112.392,306.787 112.555,306.899 112.689 C 307.036 112.855,307.493 112.933,308.324 112.933 C 309.399 112.933,309.557 112.975,309.638 113.284 C 309.724 113.614,309.877 113.634,312.217 113.634 C 313.774 113.634,314.775 113.706,314.895 113.825 C 315.032 113.962,315.118 113.962,315.203 113.825 C 315.279 113.702,316.194 113.634,317.766 113.634 C 320.176 113.634,320.316 113.602,320.231 113.064 C 320.220 112.992,320.774 112.933,321.462 112.933 C 322.363 112.933,322.769 112.860,322.909 112.674 C 323.016 112.531,323.360 112.396,323.674 112.373 C 324.025 112.348,324.279 112.221,324.336 112.041 C 324.395 111.856,324.694 111.715,325.163 111.652 C 325.567 111.598,325.988 111.430,326.098 111.279 C 326.209 111.128,326.459 111.004,326.654 111.004 C 326.861 111.004,327.047 110.858,327.100 110.653 C 327.163 110.412,327.340 110.302,327.663 110.302 C 327.987 110.302,328.163 110.193,328.226 109.952 C 328.277 109.758,328.465 109.601,328.648 109.601 C 328.830 109.601,328.979 109.488,328.979 109.350 C 328.979 109.212,329.136 109.049,329.329 108.987 C 329.522 108.926,329.680 108.763,329.680 108.625 C 329.680 108.487,329.802 108.374,329.951 108.374 C 330.259 108.374,331.069 107.522,331.077 107.190 C 331.080 107.069,331.201 106.971,331.346 106.971 C 331.492 106.971,331.609 106.815,331.609 106.620 C 331.609 106.386,331.726 106.269,331.960 106.269 C 332.153 106.269,332.310 106.170,332.310 106.048 C 332.310 105.927,332.468 105.729,332.661 105.608 C 332.854 105.488,333.012 105.272,333.012 105.128 C 333.012 104.984,333.127 104.866,333.267 104.866 C 333.418 104.866,333.568 104.623,333.634 104.269 C 333.706 103.888,333.868 103.639,334.080 103.584 C 334.315 103.522,334.415 103.340,334.415 102.972 C 334.415 102.669,334.525 102.406,334.678 102.348 C 334.846 102.283,334.941 102.013,334.941 101.598 C 334.941 101.242,334.993 101.002,335.056 101.065 C 335.314 101.323,335.642 100.745,335.642 100.032 C 335.642 99.481,335.735 99.210,335.983 99.036 C 336.243 98.854,336.337 98.548,336.378 97.754 C 336.407 97.181,336.507 96.738,336.600 96.769 C 337.031 96.914,337.299 87.508,336.872 87.244 C 336.771 87.181,336.734 87.057,336.790 86.966 C 336.846 86.876,336.769 86.754,336.618 86.696 C 336.431 86.625,336.343 86.360,336.341 85.865 C 336.338 84.883,336.177 84.349,335.885 84.349 C 335.708 84.349,335.642 84.089,335.642 83.384 C 335.642 82.537,335.600 82.420,335.292 82.420 C 335.010 82.420,334.941 82.303,334.941 81.825 C 334.941 81.468,334.839 81.191,334.687 81.133 C 334.548 81.079,334.381 80.755,334.317 80.413 C 334.250 80.054,334.097 79.790,333.957 79.790 C 333.823 79.790,333.713 79.686,333.713 79.560 C 333.713 79.433,333.568 79.174,333.391 78.984 C 333.214 78.794,333.015 78.424,332.949 78.162 C 332.884 77.900,332.722 77.685,332.591 77.685 C 332.459 77.685,332.308 77.519,332.255 77.317 C 332.198 77.099,332.077 76.999,331.960 77.071 C 331.842 77.144,331.721 77.044,331.664 76.826 C 331.611 76.623,331.459 76.458,331.325 76.458 C 331.110 76.458,331.054 76.348,331.095 76.007 C 331.116 75.825,330.193 75.055,329.954 75.055 C 329.826 75.055,329.680 74.897,329.629 74.704 C 329.579 74.511,329.412 74.353,329.258 74.353 C 329.104 74.353,328.979 74.248,328.979 74.118 C 328.979 73.989,328.781 73.794,328.540 73.684 C 328.299 73.574,328.102 73.403,328.102 73.305 C 328.102 73.206,328.043 73.135,327.970 73.147 C 327.465 73.226,327.078 73.078,326.999 72.775 C 326.939 72.545,326.760 72.424,326.479 72.424 C 326.244 72.424,325.913 72.271,325.743 72.084 C 325.574 71.896,325.243 71.719,325.009 71.689 C 324.775 71.659,324.593 71.565,324.604 71.479 C 324.639 71.214,324.185 71.027,323.498 71.024 C 323.055 71.022,322.841 70.942,322.841 70.777 C 322.841 70.464,322.457 70.320,321.620 70.320 C 321.238 70.320,320.860 70.206,320.733 70.053 C 320.453 69.715,309.085 69.669,308.877 70.005 M317.843 77.335 C 317.934 77.621,318.108 77.685,318.792 77.685 C 319.407 77.685,319.714 77.778,319.947 78.036 C 320.172 78.284,320.487 78.387,321.027 78.387 C 321.679 78.387,321.789 78.439,321.789 78.748 C 321.789 78.946,321.858 79.066,321.943 79.013 C 322.029 78.961,322.297 79.074,322.541 79.266 C 322.785 79.457,323.149 79.614,323.351 79.614 C 323.601 79.614,323.718 79.726,323.718 79.965 C 323.718 80.199,323.835 80.316,324.068 80.316 C 324.302 80.316,324.419 80.433,324.419 80.666 C 324.419 80.900,324.536 81.017,324.770 81.017 C 324.963 81.017,325.121 81.132,325.121 81.271 C 325.121 81.411,325.227 81.589,325.358 81.666 C 325.489 81.743,325.690 81.986,325.805 82.206 C 325.921 82.425,326.086 82.561,326.173 82.508 C 326.259 82.454,326.383 82.689,326.446 83.029 C 326.513 83.384,326.666 83.648,326.806 83.648 C 326.940 83.648,327.050 83.776,327.050 83.934 C 327.050 84.091,327.202 84.352,327.388 84.513 C 327.588 84.687,327.749 85.089,327.782 85.498 C 327.821 85.971,327.922 86.190,328.102 86.190 C 328.276 86.190,328.381 86.396,328.412 86.804 C 328.487 87.775,328.624 88.230,328.808 88.116 C 329.112 87.928,329.017 95.068,328.710 95.474 C 328.568 95.661,328.452 96.110,328.452 96.471 C 328.452 96.970,328.370 97.153,328.105 97.237 C 327.914 97.298,327.766 97.401,327.775 97.468 C 327.853 98.014,327.716 98.721,327.540 98.685 C 327.424 98.661,327.318 98.720,327.305 98.816 C 327.260 99.163,326.983 99.672,326.668 99.987 C 326.492 100.163,326.348 100.428,326.348 100.575 C 326.348 100.723,326.072 101.097,325.734 101.407 C 325.397 101.717,325.121 102.070,325.121 102.191 C 325.121 102.312,324.963 102.411,324.770 102.411 C 324.536 102.411,324.419 102.528,324.419 102.762 C 324.419 102.960,324.302 103.113,324.151 103.113 C 324.003 103.113,323.839 103.226,323.786 103.363 C 323.733 103.501,323.459 103.695,323.178 103.793 C 322.896 103.891,322.665 104.054,322.665 104.156 C 322.665 104.257,322.468 104.340,322.227 104.340 C 321.986 104.340,321.788 104.399,321.787 104.472 C 321.786 104.626,320.939 105.042,320.626 105.042 C 320.507 105.042,320.359 105.199,320.298 105.392 C 320.212 105.663,320.033 105.743,319.512 105.743 C 318.750 105.743,318.245 105.892,318.362 106.083 C 318.406 106.153,318.326 106.211,318.186 106.211 C 318.046 106.211,317.928 106.125,317.925 106.021 C 317.922 105.916,317.838 105.971,317.738 106.143 C 317.419 106.691,311.438 106.538,311.647 105.987 C 311.679 105.901,311.260 105.807,310.715 105.779 C 309.906 105.736,309.709 105.664,309.636 105.384 C 309.568 105.125,309.394 105.042,308.916 105.042 C 308.481 105.042,308.286 104.962,308.286 104.787 C 308.286 104.634,308.039 104.485,307.672 104.416 C 307.321 104.350,307.058 104.197,307.058 104.058 C 307.058 103.924,306.943 103.814,306.801 103.814 C 306.660 103.814,306.460 103.656,306.357 103.463 C 306.254 103.270,306.103 103.113,306.022 103.113 C 305.814 103.113,304.253 101.594,304.253 101.392 C 304.253 101.300,304.087 101.181,303.884 101.128 C 303.682 101.075,303.565 100.952,303.626 100.854 C 303.687 100.755,303.576 100.590,303.381 100.485 C 303.185 100.380,303.025 100.132,303.025 99.934 C 303.025 99.736,302.868 99.443,302.676 99.283 C 302.483 99.121,302.310 98.738,302.288 98.422 C 302.260 98.006,302.164 97.852,301.936 97.852 C 301.687 97.852,301.622 97.707,301.622 97.150 C 301.622 96.566,301.564 96.449,301.271 96.449 C 300.929 96.449,300.921 96.332,300.921 91.714 C 300.921 87.096,300.929 86.979,301.271 86.979 C 301.557 86.979,301.622 86.862,301.622 86.349 C 301.622 85.867,301.704 85.698,301.973 85.627 C 302.230 85.560,302.324 85.388,302.324 84.984 C 302.324 84.623,302.444 84.358,302.674 84.214 C 302.898 84.075,303.025 83.805,303.025 83.471 C 303.025 83.121,303.113 82.946,303.288 82.946 C 303.433 82.946,303.551 82.830,303.551 82.689 C 303.551 82.548,303.709 82.348,303.902 82.245 C 304.095 82.141,304.253 81.941,304.253 81.800 C 304.253 81.659,304.312 81.553,304.384 81.564 C 304.705 81.615,304.954 81.529,304.954 81.369 C 304.954 81.161,305.995 80.140,306.208 80.140 C 306.290 80.140,306.337 80.052,306.313 79.944 C 306.289 79.836,306.541 79.653,306.872 79.537 C 307.204 79.422,307.507 79.234,307.545 79.120 C 307.583 79.006,307.721 78.913,307.853 78.913 C 307.985 78.913,308.157 78.798,308.236 78.658 C 308.314 78.518,308.673 78.383,309.033 78.359 C 309.394 78.335,309.689 78.252,309.689 78.175 C 309.689 78.099,309.801 78.036,309.937 78.036 C 310.074 78.036,310.212 77.958,310.244 77.863 C 310.276 77.768,310.677 77.677,311.135 77.660 C 311.594 77.642,311.968 77.558,311.968 77.471 C 311.968 77.385,312.047 77.363,312.144 77.422 C 312.240 77.482,312.319 77.408,312.319 77.257 C 312.319 76.780,317.691 76.855,317.843 77.335 M369.136 77.228 C 369.136 77.548,369.523 77.685,370.424 77.685 C 370.959 77.685,371.214 77.777,371.369 78.026 C 371.514 78.258,371.820 78.383,372.332 78.420 C 372.784 78.453,373.067 78.555,373.043 78.678 C 373.022 78.790,373.239 78.964,373.526 79.064 C 373.812 79.164,374.046 79.328,374.046 79.430 C 374.046 79.531,374.251 79.614,374.501 79.614 C 374.809 79.614,374.986 79.728,375.048 79.965 C 375.098 80.158,375.243 80.316,375.370 80.316 C 375.497 80.316,375.651 80.473,375.712 80.666 C 375.774 80.859,375.937 81.017,376.075 81.017 C 376.213 81.017,376.326 81.143,376.326 81.297 C 376.326 81.450,376.467 81.613,376.639 81.658 C 376.811 81.703,377.054 81.972,377.180 82.256 C 377.306 82.540,377.481 82.728,377.569 82.674 C 377.657 82.619,377.729 82.771,377.729 83.012 C 377.729 83.295,377.853 83.488,378.080 83.560 C 378.273 83.621,378.431 83.818,378.431 83.998 C 378.431 84.177,378.549 84.442,378.694 84.587 C 378.912 84.806,379.042 85.281,379.120 86.146 C 379.127 86.219,379.250 86.278,379.395 86.278 C 379.590 86.278,379.658 86.483,379.658 87.067 C 379.658 87.622,379.762 87.960,380.009 88.207 C 380.512 88.710,380.549 94.821,380.053 95.400 C 379.724 95.784,379.713 95.820,379.680 96.624 C 379.666 96.965,379.565 97.150,379.395 97.150 C 379.250 97.150,379.126 97.249,379.119 97.370 C 379.084 97.962,378.930 98.430,378.693 98.667 C 378.548 98.811,378.431 99.121,378.431 99.355 C 378.431 99.608,378.328 99.781,378.179 99.781 C 377.956 99.781,377.688 100.262,377.642 100.745 C 377.633 100.842,377.532 100.901,377.417 100.878 C 377.303 100.854,377.160 101.032,377.099 101.272 C 377.039 101.513,376.880 101.710,376.746 101.710 C 376.611 101.710,376.502 101.830,376.502 101.977 C 376.502 102.124,376.304 102.320,376.063 102.411 C 375.822 102.503,375.625 102.690,375.625 102.826 C 375.625 102.963,375.427 103.124,375.186 103.185 C 374.945 103.245,374.748 103.363,374.748 103.445 C 374.748 103.528,374.511 103.694,374.222 103.814 C 373.932 103.934,373.696 104.101,373.696 104.186 C 373.696 104.271,373.580 104.340,373.440 104.340 C 373.299 104.340,373.042 104.488,372.870 104.668 C 372.697 104.848,372.268 105.047,371.915 105.111 C 371.563 105.174,371.230 105.343,371.175 105.485 C 371.111 105.652,370.831 105.743,370.380 105.743 C 369.997 105.743,369.634 105.822,369.575 105.918 C 369.515 106.015,369.313 106.094,369.126 106.094 C 368.939 106.094,368.786 106.173,368.786 106.269 C 368.786 106.534,363.827 106.501,363.560 106.234 C 363.444 106.118,363.349 106.083,363.349 106.156 C 363.349 106.229,363.174 106.166,362.960 106.016 C 362.745 105.866,362.251 105.743,361.862 105.743 C 361.344 105.743,361.095 105.649,360.935 105.392 C 360.795 105.169,360.526 105.042,360.191 105.042 C 359.879 105.042,359.667 104.950,359.667 104.815 C 359.667 104.690,359.410 104.512,359.097 104.418 C 358.777 104.323,358.548 104.148,358.575 104.018 C 358.602 103.892,358.552 103.832,358.465 103.886 C 358.378 103.940,358.119 103.801,357.891 103.578 C 357.662 103.355,357.332 103.120,357.157 103.056 C 356.982 102.992,356.891 102.855,356.955 102.751 C 357.020 102.647,356.910 102.521,356.709 102.468 C 356.510 102.416,356.300 102.228,356.244 102.051 C 356.188 101.873,356.037 101.768,355.909 101.817 C 355.767 101.872,355.633 101.732,355.564 101.457 C 355.502 101.210,355.335 101.008,355.192 101.008 C 355.049 101.008,354.932 100.907,354.932 100.784 C 354.932 100.661,354.774 100.425,354.581 100.260 C 354.388 100.095,354.231 99.762,354.231 99.519 C 354.231 99.261,354.140 99.097,354.011 99.123 C 353.884 99.149,353.767 98.946,353.733 98.641 C 353.666 98.046,353.391 97.633,353.159 97.776 C 353.073 97.829,353.003 97.552,353.003 97.161 C 353.003 96.566,352.945 96.449,352.652 96.449 C 352.310 96.449,352.302 96.332,352.302 91.714 C 352.302 87.096,352.310 86.979,352.652 86.979 C 352.932 86.979,353.003 86.862,353.003 86.405 C 353.003 86.047,353.135 85.716,353.354 85.530 C 353.547 85.364,353.705 85.029,353.705 84.784 C 353.705 84.538,353.821 84.293,353.963 84.239 C 354.105 84.184,354.271 83.871,354.333 83.543 C 354.397 83.204,354.550 82.946,354.689 82.946 C 354.822 82.946,354.932 82.788,354.932 82.595 C 354.932 82.397,355.049 82.245,355.201 82.245 C 355.348 82.245,355.520 82.113,355.582 81.951 C 355.725 81.578,356.282 81.017,356.509 81.017 C 356.604 81.017,356.781 80.859,356.902 80.666 C 357.022 80.473,357.220 80.316,357.342 80.316 C 357.463 80.316,357.562 80.195,357.562 80.047 C 357.562 79.786,358.236 79.413,358.465 79.546 C 358.527 79.582,358.623 79.494,358.678 79.350 C 358.734 79.206,358.947 79.088,359.152 79.088 C 359.377 79.088,359.561 78.949,359.616 78.737 C 359.684 78.479,359.855 78.387,360.268 78.387 C 360.586 78.387,360.991 78.235,361.205 78.036 C 361.473 77.786,361.824 77.685,362.423 77.685 C 363.075 77.685,363.314 77.606,363.484 77.335 C 363.767 76.881,369.136 76.780,369.136 77.228 " stroke="none" fill="#1b96fe" fill-rule="evenodd"></path><path id="path4" d="" stroke="none" fill="#00ffff" fill-rule="evenodd"></path></g></svg>